<svg width="38" height="36" viewBox="0 0 38 36" fill="none" xmlns="http://www.w3.org/2000/svg">
<path d="M24.9906 25.1126C23.8473 25.6826 22.2627 25.9156 20.6799 25.7307C17.0465 25.3071 14.3966 23.4065 12.9432 20.0366C11.5126 16.7245 11.9007 13.499 13.9876 10.5277C14.8056 9.36462 14.8474 9.33959 16.1847 9.83063C23.1016 12.3648 28.3406 16.8881 31.6811 23.5297C32.4839 25.1241 32.9994 26.9111 33.3685 28.6693C33.9107 31.2554 33.4826 33.7491 31.8752 35.9906C32.0216 35.9906 32.0958 36.0098 32.151 35.9886C34.2702 35.1491 35.6475 33.6259 36.2943 31.4133C37.0172 28.9369 36.7318 26.501 36.0869 24.0631C35.9994 23.73 36.0203 23.2967 36.1554 22.9828C37.2397 20.4621 37.7248 17.8567 37.5422 15.0954C36.8383 4.53702 26.3622 -2.55515 16.4701 0.870584C15.9907 1.03619 15.5303 1.25957 14.9635 1.49449C15.1651 1.62159 15.2374 1.68513 15.3211 1.71594C18.3629 2.80971 21.0319 4.5428 23.5277 6.58206C23.7408 6.75537 24.0071 6.88439 24.2677 6.97104C27.6425 8.09369 29.8302 10.366 30.7908 13.836C30.8365 14.0016 30.8384 14.1807 30.8879 14.5523C30.5797 14.2192 30.4028 14.0382 30.2354 13.8475C26.8226 9.9558 22.8448 6.82084 18.1499 4.66604C15.0624 3.24876 11.8417 2.37644 8.41183 2.54975C2.98258 2.82512 -0.33889 6.57436 0.0263576 12.0509C0.306 16.2199 2.06565 19.8074 4.39601 23.1561C4.42264 23.1946 4.50064 23.1985 4.62619 23.2428C4.48542 22.9135 4.37699 22.6535 4.26475 22.3955C3.43533 20.4987 2.87034 18.5365 2.84371 16.4452C2.80376 13.2024 4.29328 10.7376 7.02313 9.58222C8.34905 9.02186 9.73965 8.80041 11.2025 8.91787C10.0402 9.36655 8.91214 9.76708 7.8145 10.2389C6.77012 10.6875 6.12332 11.479 6.00918 12.6748C5.9426 13.3623 5.7752 14.0401 5.70291 14.7276C4.66804 24.5002 13.0402 33.1599 22.7097 32.3569C24.6634 32.1951 26.5277 31.7464 28.2893 30.8934C28.8105 30.6411 29.0711 30.7509 29.3793 31.2073C30.0851 32.2529 30.8422 33.2619 31.5803 34.2825C31.7154 34.4693 31.8676 34.6407 32.113 34.9449C32.1909 34.5329 32.2861 34.2671 32.2861 33.9975C32.2956 32.4724 32.4192 30.9338 32.2537 29.426C31.8523 25.7789 30.631 22.4205 28.4129 19.4685C28.0667 19.0083 27.6938 18.8099 27.1098 18.8215C25.198 18.86 23.2861 18.835 21.3743 18.8369C21.1498 18.8369 20.9273 18.86 20.5563 18.8812C22.0725 21.0109 23.5125 23.0348 24.9906 25.1107V25.1126Z" fill="black"/>
<path d="M24.9906 25.1126C23.5125 23.0367 22.0725 21.0148 20.5563 18.8831C20.9273 18.8619 21.1517 18.8388 21.3743 18.8388C23.2861 18.8369 25.198 18.86 27.1098 18.8234C27.6957 18.8119 28.0686 19.0102 28.4129 19.4704C30.631 22.4225 31.8523 25.7808 32.2537 29.428C32.4192 30.9338 32.2956 32.4743 32.2861 33.9995C32.2861 34.2671 32.1909 34.5348 32.113 34.9469C31.8676 34.6426 31.7154 34.4693 31.5803 34.2845C30.8403 33.2639 30.0832 32.2548 29.3793 31.2092C29.0711 30.7528 28.8105 30.6431 28.2893 30.8953C26.5277 31.7484 24.6634 32.1971 22.7097 32.3588C13.0402 33.1618 4.66804 24.5022 5.70291 14.7295C5.7752 14.042 5.9426 13.3642 6.00918 12.6768C6.12523 11.4809 6.77012 10.6914 7.8145 10.2408C8.91214 9.76902 10.0421 9.36849 11.2025 8.91981C9.73965 8.80235 8.34905 9.0238 7.02313 9.58416C4.29328 10.7396 2.80376 13.2044 2.84371 16.4472C2.87034 18.5384 3.43533 20.5007 4.26475 22.3974C4.37699 22.6555 4.48732 22.9154 4.62619 23.2447C4.50064 23.2004 4.42264 23.1966 4.39601 23.1581C2.06756 19.8094 0.306 16.2199 0.0263576 12.0509C-0.33889 6.57437 2.98258 2.82513 8.41183 2.55169C11.8417 2.37838 15.0624 3.2507 18.1499 4.66798C22.8448 6.82278 26.8226 9.95774 30.2354 13.8495C30.4028 14.0401 30.5778 14.2211 30.8879 14.5543C30.8403 14.1826 30.8384 14.0035 30.7908 13.8379C29.8302 10.3698 27.6425 8.09564 24.2677 6.97298C24.0052 6.88633 23.7408 6.75731 23.5277 6.584C21.0319 4.54666 18.361 2.81166 15.3211 1.71789C15.2374 1.68708 15.1651 1.62353 14.9635 1.49644C15.5303 1.25958 15.9907 1.03813 16.4701 0.872527C26.3603 -2.5532 36.8383 4.53896 37.5403 15.0992C37.7248 17.8606 37.2397 20.466 36.1535 22.9867C36.0184 23.3006 35.9975 23.7338 36.085 24.067C36.7299 26.5048 37.0172 28.9408 36.2924 31.4172C35.6456 33.6297 34.2683 35.1529 32.1491 35.9925C32.092 36.0156 32.0197 35.9944 31.8733 35.9944C33.4807 33.753 33.9068 31.2593 33.3666 28.6731C32.9975 26.915 32.482 25.1261 31.6792 23.5336C28.3368 16.892 23.0978 12.3687 16.1828 9.8345C14.8455 9.34538 14.8037 9.36849 13.9857 10.5316C11.8988 13.5029 11.5126 16.7264 12.9413 20.0404C14.3947 23.4103 17.0446 25.3109 20.678 25.7346C22.2608 25.9194 23.8454 25.6864 24.9887 25.1164L24.9906 25.1126Z" fill="black"/>
</svg>
