<svg width="237" height="58" viewBox="0 0 237 58" fill="none" xmlns="http://www.w3.org/2000/svg">
<g clip-path="url(#clip0_777_707)">
<path d="M83.5511 31.0916C83.6283 31.0916 83.6963 31.104 83.7611 31.1195C83.7735 30.862 83.7827 30.5983 83.7827 30.3253V19.3799H79.336V30.3253C79.336 30.5983 79.3236 30.8527 79.302 31.0916H83.5542H83.5511Z" fill="white"/>
<path d="M74.4444 34.1257C70.2571 34.0668 69.414 33.1082 69.414 30.3253V19.3799H65.0105V30.3253C65.0105 36.1889 67.9812 39.1238 74.8675 39.1238C76.3899 39.1238 77.7116 38.9283 78.8418 38.5436L74.4444 34.1257Z" fill="white"/>
<path d="M90.6472 38.8041L93.3215 33.8092H96.9128C97.7682 33.8092 98.7718 33.8092 99.4574 33.8681C99.0714 33.1701 98.4723 31.9819 98.0029 31.0511L95.4368 25.9104L88.7234 38.801H83.4861L92.6606 21.235C93.2597 20.1026 94.1367 19.0571 95.5263 19.0571C96.9159 19.0571 97.7281 20.0158 98.3488 21.235L107.286 38.801H90.6503L90.6472 38.8041Z" fill="white"/>
<path d="M121.589 38.078L112.822 27.3932V38.8039H108.802V22.6899C108.802 20.1056 109.957 19.0601 111.217 19.0601C111.751 19.0601 112.285 19.2338 112.992 20.1056L121.759 30.7904V19.3796H125.801V35.4657C125.801 38.0501 124.646 39.1235 123.365 39.1235C122.809 39.1235 122.275 38.9498 121.589 38.078Z" fill="white"/>
<path d="M138.033 28.6373H133.778V38.8039H138.203V28.6187C138.15 28.628 138.092 28.6373 138.03 28.6373H138.033Z" fill="white"/>
<path d="M129.93 19.3799L127.064 24.4306H133.722C133.762 24.4244 133.799 24.4182 133.843 24.4182H138.935C138.978 24.4182 139.015 24.4244 139.055 24.4306H143.314L146.179 19.3799H129.927H129.93Z" fill="white"/>
<path d="M153.195 27.1016L151.037 30.8462H143.894L146.053 27.1016H153.195Z" fill="white"/>
<path d="M157.75 38.8041L160.424 33.8092H164.016C164.871 33.8092 165.875 33.8092 166.56 33.8681C166.174 33.1701 165.575 31.9819 165.106 31.0511L162.54 25.9104L155.826 38.801H150.589L159.764 21.235C160.363 20.1026 161.24 19.0571 162.629 19.0571C164.019 19.0571 164.831 20.0158 165.452 21.235L174.389 38.801H157.753L157.75 38.8041Z" fill="white"/>
<path d="M187.815 33.8369H180.33V38.8008H175.926V28.8699H188.241C189.609 28.8699 190.4 27.9702 190.4 26.6331C190.4 25.2959 189.609 24.4272 188.241 24.4272H175.926L178.857 19.3765H187.837C192.262 19.3765 194.85 22.3393 194.85 26.6641C194.85 30.9889 192.262 33.8369 187.815 33.8369Z" fill="white"/>
<path d="M208.944 33.8369H201.458V38.8008H197.055V28.8699H209.37C210.738 28.8699 211.528 27.9702 211.528 26.6331C211.528 25.2959 210.738 24.4272 209.37 24.4272H197.055L199.985 19.3765H208.965C213.39 19.3765 215.978 22.3393 215.978 26.6641C215.978 30.9889 213.39 33.8369 208.944 33.8369Z" fill="white"/>
<path d="M225.492 24.3655C225.514 24.3872 225.529 24.4089 225.545 24.4306H233.617L236.461 19.3799H224.038C222.852 19.3799 221.858 19.5598 221.036 19.8918C222.521 21.3841 224.004 22.8732 225.489 24.3655H225.492Z" fill="white"/>
<path d="M231.483 27.1297H223.701C222.676 27.1297 222.182 26.7512 222.182 25.7647C222.182 25.7026 222.188 25.6468 222.191 25.5909L218.637 22.02C218.137 22.9539 217.902 24.1018 217.902 25.4172C217.902 28.7554 219.591 30.9923 223.269 30.9923H231.051C232.098 30.9923 232.57 31.3987 232.57 32.3853C232.57 33.3718 232.101 33.8093 231.051 33.8093H220.23L217.386 38.8042H230.708C235.071 38.8042 236.844 36.4246 236.844 32.4442C236.844 28.9012 234.963 27.1297 231.477 27.1297H231.483Z" fill="white"/>
<path d="M40.5673 40.4589C38.7114 41.3772 36.1391 41.7526 33.5699 41.4547C27.6717 40.7722 23.3701 37.7101 21.0109 32.2808C18.6887 26.9447 19.3186 21.7481 22.7062 16.961C24.034 15.0871 24.102 15.0468 26.2729 15.8379C37.5009 19.9207 46.0054 27.2084 51.4279 37.9087C52.7311 40.4775 53.568 43.3565 54.167 46.1891C55.0471 50.3556 54.3523 54.3733 51.7429 57.9845C51.9807 57.9845 52.1011 58.0155 52.1907 57.9814C55.6307 56.6287 57.8665 54.1747 58.9164 50.61C60.0899 46.6203 59.6267 42.6957 58.5798 38.768C58.4378 38.2313 58.4717 37.5333 58.691 37.0276C60.4512 32.9665 61.2386 28.7689 60.9422 24.32C59.7996 7.30934 42.7938 -4.11692 26.7361 1.40231C25.9579 1.66912 25.2106 2.029 24.2903 2.4075C24.6177 2.61226 24.735 2.71464 24.8709 2.76428C29.8087 4.52646 34.1412 7.31865 38.1927 10.6041C38.5385 10.8833 38.9708 11.0912 39.3939 11.2308C44.8721 13.0395 48.4233 16.7004 49.9827 22.291C50.0569 22.5578 50.0599 22.8463 50.1402 23.4451C49.64 22.9084 49.3528 22.6168 49.081 22.3096C43.5411 16.0396 37.0841 10.9888 29.4628 7.51721C24.4509 5.23382 19.2229 3.82841 13.6552 4.10763C4.84195 4.55128 -0.549751 10.5917 0.0431505 19.415C0.497091 26.1318 3.35352 31.9116 7.13635 37.3068C7.17958 37.3688 7.30619 37.375 7.51 37.4464C7.28149 36.9159 7.10547 36.497 6.92328 36.0813C5.5769 33.0254 4.65975 29.864 4.61652 26.4948C4.55167 21.2703 6.9696 17.2992 11.4009 15.4377C13.5533 14.5349 15.8106 14.1781 18.1853 14.3674C16.2985 15.0903 14.4673 15.7356 12.6855 16.4957C10.9902 17.2185 9.94028 18.4936 9.755 20.4202C9.64692 21.5278 9.37517 22.6199 9.25783 23.7274C7.57794 39.4723 21.1684 53.4239 36.8648 52.1302C40.0362 51.8696 43.0625 51.1467 45.922 49.7724C46.7681 49.3659 47.1912 49.5428 47.6914 50.2781C48.8371 51.9627 50.0661 53.5884 51.2643 55.2326C51.4835 55.5336 51.7306 55.8097 52.1289 56.2999C52.2555 55.636 52.4099 55.2078 52.4099 54.7735C52.4254 52.3164 52.6261 49.8375 52.3574 47.4083C51.7059 41.5323 49.7234 36.1217 46.1227 31.3656C45.5607 30.6241 44.9554 30.3046 44.0074 30.3232C40.9039 30.3852 37.8005 30.3449 34.697 30.348C34.3326 30.348 33.9713 30.3853 33.3692 30.4194C35.8303 33.8507 38.1679 37.1113 40.5673 40.4557V40.4589Z" fill="black"/>
<path d="M40.5676 40.4587C38.1682 37.1142 35.8306 33.8567 33.3694 30.4223C33.9716 30.3882 34.3359 30.3509 34.6973 30.3509C37.8007 30.3478 40.9042 30.3851 44.0077 30.3261C44.9588 30.3075 45.564 30.627 46.123 31.3685C49.7236 36.1246 51.7061 41.5352 52.3577 47.4112C52.6263 49.8373 52.4256 52.3193 52.4102 54.7764C52.4102 55.2076 52.2558 55.6389 52.1292 56.3028C51.7308 55.8126 51.4838 55.5334 51.2645 55.2356C50.0633 53.5913 48.8342 51.9656 47.6917 50.281C47.1914 49.5457 46.7684 49.3689 45.9222 49.7753C43.0627 51.1497 40.0364 51.8725 36.865 52.1331C21.1686 53.4268 7.57818 39.4752 9.25807 23.7303C9.37542 22.6228 9.64716 21.5307 9.75524 20.4231C9.94361 18.4965 10.9905 17.2245 12.6858 16.4986C14.4676 15.7385 16.3019 15.0932 18.1856 14.3703C15.8109 14.181 13.5535 14.5378 11.4012 15.4406C6.96984 17.3021 4.55192 21.2732 4.61676 26.4977C4.66 29.867 5.57714 33.0283 6.92352 36.0842C7.10572 36.5 7.28482 36.9188 7.51025 37.4493C7.30644 37.3779 7.17983 37.3717 7.1366 37.3097C3.35685 31.9146 0.497335 26.1316 0.0433946 19.4149C-0.549507 10.5915 4.84219 4.55109 13.6554 4.11054C19.2231 3.83133 24.4512 5.23673 29.463 7.52012C37.0843 10.9917 43.5414 16.0425 49.0813 22.3125C49.353 22.6197 49.6371 22.9113 50.1405 23.448C50.0633 22.8492 50.0602 22.5607 49.983 22.2939C48.4235 16.7064 44.8723 13.0425 39.3941 11.2337C38.968 11.0941 38.5388 10.8863 38.1929 10.607C34.1414 7.32467 29.8058 4.52937 24.8711 2.76719C24.7353 2.71755 24.6179 2.61517 24.2906 2.41041C25.2108 2.02881 25.9581 1.67203 26.7363 1.40522C42.791 -4.11401 59.7998 7.31226 60.9393 24.326C61.2389 28.7749 60.4514 32.9725 58.6881 37.0336C58.4689 37.5393 58.4349 38.2373 58.577 38.774C59.6238 42.7017 60.0901 46.6263 58.9136 50.616C57.8636 54.1807 55.6279 56.6348 52.1878 57.9874C52.0952 58.0246 51.9779 57.9905 51.7401 57.9905C54.3495 54.3793 55.0412 50.3616 54.1642 46.1951C53.5651 43.3625 52.7282 40.4804 51.4251 37.9147C45.9994 27.2144 37.495 19.9268 26.27 15.844C24.0991 15.0559 24.0312 15.0932 22.7033 16.967C19.3158 21.7541 18.6889 26.9476 21.008 32.2868C23.3673 37.7161 27.6689 40.7782 33.567 41.4607C36.1363 41.7586 38.7086 41.3832 40.5645 40.4649L40.5676 40.4587Z" fill="white"/>
</g>
<defs>
<clipPath id="clip0_777_707">
<rect width="237" height="58" fill="white"/>
</clipPath>
</defs>
</svg>
