<svg width="24" height="24" viewBox="0 0 24 24" fill="none" xmlns="http://www.w3.org/2000/svg">
<g clip-path="url(#clip0_1679_14999)">
<path d="M8.4813 21.6836C8.66211 21.6836 8.79269 21.553 8.82282 21.3622C9.14425 18.6803 9.27483 18.6099 12.007 18.168C12.2179 18.1278 12.3484 18.0273 12.3484 17.8265C12.3484 17.6356 12.2179 17.5151 12.0472 17.4849C9.29492 16.9626 9.14425 16.9727 8.82282 14.2908C8.79269 14.0999 8.66211 13.9693 8.4813 13.9693C8.29046 13.9693 8.15988 14.0999 8.13978 14.2807C7.78823 17.0028 7.69782 17.0932 4.91546 17.4849C4.7447 17.505 4.61412 17.6356 4.61412 17.8265C4.61412 18.0173 4.7447 18.1278 4.91546 18.168C7.69782 18.7003 7.77818 18.7003 8.13978 21.3822C8.15988 21.553 8.29046 21.6836 8.4813 21.6836ZM3.7101 12.9347C3.85073 12.9347 3.93108 12.8343 3.96121 12.7037C4.30273 10.7952 4.31278 10.6746 6.33175 10.3332C6.46233 10.303 6.56278 10.2227 6.56278 10.082C6.56278 9.94141 6.46233 9.85101 6.33175 9.83092C4.31278 9.47935 4.30273 9.35882 3.96121 7.45034C3.93108 7.31975 3.85073 7.22935 3.7101 7.22935C3.56947 7.22935 3.48912 7.31975 3.45899 7.45034C3.11747 9.35882 3.10742 9.47935 1.08845 9.83092C0.957869 9.85101 0.857422 9.94141 0.857422 10.082C0.857422 10.2227 0.957869 10.303 1.08845 10.3332C3.10742 10.6746 3.11747 10.7952 3.45899 12.7037C3.48912 12.8343 3.56947 12.9347 3.7101 12.9347ZM9.21456 6.50613C9.3351 6.50613 9.39537 6.43582 9.41546 6.32534C9.75696 4.7182 9.73691 4.65792 11.4244 4.31641C11.5349 4.29632 11.6152 4.22601 11.6152 4.11551C11.6152 3.99498 11.5349 3.92466 11.4244 3.90458C9.73691 3.56306 9.75696 3.50279 9.41546 1.90569C9.39537 1.7952 9.3351 1.71484 9.21456 1.71484C9.09403 1.71484 9.03376 1.7952 9.01367 1.90569C8.67216 3.50279 8.69224 3.56306 7.00475 3.90458C6.89425 3.92466 6.8139 3.99498 6.8139 4.11551C6.8139 4.22601 6.89425 4.29632 7.00475 4.31641C8.69224 4.65792 8.67216 4.7182 9.01367 6.32534C9.03376 6.43582 9.09403 6.50613 9.21456 6.50613ZM17.5114 10.0519C17.6521 10.0519 17.7324 9.96149 17.7626 9.83092C18.1041 7.92244 18.1141 7.8019 20.1331 7.45034C20.2737 7.43025 20.3641 7.33984 20.3641 7.19922C20.3641 7.0586 20.2737 6.97823 20.1331 6.9481C18.1141 6.60658 18.1041 6.48605 17.7626 4.57756C17.7324 4.44699 17.6521 4.34654 17.5114 4.34654C17.3708 4.34654 17.2905 4.44699 17.2603 4.57756C16.9188 6.48605 16.9088 6.60658 14.8898 6.9481C14.7592 6.97823 14.6588 7.0586 14.6588 7.19922C14.6588 7.33984 14.7592 7.43025 14.8898 7.45034C16.9088 7.8019 16.9188 7.92244 17.2603 9.83092C17.2905 9.96149 17.3708 10.0519 17.5114 10.0519ZM20.8664 21.5229C21.2882 21.9548 22.0114 21.9548 22.4132 21.5229C22.825 21.081 22.825 20.3979 22.4132 19.976L12.8608 10.3934C12.4389 9.97154 11.7157 9.97154 11.3139 10.3934C10.892 10.8354 10.9021 11.5284 11.3139 11.9503L20.8664 21.5229ZM15.0203 14.6222L12.0772 11.6691C11.8965 11.4882 11.8362 11.2874 12.017 11.1167C12.1677 10.9559 12.3786 10.9961 12.5695 11.187L15.5226 14.1401L15.0203 14.6222Z" fill="white"/>
</g>
<defs>
<clipPath id="clip0_1679_14999">
<rect width="21.8647" height="20.1797" fill="white" transform="translate(0.857422 1.71484)"/>
</clipPath>
</defs>
</svg>
