<svg width="24" height="24" viewBox="0 0 24 24" fill="none" xmlns="http://www.w3.org/2000/svg">
<path d="M15.0539 20.6675H21.0274C22.3414 20.6675 23.2201 19.829 23.2201 18.5715V5.69752C23.2201 4.43994 22.3414 3.60156 21.0274 3.60156H15.0539C13.7399 3.60156 12.8532 4.43994 12.8532 5.69752V18.5715C12.8532 19.829 13.7399 20.6675 15.0539 20.6675ZM15.2151 19.3696C14.538 19.3696 14.1511 19.0068 14.1511 18.3619V5.90711C14.1511 5.2622 14.538 4.89944 15.2151 4.89944H20.8581C21.5353 4.89944 21.9222 5.2622 21.9222 5.90711V18.3619C21.9222 19.0068 21.5353 19.3696 20.8581 19.3696H15.2151ZM2.06707 18.7488C2.48626 18.7488 2.78453 18.4587 2.78453 18.0395V16.8141C2.78453 13.8153 4.61446 12.8479 6.96032 12.8479H7.49237L9.72537 12.7754V12.324L7.53267 14.3231L6.64592 15.0809C6.46051 15.2341 6.41215 15.4356 6.41215 15.6291C6.41215 16.0241 6.71848 16.3224 7.11348 16.3224C7.30696 16.3224 7.47624 16.2498 7.65359 16.0805L11.0636 12.6786C11.2248 12.5255 11.3135 12.3401 11.3135 12.1386C11.3135 11.937 11.2248 11.7516 11.0636 11.5984L7.63747 8.18041C7.47624 8.01919 7.30696 7.95469 7.11348 7.95469C6.71848 7.95469 6.41215 8.2449 6.41215 8.64797C6.41215 8.84145 6.46051 9.04298 6.64592 9.19614L7.53267 9.95392L9.72537 11.9531V11.5017L7.49237 11.4291H6.96032C4.09853 11.4291 1.34961 12.7432 1.34961 16.8141V18.0395C1.34961 18.4587 1.64788 18.7488 2.06707 18.7488Z" fill="white"/>
</svg>
