<svg width="24" height="24" viewBox="0 0 24 24" fill="none" xmlns="http://www.w3.org/2000/svg">
<path d="M7.3764 16.1334C7.05497 15.8019 6.48242 15.8019 6.1409 16.1334L4.07171 18.1926C3.74023 18.524 3.74023 19.0965 4.06166 19.428C4.39314 19.7595 4.96568 19.7695 5.3072 19.4381L7.3764 17.3688C7.71792 17.0374 7.71792 16.4749 7.3764 16.1334ZM5.55832 11.7539C5.55832 11.2818 5.15652 10.88 4.67438 10.88H1.7313C1.25921 10.88 0.857422 11.2818 0.857422 11.7539C0.857422 12.226 1.25921 12.6278 1.7313 12.6278H4.67438C5.15652 12.6278 5.55832 12.226 5.55832 11.7539ZM7.27595 7.28404C7.61747 6.95257 7.61747 6.39007 7.27595 6.04855L5.2168 3.97935C4.88532 3.64788 4.32282 3.63783 3.9813 3.96931C3.64983 4.30078 3.64983 4.86328 3.9813 5.2048L6.04046 7.28404C6.38197 7.62556 6.94447 7.62556 7.27595 7.28404ZM11.7558 5.53627C12.238 5.53627 12.6398 5.13449 12.6398 4.66239V1.72935C12.6398 1.25725 12.238 0.855469 11.7558 0.855469C11.2838 0.855469 10.882 1.25725 10.882 1.72935V4.66239C10.882 5.13449 11.2838 5.53627 11.7558 5.53627ZM16.1253 7.38449C16.4668 7.726 17.0393 7.726 17.3708 7.38449L19.44 5.31529C19.7815 4.97377 19.7815 4.41127 19.44 4.06975C19.1086 3.73828 18.546 3.73828 18.2146 4.06975L16.1253 6.14899C15.7938 6.49051 15.7938 7.05301 16.1253 7.38449ZM17.9735 11.7539C17.9735 12.226 18.3753 12.6278 18.8474 12.6278H21.7804C22.2626 12.6278 22.6643 12.226 22.6643 11.7539C22.6643 11.2818 22.2626 10.88 21.7804 10.88H18.8474C18.3753 10.88 17.9735 11.2818 17.9735 11.7539ZM10.9624 18.735C10.9522 19.1267 11.4043 19.2472 11.6655 18.9961L13.1922 17.4593L14.9099 21.7081C14.9903 21.889 15.1912 21.9894 15.3719 21.909L16.3764 21.5173C16.5572 21.4269 16.6275 21.216 16.5371 21.0352L14.7291 16.8566L16.8987 16.7662C17.2703 16.7461 17.4612 16.3845 17.19 16.0932L11.6956 10.4581C11.4445 10.197 11.0627 10.3376 11.0527 10.7093L10.9624 18.735Z" fill="white"/>
</svg>
