<svg width="24" height="24" viewBox="0 0 24 24" fill="none" xmlns="http://www.w3.org/2000/svg">
<path d="M6.21107 23.486H17.4309C19.0983 23.486 20.2133 22.4214 20.2133 20.8343V3.5173C20.2133 1.93025 19.0983 0.855469 17.4309 0.855469H6.21107C4.54367 0.855469 3.42871 1.93025 3.42871 3.5173V20.8343C3.42871 22.4214 4.54367 23.486 6.21107 23.486ZM6.41197 21.8688C5.54813 21.8688 5.0459 21.3867 5.0459 20.5631V3.78851C5.0459 2.96485 5.54813 2.47266 6.41197 2.47266H17.2301C18.0839 2.47266 18.5961 2.96485 18.5961 3.78851V20.5631C18.5961 21.3867 18.0839 21.8688 17.2301 21.8688H6.41197ZM7.96889 10.1066H15.6832C16.2156 10.1066 16.5771 9.75501 16.5771 9.19252V7.02288C16.5771 6.46038 16.2156 6.10882 15.6832 6.10882H7.96889C7.43652 6.10882 7.07492 6.46038 7.07492 7.02288V9.19252C7.07492 9.75501 7.43652 10.1066 7.96889 10.1066ZM7.96889 18.2126H15.6832C16.2156 18.2126 16.5771 17.851 16.5771 17.2986V15.1188C16.5771 14.5664 16.2156 14.2048 15.6832 14.2048H7.96889C7.43652 14.2048 7.07492 14.5664 7.07492 15.1188V17.2986C7.07492 17.851 7.43652 18.2126 7.96889 18.2126Z" fill="white"/>
</svg>
