<svg width="24" height="24" viewBox="0 0 24 24" fill="none" xmlns="http://www.w3.org/2000/svg">
<g clip-path="url(#clip0_1679_14796)">
<path d="M3.4315 11.9604C3.4315 11.0463 3.57213 10.1624 3.83329 9.34877L2.25628 8.68582C1.91476 9.72042 1.71387 10.8153 1.71387 11.9604C1.71387 13.0954 1.91476 14.2003 2.26632 15.2349L3.83329 14.572C3.57213 13.7584 3.4315 12.8744 3.4315 11.9604ZM8.05204 4.34654L7.40918 2.79966C5.42034 3.79408 3.78306 5.43136 2.78865 7.4202L4.35561 8.0731C5.15918 6.47601 6.46498 5.1702 8.05204 4.34654ZM11.9494 3.42244C12.8634 3.42244 13.7474 3.56306 14.581 3.83427L15.2239 2.2673C14.1893 1.91574 13.0844 1.71484 11.9494 1.71484C10.8143 1.71484 9.69936 1.91574 8.66476 2.2673L9.3277 3.83427C10.1514 3.56306 11.0353 3.42244 11.9494 3.42244ZM19.5632 8.06306L21.1201 7.4202C20.1157 5.43136 18.4784 3.79408 16.4896 2.78962L15.8467 4.34654C17.4337 5.16016 18.7496 6.46596 19.5632 8.06306ZM20.4974 11.9604C20.4974 12.8744 20.3567 13.7584 20.0956 14.582L21.6525 15.245C22.0041 14.2104 22.2049 13.0954 22.2049 11.9604C22.2049 10.8153 22.0041 9.71037 21.6525 8.67578L20.0855 9.33873C20.3567 10.1624 20.4974 11.0463 20.4974 11.9604ZM15.8467 19.5642L16.4896 21.1311C18.4884 20.1267 20.1257 18.4894 21.1101 16.5006L19.5732 15.8577C18.7596 17.4548 17.4438 18.7506 15.8467 19.5642ZM11.9594 20.4984C11.0353 20.4984 10.1514 20.3577 9.3277 20.0865L8.6748 21.6534C9.7094 22.005 10.8244 22.2059 11.9594 22.2059C13.0944 22.2059 14.1994 22.005 15.2239 21.6635L14.571 20.0965C13.7474 20.3577 12.8734 20.4984 11.9594 20.4984ZM4.35561 15.8577L2.79868 16.5006C3.80315 18.4894 5.42034 20.1267 7.40918 21.1211L8.05204 19.5541C6.46498 18.7405 5.15918 17.4448 4.35561 15.8577ZM11.9393 18.9715C15.8467 18.9715 18.9605 15.8577 18.9505 11.9604C18.9405 8.06306 15.8266 4.94922 11.9293 4.94922C8.03194 4.94922 4.9382 8.05301 4.9382 11.9604C4.9382 15.8677 8.04199 18.9715 11.9393 18.9715Z" fill="white"/>
</g>
<defs>
<clipPath id="clip0_1679_14796">
<rect width="20.491" height="20.5011" fill="white" transform="translate(1.71387 1.71484)"/>
</clipPath>
</defs>
</svg>
