<svg width="24" height="24" viewBox="0 0 24 24" fill="none" xmlns="http://www.w3.org/2000/svg">
<path d="M2.57129 7.99442C2.57129 8.87835 3.51548 9.09933 4.07798 8.52679L8.52776 4.07701C9.11035 3.50446 8.87933 2.57031 7.99539 2.57031H3.48535C2.92285 2.57031 2.57129 2.95201 2.57129 3.49442V7.99442ZM5.16281 6.42746L17.8894 19.1641L19.1651 17.9085L6.43848 5.16183L5.16281 6.42746ZM21.7666 16.3415C21.7666 15.4475 20.8224 15.2366 20.2499 15.7991L15.8001 20.2489C15.2275 20.8315 15.4586 21.7656 16.3425 21.7656H20.8525C21.4151 21.7656 21.7666 21.3739 21.7666 20.8415V16.3415ZM21.7666 7.99442V3.49442C21.7666 2.95201 21.4151 2.57031 20.8525 2.57031H16.3425C15.4586 2.57031 15.2275 3.50446 15.8001 4.07701L20.2499 8.52679C20.8224 9.09933 21.7666 8.87835 21.7666 7.99442ZM6.43848 19.1641L19.1751 6.42746L17.8994 5.16183L5.16281 17.8984L6.43848 19.1641ZM2.57129 16.3415V20.8415C2.57129 21.3739 2.92285 21.7656 3.48535 21.7656H7.99539C8.87933 21.7656 9.11035 20.8315 8.52776 20.2489L4.07798 15.7991C3.51548 15.2366 2.57129 15.4475 2.57129 16.3415Z" fill="white"/>
</svg>

