<svg width="24" height="24" viewBox="0 0 24 24" fill="none" xmlns="http://www.w3.org/2000/svg">
<g clip-path="url(#clip0_1679_14814)">
<path d="M4.27525 17.9185L5.08887 19.3047L12.2507 15.7087L19.4125 19.3047L20.2262 17.9185L13.0643 14.3225V5.84486H11.4472V14.3225L4.27525 17.9185ZM1.73396 19.3549C1.73396 19.7667 1.90472 20.0681 2.26632 20.2689L4.27525 21.4442C4.53641 21.6049 4.71722 21.6351 5.06878 21.4341L7.02748 20.2991C7.38909 20.0982 7.4594 19.9275 7.44936 19.596L7.4594 17.2656C7.4594 16.8639 7.2786 16.5725 6.93708 16.3717L4.91811 15.1965C4.65694 15.0558 4.43596 15.0056 4.09444 15.1965L2.10561 16.3515C1.76409 16.5424 1.71387 16.7433 1.71387 17.0246L1.73396 19.3549ZM16.9918 19.606C16.9817 19.9375 17.052 20.1082 17.4136 20.3091L19.3724 21.4442C19.7239 21.6451 19.9048 21.615 20.1658 21.4542L22.1748 20.2791C22.5364 20.0781 22.7072 19.7768 22.7072 19.365L22.7272 17.0346C22.7272 16.7534 22.677 16.5525 22.3355 16.3616L20.3467 15.2065C20.0051 15.0156 19.7842 15.0658 19.523 15.2065L17.5041 16.3817C17.1625 16.5826 16.9817 16.8739 16.9817 17.2756L16.9918 19.606ZM9.68932 7.5625L11.7184 8.72767C12.0598 8.91853 12.3913 8.91853 12.7329 8.72767L14.7619 7.5625C15.0431 7.40179 15.1636 7.25112 15.1636 6.83929V4.5692C15.1636 4.16741 15.0431 4.02679 14.782 3.87612L12.7529 2.72098C12.3913 2.52009 12.0498 2.52009 11.6982 2.72098L9.66922 3.87612C9.41811 4.01674 9.27748 4.16741 9.27748 4.5692V6.83929C9.27748 7.25112 9.42815 7.41183 9.68932 7.5625Z" fill="white"/>
</g>
<defs>
<clipPath id="clip0_1679_14814">
<rect width="21.0134" height="19.0547" fill="white" transform="translate(1.71387 2.57031)"/>
</clipPath>
</defs>
</svg>
