<svg width="40" height="40" viewBox="0 0 40 40" fill="none" xmlns="http://www.w3.org/2000/svg">
<path fill-rule="evenodd" clip-rule="evenodd" d="M34.331 2.5C33.7054 2.5 33.0937 2.68519 32.5732 3.03223L24.1082 8.67555C21.781 10.227 19.681 12.0782 17.8587 14.1743C21.3834 15.775 24.225 18.6166 25.8257 22.1413C27.9218 20.319 29.773 18.219 31.3244 15.8918L36.9678 7.42681C37.3148 6.90625 37.5 6.29462 37.5 5.66898C37.5 3.9188 36.0812 2.5 34.331 2.5ZM20.4992 25.8748C21.7967 25.154 23.0373 24.3438 24.2128 23.4519C22.7927 19.981 20.019 17.2073 16.5481 15.7872C15.6562 16.9627 14.846 18.2033 14.1252 19.5008L13.661 20.3364C16.5551 21.1642 18.8358 23.4449 19.6636 26.339L20.4992 25.8748ZM11.2494 22.5C7.79762 22.5 4.99944 25.2982 4.99944 28.75C4.99944 30.1307 3.88016 31.25 2.49944 31.25C2.44283 31.25 2.38649 31.2481 2.33051 31.2444C1.87026 31.214 1.43065 31.4395 1.18687 31.8311C0.943102 32.2226 0.934788 32.7167 1.16525 33.1162C2.67491 35.7336 5.50513 37.5 8.74944 37.5C13.5819 37.5 17.4994 33.5825 17.4994 28.75C17.4994 25.2982 14.7013 22.5 11.2494 22.5Z" fill="white"/>
</svg>
