<svg width="41" height="40" viewBox="0 0 41 40" fill="none" xmlns="http://www.w3.org/2000/svg">
<path d="M13.0102 7.77813C13.01 7.53671 13.0589 7.29761 13.1544 7.07456C13.25 6.8515 13.3902 6.64891 13.5668 6.47838C13.7428 6.30705 13.9522 6.17117 14.1828 6.07876C14.4135 5.98634 14.6609 5.93918 14.9106 5.93998H27.0845C27.3342 5.93918 27.5815 5.98634 27.8122 6.07876C28.0428 6.17117 28.2523 6.30705 28.4283 6.47838C28.6049 6.64891 28.745 6.8515 28.8405 7.07456C28.936 7.29761 28.9851 7.53671 28.9849 7.77813V11.9976H30.9905V7.77813C30.9905 6.77612 30.5789 5.81517 29.8464 5.10663C29.1139 4.3981 28.1204 4 27.0845 4H14.9106C13.8747 4 12.8812 4.3981 12.1487 5.10663C11.4162 5.81517 11.0046 6.77612 11.0046 7.77813V11.9976H13.0102V7.77813Z" fill="white"/>
<path d="M24.2065 19.5975H17.7886C17.7221 19.5975 17.6584 19.623 17.6113 19.6685C17.5643 19.7139 17.5379 19.7757 17.5379 19.84V22.75C17.5379 22.8143 17.5643 22.876 17.6113 22.9215C17.6584 22.9669 17.7221 22.9925 17.7886 22.9925H24.2065C24.273 22.9925 24.3368 22.9669 24.3838 22.9215C24.4308 22.876 24.4572 22.8143 24.4572 22.75V19.8158C24.451 19.7557 24.4218 19.7001 24.3754 19.6597C24.3291 19.6193 24.2689 19.5972 24.2065 19.5975Z" fill="white"/>
<path d="M26.4628 22.2746V22.7596C26.4634 23.0464 26.4055 23.3305 26.2924 23.5956C26.1792 23.8606 26.013 24.1015 25.8034 24.3043C25.5937 24.5071 25.3448 24.6678 25.0707 24.7773C24.7967 24.8867 24.503 24.9427 24.2065 24.9421H17.7886C17.4921 24.9427 17.1984 24.8867 16.9243 24.7773C16.6503 24.6678 16.4012 24.5071 16.1916 24.3043C15.9819 24.1015 15.8158 23.8606 15.7027 23.5956C15.5895 23.3305 15.5316 23.0464 15.5323 22.7596V22.2746H4.0001V30.9658C4.0001 30.9658 4.0001 30.9658 4.0001 30.9949C4.0001 31.024 4.0001 31.0191 4.0001 31.0288V33.575C3.99442 34.2154 4.23981 34.8342 4.68695 35.3065C4.89195 35.5237 5.14134 35.6975 5.41922 35.8168C5.69709 35.9362 5.99752 35.9985 6.30156 36H35.6835C35.9875 35.9985 36.2879 35.9362 36.5658 35.8168C36.8437 35.6975 37.0929 35.5237 37.2979 35.3065C37.7451 34.8342 37.9906 34.2154 37.9849 33.575V22.2746H26.4628Z" fill="white"/>
<path d="M37.303 14.1461C37.098 13.9289 36.8487 13.7552 36.5708 13.6359C36.2929 13.5165 35.9925 13.454 35.6885 13.4526H6.30646C6.00242 13.454 5.70211 13.5165 5.42424 13.6359C5.14636 13.7552 4.89697 13.9289 4.69197 14.1461C4.24483 14.6184 3.99944 15.2371 4.00512 15.8775V20.3346H15.5373V19.8496C15.5366 19.5628 15.5945 19.2787 15.7077 19.0137C15.8208 18.7486 15.9869 18.5078 16.1966 18.305C16.4062 18.1022 16.6553 17.9414 16.9294 17.832C17.2034 17.7225 17.4971 17.6665 17.7936 17.6671H24.2115C24.508 17.6665 24.8017 17.7225 25.0757 17.832C25.3498 17.9414 25.5987 18.1022 25.8084 18.305C26.018 18.5078 26.1842 18.7486 26.2974 19.0137C26.4106 19.2787 26.4685 19.5628 26.4678 19.8496V20.3346H38V15.8775C38.0029 15.2358 37.7537 14.6169 37.303 14.1461Z" fill="white"/>
</svg>
