<svg width="38" height="34" viewBox="0 0 38 34" fill="none" xmlns="http://www.w3.org/2000/svg">
<path d="M19.1164 0.301758C9.0959 0.301758 0.972656 7.73038 0.972656 16.8941C0.972656 26.0577 9.0959 33.4863 19.1164 33.4863C29.137 33.4863 37.2602 26.0577 37.2602 16.8941C37.2486 7.7348 29.1321 0.312425 19.1164 0.301758Z" fill="url(#paint0_linear_2245_1834)"/>
<path d="M29.5947 11.6394L19.2452 24.4832C18.9984 24.7827 18.6303 24.9789 18.2237 25.0278C17.8171 25.0766 17.4061 24.9741 17.0831 24.7431L9.69249 19.3396C9.04032 18.8623 8.93472 17.9919 9.45662 17.3955C9.97853 16.7991 10.9303 16.7025 11.5825 17.1798L17.7453 21.6888L27.1604 10.0036C27.4691 9.57997 28.0075 9.34573 28.5617 9.39392C29.116 9.44212 29.5964 9.76494 29.8123 10.2342C30.0282 10.7035 29.9446 11.2433 29.5947 11.6394Z" fill="white"/>
<defs>
<linearGradient id="paint0_linear_2245_1834" x1="0.972656" y1="29.6148" x2="37.6887" y2="29.0017" gradientUnits="userSpaceOnUse">
<stop stop-color="#836FFF"/>
<stop offset="1" stop-color="#4A5DE5"/>
</linearGradient>
</defs>
</svg>
