<svg width="24" height="24" viewBox="0 0 24 24" fill="none" xmlns="http://www.w3.org/2000/svg">
<g clip-path="url(#clip0_1679_14912)">
<path d="M3.59673 11.4287C3.81573 11.4034 4.04316 11.3866 4.26216 11.3866C4.49801 11.3866 4.72544 11.4034 4.95287 11.4371V9.60083H3.59673V11.4287ZM3.59673 8.44686H4.95287V6.6864C4.95287 5.81039 5.41615 5.36396 6.25847 5.36396H8.00208V4.00781H6.24162C4.48117 4.00781 3.59673 4.87541 3.59673 6.61902V8.44686ZM9.15608 5.36396H12.9549V4.00781H9.15608V5.36396ZM14.1005 5.36396H17.8994V4.00781H14.1005V5.36396ZM23.4587 8.44686V6.61902C23.4587 4.87541 22.5743 4.00781 20.8138 4.00781H19.0534V5.36396H20.797C21.6393 5.36396 22.1026 5.81039 22.1026 6.6864V8.44686H23.4587ZM23.4587 13.9219V9.60083H22.1026V13.9219H23.4587ZM20.8138 19.515C22.5743 19.515 23.4587 18.6474 23.4587 16.9038V15.0759H22.1026V16.8364C22.1026 17.7124 21.6393 18.1589 20.797 18.1589H19.0534V19.515H20.8138ZM14.1005 19.515H17.8994V18.1589H14.1005V19.515ZM8.9876 19.5066L12.9549 19.515V18.1589H9.51828C9.40874 18.639 9.23191 19.0854 8.9876 19.5066ZM4.27901 21.107C6.62067 21.107 8.55798 19.1696 8.55798 16.828C8.55798 14.4947 6.61225 12.549 4.27059 12.549C1.93735 12.549 0 14.4947 0 16.828C0 19.1696 1.94577 21.107 4.27901 21.107ZM4.27901 20.0962C2.46801 20.0962 1.01921 18.639 1.01921 16.828C1.01921 15.0254 2.46801 13.5597 4.27059 13.5597C6.08159 13.5597 7.53882 15.0254 7.54723 16.828C7.55564 18.639 6.08159 20.0962 4.27901 20.0962ZM4.27059 19.3634C5.66885 19.3634 6.80598 18.2178 6.80598 16.8364C6.80598 15.4466 5.66042 14.301 4.27059 14.301C2.88075 14.301 1.74361 15.4466 1.74361 16.8364C1.74361 18.2178 2.88917 19.3634 4.27059 19.3634Z" fill="white"/>
</g>
<defs>
<clipPath id="clip0_1679_14912">
<rect width="23.4587" height="18.708" fill="white" transform="translate(0 2.39844)"/>
</clipPath>
</defs>
</svg>
