<svg width="24" height="24" viewBox="0 0 24 24" fill="none" xmlns="http://www.w3.org/2000/svg">
<path d="M2.58238 18.7499H21.3759C22.994 18.7499 23.8078 17.9834 23.8078 16.3179V5.4733C23.8078 3.81728 22.994 3.05078 21.3759 3.05078H2.58238C0.964204 3.05078 0.150391 3.81728 0.150391 5.4733V16.3179C0.150391 17.9834 0.964204 18.7499 2.58238 18.7499ZM7.21923 21.9578H16.739C17.1554 21.9578 17.5055 21.6172 17.5055 21.1913C17.5055 20.7655 17.1554 20.4248 16.739 20.4248H7.21923C6.80286 20.4248 6.45273 20.7655 6.45273 21.1913C6.45273 21.6172 6.80286 21.9578 7.21923 21.9578ZM12.4712 14.8227C12.263 14.8227 12.1305 14.6997 12.1021 14.501C11.6858 11.6526 11.3167 11.0186 8.3264 10.7158C8.12768 10.6874 8.00466 10.5454 8.00466 10.3562C8.00466 10.1764 8.12768 10.025 8.3264 9.99661C11.3072 9.59916 11.5627 9.0787 12.1021 6.20195C12.1495 6.01269 12.2819 5.88967 12.4712 5.88967C12.651 5.88967 12.7929 6.02215 12.8213 6.21142C13.2472 9.03138 13.6351 9.59916 16.6065 9.99661C16.7958 10.025 16.9282 10.1764 16.9282 10.3562C16.9282 10.5454 16.7958 10.6874 16.6065 10.7158C13.6257 11.1133 13.3607 11.6526 12.8213 14.5104C12.7834 14.6997 12.651 14.8227 12.4712 14.8227ZM8.62921 16.422C8.47781 16.422 8.40214 16.3179 8.35482 16.1665C8.0709 14.7754 8.19392 14.7092 6.66092 14.482C6.50004 14.4537 6.41488 14.359 6.41488 14.2076C6.41488 14.0751 6.50004 13.9616 6.64199 13.9427C8.19392 13.6872 8.0709 13.6209 8.35482 12.2393C8.40214 12.0879 8.48725 11.9838 8.62921 11.9838C8.77117 11.9838 8.86581 12.0974 8.9036 12.2393C9.16863 13.6209 9.07399 13.6872 10.6259 13.9427C10.7584 13.9616 10.853 14.0751 10.853 14.2076C10.853 14.3401 10.7584 14.4537 10.6259 14.482C9.07399 14.7092 9.16863 14.7754 8.9036 16.1948C8.86581 16.3273 8.76173 16.422 8.62921 16.422Z" fill="white"/>
</svg>
