<svg width="64" height="64" viewBox="0 0 64 64" fill="none" xmlns="http://www.w3.org/2000/svg">
<rect width="64" height="64" rx="8" fill="#6A65FF"/>
<path d="M43 24.8514C42.3767 24.8514 41.7767 24.8111 41.1837 24.8583C38.9209 25.0389 37.2279 26.8526 37.2035 29.108C37.1895 30.3904 37.2012 31.6739 37.2012 33H15V14H42.9988V24.8514H43Z" fill="white"/>
<path d="M40 33H57V50H40V33Z" fill="white"/>
<path d="M12.6743 32.9977H10.0505C10.0341 32.707 10.0024 32.4233 10.0024 32.1385C10.0001 25.1454 9.99893 18.1522 10.0013 11.1591C10.0013 9.69745 10.6889 9.02112 12.1542 9.02112C23.3593 9.02112 34.5644 9.03636 45.7695 9.00002C47.1248 8.99533 48.0162 9.87211 47.9998 11.2306C47.9482 15.4692 47.981 19.7089 47.981 23.9474C47.981 24.1572 47.981 24.3659 47.981 24.6085H45.4943C45.4943 24.3752 45.4943 24.1502 45.4943 23.9263C45.4943 20.5669 45.4931 17.2063 45.4931 13.8469C45.4931 12.2539 44.5958 11.342 42.9934 11.342C33.7011 11.3385 24.41 11.3385 15.1177 11.342C13.5458 11.342 12.6743 12.2317 12.6743 13.8211C12.6731 19.955 12.6743 26.0889 12.6743 32.2229C12.6743 32.4714 12.6743 32.721 12.6743 33V32.9977Z" fill="white"/>
<path d="M38 35V41C37.7562 41 37.5426 41 37.329 41C29.1037 41 20.8784 41 12.6519 40.9977C8.93749 40.9977 6.7267 38.6587 7.02719 35.0012H22.8129C22.8129 35.3179 22.8032 35.6417 22.8153 35.9643C22.8394 36.6411 23.2135 37.0316 23.9002 37.0339C27.4987 37.0468 31.0973 37.0514 34.6959 37.0479C35.4513 37.0479 35.8242 36.6563 35.8399 35.9153C35.8459 35.6242 35.8399 35.3331 35.8399 35H38Z" fill="white"/>
<path d="M40 31C40.0449 30.1865 40.0165 29.3655 40.1525 28.576C40.2954 27.7412 41.0943 27.1115 41.9015 27.0272C42.0965 27.007 42.295 27.002 42.4912 27.002C46.4892 27.0007 50.4872 26.9982 54.4852 27.002C56.2271 27.0033 56.9965 27.8318 57 29.6929C57 30.1123 57 30.5303 57 31H40Z" fill="white"/>
<path d="M56.9895 52.0013C56.9895 52.6313 57.0167 53.2092 56.9836 53.7817C56.9126 55.0216 56.0183 55.9891 54.9205 55.9918C50.6428 56.0025 46.3663 56.0025 42.0887 55.9932C41.0098 55.9905 40.1486 55.1003 40.0279 53.8524C39.9712 53.2625 40.0185 52.6593 40.0185 52H56.9883L56.9895 52.0013Z" fill="white"/>
<path d="M31.5517 51.946C31.5517 51.471 31.5396 51.0276 31.5553 50.5842C31.5734 50.053 31.8099 49.9138 32.2853 50.1758C33.7513 50.9831 35.2113 51.8021 36.6653 52.6281C37.1057 52.8785 37.1129 53.1616 36.6785 53.4085C35.2077 54.2474 33.7308 55.0757 32.2455 55.8912C31.8135 56.1287 31.5734 55.9719 31.5565 55.4747C31.5432 55.071 31.5541 54.6674 31.5541 54.1971C31.2669 54.1971 31.0509 54.1971 30.8361 54.1971C28.9273 54.1971 27.0172 54.2029 25.1083 54.1947C23.2224 54.1865 22.017 53.0189 22.0122 51.1996C22.0061 48.9977 22.0242 46.7946 22.0001 44.5927C21.9953 44.1224 22.1437 43.9644 22.6167 44.0065C22.9956 44.0405 23.3817 44.0381 23.7606 44.0065C24.1937 43.9714 24.3072 44.1446 24.3035 44.5435C24.2866 46.6869 24.2951 48.8315 24.2951 50.9749C24.2951 51.8208 24.4471 51.9741 25.2954 51.9753C27.1849 51.9788 29.0745 51.9776 30.9628 51.9753C31.139 51.9753 31.3139 51.9565 31.5517 51.9425V51.946Z" fill="white"/>
</svg>
