<svg width="36" height="39" viewBox="0 0 36 39" fill="none" xmlns="http://www.w3.org/2000/svg">
<path d="M32.1159 11.9069V32.1531C32.3046 32.1615 32.4636 32.1752 32.6226 32.1752C33.6101 32.1767 34.5977 32.1775 35.5852 32.1744C35.7762 32.1744 35.9291 32.1722 35.9284 32.443C35.92 34.4584 35.9223 36.4746 35.92 38.49C35.92 38.5258 35.9025 38.5616 35.8858 38.6262H19.8613C19.8514 38.5174 19.8339 38.4086 19.8339 38.3006C19.8324 36.3864 19.8385 34.4714 19.8271 32.5571C19.8255 32.2627 19.8978 32.1615 20.2082 32.1684C21.1448 32.1897 22.0821 32.1684 23.0187 32.1813C23.3154 32.1859 23.4372 32.1151 23.4364 31.7834C23.4258 27.3835 23.4265 22.9845 23.4349 18.5846C23.4349 18.2788 23.3588 18.1669 23.0339 18.1684C19.5981 18.1791 16.1622 18.1783 12.7263 18.1684C12.4212 18.1677 12.3086 18.2438 12.3094 18.5694C12.3185 22.9692 12.32 27.3683 12.3078 31.7682C12.3071 32.125 12.4395 32.1874 12.7499 32.1821C13.7123 32.1661 14.6748 32.1821 15.6364 32.1668C15.9491 32.1615 16.0511 32.2688 16.0496 32.5822C16.0382 34.4714 16.0389 36.3605 16.0488 38.2496C16.0503 38.5638 15.9438 38.662 15.6296 38.6612C10.5328 38.6529 5.43608 38.6559 0.338566 38.6551C0.238898 38.6551 0.13847 38.6437 0.00380435 38.6354V32.1836H3.59337V18.1372H0V11.9289H3.60554C3.61391 11.7737 3.62532 11.6535 3.62608 11.5333C3.62761 10.8234 3.64434 10.1128 3.6238 9.40299C3.54392 6.64424 4.79167 4.56491 6.95012 2.9824C8.65817 1.73008 10.6082 1.10849 12.7172 1.04154C14.3879 0.98828 16.0617 1.00578 17.7333 0.980672C18.0186 0.976107 18.1289 1.04686 18.1266 1.36184C18.1114 3.33999 18.1129 5.31737 18.1259 7.29551C18.1274 7.57854 18.0528 7.66679 17.7675 7.66375C16.8066 7.65386 15.8442 7.65766 14.8832 7.67668C13.3365 7.70788 12.2805 8.79661 12.2843 10.3342C12.2858 10.8478 12.2843 11.3621 12.2843 11.9053H32.1144L32.1159 11.9069Z" fill="white"/>
<path d="M32.9483 4.63901C32.9453 6.94811 31.025 8.86311 28.7136 8.86311C26.3664 8.86311 24.421 6.9542 24.418 4.64814C24.4149 2.28731 26.3596 0.30308 28.7075 0.340361C31.1147 0.378402 32.9331 2.25535 32.9491 4.63977L32.9483 4.63901Z" fill="white"/>
</svg>
