<svg width="44" height="43" viewBox="0 0 44 43" fill="none" xmlns="http://www.w3.org/2000/svg">
<path d="M43.5 20.7989V22.2011C43.4682 22.5381 43.429 22.8746 43.4061 23.2121C43.2915 24.9246 42.9419 26.5904 42.4105 28.2183C41.8464 29.9462 41.0668 31.5756 40.0815 33.1025C38.7382 35.1847 37.0888 36.9879 35.1243 38.5037C32.9276 40.1989 30.4967 41.4249 27.8284 42.1788C26.4739 42.5616 25.0955 42.8168 23.6887 42.9079C23.3746 42.9285 23.0614 42.9687 22.7478 42.9995H21.2989C21.2414 42.9846 21.1839 42.9584 21.1255 42.9565C19.4901 42.8986 17.8874 42.642 16.3072 42.2129C14.1217 41.6193 12.0922 40.6902 10.2012 39.4534C8.73123 38.492 7.40057 37.3614 6.21105 36.0681C5.09165 34.851 4.12088 33.526 3.30528 32.0855C2.43687 30.5515 1.76336 28.9371 1.2941 27.2391C0.936076 25.943 0.694435 24.625 0.596283 23.2822C0.571043 22.9368 0.532717 22.5928 0.5 22.2478C0.5 21.7491 0.5 21.2509 0.5 20.7522C0.514957 20.6942 0.537391 20.6372 0.543467 20.5783C0.640685 19.6758 0.705652 18.7681 0.838391 17.8707C1.11976 15.9694 1.71148 14.1559 2.52661 12.4195C3.82268 9.65771 5.61887 7.26934 7.92918 5.2703C10.433 3.10301 13.2846 1.591 16.4815 0.735206C17.7285 0.401489 18.9961 0.175739 20.287 0.0934783C20.5941 0.0738478 20.8993 0.0317826 21.2054 0C21.7196 0 22.2337 0 22.7478 0C22.8058 0.0149565 22.8628 0.0373913 22.9217 0.0439348C23.8322 0.14162 24.7478 0.20425 25.6522 0.340728C27.5447 0.625837 29.3516 1.21382 31.0809 2.02614C34.3013 3.53909 36.9934 5.71386 39.142 8.55139C40.6377 10.5266 41.758 12.6986 42.4988 15.0654C43.0513 16.8312 43.3743 18.6363 43.4528 20.4848C43.4575 20.59 43.4836 20.6942 43.5 20.7989ZM30.7028 16.0119H18.5203C18.5203 15.6782 18.5207 15.3622 18.5203 15.0467C18.5179 14.1021 19.1667 13.4333 20.1169 13.4141C20.7072 13.402 21.298 13.3996 21.8888 13.4062C22.064 13.4081 22.1103 13.3538 22.1089 13.18C22.101 11.9647 22.1005 10.75 22.1094 9.53478C22.1108 9.34128 22.043 9.29828 21.8677 9.30062C20.8404 9.31604 19.8126 9.30529 18.7862 9.33801C17.4901 9.37914 16.2927 9.761 15.2434 10.5303C13.9169 11.5025 13.1509 12.7799 13.2 14.4746C13.2126 14.9102 13.2023 15.3468 13.2014 15.7833C13.2014 15.8572 13.1939 15.931 13.1887 16.0264H10.9738V19.8403H13.1813V28.4693H10.9761V32.4327C11.0588 32.4379 11.1205 32.4449 11.1818 32.4449C14.3128 32.4454 17.4443 32.444 20.5754 32.4486C20.7684 32.4486 20.8339 32.3883 20.8329 32.1958C20.8268 31.0352 20.8264 29.8747 20.8334 28.7142C20.8348 28.5216 20.7722 28.4557 20.5796 28.459C19.9883 28.4688 19.3971 28.4585 18.8063 28.4683C18.6156 28.4716 18.5343 28.4333 18.5348 28.2141C18.5427 25.5112 18.5418 22.8087 18.5357 20.1058C18.5357 19.9062 18.6039 19.859 18.7918 19.8595C20.9026 19.8651 23.0133 19.8655 25.124 19.8595C25.3236 19.859 25.3708 19.9277 25.3704 20.1151C25.3652 22.818 25.3647 25.5205 25.3713 28.2234C25.3718 28.4272 25.2965 28.4707 25.1147 28.4679C24.5393 28.4599 23.963 28.473 23.3882 28.4599C23.197 28.4557 23.1526 28.5179 23.154 28.6988C23.161 29.8747 23.1573 31.0511 23.1582 32.2271C23.1582 32.2935 23.1689 32.3603 23.175 32.4271H33.0192C33.0295 32.3874 33.0403 32.3654 33.0403 32.3435C33.0417 31.1054 33.0403 29.8668 33.0454 28.6287C33.0459 28.4627 32.9519 28.4637 32.8346 28.4637C32.2279 28.4655 31.6213 28.4651 31.0146 28.4641C30.9169 28.4641 30.8192 28.4557 30.7033 28.4506V16.0119H30.7028ZM30.6547 11.5184C30.6449 10.0541 29.5278 8.90053 28.049 8.87716C26.6071 8.85426 25.412 10.0737 25.4138 11.5235C25.4157 12.9402 26.6108 14.1129 28.0527 14.1129C29.4731 14.1129 30.6523 12.9365 30.6542 11.5179L30.6547 11.5184Z" fill="#515DEF"/>
<path d="M30.7022 16.0131V28.4509C30.8181 28.456 30.9158 28.4644 31.0135 28.4644C31.6201 28.4654 32.2268 28.4658 32.8335 28.4639C32.9508 28.4639 33.0447 28.4625 33.0443 28.6289C33.0391 29.8671 33.0405 31.1056 33.0391 32.3438C33.0391 32.3657 33.0284 32.3877 33.0181 32.4274H23.1739C23.1678 32.3606 23.1571 32.2938 23.1571 32.2274C23.1561 31.0514 23.1599 29.875 23.1529 28.699C23.1519 28.5182 23.1963 28.456 23.387 28.4602C23.9624 28.4733 24.5382 28.4602 25.1136 28.4682C25.2959 28.471 25.3706 28.4275 25.3702 28.2237C25.3636 25.5208 25.3641 22.8183 25.3692 20.1154C25.3692 19.9275 25.3225 19.8588 25.1229 19.8597C23.0122 19.8663 20.9014 19.8658 18.7907 19.8597C18.6033 19.8593 18.5341 19.906 18.5346 20.1061C18.5402 22.809 18.5411 25.5114 18.5336 28.2144C18.5332 28.4336 18.6145 28.4719 18.8052 28.4686C19.3964 28.4588 19.9877 28.4686 20.5785 28.4593C20.7706 28.456 20.8332 28.5219 20.8323 28.7145C20.8253 29.875 20.8257 31.0355 20.8318 32.1961C20.8327 32.3891 20.7673 32.4494 20.5743 32.4489C17.4432 32.4438 14.3122 32.4457 11.1806 32.4452C11.1194 32.4452 11.0577 32.4382 10.975 32.433V28.4696H13.1801V19.8406H10.9727V16.0267H13.1876C13.1928 15.9313 13.1998 15.8575 13.2002 15.7836C13.2012 15.3475 13.2115 14.911 13.1988 14.4749C13.1498 12.7802 13.9163 11.5028 15.2423 10.5306C16.2916 9.76129 17.4895 9.37943 18.7851 9.3383C19.8115 9.30558 20.8398 9.31633 21.8666 9.30091C22.0419 9.2981 22.1097 9.34157 22.1083 9.53507C22.0989 10.7503 22.0998 11.965 22.1078 13.1803C22.1087 13.3541 22.0629 13.4083 21.8876 13.4065C21.2973 13.4004 20.7061 13.4027 20.1158 13.4144C19.1656 13.4336 18.5168 14.1024 18.5192 15.047C18.5201 15.3625 18.5192 15.6785 18.5192 16.0122H30.7012L30.7022 16.0131Z" fill="white"/>
<path d="M30.6545 11.52C30.6526 12.9385 29.4729 14.1149 28.053 14.1149C26.6111 14.1149 25.4159 12.9423 25.4141 11.5256C25.4122 10.0753 26.6068 8.85632 28.0492 8.87922C29.528 8.90259 30.6451 10.0556 30.6549 11.5205L30.6545 11.52Z" fill="white"/>
</svg>
