<svg width="92" height="40" viewBox="0 0 92 40" fill="none" xmlns="http://www.w3.org/2000/svg">
<g clip-path="url(#clip0_1679_21285)">
<g clip-path="url(#clip1_1679_21285)">
<path d="M80.9477 17.6881C80.6743 17.6881 80.3959 17.6979 80.1224 17.6881C79.4094 17.6587 78.6818 17.5069 77.9835 17.6097C76.3573 17.8399 74.7506 17.4824 73.1342 17.5902C72.5188 17.6293 71.9084 17.6881 71.2931 17.7175C71.1857 17.7224 71.0684 17.6293 70.961 17.5804C71.0587 17.502 71.1466 17.3698 71.254 17.3453C71.7082 17.2523 72.1672 17.1935 72.6263 17.1299C72.763 17.1103 72.8998 17.1054 73.0853 17.0907C73.0267 16.8557 72.9877 16.65 72.9144 16.4591C72.5579 15.5043 72.2014 14.5543 71.8205 13.6093C71.7814 13.5065 71.6056 13.3988 71.4933 13.3988C69.9745 13.3841 68.4509 13.3841 66.9321 13.3988C66.8296 13.3988 66.6684 13.4771 66.6391 13.5555C66.2533 14.7061 65.8822 15.8617 65.4964 17.0564C66.1166 17.1397 66.6391 17.1886 67.1519 17.2915C67.3423 17.3306 67.5133 17.4922 67.694 17.595C67.5035 17.6391 67.3082 17.737 67.1275 17.7126C65.8138 17.5412 64.5002 17.595 63.1816 17.7077C62.4393 17.7664 61.6824 17.6391 60.9303 17.6342C60.066 17.6342 59.2016 17.6685 58.3372 17.6881C58.1516 17.693 57.9612 17.7322 57.7756 17.7224C57.6682 17.7175 57.5656 17.6489 57.4582 17.6048C57.551 17.5167 57.6291 17.3796 57.7316 17.3551C58.1321 17.2621 58.5423 17.1935 58.9476 17.1348C59.1381 17.1054 59.2455 17.0466 59.2504 16.8361C59.2748 15.0342 59.3041 13.2323 59.3334 11.4304C59.3334 11.4108 59.3139 11.3863 59.2895 11.3325C59.182 11.3276 59.06 11.3129 58.9379 11.3129C56.9259 11.3129 54.9188 11.3178 52.9068 11.3031C52.5649 11.3031 52.4526 11.3961 52.4624 11.7487C52.5063 13.2861 52.521 14.8236 52.5454 16.3611C52.5454 16.4884 52.5747 16.6109 52.5747 16.7382C52.5698 17.0173 52.687 17.1201 52.9751 17.1446C53.3609 17.174 53.7418 17.2621 54.1179 17.3551C54.2204 17.3796 54.2986 17.5216 54.3865 17.6146C54.2741 17.6538 54.1667 17.7273 54.0544 17.7224C53.1168 17.6881 52.1742 17.6146 51.2366 17.5999C50.675 17.595 50.1134 17.6881 49.5469 17.7175C49.4346 17.7224 49.3223 17.6293 49.21 17.5853C49.3076 17.502 49.3907 17.3649 49.503 17.3404C49.879 17.2523 50.2648 17.174 50.6506 17.1397C50.9045 17.1201 51.0071 17.0173 51.0169 16.7773C51.0462 16.0086 51.1096 15.2398 51.1145 14.476C51.1243 11.969 51.1145 9.4571 51.0999 6.9501C51.0999 6.387 51.0462 5.81901 50.9876 5.25592C50.9778 5.16288 50.8459 5.03558 50.7483 5.01109C50.3478 4.91806 49.9327 4.87399 49.5323 4.77606C49.4102 4.74668 49.3125 4.60958 49.2051 4.52144C49.3418 4.46758 49.4834 4.36476 49.6202 4.36965C50.6213 4.40393 51.6224 4.47738 52.6235 4.49207C53.0728 4.50186 53.5221 4.39414 53.9714 4.36965C54.1081 4.36476 54.2497 4.46269 54.3913 4.51655C54.2839 4.60469 54.1911 4.74668 54.0739 4.77606C53.7125 4.8691 53.3365 4.95234 52.9654 4.97682C52.6626 4.9964 52.5845 5.1384 52.5747 5.39792C52.5454 6.3919 52.4965 7.38589 52.4721 8.37987C52.4575 9.10945 52.4721 9.84392 52.4672 10.5735C52.4672 10.8085 52.5258 10.9114 52.7798 10.9114C54.8895 10.9016 57.004 10.9114 59.1137 10.9065C59.1723 10.9065 59.2358 10.8918 59.2846 10.8869C59.309 10.8477 59.3334 10.8281 59.3334 10.8085C59.309 8.98214 59.2846 7.15575 59.2602 5.32936C59.2602 5.12371 59.182 5.02089 58.9525 4.9964C58.557 4.95234 58.1565 4.87889 57.7707 4.78585C57.6486 4.75648 57.5558 4.61448 57.4533 4.52634C57.59 4.47248 57.7316 4.37455 57.8684 4.37945C58.8695 4.40883 59.8706 4.48227 60.8766 4.50186C61.3259 4.51165 61.7752 4.40393 62.2245 4.38434C62.3612 4.37945 62.4979 4.47738 62.6396 4.52634C62.5321 4.61448 62.4393 4.75648 62.3221 4.79075C61.9461 4.88378 61.5603 4.96213 61.1794 5.0013C60.9303 5.02578 60.8424 5.10902 60.8327 5.36854C60.8082 6.32335 60.7203 7.28306 60.7203 8.23787C60.7203 10.7694 60.7496 13.3057 60.7741 15.8372C60.7741 16.1751 60.8278 16.5178 60.8375 16.8557C60.8424 17.0662 60.9499 17.1201 61.1403 17.1495C61.6091 17.2278 62.0682 17.3355 62.537 17.4286C62.6054 17.4433 62.6835 17.4482 62.7519 17.4335C63.206 17.3404 63.6504 17.2229 64.1095 17.1544C64.3488 17.1201 64.4904 17.0417 64.5881 16.8165C65.3059 15.1566 66.0482 13.5065 66.7563 11.8368C67.4595 10.1818 68.1286 8.51697 68.7976 6.84727C68.866 6.6759 68.8611 6.43107 68.7879 6.2597C68.5339 5.65743 68.2409 5.07475 67.9479 4.45779L69.4129 3.83594C69.4422 3.88001 69.4862 3.91428 69.496 3.95835C70.165 6.38211 71.2198 8.65408 72.1868 10.9554C72.9242 12.7182 73.7202 14.4564 74.4527 16.2191C74.7213 16.8606 75.0729 17.1886 75.8103 17.2523C76.4061 17.3062 76.9531 17.1984 77.5195 17.1201C77.627 17.1054 77.7686 16.89 77.793 16.748C78.0128 15.5875 78.2618 14.427 78.4083 13.2568C78.6672 11.1317 78.8625 8.99683 79.0823 6.87176C79.1604 6.12259 78.3009 4.96702 77.5586 4.79565C77.3926 4.75648 77.2558 4.61448 77.1044 4.52144C77.2851 4.48227 77.4658 4.40883 77.6465 4.40883C78.2374 4.40883 78.8234 4.45289 79.4143 4.45289C79.6243 4.45289 79.7122 4.52144 79.8001 4.70751C81.1773 7.6454 82.5593 10.5784 83.9413 13.5114C83.9853 13.6093 84.0488 13.7023 84.1415 13.8639C85.3038 10.691 86.4417 7.58175 87.5698 4.50186C88.4683 4.45779 89.3327 4.41372 90.1971 4.38434C90.3094 4.38434 90.4217 4.48717 90.534 4.54593C90.4461 4.62427 90.3729 4.74179 90.2703 4.77117C89.8992 4.87889 89.5183 4.96213 89.0983 5.06495C89.1325 5.58888 89.1569 6.1128 89.1959 6.63672C89.4206 9.51096 89.6404 12.3901 89.8796 15.2643C89.9236 15.7882 90.0261 16.3122 90.0945 16.8361C90.1189 17.0369 90.202 17.1397 90.4217 17.1691C90.7782 17.218 91.1347 17.3062 91.4863 17.3992C91.5693 17.4237 91.6279 17.5461 91.7012 17.6195C91.6084 17.6636 91.5156 17.7468 91.4277 17.7419C90.9491 17.7224 90.4754 17.6538 90.0017 17.6489C89.1374 17.6489 88.273 17.6783 87.4086 17.7028C87.223 17.7077 87.0326 17.7468 86.847 17.7419C86.7396 17.737 86.6321 17.6685 86.5296 17.6244C86.6224 17.5363 86.7005 17.3943 86.803 17.3698C87.2181 17.2768 87.6381 17.1886 88.063 17.1593C88.3658 17.1397 88.483 17.0515 88.4634 16.7333C88.3413 14.6865 88.2486 12.6349 88.1167 10.5833C88.0239 9.07517 87.8921 7.56706 87.7749 6.06384C87.7651 5.91694 87.7504 5.77005 87.6479 5.60357C87.4867 6.03446 87.3207 6.47024 87.1595 6.90603C86.1096 9.81454 85.0596 12.7231 84.0048 15.6267C83.9609 15.7442 83.8485 15.8323 83.7704 15.9351C83.6727 15.8323 83.5458 15.7491 83.4872 15.6316C82.2321 13.0658 80.9868 10.5 79.7415 7.93429C79.678 7.80209 79.6048 7.66988 79.468 7.54257C79.4241 7.95877 79.3801 8.37008 79.3411 8.78628C79.1067 11.3814 78.8723 13.9814 78.9357 16.5962C78.9504 17.1152 78.9406 17.1103 79.468 17.1642C79.805 17.1984 80.142 17.2425 80.4692 17.316C80.6498 17.3551 80.8159 17.4628 80.9868 17.5363L80.9526 17.7175L80.9477 17.6881ZM69.1785 7.09699C68.3923 9.10455 67.6451 11.0044 66.8833 12.9385H71.5861C70.7901 11.0044 70.0038 9.10455 69.1785 7.09699Z" fill="#E6E6E6"/>
<path d="M24.8818 17.4929C25.0186 17.4244 25.1504 17.3313 25.2969 17.2922C25.5118 17.2285 25.7364 17.1991 25.9611 17.1599C26.718 17.0326 26.7571 17.0375 26.762 16.2541C26.7864 13.2183 26.7962 10.1825 26.7962 7.14174C26.7962 6.53948 26.7376 5.93231 26.7229 5.33005C26.718 5.09991 26.6448 5.00198 26.4006 4.9775C25.9904 4.93343 25.5851 4.85019 25.1846 4.75226C25.0821 4.72778 25.0039 4.58578 24.916 4.49764C25.0332 4.44868 25.1553 4.35075 25.2725 4.35565C25.7999 4.38502 26.3225 4.49275 26.845 4.48785C28.0854 4.47806 29.3258 4.40951 30.5711 4.38013C31.5673 4.35565 32.5489 4.45847 33.4768 4.86978C35.8062 5.90783 35.7232 8.454 34.5365 9.82012C33.5989 10.8973 32.3487 11.3282 30.9862 11.5143C30.8397 11.5339 30.6981 11.5535 30.4685 11.5829C30.8739 12.1019 31.2255 12.567 31.5869 13.0273C32.461 14.1486 33.34 15.265 34.2093 16.3863C34.683 16.9984 35.2446 17.2824 36.0113 16.9347C36.0992 16.8955 36.2359 16.9592 36.3483 16.9788C36.2945 17.0816 36.2701 17.2089 36.1871 17.2824C35.103 18.2568 33.6721 18.1686 32.7882 17.0082C31.6797 15.5441 30.6395 14.0311 29.5651 12.5377C29.36 12.2537 29.1402 11.9746 28.9498 11.6808C28.8765 11.5682 28.7935 11.3331 28.8326 11.3038C28.9547 11.2107 29.1305 11.1471 29.2867 11.1373C30.0486 11.0883 30.825 11.1373 31.5673 11.01C32.9884 10.7553 33.7796 9.94253 33.9309 8.7331C34.1165 7.26416 33.4865 5.9568 32.295 5.31046C31.2987 4.77185 30.2341 4.73267 29.1451 4.88936C28.3052 5.01177 28.2759 5.02157 28.2661 5.88335C28.2368 9.11013 28.227 12.3369 28.2173 15.5637C28.2173 15.926 28.2661 16.2933 28.271 16.6556C28.271 16.9592 28.3833 17.1012 28.7056 17.1208C29.0768 17.1404 29.4528 17.204 29.819 17.2922C29.9655 17.3264 30.0876 17.4733 30.2195 17.5664C30.0681 17.6153 29.9167 17.7084 29.7702 17.7035C28.8326 17.6741 27.8901 17.5957 26.9524 17.581C26.4641 17.5713 25.9806 17.6692 25.4923 17.6986C25.2969 17.7132 25.0967 17.679 24.9014 17.6643L24.877 17.4929H24.8818Z" fill="#E6E6E6"/>
<path d="M42.281 17.7143C41.1432 17.6751 40.0004 17.6115 38.8626 17.5968C38.301 17.5919 37.7394 17.6849 37.1778 17.7143C37.0606 17.7192 36.9385 17.6409 36.8213 17.5968C36.9238 17.5037 37.0117 17.3569 37.1289 17.3275C37.505 17.2344 37.8908 17.1659 38.2766 17.1316C38.5305 17.1071 38.6233 17.019 38.6282 16.7644C38.6477 15.5452 38.7063 14.321 38.7112 13.1018C38.721 10.8592 38.7014 8.61664 38.6868 6.37405C38.6868 6.01171 38.6331 5.64447 38.6233 5.28213C38.6184 5.07158 38.5207 5.01282 38.3254 4.98834C37.9298 4.93448 37.5343 4.86593 37.1436 4.7729C37.0215 4.74352 36.9238 4.60642 36.8164 4.51828C36.9531 4.46442 37.0899 4.36159 37.2266 4.36649C38.2522 4.39587 39.2777 4.484 40.3032 4.484C41.2164 4.484 42.1345 4.32242 43.0429 4.36159C45.3332 4.46931 47.2427 5.34089 48.3854 7.44638C49.7918 10.0464 49.5184 14.2525 46.8276 16.3335C45.4846 17.3666 43.9463 17.7535 42.281 17.7143ZM40.0493 11.0257H40.0883C40.0883 11.8091 40.0786 12.5877 40.0883 13.3711C40.1079 14.4777 40.1616 15.5843 40.1762 16.6958C40.1762 17.0092 40.2934 17.1512 40.5962 17.1855C40.9088 17.2198 41.2115 17.2981 41.5241 17.3275C43.9658 17.5527 46.1634 16.544 47.1206 14.0077C47.6968 12.4849 47.7212 10.9033 47.4575 9.31683C47.2671 8.18085 46.8617 7.12321 46.0413 6.29081C44.5225 4.75331 42.6619 4.52807 40.6451 4.9051C40.2886 4.97365 40.1762 5.12544 40.1714 5.47799C40.1421 7.32886 40.0883 9.17973 40.0444 11.0306L40.0493 11.0257Z" fill="#E6E6E6"/>
<path d="M19.0026 4.16797C20.8339 4.20224 22.8117 5.0934 24.1547 7.17441C24.9507 8.40832 25.2388 9.79892 25.1656 11.2483C25.0533 13.5447 24.0961 15.4152 22.2111 16.7617C20.7949 17.7704 19.1833 18.0789 17.4887 17.9369C15.4719 17.7704 13.8164 16.8792 12.6053 15.234C11.6872 13.9854 11.3502 12.5556 11.4039 11.0279C11.4723 9.04976 12.1413 7.30661 13.621 5.95029C14.9689 4.71637 16.5902 4.16307 18.9929 4.17287L19.0026 4.16797ZM17.4253 4.99058C14.0947 4.99058 11.8532 7.6004 12.4392 10.8761C12.8836 13.388 14.3096 15.234 16.5072 16.4728C17.6938 17.1436 18.9733 17.3542 20.3212 17.0604C22.3869 16.6148 24.3598 14.6758 24.228 12.1003C24.1059 9.76954 23.095 7.90398 21.332 6.43504C20.2088 5.49981 18.9098 4.98568 17.4301 4.98078L17.4253 4.99058Z" fill="#E6E6E6"/>
<path d="M2.07544 5.04822C1.56756 4.95518 1.10851 4.89153 0.65923 4.77891C0.522493 4.74464 0.415056 4.58795 0.297852 4.49002C0.444357 4.44595 0.590861 4.35292 0.732483 4.36761C3.35491 4.58795 5.97246 4.53409 8.59001 4.28926C8.92697 4.25988 9.26393 4.20113 9.60089 4.19623C9.93785 4.19133 10.1283 4.06402 10.1967 3.71637C10.226 3.54989 10.3481 3.403 10.4653 3.16797V7.25164L10.2943 7.27122C10.2406 7.12922 10.1723 6.99212 10.1381 6.84523C10.0941 6.66406 10.0795 6.47309 10.0551 6.28703C9.94274 5.44973 9.94762 5.43504 9.13696 5.26856C7.35449 4.89643 5.55737 4.82788 3.70653 5.01884C3.67722 5.30283 3.63327 5.57704 3.62839 5.84634C3.59909 7.32019 3.58444 8.79403 3.54537 10.2679C3.5356 10.5861 3.60397 10.7086 3.95558 10.7037C5.60132 10.6841 7.24217 10.7134 8.86837 10.4099C9.26882 10.3364 9.48369 10.1895 9.52764 9.75863C9.56183 9.42567 9.68391 9.09761 9.77182 8.76954L9.92809 8.77934C9.9525 8.90665 9.99646 9.03885 9.99157 9.16616C9.97692 10.3217 9.95739 11.4773 9.93297 12.6329C9.93297 12.8238 9.89879 13.0197 9.87925 13.2107L9.72786 13.2204C9.68391 13.1127 9.63019 13.0099 9.60089 12.8973C9.56671 12.7749 9.56183 12.6476 9.54229 12.5251C9.38114 11.5018 9.3909 11.4332 8.38979 11.3402C6.80754 11.1884 5.21552 11.1394 3.64304 11.0464C3.58932 11.1933 3.55514 11.2374 3.55514 11.2814C3.59421 13.1078 3.63816 14.9342 3.66257 16.7606C3.66257 17.0691 3.80908 17.1278 4.07279 17.1425C4.483 17.1719 4.89321 17.2356 5.30343 17.2943C5.41575 17.309 5.53295 17.3335 5.62574 17.3922C5.70387 17.4461 5.74782 17.5489 5.80642 17.6322C5.72341 17.6665 5.6355 17.735 5.55248 17.7301C4.88833 17.7056 4.22418 17.642 3.56002 17.642C2.71029 17.642 1.85568 17.686 1.00596 17.7105C0.86922 17.7105 0.727599 17.7497 0.595745 17.7301C0.488308 17.7154 0.395522 17.642 0.292969 17.5979C0.375988 17.5196 0.44924 17.3923 0.551794 17.3678C0.918055 17.2747 1.28432 17.1768 1.66034 17.1621C2.01196 17.1474 2.10474 16.9956 2.11451 16.6823C2.13404 16.0653 2.19264 15.4483 2.19753 14.8314C2.19753 12.1579 2.19753 9.48443 2.18288 6.81585C2.18288 6.22827 2.11451 5.64069 2.08032 5.0678L2.07544 5.04822Z" fill="#E6E6E6"/>
<path d="M53.4206 28.1744C53.7331 28.5759 54.0505 28.9921 54.3728 29.4034C55.0907 30.3239 55.8135 31.2493 56.5362 32.1699C56.8976 32.635 57.3371 32.8407 57.9231 32.5861C58.0208 32.542 58.1429 32.5567 58.2992 32.542C58.265 32.6546 58.265 32.7085 58.2406 32.7428C57.552 33.5752 56.1358 33.6143 55.4423 32.7966C55.0468 32.3266 54.7 31.8124 54.3387 31.313C53.6061 30.2896 52.8736 29.2663 52.146 28.238C52.0727 28.1352 52.0483 28.003 52.0044 27.8806C52.1509 27.8316 52.2925 27.7533 52.439 27.7435C53.0494 27.7043 53.6745 27.7582 54.2703 27.6455C56.1456 27.2979 56.9074 25.3883 55.8477 23.7773C55.2958 22.9449 54.4803 22.563 53.528 22.5042C52.9713 22.47 52.4048 22.5777 51.8432 22.612C51.6283 22.6266 51.5746 22.7344 51.5697 22.9302C51.5502 23.5619 51.4965 24.1886 51.4965 24.8203C51.4965 27.0775 51.5062 29.3348 51.5209 31.5921C51.5209 31.93 51.4574 32.3706 51.6381 32.5763C51.809 32.7722 52.2583 32.7183 52.5806 32.7966C52.7906 32.8505 52.9908 32.9435 53.1959 33.017L53.1569 33.1443H48.7764L48.7422 33.0464C48.8496 32.9827 48.9473 32.8946 49.0596 32.8652C49.338 32.7966 49.6261 32.7379 49.9093 32.7232C50.1682 32.7085 50.261 32.5959 50.2707 32.356C50.2951 31.739 50.3489 31.122 50.3489 30.5051C50.3586 28.615 50.3586 26.7201 50.3489 24.8301C50.3489 24.2131 50.2951 23.5961 50.2707 22.9792C50.261 22.7491 50.1828 22.6266 49.9191 22.6071C49.5968 22.5875 49.2745 22.5042 48.9619 22.4259C48.8887 22.4063 48.8399 22.2986 48.7764 22.23C48.8545 22.1909 48.9375 22.1125 49.0157 22.1174C49.3184 22.1272 49.6163 22.1909 49.9142 22.1909C51.2328 22.1762 52.5464 22.1125 53.8601 22.137C54.4656 22.1517 55.0956 22.2496 55.6621 22.4553C57.9427 23.2828 57.8011 25.7947 56.4093 26.9845C55.6133 27.6651 54.6561 27.9344 53.6501 28.0666C53.5866 28.0764 53.528 28.0862 53.4645 28.096C53.4548 28.096 53.4499 28.1107 53.4157 28.1597L53.4206 28.1744Z" fill="#E6E6E6"/>
<path d="M20.637 33.4273C18.2587 30.2984 15.8854 27.1745 13.4583 23.982C13.4387 24.1387 13.4192 24.2268 13.4192 24.3149C13.4192 26.2197 13.4046 28.1244 13.4388 30.0242C13.4534 30.8175 13.5804 31.6058 13.6439 32.3941C13.6634 32.639 13.7708 32.7026 14.0004 32.7173C14.3471 32.7418 14.6987 32.8005 15.0405 32.8642C15.1675 32.8887 15.2847 32.9866 15.4019 33.0454L15.3726 33.2021C15.2115 33.2021 15.0454 33.2216 14.8891 33.2021C13.9027 33.0698 12.9113 33.0454 11.9249 33.2118C11.8858 33.2167 11.8467 33.2265 11.8125 33.2167C11.7002 33.1874 11.5879 33.1531 11.4756 33.1237C11.5684 33.0405 11.6514 32.9425 11.7539 32.874C11.8223 32.8299 11.92 32.825 12.0079 32.8103C12.7453 32.6585 12.7746 32.6634 12.8576 31.9241C12.9504 31.1357 13.0237 30.3425 13.0334 29.5542C13.0578 27.7767 12.9992 25.9944 13.0627 24.2219C13.092 23.3699 12.6672 22.9243 12.0323 22.5522C11.9249 22.4885 11.8028 22.4494 11.6953 22.3857C11.6319 22.3466 11.5879 22.2731 11.4609 22.136C11.7393 22.136 11.92 22.1311 12.0958 22.136C12.4474 22.1507 12.799 22.2143 13.1457 22.185C13.4925 22.1556 13.6878 22.2927 13.888 22.5571C15.9635 25.2942 18.0536 28.0216 20.1389 30.7489C20.2024 30.8322 20.2805 30.9105 20.4026 31.0476C20.4124 30.8517 20.427 30.7342 20.427 30.6118C20.427 28.9862 20.4514 27.3605 20.4173 25.73C20.3977 24.7997 20.2854 23.8743 20.2268 22.9439C20.2121 22.6991 20.0998 22.6403 19.8703 22.6208C19.5236 22.5914 19.1768 22.5228 18.835 22.4445C18.7471 22.4249 18.6836 22.3074 18.6055 22.2339C18.6983 22.1948 18.791 22.1164 18.8838 22.1213C19.1329 22.1262 19.382 22.1899 19.631 22.1899C20.3831 22.1801 21.1302 22.1507 21.8823 22.136C22.0679 22.136 22.2534 22.136 22.439 22.136L22.5025 22.2388C22.4097 22.3172 22.3218 22.4347 22.2144 22.4641C21.9507 22.5375 21.6772 22.6061 21.4037 22.6159C21.1302 22.6257 21.0619 22.7676 21.0472 22.9929C20.9886 23.7469 20.891 24.4961 20.8763 25.2502C20.8421 27.7963 20.8372 30.3425 20.8177 32.8887C20.8177 33.0454 20.803 33.2021 20.7933 33.3587L20.6419 33.4273H20.637Z" fill="#E6E6E6"/>
<path d="M40.6945 22.6847C40.2306 22.6064 39.8546 22.5574 39.4932 22.4693C39.3809 22.4448 39.293 22.3175 39.1904 22.2391C39.3076 22.2 39.4248 22.1265 39.542 22.1265C41.1096 22.1412 42.6772 22.2 44.2497 22.1804C45.1776 22.1706 46.1006 22.0482 47.0235 21.9503C47.1505 21.9356 47.2873 21.774 47.3703 21.6516C47.4631 21.5145 47.507 21.3431 47.6389 21.2305V24.5062L47.4533 24.5258C47.3996 24.2467 47.3312 23.9676 47.297 23.6836C47.1896 22.8806 47.2628 23.0422 46.5938 22.8904C45.1776 22.5721 43.7418 22.4889 42.2914 22.6358C42.101 22.6553 41.9936 22.6945 41.9887 22.9198C41.9545 24.3789 41.9057 25.8381 41.8617 27.3707C42.3647 27.3707 42.814 27.3951 43.2535 27.3707C44.3034 27.3021 45.3534 27.2091 46.3985 27.1209C46.6524 27.1013 46.7891 26.9691 46.8331 26.6998C46.8819 26.3865 46.9747 26.0829 47.0528 25.7744L47.1603 25.7989V29.4468L46.9747 29.4664C46.9259 29.1824 46.8477 28.8984 46.8429 28.6144C46.8331 28.2031 46.6573 28.0317 46.2568 27.9582C44.826 27.6987 43.3902 27.7085 41.9447 27.733C41.9301 27.8113 41.9056 27.8603 41.9105 27.9044C41.935 29.4027 41.9691 30.901 41.9887 32.3993C41.9887 32.6491 42.0912 32.7127 42.3256 32.7225C43.8639 32.7666 45.3827 32.6589 46.8673 32.2084C47.1945 32.1056 47.3361 31.944 47.3654 31.6159C47.3947 31.3123 47.4631 31.0087 47.5168 30.7101L47.6437 30.7003C47.6779 30.7884 47.7316 30.8765 47.7365 30.9696C47.761 31.8607 47.7756 32.7519 47.7854 33.6431C47.7854 33.7116 47.7463 33.7802 47.7268 33.8438C47.6779 33.8389 47.634 33.8438 47.634 33.8291C47.4582 33.2415 46.9649 33.315 46.5303 33.3052C44.4499 33.2513 42.3647 33.2073 40.2843 33.1632C40.0353 33.1632 39.7862 33.222 39.5372 33.2268C39.42 33.2268 39.3028 33.1485 39.1855 33.1093C39.2881 33.0359 39.3809 32.9184 39.4932 32.889C39.8595 32.8058 40.2306 32.7519 40.6897 32.6735C40.7873 29.3635 40.7776 26.0339 40.6897 22.6945L40.6945 22.6847Z" fill="#E6E6E6"/>
<path d="M65.6923 22.5438L66.1172 21.5352L66.2686 21.5743C66.2686 21.7016 66.2784 21.8289 66.2686 21.9563C66.1514 23.1363 66.0293 24.3164 65.8389 25.5258C65.7851 25.4132 65.7021 25.3054 65.6826 25.1879C65.6386 24.9529 65.5947 24.713 65.6044 24.4779C65.6337 23.9393 65.4042 23.5917 64.9598 23.3077C63.6071 22.4508 62.2202 22.2109 60.7747 23.0384C60.2424 23.342 59.8859 23.812 59.7101 24.4045C59.4268 25.374 59.7736 26.1476 60.7356 26.4316C61.6488 26.7009 62.5962 26.8429 63.5241 27.0486C64.0124 27.1563 64.5057 27.2591 64.9842 27.4011C65.8877 27.6704 66.3174 28.3511 66.4151 29.2471C66.6349 31.2498 65.2968 32.9684 63.3043 33.3161C62.1421 33.5168 61.0335 33.3259 59.9494 32.9097C59.8322 32.8656 59.7198 32.8167 59.5636 32.7579L59.1778 33.7715H59.0362C59.0117 33.6442 58.9531 33.5168 58.9727 33.3993C59.1973 32.1116 59.2413 30.8238 59.1192 29.5213C59.1045 29.3842 59.1485 29.2422 59.1631 29.1051L59.2901 29.0806C59.3487 29.2324 59.4317 29.3744 59.461 29.5311C59.5538 30.0648 59.6173 30.6034 59.7052 31.1372C59.7247 31.2547 59.7638 31.3967 59.8468 31.4652C60.887 32.3368 62.0297 32.9342 63.4459 32.802C64.701 32.6844 65.7705 31.7247 65.9365 30.5447C66.0391 29.8151 65.7998 29.2226 65.1112 28.9827C64.3152 28.7085 63.4606 28.5861 62.6353 28.3951C62.0248 28.2531 61.3949 28.1699 60.8137 27.9593C59.7589 27.5774 59.2364 26.7646 59.1924 25.6433C59.1192 23.67 60.5549 22.0934 62.523 21.9709C63.4655 21.9122 64.3689 22.064 65.2528 22.392C65.3896 22.4459 65.5312 22.4949 65.6826 22.5487L65.6923 22.5438Z" fill="#E6E6E6"/>
<path d="M0.0439514 22.1856H4.3463L4.38049 22.3423C4.14608 22.4108 3.91656 22.5136 3.67727 22.5479C2.86172 22.6752 2.87149 22.6654 2.84219 23.4782C2.7787 25.3291 2.67127 27.18 2.65662 29.0309C2.65173 29.8241 2.76405 30.6369 2.93986 31.4154C3.13031 32.2527 3.73098 32.7571 4.58071 32.9529C5.43532 33.1439 6.28016 33.1243 7.10547 32.8354C8.28239 32.4192 8.86841 31.5134 9.05887 30.3186C9.13212 29.8486 9.18584 29.3687 9.19561 28.8889C9.22979 26.9499 9.26397 25.0059 8.9905 23.0767C8.94655 22.7683 8.85864 22.6067 8.51192 22.6116C8.22867 22.6116 7.94055 22.5381 7.65731 22.4696C7.53522 22.4402 7.42778 22.3374 7.31546 22.2688L7.35453 22.1758H11.1392L11.1734 22.3276C10.9537 22.401 10.7388 22.499 10.5141 22.5479C9.84999 22.6899 9.84511 22.685 9.80604 23.3803C9.72302 25.0892 9.64489 26.803 9.55698 28.5118C9.5228 29.1288 9.50327 29.7457 9.4056 30.3578C9.17119 31.8806 8.32146 32.8697 6.81246 33.2467C5.83088 33.4916 4.83954 33.4769 3.8726 33.1978C2.52965 32.806 1.72875 31.817 1.60667 30.397C1.5383 29.5842 1.52853 28.7615 1.52365 27.9438C1.509 26.3182 1.51388 24.6926 1.52365 23.062C1.52365 22.7732 1.47481 22.6214 1.14762 22.6116C0.874144 22.6018 0.600669 22.543 0.332077 22.4745C0.20999 22.4451 0.107437 22.3374 0 22.2688L0.0439514 22.1905V22.1856Z" fill="#E6E6E6"/>
<path d="M74.2737 33.034C74.7816 32.7011 75.4067 32.8088 76.0416 32.6521C76.1978 29.3225 76.1832 25.9684 76.0465 22.58C74.8451 22.5898 73.7219 22.6486 72.6378 23.0011C72.545 23.0305 72.462 23.1921 72.4376 23.3047C72.3545 23.7013 72.2959 24.1077 72.2276 24.5092L72.0469 24.4946V21.2286L72.1152 21.1992C72.1738 21.3608 72.2178 21.5371 72.3057 21.6791C72.3741 21.7917 72.4962 21.9288 72.6036 21.9435C74.9281 22.2324 77.2576 22.3058 79.587 22.0708C79.9239 22.0365 80.2609 21.9827 80.5979 21.9778C80.9055 21.9729 81.0911 21.8651 81.1448 21.5469C81.1643 21.4245 81.2474 21.3118 81.3548 21.2237V24.5043L81.1692 24.519C81.1106 24.1616 81.013 23.8041 81.0032 23.4467C80.9934 23.1137 80.8665 22.9717 80.5539 22.9326C79.6114 22.82 78.664 22.7024 77.7215 22.5849C77.4529 22.5506 77.3455 22.6486 77.3455 22.9375C77.3552 26.0712 77.3503 29.2099 77.3455 32.3436C77.3455 32.6178 77.4334 32.7108 77.7117 32.7255C78.0877 32.7451 78.4589 32.8088 78.8252 32.8871C78.9228 32.9067 79.0058 33.0291 79.0937 33.1026C78.9912 33.1417 78.8838 33.225 78.7812 33.2201C78.1805 33.1907 77.5799 33.1075 76.9792 33.1124C76.2418 33.1124 75.4995 33.1809 74.7621 33.2152C74.6009 33.2201 74.4447 33.2005 74.2835 33.1956L74.2737 33.0438V33.034Z" fill="#E6E6E6"/>
<path d="M84.5433 22.683C85.4614 24.2156 86.3551 25.714 87.2927 27.2857C88.2303 25.7531 89.3047 24.3674 89.8956 22.6928L88.5966 22.355L88.6259 22.1836H91.9467L91.9955 22.2815C91.8588 22.3501 91.7318 22.4676 91.5902 22.4823C91.0335 22.5459 90.6721 22.8593 90.3742 23.3147C89.4415 24.7347 88.4843 26.1351 87.5467 27.5501C87.4832 27.6481 87.4539 27.7852 87.4539 27.9027C87.4734 29.3765 87.5027 30.8504 87.5174 32.3242C87.5174 32.5984 87.5808 32.7355 87.8885 32.7453C88.162 32.7453 88.4355 32.8188 88.6992 32.8873C88.8261 32.9167 88.9336 33.0146 89.0508 33.0832L89.0166 33.2252C88.8408 33.2252 88.6601 33.2252 88.4843 33.2252C87.4099 33.2252 86.3356 33.2252 85.2612 33.2154C85.0854 33.2154 84.9096 33.1419 84.7338 33.1076C84.8852 33.0195 85.0317 32.9118 85.1928 32.8579C85.3686 32.7992 85.564 32.76 85.7495 32.7698C86.1597 32.7894 86.2476 32.569 86.2525 32.2165C86.2672 30.821 86.3014 29.4206 86.3111 28.0251C86.3111 27.888 86.2428 27.7313 86.1695 27.6089C85.2172 26.0371 84.265 24.4703 83.2931 22.9132C83.215 22.7859 83.0441 22.6879 82.8976 22.6292C82.7022 22.5508 82.4825 22.5361 82.2823 22.4676C82.1797 22.4284 82.1016 22.3256 82.0625 22.1836H85.7837C85.7251 22.3305 85.3133 22.5035 84.5482 22.7026L84.5433 22.683Z" fill="#E6E6E6"/>
<path d="M33.4666 31.9188C34.8047 28.8439 36.0891 25.8864 36.7337 22.7037C36.3479 22.4686 35.801 22.6645 35.4493 22.1602H38.8092L38.8727 22.2385C38.7652 22.3168 38.6578 22.4588 38.5504 22.4637C37.8716 22.4931 37.6323 22.9485 37.3979 23.5018C36.0842 26.6551 34.7461 29.8036 33.4129 32.9471C33.3446 33.1087 33.242 33.2605 33.1102 33.5102C32.9881 33.2801 32.9099 33.1577 32.8562 33.0303C31.5133 29.7252 30.1654 26.4201 28.8322 23.1101C28.7004 22.782 28.5343 22.6008 28.1778 22.5568C27.9434 22.5274 27.7139 22.4099 27.4844 22.3315L27.5234 22.1895H31.1275C31.0949 22.3005 30.6928 22.4703 29.9212 22.6988L33.4715 31.9237L33.4666 31.9188Z" fill="#E6E6E6"/>
<path d="M70.0004 32.6381C70.5571 32.8437 71.1334 32.6723 71.5924 33.162H67.2119L67.1826 33.0885C67.251 33.0347 67.3145 32.9563 67.3926 32.927C67.5293 32.8731 67.6759 32.829 67.8224 32.8045C68.7209 32.6527 68.7502 32.6527 68.7551 31.7518C68.7697 29.0294 68.7697 26.3118 68.7551 23.5894C68.7502 22.6982 68.716 22.708 67.8468 22.5464C67.6172 22.5072 67.4024 22.4044 67.1777 22.331L67.1924 22.1792C67.3242 22.1596 67.461 22.1057 67.5928 22.1253C68.7698 22.282 69.9418 22.2869 71.1187 22.1253C71.2408 22.1106 71.3727 22.1988 71.4996 22.2428C71.3873 22.3261 71.2848 22.4485 71.1578 22.4779C70.8062 22.5611 70.4448 22.6052 69.9955 22.6835C69.9076 25.9984 69.9125 29.328 69.9955 32.6381H70.0004Z" fill="#E6E6E6"/>
<path d="M22.9082 33.0793C23.0205 33.0107 23.128 32.9079 23.2501 32.8785C23.5187 32.8099 23.7921 32.7463 24.0656 32.7365C24.3733 32.7316 24.4416 32.5896 24.4465 32.3154C24.466 29.9602 24.5002 27.6001 24.5149 25.2449C24.5149 24.5006 24.4612 23.7613 24.4465 23.017C24.4416 22.7624 24.383 22.6302 24.09 22.6155C23.7921 22.6008 23.4942 22.5322 23.2012 22.4539C23.0938 22.4245 23.0108 22.3168 22.8301 22.1797H27.1959L27.2594 22.2433C27.1471 22.3217 27.0494 22.4294 26.9273 22.4637C26.6734 22.5371 26.4097 22.6106 26.1508 22.6008C25.7699 22.591 25.7211 22.7966 25.7162 23.0953C25.6967 24.1138 25.643 25.1372 25.6479 26.1556C25.6576 28.1583 25.6967 30.161 25.7113 32.1685C25.7113 32.5455 25.8041 32.7463 26.229 32.7512C26.5122 32.7512 26.7955 32.8491 27.0738 32.9226C27.1373 32.9373 27.1764 33.0401 27.2252 33.1037C27.1568 33.1429 27.0836 33.2115 27.0152 33.2115C26.6636 33.1968 26.3169 33.138 25.9653 33.138C25.14 33.1429 24.3147 33.1772 23.4845 33.1968C23.3038 33.1968 23.128 33.1968 22.9473 33.1968L22.9131 33.0646L22.9082 33.0793Z" fill="#E6E6E6"/>
</g>
</g>
<defs>
<clipPath id="clip0_1679_21285">
<rect width="91.6666" height="40" fill="white" transform="translate(0.166016)"/>
</clipPath>
<clipPath id="clip1_1679_21285">
<rect width="92" height="30.6667" fill="white" transform="translate(0 3.16797)"/>
</clipPath>
</defs>
</svg>
