<svg width="40" height="40" viewBox="0 0 40 40" fill="none" xmlns="http://www.w3.org/2000/svg">
<path d="M3.12314 25.2268L6.59664 30.735C6.71553 30.9222 6.91045 31.0589 7.13905 31.1152C7.36766 31.1714 7.61134 31.1427 7.81695 31.0354L12.3804 28.6509C13.3593 29.3717 14.4556 29.9478 15.6295 30.3582V35.1797C15.6295 35.3965 15.7232 35.6044 15.8903 35.7581C16.0574 35.9118 16.2843 35.9987 16.5213 36H23.4785C23.5961 36 23.7125 35.9788 23.821 35.9375C23.9296 35.8962 24.0282 35.8357 24.1111 35.7595C24.194 35.6832 24.2596 35.5927 24.3041 35.4932C24.3486 35.3937 24.371 35.2872 24.3703 35.1797V30.3582C25.5442 29.9478 26.6406 29.3717 27.6195 28.6509L32.1829 31.0354C32.3885 31.1427 32.6322 31.1714 32.8608 31.1152C33.0894 31.0589 33.2846 30.9222 33.4035 30.735L36.8821 25.2268C36.9994 25.0388 37.0307 24.816 36.9691 24.6069C36.9076 24.3979 36.7583 24.2195 36.5535 24.1108L31.9848 21.6978C32.0848 21.1316 32.1372 20.5592 32.1414 19.9857C32.137 19.4138 32.0845 18.8429 31.9848 18.2783L36.5535 15.8653C36.7583 15.7566 36.9076 15.5782 36.9691 15.3692C37.0307 15.1602 36.9994 14.9373 36.8821 14.7493L33.4035 9.24112C33.2846 9.05392 33.0894 8.91725 32.8608 8.86097C32.6322 8.80469 32.3885 8.83341 32.1829 8.94073L27.6195 11.349C26.6395 10.6284 25.5435 10.051 24.3703 9.63698V4.81548C24.3703 4.5992 24.2765 4.39185 24.1093 4.23892C23.942 4.08598 23.715 4 23.4785 4H16.5213C16.2852 4.00125 16.0593 4.08753 15.8923 4.2402C15.7254 4.39286 15.6309 4.59958 15.6295 4.81548V9.63698C14.4564 10.051 13.3604 10.6284 12.3804 11.349L7.81695 8.94073C7.61134 8.83341 7.36766 8.80469 7.13905 8.86097C6.91045 8.91725 6.71553 9.05392 6.59664 9.24112L3.12314 14.7493C3.06412 14.842 3.0255 14.9444 3.00981 15.0507C2.99412 15.1569 3.00168 15.265 3.03171 15.3686C3.06175 15.4723 3.11384 15.5695 3.18502 15.6547C3.25619 15.7399 3.3451 15.8115 3.44655 15.8653L8.02042 18.2783C7.91632 18.8425 7.86222 19.4135 7.85871 19.9857C7.86198 20.5594 7.91608 21.132 8.02042 21.6978L3.44655 24.1108C3.34458 24.1641 3.25506 24.2354 3.18349 24.3206C3.11192 24.4058 3.05976 24.5032 3.02968 24.607C2.99959 24.7109 2.99223 24.8191 3.00829 24.9255C3.02435 25.0319 3.06342 25.1343 3.12314 25.2268ZM19.9999 16.5949C20.4845 16.5954 20.9643 16.6834 21.4117 16.8536C21.8592 17.0238 22.2655 17.2729 22.6076 17.5869C22.9516 17.8994 23.225 18.2709 23.412 18.68C23.5991 19.0892 23.696 19.5279 23.6975 19.9714C23.6921 20.8665 23.3005 21.7235 22.6076 22.3559C22.2655 22.6698 21.8592 22.919 21.4117 23.0893C20.9643 23.2595 20.4845 23.3473 19.9999 23.3478C19.5153 23.3473 19.0356 23.2595 18.5881 23.0893C18.1407 22.919 17.7343 22.6698 17.3922 22.3559C16.6994 21.7235 16.3077 20.8665 16.3023 19.9714C16.3039 19.5279 16.4008 19.0892 16.5878 18.68C16.7748 18.2709 17.0482 17.8994 17.3922 17.5869C18.0848 16.9563 19.0227 16.603 19.9999 16.6044V16.5949Z" fill="white"/>
</svg>
