<svg width="100" height="28" viewBox="0 0 100 28" fill="none" xmlns="http://www.w3.org/2000/svg">
<g clip-path="url(#clip0_1693_34598)">
<path d="M3.92323 14.5461C3.92323 13.7267 3.04499 13.0625 1.96162 13.0625C0.878245 13.0625 0 13.7267 0 14.5461V22.8621C0 23.6814 0.878245 24.3457 1.96162 24.3457C3.04499 24.3457 3.92323 23.6814 3.92323 22.8621V14.5461Z" fill="#E6E6E6"/>
<path d="M9.81776 9.42888C9.81776 8.60953 8.93952 7.94531 7.85615 7.94531C6.77278 7.94531 5.89453 8.60953 5.89453 9.42888V22.8612C5.89453 23.6806 6.77278 24.3448 7.85615 24.3448C8.93952 24.3448 9.81776 23.6806 9.81776 22.8612V9.42888Z" fill="#E6E6E6"/>
<path d="M16.0971 11.4211C16.0971 10.6017 15.2188 9.9375 14.1354 9.9375C13.0521 9.9375 12.1738 10.6017 12.1738 11.4211V22.8646C12.1738 23.684 13.0521 24.3482 14.1354 24.3482C15.2188 24.3482 16.0971 23.684 16.0971 22.8646V11.4211Z" fill="#E6E6E6"/>
<path d="M22.4252 4.63982C22.4252 3.82047 21.5469 3.15625 20.4636 3.15625C19.3802 3.15625 18.502 3.82047 18.502 4.63982V22.8597C18.502 23.679 19.3802 24.3433 20.4636 24.3433C21.5469 24.3433 22.4252 23.679 22.4252 22.8597V4.63982Z" fill="#E6E6E6"/>
<path d="M28.64 1.48357C28.64 0.664218 27.7618 0 26.6784 0C25.595 0 24.7168 0.664218 24.7168 1.48357V22.863C24.7168 23.6824 25.595 24.3466 26.6784 24.3466C27.7618 24.3466 28.64 23.6824 28.64 22.863V1.48357Z" fill="#E6E6E6"/>
<path d="M50.1431 9.26172H46.2305V23.6484H50.1431V9.26172Z" fill="#E6E6E6"/>
<path d="M37.4185 9.26172H33.5059V23.6484H37.4185V9.26172Z" fill="#E6E6E6"/>
<path d="M47.0157 14.9648H36.4336V16.6489H47.0157V14.9648Z" fill="#E6E6E6"/>
<path d="M57.8956 9.26172H54.0254V23.6484H57.8956V9.26172Z" fill="#E6E6E6"/>
<path d="M76.3858 9.26172H72.5156V23.6484H76.3858V9.26172Z" fill="#E6E6E6"/>
<path d="M68.6458 17.8555H61.8066V19.8763H68.6458V17.8555Z" fill="#E6E6E6"/>
<path d="M89.62 23.8567L96.9363 27.9626C96.9363 27.9626 98.76 27.2168 99.6189 27.0324C100.478 26.8479 100.669 26.8479 100.669 26.8479L93.5644 23.6562L89.6094 23.8567H89.62Z" fill="#E6E6E6"/>
<path d="M89.937 9.01953C84.1158 9.01953 79.3867 12.3957 79.3867 16.5497C79.3867 20.7037 84.1052 24.0798 89.937 24.0798C95.7689 24.0798 100.487 20.7037 100.487 16.5497C100.487 12.3957 95.7689 9.01953 89.937 9.01953ZM89.9052 22.6844C86.5015 22.6844 83.7447 19.8857 83.7447 16.4374C83.7447 12.9891 86.5015 10.1904 89.9052 10.1904C93.3089 10.1904 96.0657 12.9891 96.0657 16.4374C96.0657 19.8857 93.3089 22.6844 89.9052 22.6844Z" fill="#E6E6E6"/>
</g>
<defs>
<clipPath id="clip0_1693_34598">
<rect width="100.668" height="27.9633" fill="white"/>
</clipPath>
</defs>
</svg>
