<svg width="106" height="106" viewBox="0 0 106 106" fill="none" xmlns="http://www.w3.org/2000/svg">
<path d="M62.8773 67.9166C59.9274 63.7073 57.0534 59.6074 54.0275 55.2849C54.7678 55.242 55.2158 55.1951 55.66 55.1951C59.4756 55.1912 63.2912 55.238 67.1068 55.1639C68.2761 55.1404 69.0203 55.5426 69.7074 56.4758C74.1343 62.4617 76.5717 69.2715 77.3728 76.667C77.7031 79.7205 77.4563 82.8442 77.4373 85.9368C77.4373 86.4795 77.2475 87.0223 77.0918 87.8579C76.6021 87.2409 76.2983 86.8895 76.0288 86.5146C74.5519 84.4452 73.0409 82.3991 71.6361 80.2789C71.0211 79.3534 70.5009 79.1309 69.4607 79.6424C65.945 81.3722 62.2243 82.282 58.3252 82.61C39.0271 84.2382 22.3183 66.6788 24.3836 46.8625C24.5279 45.4685 24.862 44.0941 24.9949 42.7001C25.2265 40.2753 26.5135 38.6743 28.5978 37.7606C30.7885 36.804 33.0437 35.9918 35.3596 35.082C32.44 34.8438 29.6647 35.2929 27.0185 36.4291C21.5703 38.772 18.5976 43.77 18.6773 50.3455C18.7305 54.586 19.8581 58.5648 21.5134 62.411C21.7374 62.9342 21.9576 63.4613 22.2347 64.129C21.9842 64.0392 21.8285 64.0314 21.7753 63.9533C17.1283 57.1631 13.6127 49.8847 13.0546 41.431C12.3256 30.3261 18.9545 22.7237 29.79 22.1692C36.6352 21.8178 43.0629 23.5866 49.2248 26.4605C58.5948 30.8298 66.5335 37.1866 73.3446 45.078C73.6787 45.4646 74.028 45.8316 74.6468 46.5072C74.5519 45.7535 74.5481 45.3904 74.4532 45.0546C72.5359 38.0223 68.1698 33.4108 61.4346 31.1344C60.9107 30.9587 60.383 30.697 59.9578 30.3456C54.9766 26.2145 49.6462 22.6963 43.5792 20.4785C43.4122 20.416 43.2679 20.2871 42.8655 20.0294C43.9969 19.5491 44.9156 19.1001 45.8724 18.7643C65.6109 11.8178 86.5226 26.1988 87.9235 47.6122C88.2918 53.2115 87.3237 58.4946 85.1558 63.6058C84.8863 64.2423 84.8445 65.1208 85.0191 65.7963C86.3062 70.7397 86.8795 75.6791 85.433 80.7006C84.1421 85.187 81.3934 88.2757 77.164 89.9781C77.0501 90.025 76.9058 89.982 76.6135 89.982C79.8216 85.437 80.672 80.3804 79.5938 75.1364C78.8572 71.5714 77.8284 67.9439 76.2262 64.7147C69.5556 51.2474 59.0997 42.0753 45.2991 36.9367C42.6301 35.945 42.5465 35.9918 40.914 38.3502C36.7491 44.3752 35.9784 50.9116 38.8297 57.6316C41.7303 64.4648 47.0189 68.3188 54.2705 69.1778C57.4292 69.5527 60.5918 69.0802 62.8736 67.9244L62.8773 67.9166Z" fill="black"/>
</svg>
