<svg width="178" height="60" viewBox="0 0 178 60" fill="none" xmlns="http://www.w3.org/2000/svg">
<path d="M39.2418 41.6643C37.0391 38.5506 34.8932 35.5178 32.6338 32.3203C33.1866 32.2886 33.5211 32.2539 33.8528 32.2539C36.7018 32.251 39.5508 32.2857 42.3997 32.2308C43.2728 32.2135 43.8285 32.511 44.3416 33.2013C47.6469 37.6292 49.4669 42.6666 50.065 48.1372C50.3116 50.396 50.1274 52.7067 50.1132 54.9943C50.1132 55.3958 49.9715 55.7973 49.8552 56.4154C49.4895 55.959 49.2628 55.6991 49.0615 55.4218C47.9588 53.8909 46.8305 52.3774 45.7816 50.809C45.3224 50.1245 44.934 49.9598 44.1573 50.3382C41.5323 51.6178 38.7542 52.2908 35.8428 52.5334C21.4336 53.7379 8.95763 40.7487 10.4998 26.0901C10.6075 25.0589 10.8569 24.0422 10.9562 23.011C11.1291 21.2173 12.0901 20.0331 13.6464 19.3572C15.2821 18.6495 16.9659 18.0487 18.6952 17.3757C16.5152 17.1995 14.443 17.5317 12.4671 18.3722C8.39918 20.1053 6.17953 23.8024 6.23907 28.6665C6.27875 31.8033 7.12069 34.7466 8.35666 37.5917C8.52391 37.9787 8.68833 38.3687 8.89527 38.8626C8.70817 38.7961 8.59195 38.7904 8.55226 38.7326C5.08247 33.7097 2.45745 28.3257 2.04073 22.0723C1.49645 13.8577 6.44601 8.23394 14.5365 7.82379C19.6476 7.56383 24.447 8.87228 29.0478 10.9981C36.0441 14.2303 41.9717 18.9326 47.0573 24.7701C47.3068 25.056 47.5676 25.3275 48.0296 25.8272C47.9588 25.2697 47.9559 25.0011 47.8851 24.7527C46.4535 19.5507 43.1935 16.1395 38.1645 14.4556C37.7733 14.3256 37.3793 14.1321 37.0618 13.8721C33.3425 10.8162 29.3625 8.21372 24.8325 6.57311C24.7078 6.52689 24.6 6.43158 24.2995 6.24094C25.1443 5.88567 25.8303 5.5535 26.5447 5.3051C41.2828 0.166626 56.8969 10.8046 57.9429 26.6446C58.2179 30.7866 57.495 34.6946 55.8763 38.4755C55.6751 38.9463 55.6439 39.5962 55.7743 40.0959C56.7353 43.7526 57.1633 47.4065 56.0833 51.121C55.1194 54.4397 53.0671 56.7245 49.9091 57.9838C49.8241 58.0185 49.7163 57.9867 49.4981 57.9867C51.8935 54.6246 52.5284 50.8841 51.7234 47.005C51.1734 44.3679 50.4052 41.6845 49.2089 39.2958C44.2282 29.3337 36.4211 22.5489 26.1167 18.7477C24.1238 18.0141 24.0614 18.0487 22.8425 19.7933C19.7327 24.2501 19.1572 29.0853 21.2862 34.0563C23.4519 39.111 27.4008 41.9618 32.8153 42.5973C35.1738 42.8746 37.5352 42.5251 39.2389 41.6701L39.2418 41.6643Z" fill="white"/>
<path d="M76.6528 33.8713C76.7013 33.8713 76.744 33.8794 76.7848 33.8896C76.7926 33.7212 76.7984 33.5487 76.7984 33.3701V26.2109H74.0038V33.3701C74.0038 33.5487 73.996 33.7151 73.9824 33.8713H76.6548H76.6528Z" fill="white"/>
<path d="M70.9289 35.8559C68.2973 35.8174 67.7675 35.1903 67.7675 33.3701V26.2109H65V33.3701C65 37.2054 66.867 39.125 71.1947 39.125C72.1515 39.125 72.9821 38.9972 73.6924 38.7456L70.9289 35.8559Z" fill="white"/>
<path d="M81.1118 38.9161L82.7925 35.649H85.0495C85.5871 35.649 86.2178 35.649 86.6487 35.6876C86.4061 35.231 86.0296 34.4538 85.7346 33.845L84.1219 30.4826L79.9028 38.9141H76.6113L82.3772 27.4245C82.7537 26.6839 83.3048 26 84.1781 26C85.0515 26 85.5619 26.627 85.952 27.4245L91.5684 38.9141H81.1138L81.1118 38.9161Z" fill="white"/>
<path d="M100.556 38.4432L95.0463 31.4544V38.918H92.5195V28.3781C92.5195 26.6878 93.2454 26.0039 94.0372 26.0039C94.3729 26.0039 94.7087 26.1175 95.1531 26.6878L100.663 33.6765V26.2129H103.203V36.7345C103.203 38.4249 102.477 39.127 101.672 39.127C101.323 39.127 100.987 39.0134 100.556 38.4432Z" fill="white"/>
<path d="M110.893 32.2661H108.219V38.9159H111V32.2539C110.967 32.26 110.93 32.2661 110.891 32.2661H110.893Z" fill="white"/>
<path d="M105.801 26.2109L104 29.5145H108.184C108.209 29.5105 108.233 29.5064 108.26 29.5064H111.46C111.487 29.5064 111.511 29.5105 111.536 29.5145H114.212L116.013 26.2109H105.799H105.801Z" fill="white"/>
<path d="M120.42 31.2617L119.063 33.711H114.574L115.931 31.2617H120.42Z" fill="white"/>
<path d="M123.284 38.9161L124.964 35.649H127.221C127.759 35.649 128.39 35.649 128.821 35.6876C128.578 35.231 128.201 34.4538 127.906 33.845L126.294 30.4826L122.075 38.9141H118.783L124.549 27.4245C124.926 26.6839 125.477 26 126.35 26C127.223 26 127.734 26.627 128.124 27.4245L133.74 38.9141H123.286L123.284 38.9161Z" fill="white"/>
<path d="M142.179 35.6692H137.474V38.916H134.707V32.4204H142.447C143.306 32.4204 143.803 31.8319 143.803 30.9573C143.803 30.0827 143.306 29.5145 142.447 29.5145H134.707L136.549 26.2109H142.192C144.973 26.2109 146.6 28.1489 146.6 30.9776C146.6 33.8064 144.973 35.6692 142.179 35.6692Z" fill="white"/>
<path d="M155.456 35.6692H150.752V38.916H147.984V32.4204H155.724C156.584 32.4204 157.08 31.8319 157.08 30.9573C157.08 30.0827 156.584 29.5145 155.724 29.5145H147.984L149.826 26.2109H155.47C158.251 26.2109 159.877 28.1489 159.877 30.9776C159.877 33.8064 158.251 35.6692 155.456 35.6692Z" fill="white"/>
<path d="M165.857 29.4719C165.871 29.4861 165.88 29.5003 165.89 29.5145H170.963L172.75 26.2109H164.943C164.198 26.2109 163.573 26.3286 163.057 26.5458C163.99 27.5218 164.922 28.4959 165.855 29.4719H165.857Z" fill="white"/>
<path d="M169.621 31.2797H164.73C164.086 31.2797 163.776 31.0321 163.776 30.3868C163.776 30.3462 163.78 30.3097 163.781 30.2732L161.548 27.9375C161.233 28.5483 161.086 29.2991 161.086 30.1595C161.086 32.343 162.147 33.8061 164.459 33.8061H169.349C170.007 33.8061 170.304 34.0719 170.304 34.7172C170.304 35.3625 170.009 35.6486 169.349 35.6486H162.549L160.762 38.9157H169.134C171.876 38.9157 172.99 37.3593 172.99 34.7558C172.99 32.4384 171.808 31.2797 169.617 31.2797H169.621Z" fill="white"/>
</svg>
