<svg width="151" height="150" viewBox="0 0 151 150" fill="none" xmlns="http://www.w3.org/2000/svg">
<g filter="url(#filter0_i_1679_8589)">
<path d="M91.1485 97.0261C86.7039 90.7411 82.3737 84.6193 77.8147 78.1651C78.9302 78.101 79.6052 78.031 80.2744 78.031C86.0232 78.0252 91.772 78.0952 97.5209 77.9844C99.2827 77.9494 100.404 78.5499 101.439 79.9434C108.109 88.8812 111.781 99.0493 112.988 110.092C113.486 114.651 113.114 119.315 113.086 123.933C113.086 124.743 112.8 125.554 112.565 126.801C111.827 125.88 111.369 125.356 110.963 124.796C108.738 121.706 106.462 118.651 104.345 115.485C103.418 114.103 102.635 113.771 101.067 114.535C95.7705 117.117 90.1647 118.476 84.29 118.966C55.2142 121.397 30.0395 95.1779 33.1513 65.5892C33.3687 63.5078 33.8721 61.4555 34.0723 59.3741C34.4212 55.7535 36.3603 53.363 39.5007 51.9988C42.8013 50.5703 46.1991 49.3576 49.6884 47.9992C45.2896 47.6435 41.1081 48.314 37.1211 50.0106C28.9126 53.5088 24.4337 60.9716 24.5538 70.7898C24.6339 77.1215 26.3328 83.0626 28.8268 88.8054C29.1643 89.5867 29.4961 90.3738 29.9137 91.3708C29.5361 91.2367 29.3016 91.225 29.2215 91.1084C22.22 80.9695 16.9231 70.1018 16.0822 57.4792C14.9839 40.8979 24.9714 29.5463 41.2969 28.7184C51.6104 28.1937 61.2948 30.8348 70.5787 35.1259C84.6961 41.65 96.6571 51.1417 106.919 62.9247C107.423 63.5019 107.949 64.05 108.881 65.0586C108.738 63.9334 108.732 63.3912 108.589 62.8898C105.701 52.3894 99.1225 45.5038 88.9749 42.1047C88.1855 41.8424 87.3904 41.4517 86.7497 40.927C79.2448 34.7586 71.2136 29.5055 62.0727 26.1939C61.821 26.1006 61.6036 25.9082 60.9973 25.5234C62.7019 24.8063 64.0862 24.1358 65.5277 23.6344C95.2671 13.2623 126.774 34.7353 128.885 66.7086C129.44 75.0692 127.981 82.9576 124.715 90.5895C124.309 91.5398 124.246 92.8516 124.509 93.8603C126.448 101.241 127.312 108.617 125.132 116.115C123.187 122.814 119.046 127.425 112.674 129.967C112.502 130.037 112.285 129.973 111.844 129.973C116.678 123.187 117.959 115.636 116.335 107.806C115.225 102.483 113.675 97.067 111.261 92.2453C101.21 72.1366 85.4569 58.4412 64.664 50.7686C60.6426 49.2877 60.5168 49.3576 58.0571 52.8791C51.782 61.8753 50.6208 71.6352 54.9167 81.6691C59.287 91.8722 67.2552 97.6267 78.1808 98.9093C82.94 99.469 87.705 98.7636 91.1428 97.0378L91.1485 97.0261Z" fill="white"/>
</g>
<defs>
<filter id="filter0_i_1679_8589" x="0" y="0" width="150.704" height="150" filterUnits="userSpaceOnUse" color-interpolation-filters="sRGB">
<feFlood flood-opacity="0" result="BackgroundImageFix"/>
<feBlend mode="normal" in="SourceGraphic" in2="BackgroundImageFix" result="shape"/>
<feColorMatrix in="SourceAlpha" type="matrix" values="0 0 0 0 0 0 0 0 0 0 0 0 0 0 0 0 0 0 127 0" result="hardAlpha"/>
<feMorphology radius="16" operator="erode" in="SourceAlpha" result="effect1_innerShadow_1679_8589"/>
<feOffset/>
<feGaussianBlur stdDeviation="11.5"/>
<feComposite in2="hardAlpha" operator="arithmetic" k2="-1" k3="1"/>
<feColorMatrix type="matrix" values="0 0 0 0 1 0 0 0 0 1 0 0 0 0 1 0 0 0 0.5 0"/>
<feBlend mode="normal" in2="shape" result="effect1_innerShadow_1679_8589"/>
</filter>
</defs>
</svg>
