<svg width="237" height="59" viewBox="0 0 237 59" fill="none" xmlns="http://www.w3.org/2000/svg">
<g clip-path="url(#clip0_1717_4231)">
<path d="M83.5509 31.5945C83.6281 31.5945 83.696 31.6069 83.7609 31.6224C83.7732 31.3649 83.7825 31.1012 83.7825 30.8282V19.8828H79.3357V30.8282C79.3357 31.1012 79.3234 31.3556 79.3018 31.5945H83.554H83.5509Z" fill="black"/>
<path d="M74.4447 34.6287C70.2573 34.5697 69.4143 33.6111 69.4143 30.8282V19.8828H65.0107V30.8282C65.0107 36.6918 67.9814 39.6267 74.8677 39.6267C76.3901 39.6267 77.7118 39.4312 78.842 39.0465L74.4447 34.6287Z" fill="black"/>
<path d="M90.6475 39.3056L93.3217 34.3107H96.9131C97.7685 34.3107 98.7721 34.3107 99.4576 34.3696C99.0716 33.6716 98.4725 32.4833 98.0032 31.5526L95.437 26.4119L88.7236 39.3025H83.4863L92.6609 21.7365C93.2599 20.6041 94.1369 19.5586 95.5265 19.5586C96.9162 19.5586 97.7283 20.5172 98.349 21.7365L107.286 39.3025H90.6506L90.6475 39.3056Z" fill="black"/>
<path d="M121.589 38.5804L112.822 27.8956V39.3064H108.802V23.1923C108.802 20.608 109.957 19.5625 111.217 19.5625C111.751 19.5625 112.285 19.7362 112.992 20.608L121.759 31.2928V19.8821H125.801V35.9682C125.801 38.5525 124.646 39.6259 123.365 39.6259C122.809 39.6259 122.275 39.4522 121.589 38.5804Z" fill="black"/>
<path d="M138.034 29.1397H133.778V39.3064H138.203V29.1211C138.151 29.1304 138.092 29.1397 138.031 29.1397H138.034Z" fill="black"/>
<path d="M129.93 19.8828L127.064 24.9336H133.722C133.762 24.9274 133.799 24.9212 133.843 24.9212H138.935C138.978 24.9212 139.015 24.9274 139.055 24.9336H143.314L146.179 19.8828H129.927H129.93Z" fill="black"/>
<path d="M153.196 27.6016L151.037 31.3462H143.895L146.053 27.6016H153.196Z" fill="black"/>
<path d="M157.75 39.3056L160.424 34.3107H164.016C164.871 34.3107 165.875 34.3107 166.56 34.3696C166.174 33.6716 165.575 32.4833 165.106 31.5526L162.54 26.4119L155.826 39.3025H150.589L159.763 21.7365C160.362 20.6041 161.239 19.5586 162.629 19.5586C164.019 19.5586 164.831 20.5172 165.452 21.7365L174.388 39.3025H157.753L157.75 39.3056Z" fill="black"/>
<path d="M187.816 34.3393H180.33V39.3032H175.927V29.3724H188.242C189.61 29.3724 190.4 28.4726 190.4 27.1355C190.4 25.7983 189.61 24.9297 188.242 24.9297H175.927L178.857 19.8789H187.837C192.262 19.8789 194.85 22.8417 194.85 27.1665C194.85 31.4913 192.262 34.3393 187.816 34.3393Z" fill="black"/>
<path d="M208.944 34.3393H201.458V39.3032H197.055V29.3724H209.37C210.738 29.3724 211.528 28.4726 211.528 27.1355C211.528 25.7983 210.738 24.9297 209.37 24.9297H197.055L199.985 19.8789H208.965C213.39 19.8789 215.978 22.8417 215.978 27.1665C215.978 31.4913 213.39 34.3393 208.944 34.3393Z" fill="black"/>
<path d="M225.492 24.8684C225.514 24.8901 225.529 24.9119 225.545 24.9336H233.617L236.461 19.8828H224.038C222.852 19.8828 221.858 20.0628 221.036 20.3947C222.521 21.887 224.004 23.3762 225.489 24.8684H225.492Z" fill="black"/>
<path d="M231.484 27.6292H223.702C222.677 27.6292 222.182 27.2507 222.182 26.2642C222.182 26.2021 222.189 26.1463 222.192 26.0904L218.637 22.5195C218.137 23.4534 217.902 24.6013 217.902 25.9167C217.902 29.2549 219.592 31.4918 223.269 31.4918H231.051C232.098 31.4918 232.571 31.8982 232.571 32.8848C232.571 33.8713 232.101 34.3088 231.051 34.3088H220.231L217.387 39.3037H230.708C235.072 39.3037 236.844 36.9241 236.844 32.9437C236.844 29.4007 234.964 27.6292 231.477 27.6292H231.484Z" fill="black"/>
<path d="M40.5676 40.9584C38.7117 41.8767 36.1394 42.2521 33.5701 41.9542C27.672 41.2717 23.3704 38.2096 21.0111 32.7803C18.6889 27.4442 19.3189 22.2476 22.7064 17.4605C24.0343 15.5867 24.1022 15.5463 26.2731 16.3374C37.5012 20.4203 46.0056 27.7079 51.4282 38.4082C52.7313 40.977 53.5682 43.856 54.1673 46.6886C55.0474 50.8551 54.3526 54.8728 51.7432 58.484C51.9809 58.484 52.1014 58.515 52.1909 58.4809C55.631 57.1283 57.8667 54.6742 58.9167 51.1095C60.0901 47.1198 59.6269 43.1952 58.5801 39.2675C58.438 38.7308 58.472 38.0328 58.6912 37.5271C60.4514 33.466 61.2389 29.2684 60.9424 24.8195C59.7998 7.80885 42.7941 -3.61741 26.7363 1.90182C25.9581 2.16863 25.2108 2.52851 24.2906 2.90701C24.6179 3.11177 24.7353 3.21415 24.8711 3.26379C29.8089 5.02597 34.1414 7.81816 38.1929 11.1036C38.5388 11.3829 38.9711 11.5907 39.3941 11.7303C44.8723 13.5391 48.4235 17.1999 49.983 22.7905C50.0571 23.0573 50.0602 23.3458 50.1405 23.9446C49.6402 23.4079 49.353 23.1163 49.0813 22.8091C43.5414 16.5391 37.0843 11.4883 29.463 8.01672C24.4512 5.73333 19.2231 4.32792 13.6554 4.60714C4.84219 5.05079 -0.549507 11.0912 0.0433946 19.9146C0.497335 26.6313 3.35376 32.4112 7.1366 37.8063C7.17983 37.8683 7.30644 37.8745 7.51025 37.9459C7.28173 37.4154 7.10572 36.9966 6.92352 36.5808C5.57714 33.5249 4.66 30.3636 4.61676 26.9943C4.55192 21.7698 6.96984 17.7987 11.4012 15.9372C13.5535 15.0344 15.8109 14.6776 18.1856 14.8669C16.2988 15.5898 14.4676 16.2351 12.6858 16.9952C10.9905 17.718 9.94053 18.9931 9.75524 20.9197C9.64716 22.0273 9.37542 23.1194 9.25807 24.2269C7.57818 39.9718 21.1686 53.9234 36.865 52.6297C40.0364 52.3691 43.0627 51.6463 45.9222 50.2719C46.7684 49.8655 47.1914 50.0423 47.6917 50.7776C48.8373 52.4622 50.0664 54.0879 51.2645 55.7322C51.4838 56.0331 51.7308 56.3092 52.1292 56.7994C52.2558 56.1355 52.4102 55.7073 52.4102 55.273C52.4256 52.8159 52.6263 50.337 52.3577 47.9078C51.7061 42.0318 49.7236 36.6212 46.123 31.8651C45.5609 31.1236 44.9557 30.8041 44.0077 30.8227C40.9042 30.8848 37.8007 30.8444 34.6973 30.8475C34.3329 30.8475 33.9716 30.8848 33.3694 30.9189C35.8306 34.3502 38.1682 37.6108 40.5676 40.9553V40.9584Z" fill="black"/>
<path d="M40.5676 40.9592C38.1682 37.6147 35.8306 34.3572 33.3694 30.9228C33.9716 30.8886 34.3359 30.8514 34.6973 30.8514C37.8007 30.8483 40.9042 30.8855 44.0077 30.8266C44.9588 30.808 45.564 31.1275 46.123 31.869C49.7236 36.625 51.7061 42.0357 52.3577 47.9117C52.6263 50.3378 52.4256 52.8198 52.4102 55.2769C52.4102 55.7081 52.2558 56.1394 52.1292 56.8033C51.7308 56.3131 51.4838 56.0339 51.2645 55.736C50.0633 54.0918 48.8342 52.4661 47.6917 50.7815C47.1914 50.0462 46.7684 49.8693 45.9222 50.2758C43.0627 51.6501 40.0364 52.373 36.865 52.6336C21.1686 53.9273 7.57818 39.9757 9.25807 24.2308C9.37542 23.1233 9.64716 22.0312 9.75524 20.9236C9.94361 18.997 10.9905 17.725 12.6858 16.9991C14.4676 16.239 16.3019 15.5936 18.1856 14.8708C15.8109 14.6815 13.5535 15.0383 11.4012 15.9411C6.96984 17.8026 4.55192 21.7737 4.61676 26.9982C4.66 30.3674 5.57714 33.5288 6.92352 36.5847C7.10572 37.0004 7.28482 37.4193 7.51025 37.9498C7.30644 37.8784 7.17983 37.8722 7.1366 37.8102C3.35685 32.415 0.497335 26.6321 0.0433946 19.9153C-0.549507 11.092 4.84219 5.05158 13.6554 4.61103C19.2231 4.33181 24.4512 5.73722 29.463 8.02061C37.0843 11.4922 43.5414 16.543 49.0813 22.813C49.353 23.1202 49.6371 23.4118 50.1405 23.9485C50.0633 23.3497 50.0602 23.0612 49.983 22.7944C48.4235 17.2069 44.8723 13.5429 39.3941 11.7342C38.968 11.5946 38.5388 11.3867 38.1929 11.1075C34.1414 7.82515 29.8058 5.02986 24.8711 3.26768C24.7353 3.21804 24.6179 3.11566 24.2906 2.9109C25.2108 2.5293 25.9581 2.17252 26.7363 1.90571C42.791 -3.61352 59.7998 7.81275 60.9393 24.8265C61.2389 29.2754 60.4514 33.473 58.6881 37.5341C58.4689 38.0398 58.4349 38.7378 58.577 39.2745C59.6238 43.2022 60.0901 47.1268 58.9136 51.1165C57.8636 54.6812 55.6279 57.1352 52.1878 58.4879C52.0952 58.5251 51.9779 58.491 51.7401 58.491C54.3495 54.8798 55.0412 50.8621 54.1642 46.6955C53.5651 43.863 52.7282 40.9809 51.4251 38.4152C45.9994 27.7149 37.495 20.4272 26.27 16.3444C24.0991 15.5564 24.0312 15.5936 22.7033 17.4675C19.3158 22.2546 18.6889 27.448 21.008 32.7873C23.3673 38.2166 27.6689 41.2787 33.567 41.9612C36.1363 42.2591 38.7086 41.8837 40.5645 40.9654L40.5676 40.9592Z" fill="black"/>
</g>
<defs>
<clipPath id="clip0_1717_4231">
<rect width="237" height="58" fill="white" transform="translate(0 0.5)"/>
</clipPath>
</defs>
</svg>
