<svg width="18" height="20" viewBox="0 0 18 20" fill="none" xmlns="http://www.w3.org/2000/svg">
<g clip-path="url(#clip0_1717_3762)">
<path d="M18.0001 14.8719C17.9653 15.0702 17.9322 15.474 17.822 15.8563C16.8876 19.1024 12.7672 20.1773 10.3107 17.8016C7.46483 15.0498 4.6473 12.2708 1.81747 9.50328C1.77361 9.46039 1.72869 9.41646 1.69339 9.36676C1.55486 9.17167 1.57465 8.93315 1.73885 8.76839C1.90625 8.59997 2.17367 8.57643 2.37156 8.72184C2.4566 8.78408 2.52934 8.86306 2.60475 8.93681C5.37789 11.6483 8.15103 14.3609 10.9242 17.0724C11.8056 17.9344 12.8715 18.2958 14.0947 18.0783C15.4826 17.8314 16.4357 17.0238 16.8571 15.7067C17.2818 14.3803 16.9652 13.1819 15.9634 12.1944C13.5336 9.79985 11.0889 7.421 8.6495 5.03534C7.54024 3.95052 6.43313 2.86361 5.32066 1.78246C4.6719 1.15217 3.88355 0.912092 2.99304 1.09464C2.02392 1.29288 1.36767 1.87922 1.08207 2.80503C0.78523 3.76536 1.03821 4.61533 1.76024 5.3225C4.80829 8.3081 7.86008 11.2906 10.9113 14.273C11.5649 14.9122 12.5164 14.9404 13.1331 14.3415C13.762 13.7301 13.7385 12.8011 13.0737 12.1505C11.5435 10.6519 10.0117 9.1544 8.48049 7.6569C7.67395 6.86813 6.86474 6.08145 6.06195 5.28902C5.75763 4.98879 5.85497 4.54942 6.23577 4.46102C6.47377 4.4061 6.64065 4.51908 6.8011 4.67652C9.13085 6.95914 11.4644 9.23809 13.7941 11.5207C14.798 12.5046 14.8098 14.0314 13.8294 14.9959C12.8405 15.9682 11.2723 15.9588 10.2572 14.9671C7.18618 11.9669 4.11567 8.96663 1.04944 5.96219C-0.337397 4.6033 -0.349163 2.46295 1.01093 1.11608C2.37317 -0.232877 4.5751 -0.269491 5.96354 1.07999C9.56086 4.5761 13.1432 8.08632 16.7218 11.6007C17.5781 12.4418 17.9792 13.4858 18.0001 14.8719Z" fill="white"/>
<path d="M18.0001 14.8721C17.9792 13.486 17.5781 12.442 16.7218 11.6009C13.1438 8.08652 9.56086 4.5763 5.96407 1.08019C4.5751 -0.269816 2.3737 -0.232679 1.01093 1.11628C-0.349163 2.46315 -0.337397 4.60349 1.04944 5.96187C4.11567 8.9663 7.18618 11.9666 10.2572 14.9668C11.2723 15.9585 12.8405 15.9679 13.8294 14.9956C14.8103 14.0311 14.7985 12.5043 13.7941 11.5204C11.4644 9.23777 9.13085 6.95881 6.8011 4.6762C6.64065 4.51876 6.47377 4.40578 6.23577 4.4607C5.85497 4.5491 5.75763 4.98846 6.06195 5.2887C6.86474 6.08113 7.67395 6.8678 8.48049 7.65657C10.0117 9.15408 11.5435 10.6516 13.0737 12.1501C13.7385 12.8008 13.762 13.7298 13.1331 14.3412C12.5164 14.9401 11.5654 14.9119 10.9113 14.2727C7.86008 11.2897 4.80829 8.30778 1.76024 5.32217C1.03821 4.615 0.78523 3.76504 1.08207 2.80471C1.3682 1.8789 2.02392 1.29255 2.99304 1.09431C3.88355 0.911767 4.6719 1.15185 5.32066 1.78213C6.43313 2.86329 7.54024 3.9502 8.6495 5.03502C11.0884 7.42015 13.5336 9.79953 15.9634 12.1941C16.9657 13.1816 17.2818 14.3799 16.8571 15.7064C16.4357 17.0235 15.4826 17.8311 14.0947 18.0779C12.8715 18.2955 11.8056 17.9341 10.9242 17.0721C8.1505 14.3606 5.37789 11.6485 2.60475 8.93649C2.52934 8.86274 2.4566 8.78376 2.37156 8.72151C2.17367 8.5761 1.90625 8.59964 1.73885 8.76807C1.57465 8.93283 1.55486 9.17134 1.69339 9.36644C1.72869 9.41613 1.77361 9.45954 1.81747 9.50296C4.64677 12.2704 7.46483 15.05 10.3107 17.8012C12.7678 20.177 16.8882 19.1021 17.822 15.856C17.9322 15.4736 17.9653 15.0704 18.0001 14.8716V14.8721Z" fill="#C1C1C1"/>
</g>
<defs>
<clipPath id="clip0_1717_3762">
<rect width="18" height="19" fill="white" transform="translate(0 0.0859375)"/>
</clipPath>
</defs>
</svg>
