<svg width="40" height="40" viewBox="0 0 40 40" fill="none" xmlns="http://www.w3.org/2000/svg">
<path d="M27.4795 13.1178C27.0556 13.1178 26.6476 13.0921 26.2444 13.1222C24.7057 13.2375 23.5544 14.3952 23.5378 15.8348C23.5283 16.6533 23.5362 17.4726 23.5362 18.3191H8.43945V6.19141H27.4787V13.1178H27.4795Z" fill="white"/>
<path d="M25.4395 18.3203H36.9995V29.1714H25.4395V18.3203Z" fill="white"/>
<path d="M6.85758 18.3177H5.07338C5.06223 18.1321 5.04073 17.951 5.04073 17.7692C5.03913 13.3055 5.03834 8.84186 5.03993 4.37817C5.03993 3.44518 5.50749 3.01348 6.50393 3.01348C14.1234 3.01348 21.7429 3.02321 29.3623 3.00001C30.2839 2.99702 30.8901 3.55666 30.8789 4.42381C30.8439 7.12926 30.8662 9.83545 30.8662 12.5409C30.8662 12.6748 30.8662 12.808 30.8662 12.9629H29.1752C29.1752 12.814 29.1752 12.6703 29.1752 12.5274C29.1752 10.3831 29.1744 8.23807 29.1744 6.09377C29.1744 5.07698 28.5642 4.49489 27.4746 4.49489C21.1558 4.49265 14.8379 4.49265 8.51911 4.49489C7.45019 4.49489 6.85758 5.06276 6.85758 6.07731C6.85678 9.99257 6.85758 13.9078 6.85758 17.8231C6.85758 17.9817 6.85758 18.1411 6.85758 18.3191V18.3177Z" fill="white"/>
<path d="M24.08 19.5938V23.4235C23.9142 23.4235 23.769 23.4235 23.6237 23.4235C18.0305 23.4235 12.4373 23.4235 6.8433 23.422C4.3175 23.422 2.81416 21.9291 3.01849 19.5945H13.7528C13.7528 19.7967 13.7462 20.0034 13.7544 20.2093C13.7708 20.6413 14.0252 20.8905 14.4921 20.892C16.9391 20.9002 19.3862 20.9032 21.8332 20.9009C22.3469 20.9009 22.6005 20.651 22.6111 20.178C22.6152 19.9922 22.6111 19.8064 22.6111 19.5938H24.08Z" fill="white"/>
<path d="M25.4395 17.0415C25.47 16.5222 25.4507 15.9982 25.5431 15.4942C25.6404 14.9614 26.1836 14.5595 26.7325 14.5056C26.8651 14.4928 27.0001 14.4896 27.1335 14.4896C29.8521 14.4888 32.5707 14.4871 35.2894 14.4896C36.4739 14.4904 36.997 15.0192 36.9995 16.2072C36.9995 16.4748 36.9995 16.7417 36.9995 17.0415H25.4395Z" fill="white"/>
<path d="M36.9923 30.4501C36.9923 30.8522 37.0108 31.221 36.9883 31.5865C36.94 32.3779 36.3319 32.9955 35.5854 32.9972C32.6766 33.004 29.7686 33.004 26.8598 32.998C26.1261 32.9963 25.5405 32.4281 25.4585 31.6316C25.4198 31.2551 25.452 30.87 25.452 30.4492H36.9915L36.9923 30.4501Z" fill="white"/>
<path d="M19.6943 30.4157C19.6943 30.1125 19.6861 29.8294 19.6968 29.5464C19.7091 29.2074 19.8699 29.1185 20.1932 29.2858C21.1901 29.8011 22.1829 30.3238 23.1716 30.8511C23.4711 31.0109 23.476 31.1916 23.1806 31.3492C22.1804 31.8846 21.1762 32.4133 20.1661 32.9339C19.8724 33.0855 19.7091 32.9854 19.6976 32.668C19.6886 32.4104 19.696 32.1527 19.696 31.8525C19.5007 31.8525 19.3538 31.8525 19.2078 31.8525C17.9098 31.8525 16.6109 31.8562 15.3129 31.851C14.0305 31.8458 13.2108 31.1005 13.2075 29.9392C13.2034 28.5337 13.2157 27.1275 13.1993 25.7221C13.196 25.4218 13.2969 25.321 13.6186 25.3479C13.8762 25.3696 14.1388 25.3681 14.3964 25.3479C14.691 25.3255 14.7681 25.436 14.7656 25.6907C14.7541 27.0588 14.7599 28.4277 14.7599 29.7958C14.7599 30.3358 14.8633 30.4336 15.4401 30.4343C16.725 30.4366 18.0099 30.4358 19.2939 30.4343C19.4137 30.4343 19.5327 30.4224 19.6943 30.4134V30.4157Z" fill="white"/>
</svg>
