<svg width="24" height="24" viewBox="0 0 24 24" fill="none" xmlns="http://www.w3.org/2000/svg">
<path d="M0.857422 20.4704C0.857422 20.9526 1.17885 21.264 1.66099 21.264H21.6398C22.0817 21.264 22.4534 20.9124 22.4534 20.4604C22.4534 20.0184 22.0817 19.6568 21.6398 19.6568H2.75586C2.54492 19.6568 2.47461 19.5865 2.47461 19.3756V3.49497C2.47461 3.06306 2.113 2.69141 1.67104 2.69141C1.21903 2.69141 0.857422 3.06306 0.857422 3.49497V20.4704ZM1.91211 14.2227L8.37081 10.4861L13.0215 14.4738L21.2882 9.5519L20.6555 8.52735L13.1019 13.0273L8.47126 9.05971L1.91211 12.8466V14.2227ZM8.24023 11.8421C9.22461 11.8421 10.0282 11.0385 10.0282 10.0541C10.0282 9.06975 9.22461 8.27623 8.24023 8.27623C7.25586 8.27623 6.45229 9.06975 6.45229 10.0541C6.45229 11.0385 7.25586 11.8421 8.24023 11.8421ZM12.9813 15.5285C13.9657 15.5285 14.7593 14.7249 14.7593 13.7405C14.7593 12.7561 13.9657 11.9626 12.9813 11.9626C11.9969 11.9626 11.1934 12.7561 11.1934 13.7405C11.1934 14.7249 11.9969 15.5285 12.9813 15.5285ZM20.555 10.9582C21.5393 10.9582 22.3429 10.1546 22.3429 9.1702C22.3429 8.18582 21.5393 7.38225 20.555 7.38225C19.5706 7.38225 18.767 8.18582 18.767 9.1702C18.767 10.1546 19.5706 10.9582 20.555 10.9582Z" fill="white"/>
</svg>
