<svg width="24" height="24" viewBox="0 0 24 24" fill="none" xmlns="http://www.w3.org/2000/svg">
<path d="M0 12.074C0 13.7421 1.17753 14.658 2.50225 14.658C3.0583 14.658 3.47535 14.5026 3.97416 14.1919C4.44026 13.9057 4.77553 14.0773 4.77553 14.4781V17.5037C4.77553 19.1146 5.62597 19.9405 7.25323 19.9405H9.43656C9.82907 19.9405 10.0008 19.6134 9.72279 19.1473C9.4039 18.6485 9.2485 18.2315 9.2485 17.6754C9.2485 16.3507 10.1725 15.1732 11.8407 15.1732C13.5089 15.1732 14.4247 16.3507 14.4247 17.6754C14.4247 18.2315 14.2693 18.6485 13.9586 19.1473C13.6806 19.6134 13.8441 19.9405 14.2449 19.9405H16.4282C18.0554 19.9405 18.9059 19.1146 18.9059 17.5037V14.4781C18.9059 14.0773 19.2411 13.9057 19.6991 14.1919C20.206 14.5026 20.6231 14.658 21.171 14.658C22.5039 14.658 23.6814 13.7421 23.6814 12.074C23.6814 10.3976 22.5039 9.48174 21.171 9.48174C20.6231 9.48174 20.206 9.63711 19.6991 9.94785C19.2411 10.2341 18.9059 10.0623 18.9059 9.66164V6.63605C18.9059 5.0333 18.0554 4.19922 16.4282 4.19922H14.2449C13.8441 4.19922 13.6806 4.53449 13.9586 5.00059C14.2693 5.49941 14.4247 5.91645 14.4247 6.4725C14.4247 7.79722 13.5089 8.97475 11.8407 8.97475C10.1725 8.97475 9.2485 7.79722 9.2485 6.4725C9.2485 5.91645 9.4039 5.49941 9.72279 5.00059C10.0008 4.53449 9.82907 4.19922 9.43656 4.19922H7.25323C5.62597 4.19922 4.77553 5.0333 4.77553 6.63605V9.66164C4.77553 10.0623 4.44026 10.2341 3.97416 9.94785C3.47535 9.63711 3.0583 9.48174 2.50225 9.48174C1.17753 9.48174 0 10.3976 0 12.074Z" fill="white"/>
</svg>
