<svg width="24" height="24" viewBox="0 0 24 24" fill="none" xmlns="http://www.w3.org/2000/svg">
<path d="M20.1229 14.1088V6.42466C20.1229 5.36997 19.6709 5.02846 18.8171 4.6769C17.6318 4.19475 13.8049 2.73828 12.6196 2.39676C12.3483 2.32645 12.0571 2.24609 11.7758 2.24609C11.4946 2.24609 11.2033 2.30636 10.9421 2.39676C9.74679 2.80859 5.91978 4.18471 4.73452 4.6769C3.89076 5.03851 3.42871 5.36997 3.42871 6.42466V14.1088C3.42871 17.7751 5.38742 19.1311 11.1028 22.3354C11.364 22.476 11.6151 22.5363 11.7758 22.5363C11.9365 22.5363 12.1977 22.476 12.4488 22.3354C18.1542 19.1211 20.1229 17.7751 20.1229 14.1088ZM11.5649 20.678C11.4443 20.6478 11.3138 20.5776 11.153 20.4771C6.52246 17.6546 5.02581 16.8409 5.02581 13.7371V6.73605C5.02581 6.39453 5.08607 6.25391 5.36733 6.15346C6.92424 5.62109 9.85728 4.55636 11.374 3.95368C11.4544 3.92354 11.5146 3.90346 11.5649 3.89342V20.678Z" fill="white"/>
</svg>
