<svg width="24" height="24" viewBox="0 0 24 24" fill="none" xmlns="http://www.w3.org/2000/svg">
<path d="M1.2354 22.7458C2.89276 24.4032 5.35371 24.4635 6.98093 22.5249C8.17625 21.0885 11.1997 16.2168 13.7912 13.6252C15.5189 11.8976 17.4273 12.8116 19.3459 12.0282L17.6383 5.80048C17.4273 5.02705 17.7387 4.38419 18.6327 4.14312L22.3995 3.13866C22.2789 2.78709 21.9475 2.30495 21.5356 1.88307C19.2153 -0.497507 15.3783 -0.527641 13.0881 1.642C9.74323 4.82616 12.2845 8.19111 10.0847 10.3909C7.31241 13.1532 3.49545 15.1621 1.45638 16.9902C-0.452101 18.6878 -0.442056 21.0683 1.2354 22.7458ZM4.07804 21.1387C3.395 21.1387 2.8325 20.5862 2.8325 19.9032C2.8325 19.2201 3.395 18.6576 4.07804 18.6576C4.76107 18.6576 5.31352 19.2201 5.31352 19.9032C5.31352 20.5862 4.76107 21.1387 4.07804 21.1387ZM13.52 7.71902C13.299 7.77928 13.1082 7.66879 13.0378 7.42772C12.9776 7.24691 13.0981 7.02593 13.309 6.96566L15.6595 6.33285C15.8504 6.28262 16.0713 6.40316 16.1216 6.6141C16.1919 6.84512 16.0613 7.04602 15.8504 7.10629L13.52 7.71902ZM13.8213 8.91428C13.6004 8.97463 13.4095 8.86414 13.3292 8.62303C13.2689 8.44223 13.3995 8.22124 13.6104 8.17102L15.9508 7.52816C16.1416 7.48798 16.3626 7.59848 16.4229 7.80941C16.4932 8.04044 16.3526 8.24133 16.1416 8.3016L13.8213 8.91428ZM14.1126 10.1097C13.9017 10.1699 13.6807 10.0594 13.6406 9.81831C13.5903 9.61748 13.7008 9.4266 13.9218 9.36634L16.2521 8.74354C16.4731 8.67326 16.684 8.8038 16.7242 9.00471C16.7745 9.20563 16.6539 9.4266 16.4631 9.47683L14.1126 10.1097ZM20.4508 11.5461C20.8425 11.315 21.2443 11.0137 21.6561 10.6219C22.9218 9.47683 23.5747 7.74914 23.3135 6.52369L20.27 7.3574C19.9285 7.44781 19.6371 7.4679 19.3258 7.41767L20.4508 11.5461Z" fill="white"/>
</svg>
