<svg width="68" height="68" viewBox="0 0 68 68" fill="none" xmlns="http://www.w3.org/2000/svg">
<path d="M50.1308 44.4816C49.262 44.5155 48.5976 44.0704 48.3804 43.0624C48.2494 43.1076 48.1967 43.1092 48.168 43.1366C47.8326 43.4592 48.1887 44.3623 47.4141 44.2462C46.6363 44.1301 45.734 44.0639 45.3027 43.2044C44.9945 42.5915 44.7629 41.9384 44.4036 41.0804C43.9005 42.227 43.4453 43.264 42.9917 44.301C42.8591 44.28 42.7585 44.2946 42.7106 44.251C42.2059 43.7946 42.1516 43.822 41.7763 44.3268C41.6022 44.5623 41.2397 44.88 41.0544 44.8284C40.7845 44.7526 40.4954 44.4107 40.3996 44.1204C40.2878 43.7769 40.3724 43.3672 40.3724 42.9205C40.16 43.1221 39.9748 43.2979 39.6569 43.6011C39.4812 43.1479 39.371 42.7592 39.1826 42.4125C39.0692 42.2045 38.7913 41.8916 38.6587 41.9239C37.8697 42.1158 37.06 42.3093 36.3381 42.6689C35.7552 42.9608 35.4964 43.5463 35.5108 44.2865C35.5332 45.4267 35.3271 46.575 35.3974 47.7071C35.4741 48.9441 36.0698 49.2956 37.3235 49.3101C38.3936 49.323 39.4637 49.4521 40.5289 49.5762C41.7284 49.7149 42.9166 49.9714 44.1177 50.0552C45.3283 50.1391 46.5469 50.073 47.8006 50.1568C46.7769 51.1051 45.7132 51.9792 44.2502 52.1179C44.065 52.1356 43.8542 52.0228 43.6737 51.9308C43.2361 51.7067 42.8336 51.3922 42.3752 51.239C41.6038 50.9809 40.7925 51.0583 40.0562 50.41C39.6346 50.0407 38.6348 50.3423 37.8873 50.4681C38.2307 50.9438 38.5629 51.2357 39.1411 51.0358C39.3008 50.9809 39.5739 51.2406 39.7863 51.3712C39.9428 51.468 40.0706 51.626 40.2367 51.697C40.8963 51.9808 41.5655 52.2421 42.2315 52.513L42.1788 52.8372C41.4665 53.1533 40.7621 53.4839 40.0386 53.771C39.8885 53.8306 39.6777 53.7419 39.4956 53.7097C39.0628 53.6306 38.6332 53.5452 37.9959 53.4226C38.0997 53.121 38.2467 52.6985 38.4096 52.2292C38.1972 52.3469 37.9225 52.4969 37.619 52.6646C36.1097 51.8341 35.8925 51.5728 35.72 50.2617L36.8827 50.6019C35.6849 49.9601 35.1802 48.8054 34.5605 47.7119C34.3257 47.2975 33.7731 47.0668 33.2429 46.6572V48.0232C33.5831 47.9571 33.9057 47.791 34.0622 47.8909C34.2283 47.9974 34.2187 48.3635 34.3178 48.6022C34.4439 48.907 34.6036 49.1973 34.7075 49.4101C34.7633 49.8117 34.7665 50.1568 34.8656 50.4729C35.0333 51.0083 35.4246 51.5244 35.4262 52.0502C35.4262 52.8501 35.8366 52.7469 36.3269 52.7066C36.6719 52.6775 36.977 52.6033 37.2085 53.0726C37.4417 53.5436 37.4625 53.8693 37.0137 54.0935C36.8029 54.1999 36.4962 54.1112 36.1736 54.1112C35.9117 54.2515 35.5555 54.4402 35.1994 54.6305L35.0524 54.4499C35.1594 54.1274 35.2648 53.8048 35.4246 53.3226C35.0476 53.5129 34.8304 53.6226 34.6132 53.7322L34.5094 53.6323C34.6835 53.4129 34.8592 53.192 35.062 52.9372C34.2347 52.9501 33.9137 53.3371 33.9967 54.2306C33.8179 54.1709 33.6709 54.1209 33.54 54.0758C33.5511 54.8853 33.2972 55.0144 31.6937 54.9063C31.8662 54.7402 32.0003 54.6128 32.2591 54.366H31.2082C31.3136 53.6758 31.6937 53.2355 32.2702 53.0323C32.6663 52.8936 32.8085 52.7646 32.7973 52.313C32.7877 51.947 32.9107 51.4664 33.1566 51.2309C33.5447 50.8584 33.5639 50.5487 33.4537 50.0601C33.3451 49.5779 33.4298 49.0521 33.4298 48.478C32.7957 49.086 32.6855 49.7907 32.4459 50.5197C32.0802 51.6341 31.3056 52.7453 29.9321 53.0372C29.7021 53.0855 29.4545 53.1355 29.2629 53.2597C28.4084 53.8113 27.5635 53.8193 26.7075 53.2694C26.5174 53.1484 26.2475 52.9581 26.0894 53.0146C24.9059 53.4355 24.3757 52.3695 23.5132 52.0292C23.5979 51.9018 23.6378 51.8228 23.649 51.8276C24.7702 52.226 25.6135 51.8018 26.4216 51.0067C26.9103 50.5278 27.423 50.7229 27.7472 51.3502C27.2425 51.8986 26.1948 51.5922 26.0079 52.6162C26.8001 52.2179 27.5268 51.8147 28.287 51.4873C28.5474 51.376 28.8875 51.4373 29.1894 51.447C30.0007 51.4728 30.5597 50.9019 31.1986 50.5519C31.649 50.3052 31.657 49.8907 31.1602 49.5601C30.9558 50.131 29.6893 50.6713 28.8141 50.5584C28.4771 50.5149 28.1337 50.4165 27.8223 50.2794C26.9518 49.8956 26.1197 50.0746 25.5623 50.781C25.2749 51.1454 24.9586 51.4873 24.6552 51.8389C24.644 51.7421 24.6344 51.6454 24.6232 51.5486C24.1058 51.4438 23.5867 51.3502 23.0724 51.2293C22.7594 51.1567 22.4464 51.068 22.1509 50.9422C21.8283 50.8051 21.528 50.6181 21.1814 50.2439C22.1557 50.0972 23.1267 49.9181 24.1058 49.8101C25.0385 49.7069 25.9776 49.6666 26.9151 49.6279C27.1339 49.6198 27.3671 49.7101 27.5779 49.794C28.4324 50.131 29.3427 50.3116 30.0902 49.7182C30.8967 49.0779 31.0836 48.1587 30.8504 47.0959C30.6827 46.3314 30.7674 45.5122 30.721 44.7203C30.6795 44.0059 30.6092 43.2931 30.5517 42.556C30.277 42.6173 30.2004 42.6125 30.1812 42.6431C28.8524 44.7961 26.6564 43.9946 24.7782 44.1978C24.4955 44.2284 24.1441 43.6221 23.7816 43.2689C23.3951 44.0817 22.8073 43.7849 22.1381 43.3237C22.3953 43.9607 22.5821 44.4252 22.7578 44.8622C22.1397 45.1154 21.6398 45.3912 21.1064 45.4993C20.9275 45.5348 20.458 45.1171 20.4787 44.9526C20.533 44.5365 20.7295 44.1817 20.4084 43.7559C20.3334 43.6559 20.6512 43.2527 20.8237 42.9205C21.1431 43.1931 21.3603 43.3769 21.7245 43.6882C21.8522 43.5414 21.9912 43.3818 22.21 43.1302C21.7692 43.0237 21.4961 42.956 21.223 42.8899L21.2342 42.7238C21.7836 42.6318 22.3346 42.5383 23.0948 42.4109C22.5725 41.8561 22.2403 41.5029 21.7947 41.0288C21.5312 42.0722 20.8796 42.3964 20.0826 42.4448C20.0379 43.4527 20.0475 43.4092 19.0892 43.1882C18.7395 43.1076 18.3338 43.3027 17.9489 43.335C17.7221 43.3543 17.3627 43.3834 17.2829 43.2608C17.0769 42.9479 16.5913 42.6383 17.0305 42.1561C17.1519 42.0222 17.2637 41.8787 17.3803 41.74L17.2461 41.5739C16.9395 41.7352 16.6344 41.8964 16.2288 42.1109C16.347 41.2739 14.4959 41.2917 15.4143 40.1853C15.8678 40.2418 16.1984 40.2837 16.652 40.3402C16.4332 39.8338 16.3454 39.5193 16.1681 39.2693C16.0579 39.1129 15.7656 38.9258 15.6347 38.9742C14.7562 39.2951 14.464 38.8597 14.3761 38.0807C14.3681 38.0114 14.2963 37.9485 14.226 37.8388C14.111 37.8775 13.9816 37.8936 13.8826 37.9565C13.3572 38.2904 13.025 38.0211 12.771 37.5856C12.3638 36.8905 13.1974 34.5214 13.9609 34.3037C14.4368 34.1682 14.6109 34.036 14.4927 33.4812C14.2899 32.5249 15.0948 31.8137 15.9972 31.496C16.8421 31.1976 17.8131 31.3089 18.5686 30.6461C18.9024 30.3525 19.4582 30.3154 20.0699 30.109C20.0427 30.0945 20.1689 30.1977 20.3126 30.2332C20.5602 30.2945 20.8812 30.4219 21.0537 30.3187C21.2102 30.2267 21.3444 29.7542 21.2549 29.6445C21.0585 29.4042 20.6336 29.0849 20.4452 29.1607C19.9165 29.3736 19.2889 29.372 18.9135 30.0171C18.4807 30.7589 17.7892 30.7622 16.9123 30.388C16.3661 30.1558 15.7544 30.1509 15.4222 29.4946C14.9575 28.5769 15.1427 28.1657 16.1489 28.1254C16.2543 28.1205 16.3645 28.135 16.4652 28.1076C17.1093 27.9291 17.5949 28.1168 17.9217 28.6705C18.2827 27.8383 18.2459 27.4819 17.7428 26.89C17.6885 26.89 17.6295 26.8739 17.5847 26.8932C17.1982 27.0513 16.8133 27.2158 16.4284 27.3787C16.2959 26.9723 16.1457 26.5691 16.0355 26.1562C15.8902 25.6143 15.7848 25.0628 15.6458 24.5193C15.4765 23.8549 15.4957 23.3081 16.1122 22.8017C16.5067 22.4792 16.751 21.926 16.9635 21.4325C17.243 20.7858 17.968 20.3843 18.6165 20.6181C19.4997 20.9374 19.6993 20.7665 19.9038 19.8585C19.9788 19.5231 20.3446 19.1538 20.672 18.9989C21.2885 18.7086 21.8474 18.5554 21.8443 17.6378C21.8411 16.9234 23.1651 16.1363 23.8918 16.2476C24.7159 16.3718 25.54 15.867 25.7955 15.0784C26.0622 14.2591 27.6769 13.256 28.4691 13.6092C29.6749 14.1478 30.4511 13.3205 31.3918 12.9577C31.8119 12.7964 32.2575 12.6787 32.7015 12.6093C33.064 12.5529 33.4441 12.6029 33.8163 12.5948C34.404 12.5803 34.9215 12.6496 35.1642 13.3286C35.2297 13.5108 35.4852 13.6802 35.6881 13.7463C36.3094 13.9495 36.9514 14.0898 37.5807 14.2736C37.7548 14.3252 38.0007 14.4059 38.0566 14.5397C38.3888 15.3332 39.0963 15.5799 39.8023 15.8348C39.9588 15.8912 40.1424 15.9509 40.2958 15.9186C41.5543 15.6493 42.5812 15.9299 43.3638 17.0379C43.5028 17.2346 43.9644 17.3539 44.2215 17.2894C45.6317 16.9282 46.3265 17.0846 47.1235 18.2119C47.3806 18.5748 47.4157 19.0989 47.601 19.7101C48.1057 19.7988 48.8356 19.9698 48.7126 21.0068C48.6998 21.1197 48.9186 21.2922 49.0624 21.3858C49.5718 21.7164 50.1851 21.9454 50.1276 22.7372C50.1212 22.8163 50.2203 22.9388 50.3017 22.9808C50.7234 23.1969 51.137 23.4839 51.5874 23.5742C52.2262 23.7016 52.5473 24.0339 52.7421 24.6338C52.8028 24.8209 53.1047 24.9596 53.3251 25.0515C53.5119 25.1289 53.7691 25.0467 53.9432 25.137C54.4446 25.4031 54.8008 27.5045 54.4031 27.9189C53.8537 28.4914 53.258 29.0188 52.5856 29.6558C53.0504 30.2009 53.4832 29.5687 53.9336 29.293C53.9703 30.1606 53.2899 30.6654 52.5792 30.3251C52.2981 30.1913 52.0474 29.9719 51.8206 29.751C51.3191 29.2656 51.3111 29.2575 50.8064 29.9171C51.2249 30.4106 52.2901 30.3993 51.9995 31.4782C52.3205 31.5234 52.5808 31.6105 52.8332 31.5879C54.0997 31.4782 54.8216 32.3636 54.673 33.6522C54.6108 34.1957 54.9254 34.7843 55.0691 35.352C55.1442 35.6471 55.2704 35.939 55.2911 36.2374C55.3295 36.8067 55.2432 37.3889 55.3263 37.9485C55.4636 38.8758 55.3183 39.0709 54.459 39.4483C54.1524 39.5822 53.7898 40.1515 53.8425 40.4514C54.0054 41.3739 53.5279 41.84 52.8891 42.2722C52.8028 42.3303 52.6447 42.3416 52.6128 42.4157C52.263 43.2285 51.8238 43.8269 50.7793 43.5317C50.6802 43.5043 50.4215 44.0494 50.1372 44.4784L50.1308 44.4816ZM28.7183 16.754C29.1 16.5234 29.4833 16.2928 29.8378 16.0799C29.956 17.0024 30.6875 17.4604 31.4557 17.9603C31.4972 17.3539 31.5372 16.7798 31.5899 16.0122C31.8901 16.2138 32.192 16.4153 32.5865 16.6798L32.8596 16.0525C32.4667 15.8977 32.0722 15.7428 31.6793 15.5896L31.5707 15.7622C31.5036 15.5412 31.4365 15.3203 31.3008 14.872C31.1123 15.4961 30.991 15.896 30.8712 16.2944C30.6364 16.0944 30.6156 15.9202 30.5629 15.7557C30.499 15.5574 30.4304 15.2187 30.3297 15.2058C30.1333 15.18 29.8985 15.3155 29.7053 15.4267C29.4322 15.5832 29.183 15.7767 28.9227 15.9557C28.862 16.2105 28.7965 16.4863 28.7374 16.7653C28.6384 16.8169 28.5378 16.8669 28.4388 16.9185C28.4212 16.6476 28.4036 16.375 28.3876 16.1347C28.0299 16.2105 27.6673 16.2863 27.3048 16.3621C27.5044 16.0122 27.6578 15.6122 27.9325 15.338C28.0299 15.2413 28.426 15.4493 28.9179 15.5816L29.1623 14.701C28.6304 14.6591 28.097 14.6155 27.5651 14.5736L27.7201 14.8865C27.2329 15.896 26.7474 16.9072 26.2188 18.0039C27.0477 18.0297 27.7552 16.783 28.7821 17.9974C28.7502 17.3539 28.7342 17.0556 28.7199 16.7556L28.7183 16.754ZM32.9905 33.9473C33.0273 33.4651 33.1007 33.0361 33.0848 32.6087C33.0512 31.7056 33.5799 30.9492 34.4024 30.5799C34.9933 30.3154 35.7711 30.0203 36.0059 29.5204C36.2822 28.9317 36.6671 28.6301 37.1127 28.2673C37.5807 27.8867 37.3954 27.427 36.7454 27.2335C36.5378 28.3076 35.5396 29.1704 34.4519 29.2139C34.3721 28.2076 34.1431 27.6001 33.7652 27.3916C33.8354 27.7431 33.9728 28.035 33.9297 28.2963C33.8402 28.8511 33.8003 29.5026 33.4825 29.9106C32.8372 30.7364 32.3389 31.5589 32.2143 32.6329C32.1393 33.2716 32.3453 33.628 32.9921 33.9473H32.9905ZM49.1694 32.0782C49.361 32.0491 49.4936 31.9862 49.5479 32.0282C50.158 32.4958 50.6946 31.8879 51.2728 31.9056C51.3606 31.9088 51.5395 31.6427 51.5347 31.5072C51.5139 30.9089 50.2378 30.18 49.6757 30.3735C49.2636 30.5154 48.7525 30.7493 48.4011 30.6219C47.3486 30.238 46.7178 30.838 45.8953 31.4218C46.2658 31.7185 46.5469 31.9459 46.8312 32.1685C47.2369 32.4862 47.5307 32.5604 47.6202 31.8846C47.6441 31.7105 47.8965 31.4621 48.0658 31.4427C48.2095 31.4266 48.3964 31.6798 48.5417 31.8346C48.8372 32.1491 49.1167 32.4765 49.4025 32.799L49.5686 32.6474C49.4505 32.4797 49.3323 32.312 49.1678 32.0782H49.1694ZM24.2144 17.4152L24.4412 17.6249C24.2112 17.9152 23.9972 18.22 23.7448 18.4877C23.6027 18.6377 23.3951 18.7232 23.2178 18.8393C23.6187 19.0667 23.411 19.9875 24.1265 19.765C24.4348 19.6682 24.6232 19.1844 24.9906 18.7167C25.0848 19.0973 25.1487 19.4424 25.2637 19.7682C25.3132 19.9085 25.4681 20.0101 25.5767 20.1295C25.6853 20.0069 25.8977 19.8698 25.8834 19.765C25.8402 19.4521 25.6294 19.1521 25.6294 18.8457C25.6294 18.1813 25.3899 17.9039 24.6871 18.1474C24.6232 17.2443 25.2445 17.312 25.778 17.1878C25.4585 17.0459 25.1327 16.9217 24.8564 16.9927C24.1585 17.1717 23.4781 17.4297 22.7961 17.6717C22.1876 17.8861 22.1365 18.12 22.5039 18.6844C23.0724 18.2635 23.6442 17.841 24.216 17.4168L24.2144 17.4152ZM48.5385 22.2308L48.1089 22.255C48.1089 22.7243 48.0546 23.2033 48.1232 23.6629C48.1919 24.1242 48.4091 24.5612 48.5129 25.0209C48.6743 25.7305 49.0959 25.8933 49.8034 25.6869C50.3289 25.5337 50.9246 25.5466 51.3686 26.0466C51.4596 26.1498 51.6848 26.2449 51.7807 26.1998C51.9004 26.1433 52.0298 25.9272 52.0138 25.7982C51.9835 25.5514 51.8525 25.3192 51.7471 25.0402C50.8304 25.4773 50.1915 25.1354 49.615 24.5645C49.9599 24.0726 50.8543 25.2224 50.9358 24.1451C50.5205 24.0081 50.1724 23.8936 49.7204 23.7436C49.599 23.9677 49.4041 24.3258 49.2093 24.6854C49.1183 24.5935 49.0288 24.5016 48.9378 24.4096C48.8036 23.6839 48.6711 22.9582 48.5369 22.2308H48.5385ZM33.6901 19.436C34.289 19.0118 34.6627 18.7457 35.2169 18.3522C35.0253 18.936 34.8943 19.3392 34.7633 19.7376C35.5257 20.1354 36.0357 20.1966 36.2934 19.9214C36.0075 19.9021 35.7791 19.8859 35.4964 19.8666C36.4403 19.1005 36.3732 18.578 35.2329 17.3169C34.6228 17.7894 34.4886 17.7362 33.6198 16.5895C33.4409 16.8201 33.1103 17.0895 33.1582 17.2185C33.2972 17.6007 33.5847 17.9265 33.8354 18.3103C33.8067 18.5296 33.7652 18.8635 33.6901 19.4344V19.436ZM15.8646 34.6875C16.0579 34.107 16.1282 33.6538 16.3534 33.3022C16.5131 33.0506 16.882 32.9345 17.1567 32.7571C17.2701 33.07 17.54 33.4296 17.4634 33.6828C17.3244 34.1392 17.4921 34.3408 17.8163 34.5182C18.0878 34.6682 18.3801 34.7827 18.6628 34.9117C18.7331 34.8649 18.8049 34.8166 18.8752 34.7698C18.7187 34.3779 18.5638 33.986 18.4073 33.5925C18.5095 33.2038 18.5686 32.7458 18.3881 32.4265C18.2332 32.1539 18.0144 31.8137 17.3963 32.2265C16.874 32.5749 16.0243 32.4539 15.3887 32.9781C14.9687 33.3248 14.999 33.528 15.2306 33.8715C15.3743 34.0844 15.5452 34.2779 15.8678 34.6875H15.8646ZM42.8671 29.6429C43.3031 29.9397 43.7487 30.2155 44.1656 30.5299C44.9769 31.1428 45.801 31.0057 46.4303 30.0558C46.0789 29.8413 45.7419 29.6058 45.3794 29.4236C45.0137 29.2398 44.6224 29.1075 44.2407 28.9543C44.5058 28.6495 44.7725 28.3447 45.0121 28.0673C44.148 27.8754 43.4661 28.3576 42.8655 29.6429H42.8671ZM31.4445 31.6669C31.1475 31.3105 30.9638 31.0492 30.7386 30.8283C30.3281 30.4235 29.2086 30.4122 28.9147 30.767C28.6751 31.0557 28.3813 31.2976 28.1369 31.583C28.0139 31.7266 27.8574 31.9346 27.8814 32.0878C27.9069 32.2539 28.1273 32.5184 28.2583 32.5168C29.3539 32.5007 30.4527 32.4491 31.4445 31.6685V31.6669ZM37.0904 16.2525C36.4595 15.4493 35.8446 14.6833 34.7729 14.522C34.5493 14.9429 34.3337 15.3461 34.1213 15.7428C33.5591 15.53 33.5943 15.288 33.8913 14.9349C34.0191 14.7816 34.0255 14.5236 34.0862 14.3123C33.8817 14.2817 33.6789 14.2446 33.4745 14.2236C33.2461 14.2011 33.0017 14.2382 32.7893 14.1688C32.0243 13.9237 32.0275 13.9108 31.8374 14.7026C32.3517 14.672 32.8772 14.6397 33.4857 14.6026C33.0257 15.5912 33.3419 16.1944 34.0989 16.3492C34.4503 15.9347 34.6899 15.4735 35.0636 15.28C35.2856 15.1655 35.7216 15.4719 36.0618 15.588L35.8286 15.7928C35.8733 16.0992 35.9197 16.4057 35.958 16.6653C36.4307 16.4928 36.731 16.3831 37.0888 16.2541L37.0904 16.2525ZM40.2095 36.4954C40.4683 36.9292 40.6663 37.3163 40.9155 37.6663C41.0688 37.884 41.4138 38.2372 41.4744 38.2001C41.7731 38.0178 42.075 37.7614 42.2347 37.4566C42.3273 37.2776 42.1548 36.9567 42.0957 36.6728C42.7106 36.5148 43.03 37.7259 43.8669 37.126C43.4852 36.8792 43.1818 36.7583 42.9837 36.539C42.7154 36.2406 42.5126 36.1342 42.059 36.1971C41.5192 36.2729 40.9378 36.0406 40.374 35.9422L40.9985 36.339C40.4523 36.4696 39.9061 36.6019 39.3599 36.7325C39.4269 36.8002 39.4924 36.868 39.5595 36.9357C39.7655 36.7954 39.97 36.6567 40.2079 36.4954H40.2095ZM41.7428 33.8699C41.3243 33.3393 40.9282 32.8377 40.5321 32.3362C40.4411 32.5265 40.5082 32.612 40.513 32.7023C40.5337 33.02 40.5353 33.3393 40.5433 33.6586C40.2495 33.5973 39.9588 33.528 39.6633 33.4764C39.2273 33.399 38.7897 33.3329 38.3537 33.2619L38.3281 33.5506C39.1602 33.8054 39.9907 34.0602 40.8148 34.3118C40.9107 34.0779 40.9729 33.9231 41.1295 33.5377C41.3387 33.9554 41.5543 34.1844 41.5511 34.4102C41.5383 35.0988 41.9743 35.0923 42.388 34.9617C42.6867 34.8682 42.9262 34.5859 43.2281 34.3602C42.963 33.9505 42.7521 33.6248 42.5206 33.2683C42.2682 33.4635 42.0829 33.6054 41.7428 33.8683V33.8699ZM20.7071 23.3743L21.2038 24.0984C21.4162 23.8516 21.766 23.6275 21.8123 23.3517C21.9081 22.7792 21.8411 22.1808 21.8411 21.6761C21.322 21.7696 20.7918 21.8664 20.2919 21.9551C20.0251 22.5002 19.7696 23.0243 19.5141 23.55L19.7153 23.7178C20.0746 23.5936 20.4356 23.4694 20.7087 23.3759L20.7071 23.3743ZM36.2119 42.0287C36.4132 41.94 36.6096 41.8352 36.8172 41.7658C37.6733 41.4804 38.4862 41.0433 39.4445 41.59C39.8358 41.8126 40.497 41.9029 40.8787 41.7206C41.698 41.3288 42.4151 40.7191 43.1738 40.1998C42.4503 40.3144 41.7428 40.5127 41.139 40.8853C40.3245 41.3884 39.593 41.4126 38.7705 40.9417C38.0518 40.5305 36.5617 41.0852 36.2119 42.0287ZM29.8091 41.8916C29.7404 41.7755 29.6701 41.6578 29.6015 41.5416C28.9802 41.9061 28.3621 42.2738 27.7376 42.6318C27.5156 42.7592 27.2537 42.9979 27.0557 42.956C26.2858 42.798 25.5352 42.548 24.8069 42.3399C24.9011 43.3608 25.3611 43.7124 26.4695 43.5108C26.8864 43.435 27.3096 43.2415 27.7153 43.2737C28.838 43.364 29.199 42.469 29.8091 41.8916ZM18.6213 25.8966L18.7874 25.7627C18.6404 25.5579 18.5191 25.324 18.3402 25.1515C17.6215 24.4564 17.6726 24.1871 18.2843 23.413C18.5861 23.0308 18.6324 22.4244 18.7123 21.9051C18.7267 21.818 18.3018 21.5406 18.1246 21.5761C17.9377 21.6132 17.6326 21.9954 17.6774 22.1002C17.9345 22.7163 17.5752 23.0727 17.2717 23.5097C17.1407 23.6984 17.1855 24.0355 17.203 24.3032C17.2621 25.2241 18.1294 25.3821 18.6197 25.8966H18.6213ZM43.1083 31.9846C43.5251 32.0298 43.9212 32.0846 44.3189 32.1088C44.4595 32.1169 44.616 32.0733 44.7374 32.0024C44.7693 31.9846 44.7326 31.7072 44.6639 31.6717C44.0187 31.3331 43.3782 30.817 42.701 30.7557C41.9823 30.6912 41.2269 31.0686 40.4874 31.2524L40.4235 31.4702C40.8931 31.6411 41.3579 31.933 41.8322 31.9475C42.2906 31.962 42.7569 31.6911 43.4197 31.4847L43.1099 31.983L43.1083 31.9846ZM23.0804 37.8259C23.4414 37.6856 23.7065 37.5856 23.9684 37.4776C24.6184 37.2131 24.866 36.3599 24.3853 35.91C24.2671 35.8003 23.772 35.8745 23.7704 35.8971C23.6825 36.7599 23.0133 36.5664 22.4224 36.6906C22.5646 36.2358 22.6875 35.8487 22.8089 35.4617C22.6907 35.4342 22.5709 35.4068 22.4528 35.3794C22.3889 35.8584 22.1972 36.368 22.2994 36.8083C22.3857 37.1873 22.8073 37.4872 23.082 37.8243L23.0804 37.8259ZM27.1802 27.1093C27.621 27.8335 28.1385 28.2528 28.9035 28.2237C29.1175 28.2157 29.3284 28.1012 29.5424 28.0367C29.4417 27.8076 29.3954 27.5174 29.2277 27.3625C28.8189 26.9852 28.3541 26.6707 27.8909 26.3159C27.6849 26.5465 27.439 26.8207 27.1802 27.111V27.1093ZM52.56 36.5615C53.0759 36.2922 53.2612 35.0649 52.83 34.336C52.0282 34.3908 51.268 34.4424 50.4407 34.4972C50.7345 34.7779 51.0667 35.094 51.4069 35.4165C51.6146 35.1681 51.7359 35.023 51.9819 34.7279C52.2023 35.4278 52.3764 35.9777 52.56 36.5599V36.5615ZM39.5036 29.6026C40.7701 30.138 41.5575 29.8929 42.0302 28.8608C41.3275 28.227 40.16 28.5511 39.5036 29.6026ZM43.8382 25.0467L44.0889 24.987C44.2934 25.3289 44.4627 25.6998 44.715 25.9998C44.8875 26.2046 45.1718 26.3207 45.4209 26.4481C45.4577 26.4675 45.6525 26.2965 45.6413 26.2707C45.5551 26.0675 45.4816 25.8224 45.3219 25.695C44.7326 25.2273 44.1177 24.7935 43.498 24.3677C43.4213 24.3145 43.2121 24.3338 43.1562 24.3983C43.07 24.4999 43.0252 24.6709 43.0284 24.8112C43.0348 25.116 43.0572 25.424 43.1227 25.7208C43.1754 25.9611 43.3 26.1836 43.3942 26.4143L43.6002 26.3127C43.6801 25.8917 43.7583 25.4692 43.8382 25.0483V25.0467ZM32.43 21.9083L32.652 21.868C32.628 21.5712 32.604 21.2761 32.5801 20.9681H33.0832L33.1151 20.7471C32.5689 20.6536 32.0227 20.5617 31.4765 20.4681C31.5931 20.602 31.7097 20.7342 31.8262 20.8681C31.312 21.2809 30.7977 21.6954 30.2834 22.1083L30.0982 21.8647L31.9668 21.6438C31.946 21.7244 31.9764 21.6051 32.0307 21.4035L32.4284 21.9099L32.43 21.9083ZM46.7881 20.9745C45.4193 21.5503 45.175 20.1811 44.4738 19.5489L44.247 19.694C44.5297 20.3294 44.8108 20.9648 45.1255 21.6728C45.8889 21.3084 46.2866 21.7809 46.5517 22.5373C46.6315 22.0163 46.6938 21.5986 46.7897 20.9761L46.7881 20.9745ZM30.1237 34.2521L30.3218 34.2231V32.9942C29.4641 33.2184 28.6065 33.4441 27.6721 33.6893C27.9644 33.9457 28.2455 34.3714 28.4483 34.336C28.9371 34.2505 29.389 33.9521 29.9033 33.7167C29.9624 33.8602 30.0423 34.057 30.1221 34.2537L30.1237 34.2521ZM38.8839 19.1473C38.9654 19.1199 39.0468 19.0941 39.1283 19.0667C39.2976 18.6554 39.5036 18.2555 39.6266 17.8313C39.7464 17.4201 39.6202 17.0588 39.1267 17.0362C38.8025 17.0217 38.4751 17.1072 38.087 17.1556C38.3872 17.9055 38.6364 18.5248 38.8855 19.1457L38.8839 19.1473ZM40.3149 42.5464C41.6022 43.077 42.4247 42.8544 43.1035 41.9013C43.1802 41.7932 43.3047 41.7174 43.3702 41.6061C43.5251 41.3433 43.8142 40.9772 43.252 40.932C43.0955 40.9191 42.9039 41.4191 42.717 41.6771C42.6164 41.8158 42.5142 42.0126 42.3768 42.0513C41.7491 42.2303 41.1087 42.3609 40.3149 42.5464ZM48.8899 35.9487C48.4203 35.6213 47.9252 35.7181 47.609 36.2567C47.1378 37.0583 47.2369 37.4356 47.9763 37.9759C48.2734 37.3163 48.5641 36.6696 48.8899 35.9471V35.9487ZM22.7706 30.8751C22.6396 30.896 22.5853 30.8993 22.5358 30.9154C22.3074 30.9847 22.079 31.0589 21.8506 31.1299C22.0726 31.4653 22.2835 31.8121 22.5246 32.133C22.6061 32.241 22.761 32.3136 22.8936 32.3426C22.9335 32.3507 23.074 32.1491 23.0676 32.0523C23.0533 31.8766 22.9638 31.7056 22.9255 31.5927L23.8119 30.6928C23.5659 30.5428 23.2849 30.3719 22.9495 30.1687C22.8776 30.4525 22.8281 30.646 22.7722 30.8734L22.7706 30.8751ZM30.4192 39.2822L30.4735 39.5048C31.1874 39.1274 31.6346 39.1661 31.617 40.045C31.6154 40.1531 31.8646 40.2853 32.0179 40.3643C32.0642 40.3885 32.2559 40.2724 32.2559 40.2208C32.2591 39.7854 32.3533 39.287 32.1744 38.9371C32.0387 38.6726 31.5004 38.421 31.213 38.4855C30.9063 38.5549 30.6811 39.0016 30.4208 39.2838L30.4192 39.2822ZM34.8656 47.4684L35.0652 47.3733C34.8224 46.2395 34.5813 45.1058 34.3385 43.972C34.2331 43.9898 34.1293 44.0059 34.0239 44.0236C34.1245 44.8542 34.2251 45.6831 34.3385 46.6169C34.0111 46.4314 33.7492 46.2831 33.4857 46.1347L33.3914 46.296C33.8817 46.6862 34.3721 47.0765 34.864 47.4668L34.8656 47.4684ZM33.9967 35.5197C34.1181 35.8294 34.2235 36.0971 34.3289 36.3648C34.5158 36.1793 34.7059 35.9955 34.8911 35.8084C34.947 35.7519 35.0301 35.6826 35.0301 35.6181C35.0349 35.2665 35.1307 34.6763 34.9885 34.6085C34.5477 34.3973 34.1165 33.8183 33.31 34.3037C33.9153 34.6343 34.3705 34.8827 34.9502 35.1988C34.5972 35.3181 34.3816 35.3907 33.9983 35.5197H33.9967ZM25.6981 34.5118L25.417 34.4247C25.31 34.8666 24.9858 35.4149 25.1375 35.731C25.5719 36.6341 26.2299 35.8584 26.8432 35.8487C26.428 35.3649 26.0622 34.9375 25.6981 34.5118ZM37.183 38.1098C37.1143 38.392 37.0808 38.7516 36.9402 39.0597C36.7981 39.3725 36.5505 39.637 36.3477 39.9208C36.4116 39.9837 36.4771 40.0466 36.5409 40.1095C37.282 39.4532 38.0215 38.7968 38.7977 38.1081H37.183V38.1098ZM25.6374 39.5451C25.3531 39.7951 25.1024 39.995 24.8756 40.2192C24.5929 40.4998 24.5482 40.874 24.9922 40.9078C25.4314 40.9417 26.1357 40.8578 26.2842 40.5821C26.5589 40.0724 26.1054 39.6918 25.6358 39.5451H25.6374ZM38.8983 21.7938C38.5709 20.9181 38.0279 21.4035 37.6446 21.5067C37.2165 21.6228 36.7629 23.0372 37.044 23.7097C37.2517 23.2323 37.3571 22.8969 37.5359 22.6082C37.6845 22.3679 37.8905 22.1341 38.1269 21.9857C38.3281 21.8599 38.6076 21.8599 38.8967 21.7938H38.8983ZM37.4529 36.4922L37.29 36.6938C37.3938 36.955 37.4625 37.4163 37.6094 37.4437C38.1173 37.5372 38.6523 37.4792 39.3183 37.4792C39.1107 37.026 38.9781 36.7357 38.86 36.4809C38.5549 36.5873 38.3425 36.7228 38.1349 36.7164C37.9065 36.7099 37.6813 36.5728 37.4529 36.4922ZM43.5763 23.5839C43.5172 23.4646 43.4581 23.3452 43.3974 23.2259C42.6675 22.9791 42.1788 23.4775 41.6948 23.9355C41.583 24.0403 41.5607 24.2419 41.4968 24.3983C41.6837 24.4548 41.9248 24.6128 42.0462 24.5483C42.5749 24.2629 43.0684 23.9113 43.5763 23.5839ZM19.8463 31.3734C19.4198 31.4234 18.9103 31.3524 18.8097 31.525C18.6676 31.7701 18.8097 32.1975 18.8656 32.541C18.88 32.6329 19.0237 32.7039 19.2425 32.9152C19.1643 32.5184 19.1228 32.3039 19.1132 32.2539C19.4869 32.2056 19.8255 32.2233 20.1002 32.0975C20.2328 32.0378 20.2998 31.7088 20.295 31.504C20.2919 31.354 20.1226 31.2073 20.006 31.0267L19.8479 31.3734H19.8463ZM22.3362 39.9644C22.2324 40.0515 22.1269 40.1402 22.0231 40.2273C22.5693 41.1594 23.3136 41.9061 24.2639 42.4544L24.4907 42.2399C23.772 41.482 23.0549 40.7224 22.3362 39.9644ZM38.9813 40.2353C39.815 40.8191 40.2862 40.7998 40.8164 40.1692C40.9059 40.0644 40.9969 39.8628 40.9538 39.7692C40.9075 39.6709 40.7046 39.6241 40.5641 39.6015C39.938 39.5031 39.3838 39.6241 38.9813 40.2353ZM20.458 20.1714C21.1335 20.7084 22.6732 21.0342 23.1235 20.6584C22.3154 19.9117 21.4482 19.723 20.458 20.1714ZM28.4771 29.2075C27.9069 28.964 27.4933 28.7414 27.0525 28.6253C26.9135 28.5882 26.6037 28.7963 26.5478 28.9559C26.4759 29.164 26.5302 29.4575 26.6308 29.6655C26.6691 29.7445 26.9998 29.7252 27.177 29.6752C27.5412 29.5752 27.8909 29.4236 28.4771 29.2091V29.2075ZM38.5948 24.2145C40.3245 24.1435 40.7669 23.6775 40.3101 22.5727C39.7751 23.0856 39.2592 23.5791 38.5948 24.2145ZM54.2306 37.1937L54.007 37.3244C53.8873 37.963 53.7691 38.6 53.6493 39.2387L53.8393 39.3838C54.1412 39.0967 54.6587 38.8306 54.6922 38.5145C54.7369 38.0952 54.4015 37.6356 54.2306 37.1937ZM32.1089 37.9888C32.2 37.9678 32.291 37.9469 32.3804 37.9243C32.3293 37.6614 32.2671 37.1663 32.2303 37.1679C31.395 37.2131 31.1986 36.4793 30.753 35.8213C30.6699 36.1535 30.5981 36.3132 30.5933 36.4761C30.5645 37.5437 31.8662 37.1986 32.1073 37.9888H32.1089ZM27.3926 19.9069C27.9261 19.7843 28.41 19.6731 29.0648 19.5215C28.4611 19.1118 27.9932 18.7941 27.3926 18.3877V19.9069ZM21.7788 34.7666C21.1224 34.6085 20.6592 34.4908 20.1928 34.3892C19.9756 34.3424 19.7472 34.3021 19.53 34.3231C19.4917 34.3263 19.4023 34.7214 19.4757 34.8004C19.6402 34.9746 19.9053 35.1827 20.1082 35.1617C20.6081 35.1101 21.0968 34.9375 21.7772 34.7666H21.7788ZM33.6278 38.7726C33.2557 39.2758 32.8085 39.687 33.3723 40.2047C33.4936 40.316 33.9408 40.2934 34.0319 40.1724C34.4519 39.6193 34.1117 39.2112 33.6278 38.7742V38.7726ZM41.3594 30.3558C40.0802 30.2332 38.8695 30.1155 37.6573 29.9993C39.7895 30.7557 40.6647 30.8138 41.3594 30.3558ZM29.2182 18.0087C29.3108 18.6818 29.832 18.8855 30.7817 18.6199C30.5342 17.6813 29.8362 18.0652 29.2182 18.0087ZM37.6126 35.71C37.3203 35.0343 37.1079 34.5424 36.7933 33.8118C36.5553 34.4827 36.3924 34.9424 36.2071 35.4633C36.624 35.5358 36.9722 35.5971 37.6126 35.71ZM31.403 22.9533C32.0786 23.363 32.5258 23.6339 33.0592 23.9565V22.5953C32.5082 22.7147 32.0466 22.8146 31.403 22.9533ZM30.6572 30.3751C31.1922 30.5606 31.6106 30.7073 32.0307 30.8541C32.0514 30.6477 32.1632 30.3864 32.0802 30.2429C31.724 29.6365 31.2864 29.8058 30.6572 30.3751ZM27.53 34.9617C27.4725 35.381 27.4374 35.6455 27.4006 35.9084C27.8366 35.9519 28.2743 35.9955 28.7103 36.0374L28.8109 35.7084C28.4388 35.4907 28.0666 35.2746 27.53 34.9601V34.9617ZM21.8411 33.1877C22.0535 34.2747 22.7738 34.6988 23.5356 34.336C22.9974 33.9715 22.4847 33.6248 21.8411 33.1877ZM26.0047 22.6131C26.5861 22.8743 27.0317 23.0936 27.3543 22.5389C27.423 22.4211 27.2904 22.055 27.1515 21.9696C26.5015 21.5745 26.4152 22.2566 26.0047 22.6131ZM19.6913 33.6909C20.1242 33.6393 20.533 33.5909 20.9419 33.5409C20.8253 33.2022 20.7071 32.8619 20.5666 32.4507C20.2391 32.9152 20.0459 33.1893 19.6913 33.6909ZM49.944 36.1858C50.2969 36.8438 50.6515 37.5018 51.0045 38.1581C51.1865 37.1873 50.7809 36.5486 49.944 36.1858ZM39.9428 27.7657C38.7466 26.6546 38.7034 28.4366 38.0311 28.4656C38.6172 28.2512 39.2049 28.0367 39.9428 27.7657ZM46.5916 38.2743C46.4878 37.7243 47.4189 37.1663 46.5645 36.576C46.2243 37.1776 45.9687 37.7211 46.5916 38.2743ZM19.8191 37.7711C20.188 38.2565 20.4228 38.5678 20.6592 38.879L20.8604 38.8177C20.7327 38.3468 20.6049 37.8759 20.4787 37.405C20.2615 37.5259 20.0427 37.6469 19.8191 37.7711ZM23.3631 21.9002C23.5771 22.3792 23.7512 22.7679 23.9253 23.1549C24.0706 23.0033 24.3198 22.8663 24.3421 22.7001C24.4124 22.1631 24.1585 21.8599 23.3631 21.9002ZM48.7797 33.1958C48.9937 33.6651 49.1167 34.0231 49.3115 34.3344C49.4537 34.5618 49.6916 34.7295 49.8881 34.9246C49.8146 34.3295 49.7172 33.8521 49.4872 33.4538C49.3882 33.2829 49.016 33.2732 48.7797 33.1942V33.1958ZM38.3904 35.5294C38.4719 35.5439 38.5517 35.5584 38.6332 35.5713C38.7306 35.2246 38.828 34.8778 38.9606 34.4102C38.5022 34.4505 38.2307 34.4747 37.8729 34.5069C38.0742 34.902 38.2323 35.2149 38.392 35.5278L38.3904 35.5294ZM45.258 24.2419C44.8731 23.9984 44.6335 23.8049 44.3588 23.7049C44.2902 23.6807 44.1129 23.9613 43.9851 24.1016C44.2135 24.2951 44.4211 24.5274 44.6799 24.6596C44.7549 24.6983 44.9721 24.4564 45.258 24.2419ZM35.2521 22.1679C35.1339 22.5066 35.0269 22.8163 34.8879 23.2162C35.4453 23.1517 35.7823 23.1114 36.1113 23.0743C35.843 22.7921 35.613 22.5485 35.2521 22.1679ZM33.1966 26.1756L32.9634 26.2498C32.8149 26.6223 32.6663 26.9948 32.4379 27.5641C32.8436 27.4158 33.2732 27.3625 33.2988 27.2287C33.3627 26.8965 33.2429 26.5288 33.1966 26.1756ZM35.8414 32.3636C35.5539 32.0991 35.3798 31.9395 35.2058 31.7798C35.0748 31.9507 34.848 32.1185 34.8416 32.2943C34.8368 32.4507 35.0572 32.7184 35.2121 32.7474C35.3575 32.7749 35.5491 32.5539 35.8398 32.3636H35.8414ZM34.9853 25.0854C34.733 25.6805 34.5461 26.1191 34.305 26.6884C35.522 26.0643 35.5284 26.0514 34.9853 25.0854ZM47.8517 29.8268H49.1805C48.7765 28.9801 48.5609 28.9591 47.8517 29.8268ZM15.2386 35.302L14.8441 35.2326C14.7546 35.5729 14.6668 35.9132 14.5774 36.2551C14.7978 36.2696 15.0182 36.2825 15.2386 36.297V35.3036V35.302ZM37.1447 17.2459L36.846 17.2507C36.7997 17.4685 36.6543 17.7362 36.7326 17.8894C36.8348 18.0877 37.1127 18.1942 37.3155 18.3393C37.3794 18.2861 37.4433 18.2329 37.5072 18.1797C37.3858 17.8684 37.2644 17.5572 37.1447 17.2459ZM26.2747 26.403C27.1435 26.353 27.3735 25.9401 27.0844 25.166L26.2747 26.403ZM53.1142 36.7438C52.9402 37.3002 52.7916 37.7711 52.6447 38.2404C52.9418 38.0082 53.2292 37.7001 53.3778 37.334C53.4385 37.1857 53.1957 36.9131 53.1142 36.7438ZM44.7885 39.4612L44.7629 39.2048C44.2902 38.8984 43.8701 38.8516 43.4724 39.6193C43.9995 39.5564 44.3924 39.5096 44.7869 39.4628L44.7885 39.4612ZM16.874 35.5423L17.12 35.4971C17.1615 35.2165 17.2334 34.9359 17.2286 34.6569C17.227 34.544 17.0561 34.4343 16.9635 34.3215C16.8405 34.436 16.6025 34.565 16.6153 34.665C16.6504 34.9633 16.7814 35.2504 16.8756 35.5423H16.874ZM48.5752 27.6077L48.2894 27.7399C48.3724 27.9786 48.3948 28.2786 48.5561 28.4366C48.6902 28.5689 48.9857 28.5318 49.2093 28.5705C49.2348 28.5092 49.2588 28.4463 49.2844 28.385C49.048 28.1254 48.8116 27.8673 48.5752 27.6077Z" fill="#E6E6E6"/>
<path d="M56.2686 61.237C55.5227 61.5951 54.8424 61.9531 54.138 62.2498C53.2932 62.6062 52.501 63.0175 51.7424 63.5626C51.038 64.0674 50.1516 64.3286 49.3259 64.6383C48.7286 64.8625 48.4347 64.4109 48.596 63.4029C48.2846 63.5836 48.0402 63.711 47.8102 63.8609C46.7961 64.5222 45.6078 64.3996 44.7566 63.5658C44.5793 63.3916 44.2854 63.3368 44.1113 63.161C43.8861 62.9304 43.6162 62.645 43.5875 62.3611C43.5699 62.1918 43.9516 61.866 44.1992 61.8063C44.8077 61.6596 45.4433 61.6257 46.0534 61.3886C45.7947 61.4241 45.5328 61.437 45.2804 61.4967C44.2758 61.7354 43.7568 61.4725 43.3303 60.5242C43.2457 60.3371 43.0796 60.1888 42.9502 60.0227C42.3162 59.2131 42.6132 58.4648 43.6226 58.2987C43.8718 58.2583 44.1656 58.2116 44.3413 58.0551C45.1175 57.3665 46.1413 57.4923 46.6971 58.3906C46.7929 58.5454 46.8552 58.7196 46.8951 58.8083C47.1091 58.5131 47.2688 58.0729 47.5595 57.9503C47.8709 57.8197 48.3533 57.8906 48.6775 58.0471C49.4265 58.4115 50.2155 58.7292 50.4886 59.7211C50.5621 59.9888 51.2584 60.0839 51.6689 60.2581C51.7088 60.2033 51.7487 60.1468 51.7887 60.092C51.4517 59.7953 51.1354 59.4711 50.7745 59.2066C49.4217 58.218 48.7493 56.9053 48.8052 55.2103C48.818 54.8345 48.7893 54.5426 49.3195 54.52C49.6405 54.5055 49.9823 54.3136 50.2634 54.1217C51.6976 53.1492 53.0536 53.6266 54.4048 54.3104C54.6172 54.4184 54.804 54.6184 55.0244 54.6587C55.3183 54.7103 55.6313 54.6474 55.9364 54.6329C55.9028 54.3829 55.8549 54.133 55.8358 53.8814C55.7751 53.075 55.6441 52.2638 55.6968 51.4639C55.7367 50.8333 56.2287 50.7075 57.2524 51.0462C56.4411 49.9318 57.1502 49.0448 57.4584 48.1288C57.5686 47.803 57.9631 47.366 58.2346 47.3595C58.562 47.3515 58.9789 47.6885 59.2073 47.9917C59.4453 48.3078 59.5618 48.6029 60.0394 48.7078C60.7773 48.8706 60.9769 50.1528 60.4227 50.8237C60.2262 51.0607 60.0042 51.2752 59.7838 51.5091C60.1863 51.3752 60.5345 51.2607 60.8811 51.1462C60.9913 51.5316 61.1111 51.9155 61.2117 52.3041C61.4816 53.3573 60.8156 53.8733 60.0266 54.2781C60.0713 54.3781 60.0809 54.4313 60.1113 54.462C60.3732 54.7216 60.9018 55.0684 60.8523 55.2183C60.7246 55.6006 60.3812 55.9537 60.0426 56.2053C59.7327 56.4359 59.3558 56.5392 59.5826 57.0407C59.6034 57.0875 59.6289 57.1568 59.6114 57.1955C59.153 58.1971 58.685 59.1921 58.2314 60.1952C58.1292 60.4226 57.9951 60.679 58.0158 60.9097C58.0622 61.4467 58.281 61.9563 57.4489 62.1289C56.6679 62.2918 56.2893 62.066 56.2718 61.237H56.2686ZM46.5629 61.029C46.6683 61.2209 46.7737 61.4128 46.9478 61.7273C46.3425 61.8418 45.857 61.9434 45.3682 62.0224C44.8955 62.0998 44.4196 62.1547 43.9452 62.2192C43.9261 62.3127 43.9069 62.4063 43.8877 62.4982C44.5377 62.9288 45.1542 63.4271 45.8474 63.769C46.6172 64.1496 47.3199 63.7884 48.0019 63.3626C48.2622 63.1997 48.6439 63.2368 48.9698 63.182C48.9666 63.4739 48.9586 63.7658 48.9618 64.0577C48.9618 64.1045 49.0033 64.1512 49.0911 64.3415C50.4199 63.6384 51.7408 62.9385 53.0616 62.2402L52.9562 61.9966C52.172 62.145 51.3862 62.2934 50.6036 62.4401C50.5317 62.0031 48.9043 61.637 47.9827 61.8821C47.7176 61.1951 47.034 61.2838 46.5437 61.05L44.7853 60.1678L44.854 59.9581C45.2181 59.9856 45.7132 59.8711 45.924 60.0662C46.9558 61.0306 48.2431 61.3322 49.5367 61.5789C50.4455 61.7531 51.3894 61.737 52.493 61.8192C51.9132 61.287 51.5251 60.929 51.2041 60.6339C50.9582 60.8226 50.7809 61.0032 50.5653 61.0951C50.5078 61.1193 50.2331 60.871 50.2331 60.7468C50.2299 59.6146 49.7012 58.9454 48.6679 58.4906C48.1568 58.2648 47.8278 58.1519 47.3822 58.5825C47.7192 59.0308 48.0434 59.4614 48.3676 59.8936C48.3309 59.9565 48.2958 60.021 48.259 60.0839C48.0578 60.0501 47.7927 60.0872 47.6649 59.971C47.2033 59.555 46.7418 59.1211 46.3664 58.6293C45.9225 58.0455 45.0824 57.6761 44.862 58.0938C44.5825 58.6212 44.2295 58.7051 43.7056 58.7067C43.4773 58.7067 43.161 58.9486 43.0524 59.1663C42.9838 59.3066 43.2105 59.6082 43.3287 59.8243C43.4421 60.0291 43.6386 60.1984 43.7072 60.4129C43.9308 61.1064 44.4164 61.2967 45.0712 61.2161C45.5695 61.1548 46.0662 61.0903 46.5629 61.029ZM60.5984 55.2216C60.2853 55.0829 60.1416 55.02 59.9995 54.9539C59.4596 54.7023 59.3798 54.3346 59.8972 54.0427C60.9481 53.4524 60.9258 52.588 60.6431 51.4123C60.4514 51.6623 60.3588 51.8752 60.1975 51.9719C59.9979 52.0929 59.7407 52.1187 59.5091 52.1864C59.4884 51.9235 59.3878 51.6284 59.4708 51.4042C59.5666 51.1494 59.8142 50.9446 60.0186 50.7414C60.4291 50.3302 60.4355 49.2093 60.0282 49.2206C59.1658 49.2464 59.1194 48.6352 58.8543 48.1127C58.7569 47.9207 58.4582 47.7643 58.2362 47.7385C58.1388 47.7272 57.9791 48.074 57.8817 48.2739C57.7571 48.5352 57.7252 48.8626 57.5527 49.0771C57.0671 49.6786 57.1294 50.235 57.5303 50.8414C57.7299 51.1462 57.8497 51.5042 58.0063 51.8381C57.4297 51.6961 57.0496 51.422 56.6375 51.2139C56.4842 51.1365 56.1328 51.151 56.0817 51.2446C55.9683 51.4462 55.9587 51.7252 55.9683 51.9703C55.9763 52.1654 56.1776 52.3977 56.1201 52.5444C55.7383 53.5217 56.2366 54.2781 56.834 54.8555C57.4712 55.4715 57.6597 56.1102 57.5814 56.9359C57.5575 57.1891 57.6741 57.4552 57.7268 57.7148L57.9839 57.6729C58.6227 55.0248 58.7218 52.3316 58.5892 49.6077C58.792 50.3011 58.7361 51.0011 58.8415 51.6768C59.1402 53.6088 58.7888 55.4828 58.3544 57.331C58.1069 58.3874 58.0701 59.5808 57.1183 60.4323C56.9617 60.2581 56.8292 60.1114 56.6471 59.9098C56.4858 60.1694 56.3516 60.3855 56.2798 60.5016C56.4938 60.8274 56.6184 61.0854 56.8084 61.279C56.9298 61.4015 57.1566 61.4983 57.3179 61.4741C57.4441 61.4548 57.6613 61.1903 57.6325 61.108C57.3754 60.392 57.8178 60.0178 58.2538 59.5985C58.4071 59.4518 58.5125 59.1663 58.503 58.9518C58.4774 58.4212 58.5221 57.9503 58.9517 57.5729C59.0604 57.4778 59.1769 57.2472 59.1338 57.1472C58.7952 56.3666 59.4133 56.1876 59.8589 55.8779C60.0873 55.7183 60.2821 55.507 60.6 55.2216H60.5984ZM55.3966 56.057C55.3231 55.8667 55.2959 55.4296 55.0739 55.2732C53.5934 54.2249 52.2199 53.3524 50.3209 54.5329C49.9408 54.77 49.1949 54.57 49.2301 55.3538C49.254 55.886 49.2924 56.4198 49.3706 56.9456C49.401 57.1455 49.5639 57.3229 49.6645 57.5132C50.2714 58.6615 51.4086 59.2115 52.3876 59.9323C52.5633 60.0614 53.0121 60.0452 53.183 59.9065C54.3504 58.9518 55.1953 57.781 55.3982 56.0586L55.3966 56.057ZM55.8262 55.2732C55.9268 56.5537 55.4748 57.631 54.8727 58.6486C54.2658 59.6727 53.5183 60.5339 52.1464 60.4855C52.8076 61.3822 54.6459 61.2387 55.2161 60.213C55.7687 59.2195 56.2175 58.1422 56.5289 57.0472C56.703 56.4359 56.4459 55.7392 55.8262 55.2716V55.2732ZM57.7731 57.9745L57.4121 57.9084C57.2588 58.4825 57.1055 59.0582 56.9522 59.6324L57.345 59.7243C57.4872 59.1405 57.6309 58.5583 57.7731 57.9745Z" fill="#E6E6E6"/>
<path d="M19.087 54.6697C19.0247 55.7309 19.1988 56.8662 18.4689 57.8016C17.7997 58.658 17.0539 59.453 16.4789 60.1175C16.8526 60.0207 17.3398 59.9046 17.763 59.1418C18.1224 58.4951 19.1349 58.1161 19.9351 57.8548C20.4797 57.6774 20.9349 58.1225 20.879 58.6821C21.323 58.3483 21.8133 57.9484 22.3387 57.5984C22.4953 57.4952 22.853 57.4323 22.9313 57.521C23.4839 58.1467 24.2856 58.2435 24.958 58.6063C25.1625 58.716 25.3621 59.2224 25.2774 59.4175C25.0043 60.0384 24.661 60.6561 24.2186 61.1657C23.7219 61.7399 23.0287 61.6334 22.3611 61.4109C22.1966 61.356 21.9986 61.4028 21.8037 61.5351C22.3962 61.6044 23.0031 61.6157 23.5749 61.7641C23.8688 61.8415 24.3112 62.1672 24.308 62.3769C24.3048 62.6511 23.9439 62.9333 23.7059 63.1833C23.6053 63.2881 23.404 63.2881 23.289 63.3849C21.9251 64.5218 21.2862 64.5783 19.8169 63.6751C19.6859 63.5945 19.5406 63.5348 19.3154 63.4236C19.3154 63.5897 19.3282 63.6784 19.3138 63.7606C19.2675 64.0251 19.2962 64.4009 19.1381 64.5218C18.9656 64.6525 18.5903 64.617 18.3491 64.5299C17.6943 64.2928 17.0603 63.9929 16.4198 63.7122C16.2745 63.6493 16.1116 63.5929 16.0014 63.4865C14.778 62.3076 13.0036 62.2301 11.6237 61.119C11.6349 62.1027 11.2164 62.2963 10.453 62.1237C9.90837 61.9995 9.73907 61.735 9.8333 61.2206C9.87163 61.0109 9.99301 60.6626 9.91635 60.6094C8.8942 59.8852 9.2823 58.5096 8.55401 57.6645C8.46777 57.5645 8.31923 57.421 8.34159 57.3404C8.56998 56.5372 8.0046 56.3211 7.47915 55.9873C6.81475 55.5631 6.87863 54.9632 7.55421 54.5971C7.66282 54.5374 7.76024 54.4552 7.90558 54.352C7.69157 54.1955 7.52387 54.0714 7.35457 53.9488C6.71573 53.4875 6.37234 52.2264 6.71573 51.5345C6.96647 51.0298 7.30666 50.8362 7.58136 51.1539C7.49672 50.6846 7.36096 50.0428 7.28111 49.3944C7.26194 49.238 7.40408 48.9268 7.5047 48.9106C8.35597 48.7865 8.54602 47.9591 9.06828 47.4963C9.55221 47.0673 9.99461 47.2753 10.3156 47.8027C10.9305 48.809 11.0838 49.7428 10.8171 50.8233C11.2068 50.8911 11.7594 50.8249 11.9479 51.0588C12.1715 51.3362 12.1108 51.87 12.1236 52.2941C12.1459 53.0392 12.13 53.7843 12.13 54.731C12.3887 54.6745 12.871 54.6842 13.2224 54.4713C14.762 53.544 16.2841 53.1376 17.9211 54.2439C18.2357 54.4568 18.6526 54.5132 19.0918 54.6681L19.087 54.6697ZM20.887 61.7221C21.3677 60.9577 21.842 60.9754 22.3531 61.1125C22.9361 61.269 23.535 61.3754 23.9758 60.8351C24.3032 60.4336 24.6114 59.9917 24.8079 59.5175C24.8814 59.3417 24.6626 58.8434 24.4965 58.7999C23.9007 58.6418 23.2459 58.6918 22.9105 57.9887C22.8754 57.9145 22.4585 57.9113 22.3356 58.0161C21.965 58.3322 21.6009 58.6821 21.3278 59.0837C20.8263 59.8223 20.0916 60.1949 19.5438 59.8594C19.8728 59.4256 20.1986 58.9966 20.6171 58.4435C20.2226 58.3531 19.967 58.2257 19.7322 58.2548C18.7804 58.3677 17.8988 59.3337 17.7167 60.3352C17.6656 60.611 17.4707 60.8609 17.3414 61.1238C17.1433 60.9577 16.9469 60.7932 16.7265 60.6077C16.3703 60.9367 15.979 61.298 15.5047 61.735C17.7023 61.856 19.7083 61.4964 21.5833 60.4239C22.0145 60.1771 22.5048 60.0336 22.9696 59.8433C23.0127 59.9401 23.0559 60.0368 23.099 60.1352C22.1583 60.9432 20.7336 60.9206 19.9399 61.7479C19.0455 61.856 18.2038 61.9576 17.3286 62.0624V62.4446C16.5093 62.293 15.7203 62.1479 14.9313 62.0028L14.8451 62.2495C16.1771 62.943 17.5107 63.6381 18.9129 64.3686V63.1913C19.2835 63.2639 19.6572 63.3268 20.0245 63.4171C20.1491 63.4478 20.2705 63.5268 20.3711 63.6106C20.9493 64.0912 21.6312 63.9816 22.1854 63.7268C22.8482 63.422 23.4056 62.8865 24.0093 62.4511L23.9375 62.235C22.9712 62.0737 22.0065 61.9108 20.8886 61.7237L20.887 61.7221ZM8.7249 48.8913C8.23618 49.1654 7.76503 49.2687 7.64525 49.5348C7.43443 49.9992 7.51428 50.5137 8.03974 50.8685C8.26493 51.0201 8.43263 51.312 8.53165 51.5765C8.59234 51.7361 8.52366 52.0893 8.41666 52.1361C8.24417 52.2119 7.93433 52.1812 7.79218 52.0619C7.61171 51.9103 7.53984 51.6248 7.42005 51.3975C7.32742 51.4797 7.23639 51.5603 7.14375 51.6426C7.22041 52.3715 6.77162 53.1618 7.65803 53.7795C8.65623 54.4729 8.60831 54.589 7.5079 55.1454C7.47595 55.1616 7.47276 55.2357 7.42005 55.3809C7.73469 55.6099 8.09404 55.8292 8.39909 56.1098C8.58915 56.2856 8.75525 56.5356 8.83031 56.7824C9.1114 57.7016 9.34938 58.6338 9.60811 59.5611C9.62089 59.6062 9.67519 59.6449 9.71671 59.6756C10.1783 60.0207 10.4386 60.4336 10.2933 61.0577C10.2661 61.1706 10.4897 61.4302 10.6398 61.4722C10.7612 61.506 10.972 61.3415 11.095 61.2174C11.2883 61.0222 11.4432 60.7868 11.6444 60.5287C11.5358 60.3626 11.4081 60.1691 11.2627 59.9465C11.0679 60.1207 10.905 60.2658 10.7405 60.4126C9.24397 58.5822 8.34798 51.3249 9.31903 49.717C9.31903 50.9588 9.24876 52.3038 9.3382 53.6359C9.42923 54.9938 9.67838 56.3389 9.85726 57.6903C9.96427 57.6935 10.0697 57.6952 10.1767 57.6984C10.2262 57.4532 10.3396 57.2017 10.3156 56.963C10.2358 56.1437 10.3875 55.4889 11.0407 54.8761C11.6524 54.3036 12.1443 53.5472 11.7754 52.5747C11.7275 52.4506 11.8233 52.278 11.8233 52.1264C11.8233 51.8168 11.8057 51.5071 11.7946 51.1975C11.4991 51.2507 11.1781 51.2459 10.9146 51.37C10.6095 51.512 10.3572 51.7668 9.95468 52.0667C9.97704 51.741 9.93711 51.5765 10.001 51.4942C10.7213 50.5524 10.9417 49.6089 10.0984 48.6107C10.0234 48.5203 10.0665 48.3365 10.0042 48.2252C9.89559 48.0365 9.75504 47.7382 9.60971 47.7285C9.42763 47.7156 9.16091 47.9027 9.05391 48.0801C8.86545 48.3913 8.77122 48.7623 8.72171 48.8913H8.7249ZM18.7229 56.0002C18.7229 55.3787 18.3561 54.8922 17.6225 54.5407C15.8768 53.7053 14.2142 53.9456 12.8055 55.2728C12.657 55.4131 12.566 55.6873 12.5612 55.9018C12.5244 57.6436 13.4955 58.8612 14.7253 59.8949C14.9042 60.0465 15.3929 59.9788 15.6532 59.8433C16.1659 59.5772 16.6546 59.2353 17.0858 58.8483C17.9962 58.0338 18.7325 57.1001 18.7213 56.0002H18.7229ZM15.6548 60.5916C12.9078 59.8433 12.312 57.6823 11.975 55.2616C11.6125 55.8454 11.1701 56.3905 11.3793 57.1452C11.4991 57.579 11.7003 57.9903 11.8329 58.4209C12.1619 59.4885 12.6027 60.4836 13.7031 60.9416C14.7572 61.3802 15.2172 61.2561 15.6564 60.5916H15.6548ZM10.4881 57.9193C10.4099 57.9225 10.33 57.9274 10.2517 57.9306C10.0122 58.6063 10.3396 59.1353 10.659 59.6675C10.758 59.6417 10.8571 59.6159 10.9561 59.5901C10.8012 59.0337 10.6446 58.4773 10.4897 57.9193H10.4881Z" fill="#E6E6E6"/>
<path d="M63.0665 23.0908C63.4003 24.131 63.6766 24.9906 63.9497 25.8405C65.7944 25.4712 65.9062 25.3857 66.1218 24.2826C66.3837 25.1148 66.6457 25.947 66.9076 26.7791C66.4093 25.9824 65.8056 26.2889 65.2035 26.4905C64.2708 26.8017 63.3332 27.1017 62.3909 27.3855C61.8367 27.5532 61.3736 27.7613 61.6467 28.5709L61.3848 28.5354C61.1244 27.7177 60.8625 26.8985 60.6022 26.0808C61.6339 27.4194 62.5443 26.0534 63.6 26.1115C63.2901 25.1148 63.0186 24.2359 62.7487 23.3682C61.0717 23.5247 60.4345 23.9327 60.2556 24.8858C59.9889 24.081 59.7222 23.2763 59.457 22.4715C60.0943 23.3811 60.8114 22.8908 61.4966 22.6715C62.2568 22.4296 63.025 22.2119 63.7756 21.941C64.3314 21.741 65.1811 21.7619 64.6573 20.5508C64.7659 20.5992 64.8745 20.6475 64.9847 20.6959L65.7657 23.1247C64.8345 21.9458 64.0184 23.0715 63.0681 23.0941L63.0665 23.0908Z" fill="#E6E6E6"/>
<path d="M28.2238 3.52813C29.3785 4.18612 30.0317 5.51017 31.5027 5.58597C30.9389 6.08591 30.0557 6.1859 29.5446 5.76659C28.9473 5.27794 28.4011 4.72638 27.8101 4.22966C27.5865 4.04097 27.3007 3.92647 27.0419 3.7781L26.8551 3.90712C26.9892 4.57479 27.0563 5.26987 27.2959 5.89884C27.3805 6.11978 27.8884 6.17784 28.3963 6.39072C27.3837 6.5907 26.5069 6.76326 25.6301 6.93582L25.4751 6.7552C26.467 6.53425 26.2913 5.90367 26.1555 5.25697C25.9511 4.28772 25.7722 3.31363 25.6045 2.33632C25.5007 1.73639 25.3458 1.22999 24.5312 1.32837C25.8185 0.880028 27.0643 0.318799 28.4218 0.718755C29.5159 1.0413 29.7315 2.32342 28.8658 3.07334C28.6886 3.22655 28.4825 3.34428 28.2222 3.52651L28.2238 3.52813ZM26.7832 3.53942C28.2446 3.27815 28.5943 2.87336 28.3388 1.85089C28.12 0.973566 27.545 0.771975 26.3168 1.17354C26.4702 1.94604 26.6235 2.72499 26.7848 3.53942H26.7832Z" fill="#E6E6E6"/>
<path d="M6.18345 39.9603C6.69453 40.7618 6.99479 41.544 6.2665 42.4035C5.81931 42.9309 5.45197 43.5308 5.08623 44.1195C4.99519 44.2662 5.0463 44.5017 5.03033 44.6952C5.20441 44.6952 5.3817 44.7162 5.54939 44.6855C5.72987 44.6533 5.90395 44.5743 6.07804 44.5098C6.71529 44.2727 7.5985 44.2388 7.03631 42.9906L7.34935 43.089C7.63044 43.9453 7.91153 44.8033 8.19263 45.6596C7.50267 44.6791 6.74723 45.3129 6.03971 45.5226C5.32739 45.7338 4.62626 45.9919 3.91714 46.216C3.30225 46.4112 2.59472 46.5095 2.80075 47.524C2.26412 46.3241 1.63006 45.2113 1.68277 43.8921C1.70672 43.2905 1.9958 42.8212 2.59951 42.6051C3.21121 42.3858 3.68555 42.6245 4.1056 43.0502C4.23177 43.1776 4.34037 43.3212 4.50168 43.5083C5.01436 42.2729 6.24414 41.4488 6.18345 39.957V39.9603ZM4.65021 44.9887L4.83229 44.7162C4.44099 44.3049 4.11199 43.6953 3.64084 43.5437C3.26871 43.4244 2.51327 43.7437 2.30405 44.0969C2.06767 44.4952 2.24974 45.1484 2.24974 45.787C3.20163 45.4709 3.92672 45.2306 4.65181 44.9904L4.65021 44.9887Z" fill="#E6E6E6"/>
<path d="M38.2789 5.95683C39.333 6.17132 39.3778 5.38108 39.555 4.71341C39.7962 3.80706 40.0438 2.90393 40.3057 2.00403C40.483 1.39281 40.6634 0.800936 39.7435 0.573542C39.8745 0.557414 40.015 0.500969 40.1332 0.533224C41.2065 0.823514 42.3228 1.02027 43.3338 1.45893C44.784 2.08789 45.2456 3.51677 44.693 5.1166C44.1707 6.63095 43.0304 7.27604 41.4333 6.90511C40.4255 6.67127 39.4353 6.36807 38.4371 6.09068C38.3764 6.07294 38.33 6.0036 38.2773 5.95683H38.2789ZM41.4636 1.21863C41.0579 2.7346 40.6523 4.20057 40.2849 5.67621C40.2402 5.85684 40.3344 6.16648 40.4734 6.28421C40.9845 6.71158 42.1919 6.70997 42.7381 6.33743C43.5973 5.7504 44.15 4.10219 43.8768 2.93296C43.6357 1.89759 42.9489 1.39119 41.4636 1.22025V1.21863Z" fill="#E6E6E6"/>
<path d="M10.3332 18.0771C10.3364 19.8576 8.81591 21.5138 7.18046 21.5058C5.55459 21.4977 4.11719 20.093 4.11719 18.5109C4.11719 16.7547 5.66639 15.0726 7.28108 15.0742C8.89737 15.0758 10.33 16.4854 10.3332 18.0787V18.0771ZM10.0042 18.5464C9.7119 18.0626 9.50906 17.474 9.10499 17.1192C8.57954 16.6579 7.92472 16.2983 7.2699 16.0435C6.2749 15.658 5.42044 16.0322 4.89818 16.9385C4.37911 17.8368 4.4446 18.7141 5.26072 19.3947C5.85964 19.8947 6.57196 20.3204 7.30344 20.5785C8.58273 21.0316 9.84446 20.0156 10.0058 18.5448L10.0042 18.5464Z" fill="#E6E6E6"/>
<path d="M67.4991 31.4011C67.4944 33.2847 66.3221 34.4911 64.4854 34.5007C62.7238 34.5104 61.5211 33.1864 61.5195 31.2382C61.5195 29.3577 62.7589 28.1192 64.6275 28.1369C66.3301 28.153 67.5039 29.4868 67.4991 31.4011ZM64.2762 33.5492C64.9102 33.3767 65.5762 33.2767 66.1703 33.0122C67.0152 32.6364 67.3043 31.8913 67.1574 30.8624C67.036 30.0238 66.5361 29.3642 65.6816 29.3158C64.7793 29.2642 63.8401 29.3658 62.9617 29.5803C62.2031 29.7674 61.8565 30.435 61.8374 31.2462C61.8054 32.6735 62.6663 33.4686 64.2762 33.5492Z" fill="#E6E6E6"/>
<path d="M67.3448 38.3617C67.3304 40.2212 66.0863 41.5952 64.4141 41.5985C62.579 41.6017 61.3109 40.3599 61.3125 38.5617C61.3141 36.6216 62.5966 35.2121 64.3406 35.2346C66.155 35.2572 67.3592 36.5119 67.3448 38.3617ZM64.6297 40.6373C65.9809 40.5953 66.8289 39.9841 66.9839 38.8842C67.1659 37.5973 66.6133 36.778 65.235 36.4603C64.6265 36.32 63.9669 36.2636 63.3488 36.3361C62.2899 36.4587 61.7437 37.1312 61.6335 38.2327C61.5457 39.1036 62.02 39.8761 62.94 40.2164C63.4814 40.4163 64.0659 40.5018 64.6297 40.6389V40.6373Z" fill="#E6E6E6"/>
<path d="M12.3082 7.85094C13.0014 7.11069 13.6402 6.55269 14.763 7.06231C16.0088 7.62838 17.3567 7.96383 18.8436 8.46055C18.1265 7.41227 17.5628 6.4785 16.8744 5.64956C16.6764 5.40927 16.1238 5.46732 15.6207 5.36734C16.1844 4.97706 16.7578 4.58032 17.3296 4.18359L17.625 4.24649C16.5917 5.05769 17.2928 5.61086 17.6873 6.1995C18.4396 7.32357 19.203 8.43958 19.9616 9.55882L19.8291 9.75073C17.7943 9.07177 15.7596 8.39443 13.5572 7.65902C14.3877 8.87663 15.0681 9.96683 15.8554 10.9716C16.0742 11.2506 16.6093 11.2748 17.0996 11.4505C16.6332 11.7747 16.0647 12.1682 15.4961 12.5633C16.2723 11.4844 15.3204 10.8893 14.8956 10.1894C14.5075 9.54914 14.0523 8.95082 13.6338 8.3283C13.3192 7.86223 13.0078 7.41389 12.3066 7.84932L12.3082 7.85094Z" fill="#E6E6E6"/>
<path d="M1.82482 30.8047C0.235681 30.9547 0.417753 32.0272 0.422544 33.1142C1.15083 33.169 1.85037 33.2222 2.53873 33.2738C2.84218 32.2385 2.80545 32.1433 1.96696 31.5401C2.59303 31.5805 3.2191 31.6192 3.84517 31.6595C2.98432 31.8708 2.91245 32.4771 3.02745 33.3287C3.68865 33.3287 4.37222 33.369 5.0478 33.3045C5.25383 33.2851 5.55409 33.0045 5.6036 32.7949C5.87671 31.6143 5.59242 31.087 4.4968 30.5435C4.38979 30.4903 4.30035 30.4064 4.24764 30.1758L6.03003 30.3338C5.95497 31.974 5.8831 33.5464 5.81122 35.1188C5.55409 34.1399 4.80344 34.2963 4.14383 34.2673C3.24146 34.227 2.34068 34.127 1.43991 34.1463C0.99591 34.156 0.555105 34.3705 0.03125 34.5156C0.0839549 33.4351 0.130271 32.1917 0.227696 30.9515C0.238876 30.8128 0.526357 30.6257 0.710026 30.587C1.0039 30.5257 1.32013 30.5709 1.62677 30.5709L1.82482 30.8047Z" fill="#E6E6E6"/>
<path d="M63.5521 19.0773L64.1446 19.1064L64.2165 19.2644C63.6112 19.6386 63.0059 20.0127 62.399 20.3853L62.252 20.2385C62.3846 20.0772 62.514 19.9143 62.6513 19.7579C63.3141 19.008 63.4179 18.1145 62.9324 17.3195C62.49 16.5954 61.6962 16.268 60.7651 16.6083C60.0815 16.8582 59.4092 17.2388 58.8438 17.7001C58.0564 18.3419 57.9047 19.2418 58.288 20.0111C58.6888 20.8126 59.4395 21.1739 60.4313 21.032C60.6357 21.0029 60.837 20.9465 61.0382 20.9029L61.1516 21.111C60.5878 21.4416 60.0224 21.7738 59.4587 22.1044L59.3437 21.977C59.4171 21.8012 59.4922 21.6255 59.5657 21.4497C57.9701 20.6627 57.2419 19.308 57.6475 17.9033C58.0516 16.4986 59.6839 15.5003 61.2363 15.7067C62.6609 15.8954 63.4531 17.0405 63.5489 19.0757L63.5521 19.0773Z" fill="#E6E6E6"/>
<path d="M9.95804 9.96371C10.4036 9.48634 10.8285 9.02833 11.2549 8.57031C10.9099 9.56053 11.6574 9.94274 12.1589 10.4379C12.6907 10.9636 13.2433 11.47 13.7656 12.0054C14.2814 12.536 14.3789 13.1682 14.1313 13.8649C13.427 15.8502 11.5759 16.3291 10.0794 14.9116C9.61306 14.4713 9.13712 14.0407 8.68194 13.5875C8.21718 13.1247 7.76679 12.6618 7.07204 13.394L6.99219 13.173C7.58152 12.5328 8.17246 11.8941 8.7618 11.2539L8.91672 11.349C8.80332 11.5813 8.68993 11.8151 8.51584 12.1748C9.49008 13.0601 10.4675 13.9988 11.5056 14.8664C12.0295 15.3035 12.7179 15.1164 13.2832 14.5277C13.9413 13.8423 14.1425 12.9327 13.6202 12.357C12.8504 11.5087 12.0071 10.7185 11.1271 9.9879C10.9131 9.8105 10.4324 9.9621 9.95644 9.9621L9.95804 9.96371Z" fill="#E6E6E6"/>
<path d="M2.92397 21.8169C2.74349 21.6492 2.59815 21.5121 2.45122 21.375L2.52948 21.1992C3.19548 21.396 3.86307 21.5927 4.52907 21.7895L4.51629 21.9878C4.30388 22.004 4.09306 22.0298 3.88064 22.0362C2.92237 22.0636 2.25637 22.5636 1.98806 23.4619C1.74849 24.2618 1.99764 25.0456 2.83932 25.5068C3.52448 25.8842 4.30228 26.1519 5.0705 26.2987C5.92336 26.4615 6.77782 25.8794 7.0621 25.1375C7.3959 24.2666 7.16112 23.4635 6.39131 22.8523C6.21403 22.7103 6.03196 22.5733 5.85308 22.4346L5.93613 22.2491C6.5622 22.4539 7.18827 22.6587 8.01558 22.9297C7.64186 23.0942 7.46617 23.17 7.29528 23.2458C7.77122 25.0246 7.17869 26.5357 5.7908 27.1115C4.49873 27.6485 2.65246 27.0002 1.87306 25.7358C1.10165 24.486 1.48337 23.0006 2.92397 21.8137V21.8169Z" fill="#E6E6E6"/>
<path d="M30.5764 63.2909C30.372 63.0828 30.1612 62.8828 29.9663 62.6667C29.5479 62.2039 29.3051 61.6814 29.5735 61.054C29.8929 60.3073 30.5014 59.9445 31.276 59.9574C31.9292 59.9687 32.6144 60.159 32.8188 60.8621C32.9242 61.2234 32.7501 61.7201 32.576 62.0958C32.4531 62.3619 32.1209 62.528 31.8414 62.7764C32.6319 63.3489 33.3842 63.9537 32.8507 65.0778C32.5217 65.7696 31.6114 66.1938 30.8208 66.0228C30.1404 65.8761 29.5064 65.5761 29.4393 64.7826C29.3722 63.9763 29.9057 63.5344 30.5988 63.2667C30.4359 63.7586 30.1356 64.2569 30.1596 64.7375C30.1772 65.0778 30.5796 65.5729 30.9086 65.6745C31.2424 65.7777 31.9084 65.5955 32.0442 65.3342C32.2135 65.01 32.1336 64.3553 31.8957 64.0618C31.5954 63.6892 31.0284 63.536 30.5764 63.2876V63.2909ZM31.1578 60.238C30.6563 60.2622 30.2187 60.4783 30.2043 61.1653C30.1947 61.6991 30.9486 62.5684 31.4293 62.599C31.8014 62.6232 32.3029 61.8797 32.2997 61.3104C32.2949 60.6863 31.8749 60.2541 31.1578 60.2364V60.238Z" fill="#E6E6E6"/>
<path d="M60.3883 13.4419C60.1136 13.6709 59.7431 13.9806 59.3709 14.2886L59.2352 14.1741C59.3246 13.9402 59.4779 13.7096 59.4907 13.4726C59.5115 13.0629 59.5738 12.5662 59.3789 12.2614C59.1984 11.9792 58.6442 11.7002 58.3663 11.7873C58.0916 11.8727 57.8105 12.4082 57.793 12.7597C57.769 13.2484 57.9814 13.7516 58.1044 14.2451C58.451 15.632 57.9798 16.59 56.8379 16.8093C55.811 17.006 54.7936 16.0352 54.6786 14.745C54.6722 14.666 54.6546 14.5886 54.6435 14.5095C54.4822 14.5305 54.3288 14.5531 54.1755 14.5692C54.1563 14.5708 54.134 14.5386 53.9902 14.4192C54.4885 13.9983 54.9645 13.5951 55.4404 13.1919C55.4979 13.2355 55.5554 13.279 55.6129 13.3226C55.4803 13.5822 55.3398 13.837 55.2136 14.1015C54.8319 14.9063 55.0252 15.7804 55.7439 16.1239C56.0345 16.2642 56.5089 16.29 56.7708 16.14C57.0296 15.9932 57.2787 15.5481 57.2611 15.2482C57.226 14.616 57.012 13.9935 56.8778 13.3661C56.659 12.3469 57.111 11.5083 57.9942 11.2809C58.7976 11.0744 59.5865 11.6357 59.8948 12.5952C59.973 12.8404 60.1551 13.0532 60.3867 13.4435L60.3883 13.4419Z" fill="#E6E6E6"/>
<path d="M51.9509 9.20977C52.7063 8.88561 53.2908 8.63725 53.8738 8.38566C54.4264 8.14698 54.8959 7.87443 54.1197 7.14225L54.3929 7.06968C54.8848 7.42609 55.3767 7.7825 55.7855 8.07763C54.749 8.47114 53.6853 8.80336 52.6903 9.28234C52.1489 9.54199 51.6953 10.021 51.2545 10.4548C50.8568 10.8467 50.678 11.3128 51.3424 11.753L51.1251 11.9175C50.4687 11.4353 49.8107 10.9531 49.1543 10.4693C50.0551 10.5145 50.975 9.79035 51.0948 8.79852C51.221 7.75992 51.2785 6.71165 51.32 5.66499C51.3296 5.4005 51.1619 5.12795 51.1651 4.70703C51.7895 5.16343 52.414 5.61983 53.0385 6.07624L52.9778 6.22461C52.7686 6.1988 52.5594 6.17139 52.2288 6.13107C52.1393 7.11322 52.0515 8.08408 51.9493 9.20977H51.9509Z" fill="#E6E6E6"/>
<path d="M33.0762 0.0919255C32.7105 0.30158 32.5156 0.411245 32.2313 0.574131C32.7696 1.445 33.2838 2.27556 33.8556 3.19965C34.2916 2.41748 34.7372 1.7482 35.0295 1.01763C35.1269 0.774109 34.8346 0.370927 34.7069 0H36.2401C35.6444 0.927318 34.9784 1.85947 34.4338 2.85937C34.1718 3.33996 34.0409 3.94957 34.0393 4.50112C34.0393 4.92204 34.3363 5.34458 34.512 5.79614H32.5891C32.7424 5.43973 33.0363 5.03655 33.065 4.61563C33.097 4.1431 32.9708 3.61412 32.768 3.1803C32.4757 2.55456 32.07 1.97882 31.6755 1.40952C31.3705 0.969249 31.008 0.570906 30.623 0.0935382H33.0746L33.0762 0.0919255Z" fill="#E6E6E6"/>
<path d="M0 35.6992C1.44699 36.7668 2.79975 37.6409 4.47673 37.6248C5.50527 37.6151 5.50367 37.5297 5.94448 36.5459C6.08183 37.4958 6.19523 38.286 6.323 39.1827C5.44298 38.3118 4.44319 38.2876 3.52165 39.0327C2.96106 39.4843 2.39248 39.9278 1.85745 40.4084C1.4981 40.7309 1.18985 41.1131 0.784186 41.547L0.488718 39.3391L0.632459 39.2827C0.768214 39.4472 0.90397 39.6133 1.08924 39.8375C1.8862 39.1972 2.64483 38.586 3.46894 37.9248C2.771 37.62 2.16729 37.3587 1.56677 37.091C1.01417 36.8443 0.49351 36.6636 0.499898 37.7635C0.424834 37.7087 0.349769 37.6538 0.273107 37.599C0.186863 37.0023 0.102216 36.4072 0 35.6992Z" fill="#E6E6E6"/>
<path d="M48.8604 10.1323C48.188 9.79524 47.5236 9.4614 46.8592 9.12757L46.9071 8.96468L47.7296 9.00177C47.7296 8.40506 47.835 7.78739 47.6945 7.23584C47.5923 6.83265 45.9233 6.36013 45.6725 6.53914C44.8852 7.10037 44.7877 7.40679 45.1072 8.2325C44.6073 7.98575 44.1074 7.73739 43.6777 7.52451C44.2431 7.15036 44.7845 6.86007 45.2477 6.47302C46.4296 5.48764 47.5763 4.46033 48.9067 3.30078C48.9067 3.82008 48.9211 4.12327 48.9035 4.42324C48.8205 5.84405 48.7087 7.26325 48.6528 8.68407C48.6368 9.1066 48.7693 9.5372 48.8604 10.1307V10.1323ZM48.0267 4.47323C47.308 5.1022 46.7793 5.56505 46.1852 6.08435C46.7666 6.3698 47.2553 6.60849 47.8334 6.89233C47.8957 6.10209 47.9516 5.41345 48.0267 4.47323Z" fill="#E6E6E6"/>
<path d="M21.5342 8.40003C22.601 8.08394 22.3024 7.45175 22.0277 6.80989C21.515 5.6084 21.0167 4.39886 20.5184 3.20383C19.0746 3.51831 18.9788 3.62636 18.7648 5.05524C18.5827 4.65528 18.399 4.25371 18.1738 3.76022C19.9243 3.01514 21.6012 2.3007 23.3613 1.55078C23.5673 2.00234 23.7574 2.41682 24.0113 2.97321C23.4747 2.65711 23.1025 2.26844 22.7128 2.2507C22.2784 2.23135 21.828 2.54906 21.3313 2.74097C21.9382 4.19243 22.4813 5.61324 23.1425 6.97761C23.283 7.26629 23.8516 7.34209 24.2525 7.53078C23.4619 7.86945 22.5915 8.2436 21.7194 8.61775L21.5358 8.40165L21.5342 8.40003Z" fill="#E6E6E6"/>
<path d="M66.4199 43.0856L65.5239 45.6434L65.2668 45.7417C65.7778 44.4032 64.818 44.3741 64.1184 44.1242C63.1665 43.7839 62.2051 43.4694 61.2596 43.1162C60.8379 42.9582 60.6303 43.0936 60.4546 43.4823C59.9643 44.5661 59.9931 44.7628 61.1254 46.4336C60.4578 46.1901 59.9308 45.9982 59.3398 45.7837C59.8956 44.1871 60.4243 42.6647 60.9545 41.1406C60.8763 42.2292 61.7052 42.2857 62.3632 42.5195C63.1905 42.8114 64.0178 43.1065 64.8435 43.4033C65.4089 43.6065 65.9998 43.9161 66.2138 42.7904L66.4199 43.084V43.0856Z" fill="#E6E6E6"/>
<path d="M36.9735 60.1032C36.3091 60.8531 35.4434 61.6691 34.7918 62.6319C34.434 63.1609 34.3302 63.935 34.3079 64.6043C34.2823 65.3623 34.7966 65.7703 35.461 65.7429C36.1973 65.7139 36.472 65.2462 36.5151 64.5801C36.5758 63.6318 36.3682 62.819 35.3604 62.4287C36.2516 62.0949 37.2082 62.7303 37.3616 63.727C37.5341 64.8398 36.7802 65.8348 35.6239 66.0187C34.6433 66.1751 33.57 65.3155 33.455 64.2221C33.4151 63.835 33.4646 63.4109 33.5828 63.04C34.0332 61.6353 35.8747 60.1645 36.9719 60.1016L36.9735 60.1032Z" fill="#E6E6E6"/>
<path d="M37.9484 68.0006C39.1511 67.4039 40.0167 66.4685 40.4495 65.2315C40.6843 64.5622 40.7226 63.7785 40.6604 63.064C40.6108 62.498 40.1365 62.1125 39.5024 62.2222C38.9099 62.3238 38.5905 62.7237 38.5538 63.3446C38.4963 64.3284 38.763 65.1396 39.7756 65.5896C39.0728 65.7782 38.4803 65.5896 38.0794 65.0525C37.6194 64.4381 37.5923 63.7575 37.9037 63.0769C38.2599 62.2996 39.092 61.8738 39.9448 61.9867C40.7961 62.0996 41.5867 62.7947 41.6106 63.6769C41.6298 64.3429 41.5196 65.0912 41.2209 65.6718C40.5565 66.962 39.3715 67.6635 37.9484 68.0022V68.0006Z" fill="#E6E6E6"/>
<path d="M28.7802 65.9553C28.6493 66.0005 28.6014 66.0311 28.5535 66.0311C28.0504 66.0343 27.5489 66.0327 27.017 66.0327C27.6782 65.136 27.6862 62.7492 26.9883 62.0977H28.6333C28.0056 62.904 28.0504 65.3828 28.7802 65.9537V65.9553Z" fill="#E6E6E6"/>
</svg>
