<svg width="81" height="40" viewBox="0 0 81 40" fill="none" xmlns="http://www.w3.org/2000/svg">
<g clip-path="url(#clip0_1679_21263)">
<g clip-path="url(#clip1_1679_21263)">
<path d="M22.482 27.6202C22.0958 27.6352 21.8005 27.4388 21.704 26.9941C21.6458 27.014 21.6224 27.0147 21.6096 27.0268C21.4605 27.1691 21.6188 27.5676 21.2746 27.5164C20.9289 27.4651 20.5278 27.436 20.3362 27.0567C20.1992 26.7864 20.0962 26.4982 19.9365 26.1197C19.7129 26.6256 19.5106 27.0831 19.309 27.5405C19.2501 27.5313 19.2054 27.5377 19.1841 27.5185C18.9598 27.3171 18.9357 27.3292 18.7689 27.5519C18.6915 27.6558 18.5303 27.796 18.448 27.7732C18.328 27.7398 18.1996 27.5889 18.157 27.4609C18.1073 27.3093 18.1449 27.1286 18.1449 26.9315C18.0505 27.0204 17.9682 27.098 17.8269 27.2318C17.7488 27.0318 17.6998 26.8604 17.6161 26.7074C17.5657 26.6156 17.4422 26.4776 17.3833 26.4918C17.0326 26.5765 16.6727 26.6618 16.3519 26.8205C16.0928 26.9493 15.9778 27.2076 15.9842 27.5341C15.9941 28.0372 15.9026 28.5438 15.9338 29.0432C15.9679 29.5889 16.2326 29.7441 16.7898 29.7505C17.2654 29.7561 17.741 29.8131 18.2145 29.8679C18.7476 29.929 19.2757 30.0422 19.8095 30.0792C20.3475 30.1162 20.8891 30.087 21.4463 30.124C20.9913 30.5424 20.5186 30.928 19.8684 30.9892C19.786 30.997 19.6923 30.9472 19.6121 30.9066C19.4176 30.8077 19.2388 30.669 19.035 30.6014C18.6922 30.4876 18.3316 30.5217 18.0044 30.2357C17.817 30.0728 17.3726 30.2058 17.0404 30.2613C17.193 30.4712 17.3407 30.6 17.5976 30.5118C17.6686 30.4876 17.79 30.6021 17.8844 30.6597C17.954 30.7024 18.0108 30.7722 18.0846 30.8035C18.3777 30.9287 18.6752 31.044 18.9712 31.1635L18.9477 31.3065C18.6311 31.446 18.3181 31.5918 17.9966 31.7185C17.9298 31.7448 17.8361 31.7056 17.7552 31.6914C17.5628 31.6566 17.3719 31.6188 17.0887 31.5648C17.1348 31.4317 17.2001 31.2453 17.2725 31.0383C17.1781 31.0902 17.056 31.1564 16.9212 31.2304C16.2504 30.8639 16.1538 30.7487 16.0772 30.1702L16.5939 30.3204C16.0616 30.0372 15.8372 29.5278 15.5618 29.0454C15.4575 28.8625 15.2119 28.7608 14.9762 28.58V29.1827C15.1274 29.1535 15.2708 29.0802 15.3404 29.1243C15.4142 29.1713 15.4099 29.3328 15.4539 29.4381C15.51 29.5726 15.581 29.7006 15.6271 29.7946C15.652 29.9717 15.6534 30.124 15.6974 30.2634C15.7719 30.4997 15.9459 30.7273 15.9466 30.9593C15.9466 31.3122 16.129 31.2667 16.3469 31.2489C16.5002 31.2361 16.6358 31.2033 16.7387 31.4104C16.8424 31.6181 16.8516 31.7619 16.6521 31.8608C16.5584 31.9077 16.4222 31.8686 16.2788 31.8686C16.1624 31.9305 16.0041 32.0137 15.8458 32.0977L15.7805 32.018C15.828 31.8757 15.8749 31.7334 15.9459 31.5207C15.7783 31.6046 15.6818 31.653 15.5853 31.7014L15.5391 31.6573C15.6165 31.5605 15.6946 31.463 15.7847 31.3506C15.417 31.3563 15.2744 31.5271 15.3113 31.9212C15.2318 31.8949 15.1665 31.8729 15.1083 31.8529C15.1132 32.2101 15.0004 32.267 14.2877 32.2194C14.3644 32.1461 14.424 32.0899 14.539 31.981H14.0719C14.1187 31.6765 14.2877 31.4822 14.5439 31.3926C14.72 31.3314 14.7832 31.2745 14.7782 31.0753C14.7739 30.9138 14.8286 30.7017 14.9379 30.5978C15.1104 30.4335 15.1189 30.2969 15.0699 30.0813C15.0217 29.8686 15.0593 29.6366 15.0593 29.3833C14.7775 29.6516 14.7285 29.9625 14.622 30.2841C14.4595 30.7757 14.1152 31.2659 13.5047 31.3947C13.4025 31.4161 13.2925 31.4381 13.2073 31.4929C12.8276 31.7362 12.4521 31.7398 12.0716 31.4972C11.9871 31.4438 11.8672 31.3599 11.7969 31.3848C11.2709 31.5705 11.0352 31.1002 10.6519 30.95C10.6896 30.8938 10.7073 30.859 10.7123 30.8611C11.2106 31.0368 11.5854 30.8497 11.9445 30.4989C12.1617 30.2876 12.3896 30.3737 12.5337 30.6505C12.3094 30.8924 11.8437 30.7572 11.7607 31.209C12.1128 31.0333 12.4357 30.8554 12.7736 30.711C12.8893 30.6619 13.0405 30.6889 13.1747 30.6932C13.5353 30.7046 13.7837 30.4527 14.0676 30.2983C14.2678 30.1894 14.2714 30.0066 14.0506 29.8607C13.9597 30.1126 13.3969 30.351 13.0079 30.3012C12.8581 30.2819 12.7055 30.2385 12.5671 30.1781C12.1802 30.0087 11.8104 30.0877 11.5626 30.3993C11.4349 30.5601 11.2943 30.711 11.1595 30.8661C11.1545 30.8234 11.1502 30.7807 11.1453 30.738C10.9153 30.6918 10.6846 30.6505 10.456 30.5971C10.3169 30.5651 10.1778 30.526 10.0465 30.4705C9.90306 30.41 9.76962 30.3275 9.61558 30.1624C10.0486 30.0977 10.4802 30.0187 10.9153 29.971C11.3298 29.9255 11.7472 29.9077 12.1639 29.8906C12.2611 29.8871 12.3648 29.9269 12.4585 29.9639C12.8382 30.1126 13.2428 30.1923 13.575 29.9305C13.9335 29.648 14.0165 29.2424 13.9129 28.7736C13.8384 28.4363 13.876 28.0749 13.8554 27.7255C13.8369 27.4103 13.8057 27.0959 13.7802 26.7707C13.6581 26.7977 13.624 26.7956 13.6155 26.8091C13.0249 27.759 12.0489 27.4054 11.2141 27.495C11.0885 27.5085 10.9323 27.241 10.7712 27.0852C10.5994 27.4438 10.3382 27.3129 10.0408 27.1094C10.1551 27.3904 10.2381 27.5953 10.3162 27.7881C10.0415 27.8998 9.8193 28.0215 9.58222 28.0692C9.50272 28.0848 9.29403 27.9006 9.30326 27.828C9.32739 27.6444 9.4147 27.4879 9.27202 27.3001C9.23866 27.2559 9.37992 27.0781 9.45658 26.9315C9.59855 27.0517 9.69508 27.1329 9.85693 27.2702C9.91371 27.2054 9.97547 27.135 10.0727 27.024C9.8768 26.977 9.75542 26.9472 9.63404 26.918L9.63901 26.8447C9.88319 26.8041 10.1281 26.7629 10.466 26.7067C10.2338 26.4619 10.0862 26.3061 9.88816 26.0969C9.77104 26.5573 9.48142 26.7003 9.12722 26.7216C9.10734 27.1663 9.1116 27.1471 8.6857 27.0496C8.53025 27.014 8.34995 27.1001 8.17888 27.1144C8.07809 27.1229 7.91838 27.1357 7.88289 27.0816C7.79132 26.9436 7.57553 26.807 7.77073 26.5943C7.82468 26.5352 7.87437 26.4719 7.92619 26.4107L7.86656 26.3374C7.73027 26.4086 7.59469 26.4797 7.4144 26.5743C7.46693 26.2051 6.64423 26.2129 7.05238 25.7248C7.25398 25.7497 7.40091 25.7682 7.6025 25.7931C7.50526 25.5697 7.46622 25.431 7.38742 25.3207C7.33845 25.2517 7.20855 25.1691 7.15034 25.1905C6.75993 25.3321 6.63003 25.14 6.59099 24.7963C6.58744 24.7657 6.5555 24.738 6.52427 24.6896C6.47316 24.7066 6.41567 24.7138 6.37166 24.7415C6.13812 24.8888 5.99048 24.77 5.87761 24.5779C5.69661 24.2712 6.06714 23.226 6.40644 23.13C6.61797 23.0702 6.69534 23.0119 6.64281 22.7671C6.55266 22.3452 6.91042 22.0314 7.31147 21.8913C7.68697 21.7596 8.11855 21.8087 8.4543 21.5163C8.60265 21.3868 8.84968 21.3704 9.12154 21.2794C9.10947 21.273 9.16555 21.3185 9.22943 21.3342C9.33946 21.3612 9.48214 21.4174 9.5588 21.3719C9.62836 21.3313 9.68799 21.1228 9.64824 21.0745C9.56093 20.9684 9.37211 20.8276 9.28835 20.861C9.0534 20.9549 8.77443 20.9542 8.60762 21.2388C8.41526 21.5661 8.1079 21.5675 7.71821 21.4025C7.47544 21.3 7.20358 21.2979 7.05593 21.0083C6.84937 20.6034 6.93171 20.422 7.37891 20.4042C7.42575 20.4021 7.47473 20.4085 7.51945 20.3964C7.80575 20.3177 8.02154 20.4004 8.16682 20.6447C8.32724 20.2776 8.31091 20.1203 8.08732 19.8592C8.06318 19.8592 8.03692 19.8521 8.01704 19.8606C7.84526 19.9304 7.6742 20.0029 7.50313 20.0748C7.44421 19.8955 7.37749 19.7176 7.32851 19.5355C7.26391 19.2964 7.21706 19.0531 7.15531 18.8133C7.08007 18.5202 7.08859 18.279 7.36258 18.0556C7.53791 17.9133 7.64651 17.6692 7.74092 17.4515C7.86514 17.1662 8.1874 16.989 8.47559 17.0922C8.86813 17.2331 8.95686 17.1577 9.04772 16.7571C9.08108 16.6091 9.24363 16.4462 9.38915 16.3779C9.66314 16.2498 9.91158 16.1822 9.91016 15.7774C9.90874 15.4622 10.4972 15.115 10.8202 15.164C11.1864 15.2188 11.5527 14.9961 11.6663 14.6482C11.7848 14.2868 12.5025 13.8442 12.8545 14C13.3905 14.2377 13.7354 13.8727 14.1535 13.7126C14.3402 13.6414 14.5383 13.5895 14.7356 13.5589C14.8967 13.534 15.0657 13.5561 15.2311 13.5525C15.4923 13.5461 15.7223 13.5767 15.8302 13.8762C15.8593 13.9566 15.9728 14.0313 16.063 14.0605C16.3391 14.1502 16.6245 14.2121 16.9041 14.2932C16.9815 14.3159 17.0908 14.3515 17.1157 14.4106C17.2633 14.7606 17.5778 14.8695 17.8915 14.9819C17.9611 15.0068 18.0427 15.0331 18.1108 15.0189C18.6702 14.9001 19.1266 15.0239 19.4744 15.5127C19.5362 15.5995 19.7413 15.6521 19.8556 15.6237C20.4824 15.4643 20.7912 15.5333 21.1454 16.0306C21.2596 16.1907 21.2753 16.422 21.3576 16.6916C21.5819 16.7308 21.9063 16.8062 21.8516 17.2637C21.846 17.3135 21.9432 17.3896 22.0071 17.4309C22.2335 17.5767 22.5061 17.6778 22.4806 18.0271C22.4777 18.062 22.5217 18.116 22.5579 18.1345C22.7453 18.2299 22.9292 18.3565 23.1293 18.3964C23.4133 18.4526 23.556 18.5992 23.6425 18.8638C23.6695 18.9464 23.8037 19.0076 23.9016 19.0481C23.9847 19.0823 24.099 19.046 24.1763 19.0858C24.3992 19.2032 24.5575 20.1303 24.3808 20.3132C24.1366 20.5657 23.8718 20.7984 23.573 21.0794C23.7795 21.3199 23.9719 21.041 24.1721 20.9193C24.1884 21.3021 23.886 21.5248 23.5701 21.3747C23.4452 21.3157 23.3338 21.2189 23.233 21.1214C23.0101 20.9073 23.0065 20.9037 22.7822 21.1947C22.9682 21.4124 23.4417 21.4074 23.3125 21.8834C23.4552 21.9033 23.5709 21.9418 23.683 21.9318C24.2459 21.8834 24.5667 22.274 24.5007 22.8425C24.4731 23.0823 24.6129 23.342 24.6768 23.5924C24.7101 23.7226 24.7662 23.8514 24.7754 23.9831C24.7925 24.2342 24.7541 24.4911 24.7911 24.738C24.8521 25.1471 24.7875 25.2332 24.4056 25.3996C24.2693 25.4587 24.1082 25.7099 24.1316 25.8422C24.204 26.2492 23.9918 26.4548 23.7079 26.6455C23.6695 26.6711 23.5993 26.6761 23.5851 26.7088C23.4296 27.0674 23.2344 27.3314 22.7702 27.2012C22.7262 27.1891 22.6112 27.4296 22.4848 27.6188L22.482 27.6202ZM12.9653 15.3875C13.1349 15.2857 13.3053 15.184 13.4629 15.09C13.5154 15.497 13.8405 15.6991 14.1819 15.9197C14.2004 15.6521 14.2181 15.3988 14.2415 15.0602C14.375 15.1491 14.5092 15.238 14.6845 15.3547L14.8059 15.078C14.6312 15.0097 14.4559 14.9413 14.2813 14.8738L14.233 14.9499C14.2032 14.8524 14.1734 14.7549 14.1131 14.5571C14.0293 14.8325 13.9754 15.0089 13.9221 15.1847C13.8178 15.0965 13.8086 15.0196 13.7851 14.947C13.7567 14.8595 13.7262 14.7101 13.6815 14.7044C13.5942 14.693 13.4898 14.7528 13.4039 14.8019C13.2826 14.8709 13.1718 14.9563 13.0561 15.0353C13.0292 15.1477 13.0001 15.2693 12.9738 15.3924C12.9298 15.4152 12.8851 15.4373 12.8411 15.46C12.8332 15.3405 12.8254 15.2203 12.8183 15.1142C12.6593 15.1477 12.4982 15.1811 12.3371 15.2146C12.4258 15.0602 12.4939 14.8837 12.616 14.7628C12.6593 14.7201 12.8354 14.8119 13.054 14.8702L13.1626 14.4817C12.9262 14.4632 12.6891 14.444 12.4528 14.4255L12.5216 14.5635C12.3051 15.0089 12.0893 15.455 11.8544 15.9389C12.2228 15.9502 12.5372 15.4003 12.9937 15.936C12.9795 15.6521 12.9724 15.5205 12.966 15.3882L12.9653 15.3875ZM14.8641 22.9727C14.8804 22.76 14.913 22.5707 14.906 22.3822C14.891 21.9837 15.126 21.6501 15.4916 21.4871C15.7542 21.3704 16.0999 21.2402 16.2042 21.0197C16.327 20.76 16.4981 20.6269 16.6961 20.4668C16.9041 20.2989 16.8218 20.0961 16.5329 20.0108C16.4406 20.4846 15.997 20.8653 15.5136 20.8845C15.4781 20.4405 15.3763 20.1725 15.2083 20.0805C15.2396 20.2356 15.3006 20.3644 15.2815 20.4796C15.2417 20.7244 15.224 21.0118 15.0827 21.1919C14.7959 21.5561 14.5745 21.919 14.5191 22.3929C14.4857 22.6746 14.5773 22.8319 14.8648 22.9727H14.8641ZM22.0547 22.1481C22.1398 22.1353 22.1988 22.1075 22.2229 22.126C22.494 22.3324 22.7325 22.0641 22.9895 22.072C23.0285 22.0734 23.108 21.956 23.1059 21.8962C23.0967 21.6323 22.5295 21.3107 22.2797 21.3961C22.0965 21.4587 21.8694 21.5618 21.7132 21.5056C21.2454 21.3363 20.9651 21.601 20.5995 21.8585C20.7642 21.9894 20.8891 22.0898 21.0155 22.1879C21.1958 22.3281 21.3264 22.3608 21.3661 22.0627C21.3768 21.9859 21.4889 21.8763 21.5642 21.8678C21.628 21.8607 21.7111 21.9724 21.7757 22.0407C21.907 22.1794 22.0312 22.3238 22.1583 22.4661L22.2321 22.3993C22.1796 22.3253 22.1271 22.2513 22.0539 22.1481H22.0547ZM10.9636 15.6792L11.0643 15.7717C10.9621 15.8997 10.867 16.0342 10.7549 16.1523C10.6917 16.2185 10.5994 16.2562 10.5206 16.3074C10.6988 16.4077 10.6065 16.814 10.9245 16.7158C11.0615 16.6731 11.1453 16.4597 11.3085 16.2533C11.3504 16.4213 11.3788 16.5735 11.4299 16.7172C11.4519 16.7791 11.5208 16.824 11.569 16.8766C11.6173 16.8225 11.7117 16.7621 11.7053 16.7158C11.6862 16.5778 11.5925 16.4455 11.5925 16.3103C11.5925 16.0171 11.486 15.8948 11.1737 16.0022C11.1453 15.6038 11.4214 15.6336 11.6585 15.5788C11.5165 15.5162 11.3717 15.4615 11.2489 15.4928C10.9387 15.5717 10.6363 15.6856 10.3332 15.7923C10.0628 15.8869 10.0401 15.9901 10.2033 16.2391C10.456 16.0534 10.7101 15.867 10.9643 15.6799L10.9636 15.6792ZM21.7743 17.8037L21.5833 17.8144C21.5833 18.0214 21.5592 18.2327 21.5897 18.4355C21.6202 18.639 21.7168 18.8318 21.7629 19.0346C21.8346 19.3477 22.022 19.4195 22.3365 19.3284C22.57 19.2608 22.8348 19.2665 23.0321 19.4871C23.0726 19.5326 23.1726 19.5746 23.2152 19.5547C23.2685 19.5298 23.326 19.4345 23.3189 19.3775C23.3054 19.2687 23.2472 19.1662 23.2003 19.0431C22.7929 19.2359 22.5089 19.0851 22.2527 18.8332C22.406 18.6162 22.8035 19.1235 22.8397 18.6482C22.6552 18.5878 22.5004 18.5373 22.2995 18.4711C22.2456 18.57 22.159 18.7279 22.0724 18.8866C22.0319 18.846 21.9922 18.8055 21.9517 18.7649C21.8921 18.4448 21.8332 18.1246 21.7736 17.8037H21.7743ZM15.175 16.5707C15.4412 16.3836 15.6073 16.2662 15.8536 16.0925C15.7684 16.3501 15.7102 16.528 15.652 16.7037C15.9908 16.8792 16.2175 16.9063 16.332 16.7848C16.2049 16.7763 16.1034 16.7692 15.9778 16.7606C16.3973 16.4227 16.3675 16.1922 15.8607 15.6358C15.5895 15.8442 15.5299 15.8208 15.1437 15.3149C15.0642 15.4166 14.9173 15.5354 14.9386 15.5924C15.0004 15.761 15.1281 15.9047 15.2396 16.0741C15.2268 16.1708 15.2083 16.3181 15.175 16.57V16.5707ZM7.25256 23.2993C7.33845 23.0432 7.36968 22.8432 7.46976 22.6881C7.54075 22.5771 7.70472 22.5259 7.82681 22.4476C7.87721 22.5857 7.99717 22.7443 7.9631 22.856C7.90134 23.0574 7.97587 23.1463 8.11997 23.2246C8.24064 23.2908 8.37054 23.3413 8.49618 23.3982C8.52741 23.3776 8.55935 23.3562 8.59059 23.3356C8.52102 23.1627 8.45217 22.9898 8.38261 22.8162C8.42804 22.6447 8.4543 22.4427 8.37409 22.3018C8.30523 22.1815 8.20799 22.0314 7.93328 22.2136C7.70117 22.3672 7.32354 22.3139 7.04103 22.5451C6.85434 22.6981 6.86783 22.7877 6.97075 22.9393C7.03464 23.0332 7.11059 23.1186 7.25398 23.2993H7.25256ZM19.2537 21.0737C19.4474 21.2047 19.6455 21.3263 19.8308 21.4651C20.1914 21.7354 20.5576 21.675 20.8373 21.2559C20.6811 21.1613 20.5314 21.0574 20.3702 20.977C20.2077 20.8959 20.0338 20.8375 19.8641 20.7699C19.982 20.6355 20.1005 20.501 20.207 20.3786C19.8229 20.2939 19.5199 20.5067 19.253 21.0737H19.2537ZM14.177 21.9667C14.0449 21.8094 13.9633 21.6942 13.8632 21.5967C13.6808 21.4181 13.1832 21.4131 13.0526 21.5697C12.9461 21.697 12.8155 21.8037 12.7069 21.9297C12.6522 21.993 12.5827 22.0848 12.5933 22.1524C12.6047 22.2257 12.7026 22.3423 12.7608 22.3416C13.2478 22.3345 13.7362 22.3117 14.177 21.9674V21.9667ZM16.6862 15.1662C16.4058 14.8119 16.1325 14.4739 15.6562 14.4027C15.5569 14.5884 15.461 14.7663 15.3666 14.9413C15.1168 14.8474 15.1324 14.7407 15.2644 14.5849C15.3212 14.5173 15.324 14.4035 15.351 14.3102C15.2602 14.2967 15.17 14.2804 15.0792 14.2711C14.9776 14.2612 14.869 14.2775 14.7746 14.2469C14.4346 14.1388 14.436 14.1331 14.3516 14.4824C14.5801 14.4689 14.8137 14.4547 15.0841 14.4383C14.8797 14.8745 15.0202 15.1406 15.3567 15.2089C15.5129 15.026 15.6193 14.8225 15.7854 14.7371C15.8841 14.6866 16.0779 14.8218 16.2291 14.873L16.1254 14.9634C16.1453 15.0986 16.1659 15.2338 16.1829 15.3483C16.393 15.2722 16.5265 15.2238 16.6855 15.1669L16.6862 15.1662ZM18.0725 24.0969C18.1875 24.2883 18.2755 24.459 18.3863 24.6134C18.4544 24.7095 18.6077 24.8653 18.6347 24.8489C18.7674 24.7685 18.9016 24.6554 18.9726 24.5209C19.0137 24.442 18.9371 24.3004 18.9108 24.1752C19.1841 24.1054 19.3261 24.6398 19.698 24.3751C19.5284 24.2662 19.3935 24.2129 19.3055 24.1161C19.1862 23.9845 19.0961 23.9375 18.8945 23.9653C18.6546 23.9987 18.3962 23.8963 18.1456 23.8529L18.4232 24.0279C18.1804 24.0855 17.9376 24.1439 17.6949 24.2015C17.7247 24.2314 17.7538 24.2613 17.7836 24.2911C17.8752 24.2292 17.966 24.168 18.0718 24.0969H18.0725ZM18.7539 22.9386C18.568 22.7045 18.3919 22.4832 18.2159 22.2619C18.1754 22.3459 18.2052 22.3836 18.2074 22.4235C18.2166 22.5636 18.2173 22.7045 18.2209 22.8454C18.0903 22.8183 17.9611 22.7877 17.8297 22.765C17.636 22.7308 17.4415 22.7016 17.2477 22.6703L17.2363 22.7977C17.6061 22.9101 17.9753 23.0225 18.3415 23.1335C18.3841 23.0304 18.4118 22.9621 18.4814 22.792C18.5744 22.9763 18.6702 23.0773 18.6688 23.1769C18.6631 23.4807 18.8569 23.4779 19.0407 23.4203C19.1735 23.379 19.2799 23.2545 19.4141 23.1549C19.2963 22.9742 19.2026 22.8304 19.0996 22.6732C18.9875 22.7593 18.9051 22.8219 18.7539 22.9379V22.9386ZM9.40476 18.3082L9.62552 18.6276C9.71993 18.5188 9.87538 18.4199 9.89597 18.2982C9.93856 18.0456 9.90874 17.7816 9.90874 17.5589C9.67805 17.6002 9.44238 17.6429 9.22021 17.682C9.10167 17.9225 8.98809 18.1538 8.87452 18.3857L8.96396 18.4597C9.12367 18.4049 9.28409 18.3501 9.40547 18.3089L9.40476 18.3082ZM16.2958 26.538C16.3852 26.4989 16.4725 26.4527 16.5648 26.4221C16.9453 26.2961 17.3066 26.1033 17.7325 26.3445C17.9064 26.4427 18.2003 26.4825 18.3699 26.4021C18.7341 26.2293 19.0528 25.9603 19.39 25.7312C19.0684 25.7817 18.7539 25.8692 18.4856 26.0336C18.1236 26.2556 17.7985 26.2663 17.4329 26.0585C17.1135 25.8771 16.4513 26.1218 16.2958 26.538ZM13.4501 26.4776C13.4196 26.4263 13.3883 26.3744 13.3578 26.3232C13.0817 26.484 12.807 26.6462 12.5294 26.8041C12.4308 26.8604 12.3144 26.9657 12.2263 26.9472C11.8842 26.8774 11.5506 26.7671 11.2269 26.6754C11.2688 27.1257 11.4732 27.2808 11.9658 27.1919C12.1511 27.1585 12.3392 27.0731 12.5195 27.0873C13.0185 27.1272 13.1789 26.7323 13.4501 26.4776ZM8.47772 19.4209L8.55155 19.3619C8.48624 19.2715 8.43229 19.1684 8.35279 19.0922C8.03337 18.7856 8.05608 18.6667 8.32795 18.3252C8.46211 18.1566 8.48269 17.8891 8.51818 17.66C8.52457 17.6216 8.33576 17.4992 8.25697 17.5148C8.17392 17.5312 8.03834 17.6998 8.05821 17.7461C8.1725 18.0179 8.01278 18.1751 7.87792 18.3679C7.81971 18.4512 7.83959 18.5999 7.84739 18.718C7.87366 19.1242 8.2591 19.194 8.47701 19.4209H8.47772ZM19.3608 22.1068C19.5461 22.1268 19.7222 22.151 19.8989 22.1616C19.9614 22.1652 20.0309 22.146 20.0849 22.1147C20.0991 22.1068 20.0827 21.9845 20.0522 21.9688C19.7655 21.8194 19.4808 21.5917 19.1798 21.5647C18.8604 21.5362 18.5247 21.7027 18.196 21.7838L18.1676 21.8799C18.3763 21.9553 18.5829 22.0841 18.7937 22.0905C18.9974 22.0969 19.2047 21.9773 19.4993 21.8863L19.3616 22.1061L19.3608 22.1068ZM10.4596 24.6839C10.62 24.622 10.7378 24.5779 10.8542 24.5302C11.1431 24.4135 11.2532 24.0371 11.0395 23.8386C10.987 23.7902 10.7669 23.823 10.7662 23.8329C10.7272 24.2136 10.4298 24.1282 10.1671 24.183C10.2303 23.9823 10.285 23.8116 10.3389 23.6408C10.2864 23.6287 10.2331 23.6166 10.1806 23.6045C10.1522 23.8159 10.067 24.0407 10.1125 24.2349C10.1508 24.4021 10.3382 24.5345 10.4603 24.6832L10.4596 24.6839ZM12.2817 19.956C12.4776 20.2754 12.7076 20.4604 13.0476 20.4476C13.1427 20.4441 13.2364 20.3936 13.3315 20.3651C13.2868 20.2641 13.2662 20.136 13.1917 20.0677C13.01 19.9012 12.8034 19.7625 12.5976 19.6059C12.506 19.7077 12.3967 19.8286 12.2817 19.9567V19.956ZM23.5616 24.1261C23.7909 24.0072 23.8732 23.4658 23.6816 23.1442C23.3253 23.1684 22.9874 23.1912 22.6197 23.2153C22.7503 23.3392 22.8979 23.4786 23.0491 23.6209C23.1414 23.5113 23.1954 23.4473 23.3047 23.3171C23.4026 23.6259 23.48 23.8685 23.5616 24.1254V24.1261ZM17.7588 21.056C18.3217 21.2922 18.6716 21.184 18.8817 20.7287C18.5694 20.449 18.0505 20.5921 17.7588 21.056ZM19.6852 19.046L19.7967 19.0196C19.8875 19.1705 19.9628 19.3341 20.0749 19.4665C20.1516 19.5568 20.278 19.6081 20.3887 19.6643C20.405 19.6728 20.4916 19.5974 20.4866 19.586C20.4483 19.4964 20.4157 19.3882 20.3447 19.332C20.0827 19.1257 19.8095 18.9343 19.534 18.7464C19.5 18.723 19.407 18.7315 19.3821 18.76C19.3438 18.8048 19.3239 18.8802 19.3254 18.9421C19.3282 19.0766 19.3381 19.2125 19.3672 19.3434C19.3907 19.4494 19.446 19.5476 19.4879 19.6493L19.5795 19.6045C19.615 19.4188 19.6498 19.2324 19.6852 19.0467V19.046ZM14.6149 17.6614L14.7136 17.6436C14.7029 17.5127 14.6923 17.3825 14.6816 17.2466H14.9052L14.9194 17.1491C14.6767 17.1079 14.4339 17.0673 14.1912 17.026C14.243 17.0851 14.2948 17.1434 14.3466 17.2025C14.118 17.3846 13.8895 17.5675 13.6609 17.7496L13.5786 17.6422L14.4091 17.5447C14.3998 17.5803 14.4133 17.5276 14.4375 17.4387L14.6142 17.6621L14.6149 17.6614ZM20.9963 17.2494C20.388 17.5034 20.2794 16.8994 19.9678 16.6205L19.867 16.6845C19.9926 16.9648 20.1175 17.2452 20.2574 17.5575C20.5967 17.3967 20.7734 17.6052 20.8912 17.9389C20.9267 17.7091 20.9544 17.5248 20.997 17.2502L20.9963 17.2494ZM13.5899 23.1072L13.6779 23.0944V22.5522C13.2968 22.6511 12.9156 22.7507 12.5003 22.8589C12.6302 22.972 12.7552 23.1599 12.8453 23.1442C13.0625 23.1065 13.2634 22.9749 13.492 22.871C13.5182 22.9343 13.5537 23.0211 13.5892 23.1079L13.5899 23.1072ZM17.4833 16.4433C17.5195 16.4312 17.5557 16.4198 17.592 16.4077C17.6672 16.2263 17.7588 16.0499 17.8134 15.8627C17.8667 15.6813 17.8106 15.5219 17.5912 15.512C17.4471 15.5056 17.3016 15.5433 17.1291 15.5646C17.2626 15.8955 17.3733 16.1687 17.4841 16.4426L17.4833 16.4433ZM18.1194 26.7664C18.6915 27.0005 19.057 26.9023 19.3587 26.4818C19.3928 26.4342 19.4482 26.4007 19.4773 26.3516C19.5461 26.2357 19.6746 26.0741 19.4247 26.0542C19.3552 26.0485 19.27 26.2691 19.1869 26.3829C19.1422 26.4441 19.0968 26.5309 19.0357 26.548C18.7568 26.627 18.4721 26.6846 18.1194 26.7664ZM21.9304 23.8557C21.7217 23.7113 21.5017 23.754 21.3612 23.9916C21.1518 24.3452 21.1958 24.5117 21.5244 24.7501C21.6564 24.459 21.7856 24.1737 21.9304 23.855V23.8557ZM10.3219 21.6173C10.2637 21.6266 10.2395 21.628 10.2175 21.6351C10.116 21.6657 10.0145 21.6984 9.913 21.7297C10.0117 21.8777 10.1054 22.0307 10.2126 22.1723C10.2488 22.22 10.3176 22.252 10.3765 22.2648C10.3943 22.2683 10.4567 22.1794 10.4539 22.1367C10.4475 22.0592 10.4078 21.9837 10.3907 21.9339L10.7847 21.5369C10.6754 21.4708 10.5504 21.3953 10.4014 21.3057C10.3694 21.4309 10.3474 21.5163 10.3226 21.6166L10.3219 21.6173ZM13.7212 25.3264L13.7454 25.4245C14.0627 25.2581 14.2614 25.2751 14.2536 25.6629C14.2529 25.7106 14.3636 25.7689 14.4318 25.8038C14.4524 25.8145 14.5375 25.7632 14.5375 25.7405C14.539 25.5484 14.5808 25.3285 14.5013 25.1741C14.441 25.0574 14.2018 24.9464 14.074 24.9749C13.9377 25.0055 13.8377 25.2026 13.722 25.3271L13.7212 25.3264ZM15.6974 28.9379L15.7861 28.8959C15.6782 28.3958 15.5711 27.8956 15.4632 27.3954C15.4163 27.4032 15.3702 27.4103 15.3233 27.4182C15.3681 27.7846 15.4128 28.1503 15.4632 28.5623C15.3177 28.4804 15.2012 28.415 15.0841 28.3495L15.0422 28.4207C15.2602 28.5928 15.4781 28.765 15.6967 28.9372L15.6974 28.9379ZM15.3113 23.6664C15.3652 23.803 15.4121 23.9212 15.4589 24.0393C15.542 23.9574 15.6264 23.8763 15.7088 23.7938C15.7336 23.7689 15.7705 23.7383 15.7705 23.7098C15.7727 23.5547 15.8152 23.2943 15.7521 23.2644C15.5562 23.1712 15.3645 22.9158 15.006 23.13C15.2751 23.2758 15.4774 23.3854 15.735 23.5249C15.5782 23.5775 15.4823 23.6095 15.312 23.6664H15.3113ZM11.623 23.2218L11.4981 23.1833C11.4505 23.3783 11.3064 23.6202 11.3738 23.7596C11.5669 24.1581 11.8594 23.8159 12.1319 23.8116C11.9474 23.5981 11.7848 23.4096 11.623 23.2218ZM16.7274 24.8091C16.6969 24.9336 16.6819 25.0923 16.6195 25.2282C16.5563 25.3662 16.4463 25.4829 16.3561 25.6081C16.3845 25.6359 16.4136 25.6636 16.442 25.6914C16.7714 25.4018 17.1 25.1122 17.445 24.8084H16.7274V24.8091ZM11.596 25.4423C11.4697 25.5526 11.3582 25.6408 11.2574 25.7397C11.1318 25.8635 11.1119 26.0286 11.3092 26.0436C11.5044 26.0585 11.8175 26.0215 11.8835 25.8998C12.0056 25.675 11.804 25.5071 11.5953 25.4423H11.596ZM17.4897 17.6109C17.3442 17.2245 17.1029 17.4387 16.9325 17.4842C16.7423 17.5355 16.5407 18.1594 16.6656 18.4561C16.7579 18.2455 16.8047 18.0975 16.8843 17.9702C16.9503 17.8642 17.0418 17.761 17.1469 17.6956C17.2363 17.6401 17.3605 17.6401 17.489 17.6109H17.4897ZM16.8473 24.0955L16.7749 24.1844C16.8211 24.2997 16.8516 24.5032 16.9169 24.5153C17.1426 24.5565 17.3804 24.5309 17.6764 24.5309C17.5841 24.331 17.5252 24.2029 17.4727 24.0905C17.3371 24.1375 17.2427 24.1972 17.1504 24.1944C17.0489 24.1915 16.9488 24.131 16.8473 24.0955ZM19.5688 18.4006C19.5426 18.348 19.5163 18.2953 19.4893 18.2427C19.1649 18.1338 18.9477 18.3537 18.7326 18.5558C18.683 18.602 18.673 18.6909 18.6446 18.76C18.7277 18.7849 18.8349 18.8546 18.8888 18.8261C19.1238 18.7002 19.3431 18.5451 19.5688 18.4006ZM9.02216 21.8372C8.83264 21.8592 8.6062 21.8279 8.56148 21.9041C8.49831 22.0122 8.56148 22.2008 8.58633 22.3523C8.59272 22.3929 8.6566 22.4242 8.75385 22.5174C8.71907 22.3423 8.70061 22.2477 8.69635 22.2257C8.86245 22.2043 9.01294 22.2121 9.13503 22.1566C9.19394 22.1303 9.22376 21.9852 9.22163 21.8948C9.22021 21.8286 9.14496 21.7639 9.09315 21.6842L9.02287 21.8372H9.02216ZM10.1288 25.6273C10.0827 25.6657 10.0358 25.7049 9.98966 25.7433C10.2324 26.1545 10.5632 26.484 10.9856 26.7259L11.0864 26.6312C10.7669 26.2968 10.4482 25.9617 10.1288 25.6273ZM17.5266 25.7469C17.8972 26.0044 18.1066 25.9959 18.3422 25.7177C18.382 25.6714 18.4225 25.5825 18.4033 25.5412C18.3827 25.4978 18.2926 25.4772 18.2301 25.4672C17.9518 25.4238 17.7055 25.4772 17.5266 25.7469ZM9.29403 16.8951C9.59429 17.132 10.2786 17.2758 10.4787 17.11C10.1196 16.7806 9.73412 16.6973 9.29403 16.8951ZM12.8581 20.8816C12.6047 20.7742 12.4208 20.676 12.2249 20.6248C12.1632 20.6084 12.0255 20.7002 12.0006 20.7706C11.9687 20.8624 11.9928 20.9919 12.0375 21.0837C12.0546 21.1186 12.2015 21.11 12.2803 21.088C12.4421 21.0439 12.5976 20.977 12.8581 20.8824V20.8816ZM17.3549 18.6788C18.1236 18.6475 18.3202 18.4419 18.1172 17.9545C17.8794 18.1808 17.6502 18.3985 17.3549 18.6788ZM24.3041 24.405L24.2047 24.4626C24.1515 24.7444 24.099 25.0254 24.0457 25.3072L24.1302 25.3712C24.2644 25.2445 24.4943 25.1271 24.5093 24.9877C24.5291 24.8027 24.3801 24.5999 24.3041 24.405ZM14.4722 24.7557C14.5127 24.7465 14.5532 24.7372 14.5929 24.7273C14.5702 24.6113 14.5425 24.3929 14.5262 24.3936C14.155 24.4135 14.0676 24.0898 13.8696 23.7995C13.8327 23.9461 13.8007 24.0165 13.7986 24.0884C13.7858 24.5594 14.3644 24.4071 14.4715 24.7557H14.4722ZM12.3761 16.7784C12.6132 16.7244 12.8283 16.6753 13.1193 16.6084C12.851 16.4277 12.643 16.2875 12.3761 16.1082V16.7784ZM9.88106 23.3342C9.58932 23.2644 9.38347 23.2125 9.1762 23.1677C9.07966 23.147 8.97815 23.1293 8.88162 23.1385C8.86458 23.1399 8.82483 23.3142 8.85748 23.3491C8.9306 23.426 9.04843 23.5177 9.13858 23.5085C9.36075 23.4857 9.57796 23.4096 9.88035 23.3342H9.88106ZM15.1473 25.1015C14.9819 25.3235 14.7832 25.5049 15.0337 25.7333C15.0877 25.7824 15.2864 25.7725 15.3269 25.7191C15.5136 25.4751 15.3624 25.2951 15.1473 25.1022V25.1015ZM18.5836 21.3882C18.015 21.3342 17.477 21.2822 16.9382 21.231C17.8858 21.5647 18.2748 21.5903 18.5836 21.3882ZM13.1875 15.941C13.2286 16.2379 13.4603 16.3278 13.8824 16.2107C13.7724 15.7966 13.4622 15.9659 13.1875 15.941ZM16.9183 23.7504C16.7884 23.4523 16.694 23.2353 16.5542 22.913C16.4484 23.2089 16.376 23.4117 16.2937 23.6415C16.4789 23.6736 16.6337 23.7006 16.9183 23.7504ZM14.1585 18.1225C14.4588 18.3032 14.6575 18.4227 14.8946 18.565V17.9645C14.6497 18.0172 14.4446 18.0613 14.1585 18.1225ZM13.827 21.3968C14.0648 21.4786 14.2508 21.5433 14.4375 21.6081C14.4467 21.517 14.4964 21.4017 14.4595 21.3384C14.3012 21.0709 14.1067 21.1456 13.827 21.3968ZM12.4372 23.4203C12.4116 23.6053 12.396 23.7219 12.3797 23.8379C12.5734 23.8571 12.7679 23.8763 12.9617 23.8948L13.0064 23.7497C12.8411 23.6536 12.6757 23.5583 12.4372 23.4195V23.4203ZM9.90874 22.6376C10.0032 23.1172 10.3233 23.3043 10.6619 23.1442C10.4227 22.9834 10.1948 22.8304 9.90874 22.6376ZM11.7593 17.9723C12.0177 18.0876 12.2157 18.1844 12.3591 17.9396C12.3896 17.8877 12.3307 17.7261 12.2689 17.6884C11.98 17.5141 11.9417 17.8151 11.7593 17.9723ZM8.95331 22.8596C9.14567 22.8368 9.32739 22.8155 9.50911 22.7934C9.45729 22.644 9.40476 22.4939 9.3423 22.3125C9.19678 22.5174 9.11089 22.6383 8.95331 22.8596ZM22.3989 23.9603C22.5558 24.2506 22.7134 24.5409 22.8703 24.8305C22.9512 24.4021 22.7709 24.1204 22.3989 23.9603ZM17.954 20.2456C17.4223 19.7553 17.4031 20.5415 17.1043 20.5544C17.3648 20.4597 17.626 20.3651 17.954 20.2456ZM20.909 24.8817C20.8629 24.6391 21.2767 24.3929 20.8969 24.1325C20.7457 24.3979 20.6322 24.6376 20.909 24.8817ZM9.0101 24.6597C9.17407 24.8739 9.27841 25.0112 9.38347 25.1485L9.47291 25.1215C9.41612 24.9137 9.35933 24.7059 9.30326 24.4982C9.20672 24.5515 9.10947 24.6049 9.0101 24.6597ZM10.5852 17.6578C10.6803 17.8692 10.7577 18.0406 10.8351 18.2114C10.8997 18.1445 11.0104 18.084 11.0203 18.0107C11.0516 17.7738 10.9387 17.6401 10.5852 17.6578ZM21.8815 22.6412C21.9766 22.8482 22.0312 23.0062 22.1178 23.1435C22.181 23.2438 22.2868 23.3178 22.3741 23.4039C22.3414 23.1414 22.2981 22.9308 22.1959 22.755C22.1519 22.6796 21.9865 22.6753 21.8815 22.6405V22.6412ZM17.264 23.6707C17.3002 23.6771 17.3357 23.6835 17.3719 23.6892C17.4152 23.5362 17.4585 23.3833 17.5174 23.1769C17.3137 23.1947 17.193 23.2054 17.034 23.2196C17.1235 23.3939 17.1937 23.532 17.2647 23.67L17.264 23.6707ZM20.3163 18.6909C20.1452 18.5835 20.0387 18.4981 19.9166 18.454C19.8861 18.4433 19.8073 18.5671 19.7505 18.629C19.8521 18.7144 19.9443 18.8169 20.0593 18.8752C20.0927 18.8923 20.1892 18.7856 20.3163 18.6909ZM15.8692 17.776C15.8167 17.9254 15.7691 18.062 15.7074 18.2384C15.9551 18.21 16.1049 18.1922 16.2511 18.1758C16.1318 18.0513 16.0296 17.9439 15.8692 17.776ZM14.9556 19.544L14.852 19.5768C14.786 19.7411 14.72 19.9055 14.6185 20.1566C14.7988 20.0912 14.9897 20.0677 15.0011 20.0086C15.0295 19.8621 14.9762 19.6998 14.9556 19.544ZM16.1311 22.274C16.0034 22.1574 15.926 22.0869 15.8486 22.0165C15.7904 22.0919 15.6896 22.1659 15.6868 22.2434C15.6846 22.3125 15.7826 22.4306 15.8514 22.4434C15.916 22.4555 16.0012 22.358 16.1304 22.274H16.1311ZM15.7507 19.0631C15.6385 19.3256 15.5554 19.5191 15.4483 19.7703C15.9892 19.4949 15.992 19.4892 15.7507 19.0631ZM21.469 21.1549H22.0596C21.88 20.7813 21.7842 20.7721 21.469 21.1549ZM6.9743 23.5704L6.79897 23.5398C6.75922 23.6899 6.72018 23.84 6.68043 23.9909C6.77839 23.9973 6.87635 24.003 6.9743 24.0094V23.5711V23.5704ZM16.7103 15.6045L16.5776 15.6066C16.557 15.7026 16.4924 15.8208 16.5272 15.8883C16.5726 15.9759 16.6961 16.0228 16.7863 16.0869C16.8147 16.0634 16.8431 16.0399 16.8715 16.0164C16.8175 15.8791 16.7636 15.7418 16.7103 15.6045ZM11.8792 19.6443C12.2654 19.6223 12.3676 19.4401 12.2391 19.0986L11.8792 19.6443ZM23.8079 24.2065C23.7306 24.4519 23.6646 24.6597 23.5992 24.8667C23.7313 24.7643 23.859 24.6284 23.9251 24.4669C23.952 24.4014 23.8441 24.2812 23.8079 24.2065ZM20.1076 25.4053L20.0962 25.2922C19.8861 25.157 19.6994 25.1364 19.5227 25.4751C19.7569 25.4473 19.9316 25.4267 20.1069 25.4061L20.1076 25.4053ZM7.70117 23.6764L7.81048 23.6565C7.82894 23.5327 7.86088 23.4089 7.85875 23.2858C7.85804 23.236 7.78209 23.1876 7.74092 23.1378C7.68626 23.1883 7.5805 23.2452 7.58618 23.2893C7.60179 23.421 7.66 23.5476 7.70188 23.6764H7.70117ZM21.7906 20.1758L21.6635 20.2342C21.7005 20.3395 21.7104 20.4718 21.7821 20.5415C21.8417 20.5999 21.973 20.5835 22.0724 20.6006C22.0838 20.5736 22.0944 20.5458 22.1058 20.5188C22.0007 20.4042 21.8957 20.2904 21.7906 20.1758Z" fill="#E6E6E6"/>
<path d="M25.2099 35.0131C24.8784 35.1711 24.576 35.329 24.263 35.4599C23.8875 35.6172 23.5354 35.7986 23.1982 36.0391C22.8852 36.2618 22.4912 36.3771 22.1242 36.5137C21.8588 36.6126 21.7281 36.4134 21.7998 35.9687C21.6614 36.0484 21.5528 36.1046 21.4506 36.1707C20.9999 36.4624 20.4717 36.4084 20.0934 36.0405C20.0146 35.9637 19.884 35.9395 19.8066 35.8619C19.7065 35.7602 19.5866 35.6343 19.5738 35.509C19.566 35.4343 19.7357 35.2906 19.8457 35.2643C20.1161 35.1995 20.3986 35.1846 20.6698 35.08C20.5548 35.0957 20.4384 35.1013 20.3262 35.1277C19.8797 35.233 19.6491 35.117 19.4595 34.6986C19.4219 34.6161 19.3481 34.5507 19.2906 34.4774C19.0088 34.1202 19.1408 33.7901 19.5894 33.7168C19.7002 33.699 19.8308 33.6784 19.9089 33.6093C20.2538 33.3055 20.7088 33.361 20.9559 33.7573C20.9984 33.8256 21.0261 33.9025 21.0439 33.9416C21.139 33.8114 21.21 33.6172 21.3392 33.5631C21.4776 33.5055 21.6919 33.5368 21.836 33.6058C22.169 33.7666 22.5196 33.9067 22.641 34.3443C22.6736 34.4624 22.9831 34.5044 23.1656 34.5812C23.1833 34.5571 23.201 34.5322 23.2188 34.508C23.069 34.377 22.9285 34.234 22.7681 34.1173C22.1668 33.6812 21.868 33.102 21.8928 32.3543C21.8985 32.1885 21.8857 32.0597 22.1214 32.0497C22.2641 32.0433 22.416 31.9587 22.5409 31.874C23.1783 31.445 23.781 31.6556 24.3815 31.9572C24.4759 32.0049 24.559 32.0931 24.6569 32.1109C24.7875 32.1337 24.9266 32.1059 25.0622 32.0995C25.0473 31.9893 25.026 31.879 25.0175 31.768C24.9905 31.4122 24.9323 31.0544 24.9557 30.7014C24.9735 30.4233 25.1921 30.3678 25.6471 30.5172C25.2865 30.0255 25.6017 29.6342 25.7387 29.2301C25.7877 29.0864 25.963 28.8935 26.0837 28.8907C26.2292 28.8871 26.4145 29.0358 26.516 29.1696C26.6217 29.309 26.6735 29.4393 26.8858 29.4855C27.2137 29.5574 27.3025 30.123 27.0561 30.419C26.9688 30.5236 26.8702 30.6182 26.7722 30.7214C26.9511 30.6623 27.1058 30.6118 27.2599 30.5613C27.3088 30.7313 27.3621 30.9007 27.4068 31.0721C27.5268 31.5367 27.2308 31.7644 26.8801 31.943C26.9 31.9871 26.9042 32.0106 26.9177 32.0241C27.0341 32.1387 27.2691 32.2916 27.2471 32.3578C27.1903 32.5264 27.0377 32.6823 26.8872 32.7933C26.7495 32.895 26.582 32.9405 26.6828 33.1618C26.692 33.1824 26.7034 33.213 26.6955 33.2301C26.4918 33.672 26.2838 34.1109 26.0823 34.5535C26.0368 34.6538 25.9772 34.7669 25.9864 34.8687C26.007 35.1056 26.1043 35.3305 25.7344 35.4066C25.3873 35.4784 25.2191 35.3788 25.2113 35.0131H25.2099ZM20.8962 34.9213C20.9431 35.006 20.9899 35.0907 21.0673 35.2294C20.7983 35.2799 20.5825 35.3248 20.3653 35.3596C20.1552 35.3938 19.9436 35.418 19.7328 35.4464C19.7243 35.4877 19.7158 35.529 19.7073 35.5695C19.9962 35.7595 20.2702 35.9793 20.5782 36.1302C20.9204 36.2981 21.2327 36.1387 21.5358 35.9509C21.6515 35.879 21.8211 35.8954 21.9659 35.8712C21.9645 36 21.961 36.1288 21.9624 36.2575C21.9624 36.2782 21.9808 36.2988 22.0199 36.3828C22.6105 36.0725 23.1975 35.7638 23.7845 35.4557L23.7377 35.3482C23.3892 35.4137 23.0399 35.4792 22.6921 35.5439C22.6602 35.3511 21.9368 35.1896 21.5273 35.2977C21.4094 34.9946 21.1056 35.0338 20.8877 34.9306L20.1062 34.5414L20.1367 34.4489C20.2985 34.461 20.5186 34.4105 20.6123 34.4966C21.0708 34.9221 21.643 35.0551 22.2179 35.164C22.6218 35.2408 23.0413 35.2337 23.5318 35.27C23.2742 35.0352 23.1017 34.8772 22.959 34.747C22.8497 34.8303 22.7709 34.91 22.6751 34.9505C22.6495 34.9612 22.5274 34.8516 22.5274 34.7968C22.526 34.2974 22.291 34.0021 21.8318 33.8014C21.6046 33.7018 21.4584 33.652 21.2604 33.842C21.4101 34.0398 21.5542 34.2298 21.6983 34.4204C21.682 34.4482 21.6664 34.4767 21.6501 34.5044C21.5606 34.4895 21.4428 34.5058 21.386 34.4546C21.1809 34.271 20.9757 34.0796 20.8089 33.8626C20.6116 33.6051 20.2382 33.4421 20.1403 33.6264C20.016 33.8591 19.8592 33.8961 19.6263 33.8968C19.5248 33.8968 19.3843 34.0035 19.336 34.0996C19.3055 34.1615 19.4063 34.2945 19.4588 34.3899C19.5092 34.4802 19.5965 34.5549 19.627 34.6495C19.7264 34.9555 19.9422 35.0394 20.2332 35.0039C20.4547 34.9768 20.6755 34.9484 20.8962 34.9213ZM27.1342 32.3592C26.9951 32.298 26.9312 32.2703 26.868 32.2411C26.6281 32.1301 26.5926 31.9679 26.8226 31.8391C27.2897 31.5787 27.2797 31.1974 27.1541 30.6787C27.0689 30.789 27.0277 30.8829 26.9561 30.9256C26.8673 30.9789 26.753 30.9903 26.6501 31.0202C26.6409 30.9042 26.5962 30.774 26.6331 30.6751C26.6757 30.5627 26.7857 30.4723 26.8766 30.3827C27.059 30.2013 27.0618 29.7068 26.8808 29.7118C26.4975 29.7231 26.4769 29.4535 26.3591 29.223C26.3158 29.1383 26.183 29.0693 26.0844 29.0579C26.0411 29.0529 25.9701 29.2059 25.9268 29.2941C25.8714 29.4094 25.8572 29.5538 25.7806 29.6484C25.5648 29.9138 25.5925 30.1593 25.7706 30.4268C25.8594 30.5613 25.9126 30.7192 25.9822 30.8665C25.7259 30.8039 25.557 30.6829 25.3738 30.5912C25.3057 30.557 25.1495 30.5634 25.1268 30.6047C25.0764 30.6936 25.0722 30.8167 25.0764 30.9249C25.08 31.0109 25.1694 31.1134 25.1439 31.1782C24.9742 31.6093 25.1957 31.943 25.4611 32.1977C25.7444 32.4695 25.8281 32.7513 25.7933 33.1156C25.7827 33.2273 25.8345 33.3447 25.8579 33.4592L25.9722 33.4407C26.2562 32.2724 26.3002 31.0842 26.2413 29.8825C26.3314 30.1885 26.3066 30.4973 26.3534 30.7954C26.4861 31.6477 26.33 32.4745 26.1369 33.2899C26.0269 33.7559 26.0106 34.2824 25.5875 34.6581C25.5179 34.5812 25.459 34.5165 25.3781 34.4276C25.3064 34.5421 25.2468 34.6375 25.2148 34.6887C25.31 34.8324 25.3653 34.9462 25.4498 35.0316C25.5037 35.0857 25.6045 35.1284 25.6762 35.1177C25.7323 35.1092 25.8288 34.9925 25.8161 34.9562C25.7018 34.6403 25.8984 34.4752 26.0922 34.2902C26.1603 34.2255 26.2072 34.0996 26.2029 34.0049C26.1916 33.7708 26.2114 33.5631 26.4024 33.3966C26.4507 33.3546 26.5025 33.2529 26.4833 33.2088C26.3328 32.8644 26.6075 32.7854 26.8056 32.6488C26.9071 32.5784 26.9937 32.4852 27.1349 32.3592H27.1342ZM24.8223 32.7278C24.7896 32.6438 24.7776 32.451 24.6789 32.382C24.0209 31.9195 23.4104 31.5346 22.5665 32.0554C22.3975 32.16 22.066 32.0718 22.0816 32.4176C22.0923 32.6524 22.1093 32.8879 22.1441 33.1198C22.1576 33.2081 22.23 33.2863 22.2747 33.3703C22.5445 33.8769 23.0499 34.1195 23.485 34.4375C23.5631 34.4944 23.7625 34.4873 23.8385 34.4261C24.3574 34.0049 24.7329 33.4884 24.823 32.7285L24.8223 32.7278ZM25.0132 32.382C25.058 32.9469 24.8571 33.4222 24.5895 33.8712C24.3197 34.323 23.9875 34.7029 23.3778 34.6816C23.6717 35.0772 24.4887 35.0138 24.7421 34.5613C24.9877 34.123 25.1872 33.6478 25.3256 33.1647C25.4029 32.895 25.2887 32.5876 25.0132 32.3813V32.382ZM25.8785 33.5738L25.7181 33.5446C25.65 33.7979 25.5818 34.0519 25.5137 34.3052L25.6883 34.3457C25.7515 34.0882 25.8154 33.8313 25.8785 33.5738Z" fill="#E6E6E6"/>
<path d="M8.68559 32.1142C8.65791 32.5823 8.73528 33.0832 8.41089 33.4959C8.11347 33.8737 7.78198 34.2245 7.52644 34.5176C7.69254 34.4749 7.90904 34.4237 8.09714 34.0871C8.25685 33.8018 8.70689 33.6346 9.06251 33.5194C9.30456 33.4411 9.50687 33.6375 9.48202 33.8844C9.67935 33.7371 9.89727 33.5606 10.1308 33.4062C10.2004 33.3607 10.3594 33.3329 10.3942 33.3721C10.6398 33.6481 10.9961 33.6908 11.2949 33.8509C11.3858 33.8993 11.4745 34.1227 11.4369 34.2088C11.3155 34.4827 11.1629 34.7552 10.9663 34.9801C10.7455 35.2334 10.4375 35.1864 10.1407 35.0882C10.0676 35.064 9.97961 35.0847 9.89301 35.143C10.1564 35.1736 10.4261 35.1786 10.6802 35.244C10.8108 35.2782 11.0074 35.4219 11.006 35.5144C11.0046 35.6354 10.8442 35.7599 10.7384 35.8701C10.6937 35.9164 10.6043 35.9164 10.5532 35.9591C9.94696 36.4607 9.66303 36.4856 9.00998 36.0872C8.95178 36.0516 8.88718 36.0253 8.7871 35.9762C8.7871 36.0494 8.79278 36.0886 8.78639 36.1249C8.7658 36.2415 8.77858 36.4073 8.70831 36.4607C8.63164 36.5183 8.46483 36.5027 8.35765 36.4642C8.06662 36.3597 7.78482 36.2273 7.50017 36.1035C7.43558 36.0758 7.36318 36.0509 7.3142 36.0039C6.77047 35.4838 5.98184 35.4496 5.36855 34.9594C5.37352 35.3934 5.18754 35.4788 4.84824 35.4027C4.60619 35.3479 4.53095 35.2312 4.57283 35.0043C4.58987 34.9118 4.64381 34.7581 4.60974 34.7346C4.15545 34.4151 4.32794 33.8082 4.00426 33.4354C3.96593 33.3913 3.89991 33.328 3.90985 33.2924C4.01135 32.9381 3.76007 32.8427 3.52654 32.6954C3.23125 32.5083 3.25964 32.2436 3.5599 32.0821C3.60817 32.0558 3.65147 32.0195 3.71606 31.974C3.62095 31.905 3.54642 31.8502 3.47117 31.7961C3.18724 31.5926 3.03463 31.0362 3.18724 30.731C3.29868 30.5083 3.44988 30.4229 3.57197 30.5631C3.53435 30.356 3.47401 30.0729 3.43852 29.7868C3.43 29.7178 3.49318 29.5805 3.5379 29.5734C3.91624 29.5186 4.00071 29.1536 4.23282 28.9494C4.4479 28.7602 4.64452 28.8519 4.7872 29.0846C5.06048 29.5286 5.12863 29.9405 5.01009 30.4172C5.18329 30.4471 5.42889 30.4179 5.51265 30.5211C5.61202 30.6435 5.58505 30.879 5.59073 31.0661C5.60067 31.3948 5.59357 31.7235 5.59357 32.1412C5.70856 32.1163 5.92293 32.1206 6.07909 32.0266C6.76337 31.6175 7.43984 31.4382 8.16741 31.9263C8.30725 32.0202 8.49252 32.0451 8.68772 32.1134L8.68559 32.1142ZM9.48557 35.2255C9.69923 34.8883 9.91005 34.8961 10.1372 34.9566C10.3963 35.0256 10.6625 35.0726 10.8584 34.8342C11.0039 34.657 11.1409 34.4621 11.2282 34.2529C11.2609 34.1754 11.1636 33.9555 11.0898 33.9363C10.825 33.8666 10.534 33.8886 10.3849 33.5784C10.3693 33.5457 10.184 33.5443 10.1294 33.5905C9.96471 33.73 9.80286 33.8844 9.68148 34.0615C9.4586 34.3874 9.13207 34.5517 8.8886 34.4037C9.03483 34.2124 9.17963 34.0231 9.36561 33.7791C9.19028 33.7392 9.07671 33.683 8.97236 33.6958C8.5493 33.7456 8.15748 34.1718 8.07656 34.6136C8.05384 34.7353 7.96724 34.8456 7.90975 34.9616C7.82173 34.8883 7.73442 34.8157 7.63646 34.7339C7.47817 34.879 7.30426 35.0384 7.09344 35.2312C8.07017 35.2846 8.96172 35.1259 9.79506 34.6528C9.98671 34.5439 10.2046 34.4806 10.4112 34.3966C10.4304 34.4393 10.4495 34.482 10.4687 34.5254C10.0506 34.8819 9.41743 34.8719 9.06464 35.2369C8.66714 35.2846 8.29305 35.3294 7.90407 35.3757V35.5443C7.53992 35.4774 7.18927 35.4134 6.83861 35.3493L6.80028 35.4582C7.39228 35.7641 7.98499 36.0708 8.60822 36.3931V35.8737C8.7729 35.9057 8.939 35.9335 9.10226 35.9733C9.15763 35.9868 9.21158 36.0217 9.2563 36.0587C9.51325 36.2707 9.81635 36.2223 10.0627 36.1099C10.3572 35.9754 10.605 35.7392 10.8733 35.5471L10.8413 35.4518C10.4119 35.3806 9.98316 35.3088 9.48628 35.2262L9.48557 35.2255ZM4.08021 29.5649C3.863 29.6858 3.6536 29.7313 3.60036 29.8487C3.50666 30.0537 3.54216 30.2806 3.77569 30.4372C3.87578 30.504 3.95031 30.6328 3.99432 30.7495C4.02129 30.8199 3.99077 30.9758 3.94321 30.9964C3.86655 31.0298 3.72884 31.0163 3.66567 30.9637C3.58546 30.8968 3.55351 30.7708 3.50028 30.6705C3.45911 30.7068 3.41865 30.7424 3.37748 30.7787C3.41155 31.1003 3.21208 31.4489 3.60604 31.7214C4.04969 32.0273 4.02839 32.0786 3.53932 32.324C3.52512 32.3312 3.5237 32.3639 3.50028 32.4279C3.64011 32.529 3.79982 32.6257 3.9354 32.7495C4.01987 32.8271 4.09369 32.9374 4.12706 33.0462C4.25199 33.4518 4.35775 33.863 4.47274 34.2721C4.47842 34.292 4.50256 34.3091 4.52101 34.3226C4.72615 34.4749 4.84186 34.657 4.77726 34.9324C4.76519 34.9822 4.86457 35.0967 4.9313 35.1152C4.98524 35.1302 5.07894 35.0576 5.1336 35.0028C5.21949 34.9167 5.28834 34.8129 5.37778 34.699C5.32951 34.6257 5.27272 34.5404 5.20813 34.4422C5.12153 34.519 5.04913 34.583 4.97601 34.6478C4.3109 33.8402 3.91269 30.6385 4.34426 29.9291C4.34426 30.477 4.31303 31.0704 4.35278 31.6581C4.39324 32.2572 4.50398 32.8506 4.58348 33.4468C4.63104 33.4482 4.67789 33.4489 4.72544 33.4503C4.74745 33.3422 4.79785 33.2312 4.7872 33.1259C4.75171 32.7645 4.81914 32.4756 5.10946 32.2052C5.38133 31.9526 5.59996 31.6189 5.43599 31.1899C5.41469 31.1351 5.45728 31.059 5.45728 30.9921C5.45728 30.8555 5.44947 30.7189 5.4445 30.5823C5.31318 30.6058 5.17051 30.6036 5.05339 30.6584C4.91781 30.721 4.80566 30.8335 4.62678 30.9658C4.63672 30.8221 4.61897 30.7495 4.64736 30.7132C4.9675 30.2977 5.06545 29.8815 4.69066 29.4411C4.6573 29.4012 4.67647 29.3201 4.64878 29.271C4.60051 29.1878 4.53805 29.0561 4.47345 29.0519C4.39253 29.0462 4.27399 29.1287 4.22643 29.207C4.14267 29.3443 4.10079 29.5079 4.07879 29.5649H4.08021ZM8.52375 32.7011C8.52375 32.427 8.36072 32.2123 8.03468 32.0572C7.25883 31.6887 6.5199 31.7947 5.89383 32.3802C5.82781 32.4422 5.78735 32.5631 5.78522 32.6577C5.7689 33.4262 6.20047 33.9633 6.74704 34.4194C6.82654 34.4863 7.04375 34.4564 7.15945 34.3966C7.38731 34.2792 7.60452 34.1284 7.79617 33.9576C8.20078 33.5983 8.52801 33.1864 8.52304 32.7011H8.52375ZM7.16016 34.7268C5.93925 34.3966 5.67449 33.4432 5.52471 32.3753C5.36358 32.6328 5.16696 32.8733 5.25995 33.2063C5.31318 33.3977 5.40262 33.5791 5.46154 33.7691C5.60776 34.2401 5.80368 34.6791 6.29275 34.8812C6.76124 35.0747 6.96567 35.0199 7.16087 34.7268H7.16016ZM4.86386 33.5478C4.82908 33.5492 4.79359 33.5514 4.75881 33.5528C4.65233 33.8509 4.79785 34.0843 4.93981 34.3191C4.98382 34.3077 5.02783 34.2963 5.07184 34.2849C5.00299 34.0395 4.93342 33.794 4.86457 33.5478H4.86386Z" fill="#E6E6E6"/>
<path d="M28.2312 18.1831C28.3795 18.642 28.5023 19.0213 28.6237 19.3962C29.4436 19.2333 29.4933 19.1956 29.5891 18.7089C29.7055 19.076 29.8219 19.4432 29.9383 19.8103C29.7168 19.4588 29.4485 19.594 29.1809 19.6829C28.7664 19.8203 28.3497 19.9526 27.9309 20.0778C27.6846 20.1518 27.4787 20.2436 27.6001 20.6008L27.4837 20.5851C27.368 20.2244 27.2516 19.863 27.1359 19.5022C27.5945 20.0928 27.9991 19.4901 28.4683 19.5157C28.3305 19.076 28.2099 18.6883 28.0899 18.3055C27.3446 18.3745 27.0614 18.5545 26.9819 18.975C26.8633 18.62 26.7448 18.2649 26.627 17.9099C26.9102 18.3112 27.2289 18.0949 27.5334 17.9981C27.8713 17.8914 28.2127 17.7953 28.5463 17.6758C28.7934 17.5876 29.171 17.5968 28.9382 17.0625C28.9864 17.0838 29.0347 17.1052 29.0837 17.1265L29.4308 18.198C29.017 17.6779 28.6542 18.1746 28.2319 18.1845L28.2312 18.1831Z" fill="#E6E6E6"/>
<path d="M12.7446 9.54975C13.2579 9.84004 13.5482 10.4242 14.2019 10.4576C13.9514 10.6782 13.5588 10.7223 13.3317 10.5373C13.0662 10.3217 12.8234 10.0784 12.5608 9.85925C12.4614 9.776 12.3344 9.72549 12.2194 9.66003L12.1363 9.71695C12.1959 10.0115 12.2258 10.3182 12.3322 10.5956C12.3699 10.6931 12.5956 10.7187 12.8213 10.8127C12.3713 10.9009 11.9816 10.977 11.5919 11.0531L11.523 10.9735C11.9638 10.876 11.8857 10.5978 11.8254 10.3125C11.7346 9.88486 11.6551 9.45512 11.5805 9.02395C11.5344 8.75927 11.4655 8.53586 11.1035 8.57927C11.6756 8.38147 12.2293 8.13387 12.8327 8.31032C13.3189 8.45262 13.4147 9.01826 13.03 9.34911C12.9512 9.4167 12.8596 9.46864 12.7439 9.54904L12.7446 9.54975ZM12.1044 9.55473C12.7539 9.43947 12.9093 9.26088 12.7958 8.80979C12.6985 8.42274 12.443 8.3338 11.8971 8.51096C11.9652 8.85177 12.0334 9.19542 12.1051 9.55473H12.1044Z" fill="#E6E6E6"/>
<path d="M2.94894 25.6225C3.17608 25.9761 3.30953 26.3212 2.98585 26.7004C2.7871 26.9331 2.62383 27.1978 2.46128 27.4575C2.42082 27.5222 2.44354 27.6261 2.43644 27.7115C2.51381 27.7115 2.5926 27.7207 2.66713 27.7072C2.74735 27.693 2.82472 27.6581 2.90209 27.6297C3.18531 27.5251 3.57785 27.5101 3.32799 26.9594L3.46711 27.0028C3.59204 27.3806 3.71697 27.7591 3.8419 28.1369C3.53526 27.7044 3.19951 27.984 2.88505 28.0765C2.56847 28.1697 2.25685 28.2835 1.94169 28.3824C1.6684 28.4685 1.35395 28.5119 1.44552 28.9594C1.20701 28.4301 0.92521 27.9392 0.948634 27.3571C0.959282 27.0918 1.08776 26.8847 1.35608 26.7894C1.62794 26.6926 1.83876 26.7979 2.02545 26.9857C2.08152 27.042 2.12979 27.1053 2.20149 27.1878C2.42934 26.6428 2.97591 26.2792 2.94894 25.6211V25.6225ZM2.2675 27.841L2.34842 27.7207C2.17451 27.5393 2.02829 27.2703 1.81889 27.2035C1.6535 27.1508 1.31775 27.2917 1.22476 27.4475C1.1197 27.6232 1.20062 27.9114 1.20062 28.1932C1.62368 28.0537 1.94595 27.9477 2.26821 27.8417L2.2675 27.841Z" fill="#E6E6E6"/>
<path d="M17.2136 10.6236C17.6821 10.7183 17.702 10.3696 17.7808 10.0751C17.8879 9.67522 17.998 9.27678 18.1144 8.87977C18.1932 8.61011 18.2734 8.34899 17.8645 8.24867C17.9227 8.24155 17.9852 8.21665 18.0377 8.23088C18.5147 8.35895 19.0109 8.44575 19.4602 8.63928C20.1047 8.91676 20.3099 9.54715 20.0643 10.253C19.8322 10.9211 19.3253 11.2057 18.6155 11.042C18.1676 10.9388 17.7275 10.8051 17.2839 10.6827C17.2569 10.6749 17.2363 10.6443 17.2129 10.6236H17.2136ZM18.629 8.53327C18.4487 9.20207 18.2684 9.84883 18.1051 10.4998C18.0853 10.5795 18.1272 10.7161 18.1889 10.7681C18.4161 10.9566 18.9527 10.9559 19.1954 10.7916C19.5773 10.5326 19.8229 9.80542 19.7016 9.28959C19.5944 8.83281 19.2891 8.6094 18.629 8.53398V8.53327Z" fill="#E6E6E6"/>
<path d="M4.79391 15.9732C4.79533 16.7587 4.11957 17.4894 3.39271 17.4859C2.6701 17.4823 2.03125 16.8626 2.03125 16.1646C2.03125 15.3898 2.71979 14.6477 3.43742 14.6484C4.15577 14.6491 4.79249 15.271 4.79391 15.974V15.9732ZM4.64769 16.1803C4.51779 15.9668 4.42764 15.7071 4.24805 15.5506C4.01452 15.3471 3.72349 15.1885 3.43246 15.076C2.99023 14.906 2.61047 15.0711 2.37836 15.4709C2.14766 15.8672 2.17677 16.2543 2.53949 16.5545C2.80568 16.7751 3.12226 16.9629 3.44736 17.0768C4.01594 17.2767 4.5767 16.8285 4.6484 16.1796L4.64769 16.1803Z" fill="#E6E6E6"/>
<path d="M30.2006 21.8503C30.1984 22.6813 29.6774 23.2135 28.8611 23.2178C28.0782 23.2221 27.5437 22.6379 27.543 21.7784C27.543 20.9488 28.0938 20.4024 28.9243 20.4102C29.681 20.4174 30.2027 21.0058 30.2006 21.8503ZM28.7681 22.798C29.0499 22.7219 29.3459 22.6778 29.61 22.5611C29.9855 22.3953 30.114 22.0666 30.0487 21.6127C29.9947 21.2427 29.7725 20.9517 29.3928 20.9303C28.9917 20.9076 28.5744 20.9524 28.1839 21.047C27.8468 21.1296 27.6927 21.4241 27.6842 21.782C27.67 22.4117 28.0526 22.7624 28.7681 22.798Z" fill="#E6E6E6"/>
<path d="M30.1322 24.9188C30.1258 25.7391 29.5729 26.3453 28.8297 26.3468C28.0141 26.3482 27.4505 25.8003 27.4512 25.007C27.4519 24.1511 28.0219 23.5292 28.797 23.5392C29.6034 23.5491 30.1386 24.1027 30.1322 24.9188ZM28.9255 25.9227C29.526 25.9042 29.9029 25.6345 29.9718 25.1493C30.0527 24.5815 29.8071 24.2201 29.1945 24.0799C28.9241 24.018 28.6309 23.9931 28.3562 24.0251C27.8856 24.0792 27.6428 24.3759 27.5938 24.8619C27.5548 25.2461 27.7656 25.5869 28.1745 25.737C28.4151 25.8252 28.6749 25.8629 28.9255 25.9234V25.9227Z" fill="#E6E6E6"/>
<path d="M5.67258 11.4617C5.98065 11.1351 6.26458 10.8889 6.7636 11.1138C7.31726 11.3635 7.91636 11.5115 8.57721 11.7306C8.2585 11.2682 8.00793 10.8562 7.70199 10.4905C7.61397 10.3845 7.36837 10.4101 7.14477 10.366C7.39534 10.1938 7.65017 10.0188 7.90429 9.84375L8.03561 9.8715C7.57635 10.2294 7.88797 10.4734 8.0633 10.7331C8.39763 11.229 8.73692 11.7214 9.07409 12.2152L9.01518 12.2998C8.11085 12.0003 7.20653 11.7015 6.22767 11.377C6.59678 11.9142 6.89917 12.3952 7.24912 12.8384C7.34637 12.9615 7.58416 12.9722 7.80208 13.0498C7.59481 13.1928 7.34211 13.3664 7.08941 13.5407C7.43439 13.0647 7.01133 12.8022 6.82251 12.4934C6.65002 12.2109 6.44772 11.9469 6.26174 11.6723C6.12191 11.4667 5.98349 11.2689 5.67188 11.461L5.67258 11.4617Z" fill="#E6E6E6"/>
<path d="M1.01198 21.5861C0.305702 21.6522 0.386623 22.1254 0.388752 22.6049C0.712435 22.6291 1.02334 22.6526 1.32928 22.6754C1.46415 22.2186 1.44782 22.1766 1.07516 21.9105C1.35341 21.9283 1.63167 21.9454 1.90992 21.9632C1.52732 22.0564 1.49538 22.3239 1.54649 22.6996C1.84036 22.6996 2.14416 22.7174 2.44442 22.6889C2.53599 22.6804 2.66944 22.5566 2.69144 22.4641C2.81282 21.9432 2.68647 21.7106 2.19953 21.4708C2.15197 21.4473 2.11222 21.4103 2.0888 21.3086L2.88097 21.3783C2.84761 22.1019 2.81566 22.7956 2.78372 23.4893C2.66944 23.0575 2.33582 23.1265 2.04266 23.1137C1.6416 23.0959 1.24126 23.0518 0.840915 23.0603C0.643582 23.0646 0.447668 23.1592 0.214844 23.2232C0.238268 22.7465 0.258853 22.198 0.302153 21.6508C0.307122 21.5896 0.434891 21.5071 0.516522 21.49C0.647131 21.463 0.787677 21.4829 0.923965 21.4829L1.01198 21.5861Z" fill="#E6E6E6"/>
<path d="M28.4448 16.413L28.7082 16.4258L28.7401 16.4956C28.4711 16.6606 28.202 16.8257 27.9323 16.9901L27.867 16.9253C27.9259 16.8542 27.9834 16.7823 28.0445 16.7133C28.339 16.3824 28.3852 15.9883 28.1694 15.6375C27.9728 15.318 27.62 15.1736 27.2061 15.3237C26.9023 15.434 26.6035 15.6019 26.3522 15.8054C26.0023 16.0886 25.9348 16.4856 26.1052 16.825C26.2834 17.1786 26.617 17.338 27.0578 17.2754C27.1487 17.2626 27.2381 17.2377 27.3275 17.2184L27.3779 17.3102C27.1274 17.4561 26.8761 17.6027 26.6255 17.7485L26.5744 17.6923C26.6071 17.6147 26.6404 17.5372 26.6731 17.4596C25.9639 17.1124 25.6403 16.5148 25.8206 15.8951C26.0001 15.2753 26.7256 14.8349 27.4156 14.926C28.0487 15.0092 28.4008 15.5144 28.4434 16.4123L28.4448 16.413Z" fill="#E6E6E6"/>
<path d="M4.62675 12.3921C4.82479 12.1815 5.01361 11.9794 5.20313 11.7773C5.04981 12.2142 5.38201 12.3828 5.6049 12.6013C5.84127 12.8332 6.08687 13.0566 6.31899 13.2928C6.54826 13.5269 6.59156 13.8058 6.48154 14.1132C6.1685 14.989 5.34581 15.2004 4.6807 14.575C4.47343 14.3807 4.2619 14.1907 4.05959 13.9908C3.85303 13.7866 3.65286 13.5824 3.34409 13.9054L3.30859 13.808C3.57052 13.5255 3.83316 13.2437 4.09509 12.9613L4.16394 13.0033C4.11354 13.1057 4.06314 13.2089 3.98577 13.3675C4.41877 13.7582 4.85319 14.1722 5.31458 14.555C5.5474 14.7478 5.85334 14.6653 6.10462 14.4056C6.39707 14.1032 6.48651 13.7019 6.25439 13.4479C5.91225 13.0737 5.53746 12.7251 5.14635 12.4028C5.05123 12.3245 4.83757 12.3914 4.62604 12.3914L4.62675 12.3921Z" fill="#E6E6E6"/>
<path d="M1.50006 17.6241C1.41985 17.5501 1.35526 17.4896 1.28995 17.4291L1.32473 17.3516C1.62073 17.4384 1.91744 17.5252 2.21344 17.612L2.20776 17.6995C2.11336 17.7066 2.01966 17.718 1.92525 17.7208C1.49935 17.7329 1.20335 17.9535 1.0841 18.3498C0.977626 18.7027 1.08836 19.0485 1.46244 19.252C1.76696 19.4185 2.11265 19.5366 2.45407 19.6013C2.83312 19.6732 3.21288 19.4163 3.33923 19.089C3.48759 18.7048 3.38324 18.3505 3.0411 18.0808C2.96231 18.0182 2.88139 17.9578 2.80189 17.8966L2.8388 17.8147C3.11706 17.9051 3.39531 17.9955 3.763 18.115C3.5969 18.1876 3.51882 18.221 3.44287 18.2545C3.6544 19.0392 3.39105 19.7059 2.77421 19.9599C2.19995 20.1968 1.37939 19.9108 1.03299 19.353C0.690145 18.8016 0.859794 18.1463 1.50006 17.6226V17.6241Z" fill="#E6E6E6"/>
<path d="M13.7911 35.9161C13.7003 35.8243 13.6066 35.7361 13.52 35.6408C13.334 35.4366 13.2261 35.206 13.3454 34.9293C13.4873 34.5999 13.7578 34.4398 14.102 34.4455C14.3924 34.4504 14.6969 34.5344 14.7877 34.8446C14.8346 35.004 14.7572 35.2231 14.6798 35.3889C14.6252 35.5063 14.4775 35.5796 14.3533 35.6892C14.7047 35.9417 15.039 36.2085 14.8019 36.7045C14.6557 37.0097 14.2511 37.1968 13.8997 37.1214C13.5974 37.0567 13.3155 36.9243 13.2857 36.5743C13.2559 36.2185 13.493 36.0236 13.8011 35.9055C13.7287 36.1225 13.5952 36.3423 13.6059 36.5543C13.6137 36.7045 13.7926 36.9229 13.9388 36.9677C14.0871 37.0133 14.3831 36.9329 14.4435 36.8176C14.5187 36.6746 14.4832 36.3857 14.3775 36.2562C14.244 36.0919 13.992 36.0243 13.7911 35.9147V35.9161ZM14.0495 34.5693C13.8266 34.5799 13.6321 34.6753 13.6257 34.9784C13.6215 35.2139 13.9565 35.5974 14.1702 35.6109C14.3356 35.6216 14.5585 35.2936 14.557 35.0424C14.5549 34.7671 14.3682 34.5764 14.0495 34.5685V34.5693Z" fill="#E6E6E6"/>
<path d="M27.0389 13.9253C26.9168 14.0263 26.7521 14.163 26.5867 14.2989L26.5264 14.2483C26.5661 14.1452 26.6343 14.0434 26.64 13.9388C26.6492 13.7581 26.6769 13.539 26.5903 13.4045C26.5101 13.28 26.2638 13.1569 26.1403 13.1953C26.0182 13.233 25.8932 13.4692 25.8854 13.6244C25.8748 13.8399 25.9692 14.0619 26.0238 14.2796C26.1779 14.8915 25.9685 15.3142 25.4609 15.4109C25.0045 15.4977 24.5524 15.0694 24.5012 14.5002C24.4984 14.4653 24.4906 14.4312 24.4856 14.3963C24.4139 14.4056 24.3458 14.4155 24.2777 14.4227C24.2691 14.4234 24.2592 14.4091 24.1953 14.3565C24.4168 14.1708 24.6283 13.9929 24.8398 13.815C24.8654 13.8342 24.8909 13.8535 24.9165 13.8727C24.8576 13.9872 24.7951 14.0996 24.739 14.2163C24.5694 14.5714 24.6553 14.957 24.9747 15.1085C25.1039 15.1704 25.3147 15.1818 25.4311 15.1157C25.5461 15.0509 25.6569 14.8545 25.649 14.7222C25.6334 14.4433 25.5383 14.1686 25.4787 13.8919C25.3814 13.4422 25.5823 13.0722 25.9749 12.9719C26.3319 12.8808 26.6826 13.1284 26.8196 13.5518C26.8543 13.6599 26.9353 13.7538 27.0382 13.926L27.0389 13.9253Z" fill="#E6E6E6"/>
<path d="M23.2898 12.0568C23.6255 11.9138 23.8853 11.8042 24.1444 11.6932C24.39 11.5879 24.5987 11.4677 24.2537 11.1447L24.3751 11.1127C24.5937 11.2699 24.8124 11.4271 24.9941 11.5573C24.5334 11.7309 24.0607 11.8775 23.6184 12.0888C23.3778 12.2034 23.1762 12.4147 22.9803 12.6061C22.8036 12.779 22.7241 12.9846 23.0193 13.1788L22.9228 13.2514C22.6311 13.0387 22.3386 12.8259 22.0469 12.6125C22.4472 12.6324 22.8561 12.313 22.9093 11.8754C22.9654 11.4172 22.9909 10.9547 23.0094 10.4929C23.0137 10.3763 22.9391 10.256 22.9406 10.0703C23.2181 10.2717 23.4956 10.473 23.7732 10.6744L23.7462 10.7398C23.6532 10.7284 23.5602 10.7164 23.4133 10.6986C23.3735 11.1319 23.3345 11.5602 23.2891 12.0568H23.2898Z" fill="#E6E6E6"/>
<path d="M14.9008 8.03665C14.7383 8.12914 14.6517 8.17753 14.5253 8.24939C14.7646 8.6336 14.9931 9.00002 15.2472 9.4077C15.441 9.06263 15.6391 8.76736 15.769 8.44505C15.8123 8.33761 15.6824 8.15974 15.6256 7.99609H16.307C16.0423 8.4052 15.7463 8.81645 15.5042 9.25758C15.3878 9.4696 15.3296 9.73855 15.3289 9.98188C15.3289 10.1676 15.4609 10.354 15.539 10.5532H14.6843C14.7525 10.396 14.8831 10.2181 14.8959 10.0324C14.9101 9.82393 14.854 9.59056 14.7638 9.39917C14.634 9.12311 14.4537 8.8691 14.2783 8.61794C14.1427 8.4237 13.9816 8.24796 13.8105 8.03736H14.9001L14.9008 8.03665Z" fill="#E6E6E6"/>
<path d="M0.201172 23.7461C0.844279 24.2171 1.44551 24.6027 2.19083 24.5956C2.64796 24.5914 2.64725 24.5536 2.84316 24.1196C2.90421 24.5387 2.95461 24.8873 3.01139 25.2829C2.62028 24.8987 2.17592 24.888 1.76635 25.2168C1.5172 25.416 1.2645 25.6116 1.02671 25.8237C0.866993 25.966 0.729996 26.1346 0.549699 26.326L0.41838 25.3519L0.482265 25.327C0.542601 25.3996 0.602936 25.4729 0.685277 25.5718C1.03948 25.2893 1.37665 25.0197 1.74292 24.728C1.43273 24.5935 1.16441 24.4782 0.897516 24.3601C0.651914 24.2513 0.42051 24.1716 0.423349 24.6568C0.389987 24.6326 0.356625 24.6084 0.322553 24.5842C0.284222 24.321 0.246601 24.0584 0.201172 23.7461Z" fill="#E6E6E6"/>
<path d="M21.9167 12.4631C21.6178 12.3144 21.3226 12.1671 21.0273 12.0199L21.0486 11.948L21.4141 11.9644C21.4141 11.7011 21.461 11.4286 21.3985 11.1853C21.3531 11.0074 20.6113 10.7989 20.4999 10.8779C20.1499 11.1255 20.1066 11.2607 20.2486 11.625C20.0264 11.5161 19.8042 11.4065 19.6133 11.3126C19.8646 11.1476 20.1052 11.0195 20.311 10.8487C20.8363 10.414 21.346 9.96079 21.9373 9.44922C21.9373 9.67832 21.9437 9.81208 21.9358 9.94442C21.8989 10.5713 21.8492 11.1974 21.8244 11.8242C21.8173 12.0106 21.8762 12.2006 21.9167 12.4624V12.4631ZM21.5461 9.96648C21.2267 10.244 20.9918 10.4482 20.7277 10.6773C20.9861 10.8032 21.2033 10.9085 21.4603 11.0337C21.4879 10.6851 21.5128 10.3813 21.5461 9.96648Z" fill="#E6E6E6"/>
<path d="M9.77278 11.7014C10.2469 11.562 10.1142 11.2831 9.99212 10.9999C9.76426 10.4698 9.5428 9.93619 9.32133 9.40897C8.67964 9.54771 8.63705 9.59538 8.54193 10.2258C8.46101 10.0493 8.37938 9.87216 8.2793 9.65444C9.05727 9.32573 9.80259 9.01053 10.5848 8.67969C10.6764 8.87891 10.7609 9.06176 10.8737 9.30723C10.6352 9.16777 10.4698 8.9963 10.2966 8.98848C10.1036 8.97994 9.90339 9.1201 9.68263 9.20477C9.95237 9.84512 10.1937 10.4719 10.4876 11.0739C10.55 11.2012 10.8027 11.2347 10.9809 11.3179C10.6295 11.4673 10.2427 11.6324 9.85512 11.7975L9.77349 11.7021L9.77278 11.7014Z" fill="#E6E6E6"/>
<path d="M29.7209 27.0026L29.3227 28.131L29.2084 28.1744C29.4355 27.5839 29.0089 27.5711 28.698 27.4608C28.275 27.3107 27.8477 27.1719 27.4274 27.0161C27.24 26.9464 27.1478 27.0062 27.0697 27.1776C26.8518 27.6558 26.8645 27.7426 27.3678 28.4797C27.0711 28.3722 26.8369 28.2876 26.5742 28.1929C26.8212 27.4886 27.0562 26.8169 27.2919 26.1445C27.2571 26.6248 27.6255 26.6497 27.9179 26.7529C28.2856 26.8816 28.6533 27.0118 29.0203 27.1428C29.2716 27.2324 29.5342 27.369 29.6293 26.8724L29.7209 27.0019V27.0026Z" fill="#E6E6E6"/>
<path d="M16.6343 34.5124C16.339 34.8433 15.9542 35.2033 15.6646 35.6281C15.5056 35.8614 15.4595 36.2029 15.4496 36.4982C15.4382 36.8326 15.6668 37.0126 15.962 37.0005C16.2893 36.9877 16.4114 36.7814 16.4305 36.4875C16.4575 36.0692 16.3652 35.7106 15.9173 35.5384C16.3134 35.3911 16.7386 35.6715 16.8067 36.1112C16.8834 36.6021 16.5484 37.0411 16.0345 37.1222C15.5986 37.1912 15.1216 36.812 15.0705 36.3296C15.0528 36.1588 15.0748 35.9717 15.1273 35.8081C15.3275 35.1884 16.1459 34.5395 16.6335 34.5117L16.6343 34.5124Z" fill="#E6E6E6"/>
<path d="M17.0687 37.997C17.6032 37.7338 17.9879 37.3211 18.1803 36.7754C18.2846 36.4801 18.3016 36.1343 18.274 35.8191C18.252 35.5694 18.0411 35.3994 17.7593 35.4477C17.496 35.4926 17.354 35.669 17.3377 35.9429C17.3121 36.377 17.4307 36.7348 17.8807 36.9334C17.5684 37.0166 17.305 36.9333 17.1269 36.6964C16.9224 36.4253 16.9104 36.1251 17.0488 35.8248C17.2071 35.4819 17.5769 35.2941 17.956 35.3439C18.3343 35.3937 18.6857 35.7003 18.6963 36.0895C18.7048 36.3834 18.6559 36.7135 18.5231 36.9696C18.2278 37.5388 17.7011 37.8483 17.0687 37.9978V37.997Z" fill="#E6E6E6"/>
<path d="M12.9917 37.0925C12.9335 37.1124 12.9122 37.126 12.8909 37.126C12.6674 37.1274 12.4445 37.1267 12.2081 37.1267C12.502 36.7311 12.5055 35.6781 12.1953 35.3906H12.9264C12.6475 35.7464 12.6674 36.8399 12.9917 37.0918V37.0925Z" fill="#E6E6E6"/>
</g>
<path d="M34.5371 20V15.1115H36.2796C36.6583 15.1115 36.9726 15.1767 37.2224 15.3072C37.4738 15.4377 37.6616 15.6183 37.7857 15.8491C37.9099 16.0782 37.9719 16.3432 37.9719 16.6439C37.9719 16.9431 37.9091 17.2065 37.7833 17.434C37.6592 17.66 37.4714 17.8358 37.22 17.9615C36.9702 18.0872 36.6559 18.1501 36.2772 18.1501H34.9572V17.5152H36.2103C36.449 17.5152 36.6432 17.481 36.7928 17.4125C36.9439 17.3441 37.0545 17.2446 37.1245 17.1142C37.1946 16.9837 37.2296 16.8269 37.2296 16.6439C37.2296 16.4593 37.1938 16.2994 37.1222 16.1641C37.0521 16.0289 36.9415 15.9254 36.7904 15.8538C36.6408 15.7806 36.4443 15.744 36.2008 15.744H35.2746V20H34.5371ZM36.9503 17.7944L38.1581 20H37.3179L36.1339 17.7944H36.9503ZM38.315 15.1115H39.1529L40.4299 17.3338H40.4824L41.7594 15.1115H42.5973L40.8237 18.0809V20H40.0886V18.0809L38.315 15.1115ZM43.2937 20V15.1115H46.3585V15.7464H44.0312V17.2359H46.1986V17.8684H44.0312V19.3651H46.3872V20H43.2937ZM53.1829 16.7012H52.4381C52.4095 16.5421 52.3562 16.402 52.2782 16.2811C52.2002 16.1602 52.1047 16.0575 51.9918 15.9732C51.8788 15.8888 51.7523 15.8252 51.6122 15.7822C51.4738 15.7393 51.3266 15.7178 51.1706 15.7178C50.889 15.7178 50.6368 15.7886 50.414 15.9302C50.1928 16.0718 50.0177 16.2795 49.8888 16.5532C49.7615 16.8269 49.6979 17.1611 49.6979 17.5557C49.6979 17.9536 49.7615 18.2893 49.8888 18.563C50.0177 18.8368 50.1936 19.0436 50.4164 19.1837C50.6391 19.3237 50.8898 19.3937 51.1683 19.3937C51.3226 19.3937 51.469 19.373 51.6075 19.3316C51.7475 19.2887 51.874 19.2258 51.987 19.1431C52.1 19.0603 52.1954 18.9593 52.2734 18.8399C52.353 18.719 52.4079 18.5806 52.4381 18.4246L53.1829 18.427C53.1431 18.6673 53.0659 18.8885 52.9513 19.0906C52.8383 19.2911 52.6927 19.4645 52.5145 19.6109C52.3379 19.7557 52.1358 19.8679 51.9082 19.9475C51.6807 20.0271 51.4324 20.0668 51.1635 20.0668C50.7402 20.0668 50.3631 19.9666 50.0321 19.7661C49.7011 19.564 49.4401 19.2752 49.2491 18.8996C49.0598 18.5241 48.9651 18.0761 48.9651 17.5557C48.9651 17.0338 49.0606 16.5858 49.2515 16.2119C49.4425 15.8363 49.7035 15.5483 50.0344 15.3478C50.3654 15.1457 50.7418 15.0447 51.1635 15.0447C51.4229 15.0447 51.6647 15.0821 51.8891 15.1568C52.1151 15.23 52.318 15.3383 52.4978 15.4815C52.6776 15.6231 52.8264 15.7966 52.9442 16.0018C53.0619 16.2055 53.1415 16.4386 53.1829 16.7012ZM55.5525 20.074C55.2088 20.074 54.9088 19.9952 54.6526 19.8377C54.3964 19.6801 54.1975 19.4597 54.0559 19.1765C53.9143 18.8932 53.8434 18.5623 53.8434 18.1835C53.8434 17.8032 53.9143 17.4706 54.0559 17.1858C54.1975 16.9009 54.3964 16.6797 54.6526 16.5222C54.9088 16.3646 55.2088 16.2859 55.5525 16.2859C55.8962 16.2859 56.1962 16.3646 56.4524 16.5222C56.7086 16.6797 56.9075 16.9009 57.0491 17.1858C57.1908 17.4706 57.2616 17.8032 57.2616 18.1835C57.2616 18.5623 57.1908 18.8932 57.0491 19.1765C56.9075 19.4597 56.7086 19.6801 56.4524 19.8377C56.1962 19.9952 55.8962 20.074 55.5525 20.074ZM55.5549 19.4749C55.7777 19.4749 55.9623 19.416 56.1087 19.2982C56.2551 19.1805 56.3633 19.0237 56.4333 18.828C56.5049 18.6323 56.5407 18.4166 56.5407 18.1811C56.5407 17.9472 56.5049 17.7324 56.4333 17.5367C56.3633 17.3393 56.2551 17.181 56.1087 17.0616C55.9623 16.9423 55.7777 16.8826 55.5549 16.8826C55.3305 16.8826 55.1443 16.9423 54.9964 17.0616C54.85 17.181 54.7409 17.3393 54.6693 17.5367C54.5993 17.7324 54.5643 17.9472 54.5643 18.1811C54.5643 18.4166 54.5993 18.6323 54.6693 18.828C54.7409 19.0237 54.85 19.1805 54.9964 19.2982C55.1443 19.416 55.3305 19.4749 55.5549 19.4749ZM60.3808 18.4795V16.3336H61.0968V20H60.3951V19.3651H60.3569C60.2725 19.5608 60.1373 19.7239 59.9511 19.8544C59.7665 19.9833 59.5366 20.0477 59.2613 20.0477C59.0258 20.0477 58.8173 19.996 58.6359 19.8926C58.4561 19.7876 58.3144 19.6324 58.211 19.4271C58.1092 19.2218 58.0582 18.968 58.0582 18.6657V16.3336H58.7719V18.5798C58.7719 18.8296 58.8412 19.0285 58.9796 19.1765C59.118 19.3245 59.2979 19.3985 59.5191 19.3985C59.6527 19.3985 59.7856 19.3651 59.9177 19.2982C60.0514 19.2314 60.1619 19.1303 60.2495 18.9951C60.3386 18.8598 60.3823 18.688 60.3808 18.4795ZM62.7695 17.8231V20H62.0558V16.3336H62.7409V16.9304H62.7862C62.8706 16.7362 63.0026 16.5803 63.1825 16.4625C63.3639 16.3448 63.5922 16.2859 63.8675 16.2859C64.1174 16.2859 64.3362 16.3384 64.5239 16.4434C64.7117 16.5469 64.8573 16.7012 64.9607 16.9065C65.0642 17.1118 65.1159 17.3656 65.1159 17.6679V20H64.4022V17.7539C64.4022 17.4881 64.333 17.2804 64.1945 17.1309C64.0561 16.9797 63.8659 16.9041 63.624 16.9041C63.4585 16.9041 63.3114 16.9399 63.1825 17.0115C63.0552 17.0831 62.9541 17.1882 62.8793 17.3266C62.8061 17.4635 62.7695 17.6289 62.7695 17.8231ZM67.7845 16.3336V16.9065H65.7819V16.3336H67.7845ZM66.3189 15.4552H67.0326V18.9235C67.0326 19.0619 67.0533 19.1662 67.0947 19.2362C67.1361 19.3046 67.1894 19.3515 67.2546 19.377C67.3215 19.4009 67.3939 19.4128 67.4718 19.4128C67.5291 19.4128 67.5792 19.4088 67.6222 19.4009C67.6652 19.3929 67.6986 19.3865 67.7225 19.3818L67.8514 19.9714C67.81 19.9873 67.7511 20.0032 67.6747 20.0191C67.5983 20.0366 67.5029 20.0461 67.3883 20.0477C67.2005 20.0509 67.0255 20.0175 66.8632 19.9475C66.7008 19.8775 66.5696 19.7693 66.4693 19.6229C66.3691 19.4765 66.3189 19.2927 66.3189 19.0715V15.4552ZM68.574 20V16.3336H69.2639V16.916H69.302C69.3689 16.7187 69.4866 16.5636 69.6553 16.4506C69.8256 16.336 70.0181 16.2787 70.233 16.2787C70.2775 16.2787 70.33 16.2803 70.3905 16.2835C70.4526 16.2867 70.5011 16.2907 70.5361 16.2954V16.9781C70.5075 16.9701 70.4565 16.9614 70.3833 16.9518C70.3101 16.9407 70.2369 16.9351 70.1637 16.9351C69.9951 16.9351 69.8447 16.9709 69.7126 17.0425C69.5821 17.1126 69.4787 17.2104 69.4023 17.3361C69.3259 17.4603 69.2877 17.6019 69.2877 17.761V20H68.574ZM71.7165 21.3749C71.6098 21.3749 71.5128 21.3661 71.4252 21.3486C71.3377 21.3327 71.2725 21.3152 71.2295 21.2961L71.4014 20.7113C71.5319 20.7463 71.648 20.7614 71.7499 20.7567C71.8517 20.7519 71.9416 20.7137 72.0196 20.6421C72.0992 20.5705 72.1692 20.4535 72.2297 20.2912L72.318 20.0477L70.9765 16.3336H71.7403L72.6689 19.1789H72.707L73.6356 16.3336H74.4018L72.8908 20.4893C72.8208 20.6803 72.7317 20.8418 72.6235 20.9739C72.5153 21.1076 72.3864 21.2078 72.2368 21.2746C72.0872 21.3415 71.9138 21.3749 71.7165 21.3749ZM36.1196 28H34.5371V23.1115H36.1698C36.6487 23.1115 37.0601 23.2094 37.4038 23.4051C37.7475 23.5992 38.0109 23.8785 38.1939 24.2429C38.3785 24.6057 38.4708 25.041 38.4708 25.5486C38.4708 26.0578 38.3777 26.4954 38.1915 26.8614C38.0069 27.2274 37.7396 27.5091 37.3895 27.7064C37.0394 27.9021 36.6161 28 36.1196 28ZM35.2746 27.3555H36.079C36.4514 27.3555 36.7609 27.2855 37.0076 27.1455C37.2542 27.0038 37.4388 26.7994 37.5614 26.532C37.6839 26.2631 37.7452 25.9353 37.7452 25.5486C37.7452 25.1651 37.6839 24.8397 37.5614 24.5723C37.4404 24.305 37.2598 24.1021 37.0195 23.9636C36.7792 23.8252 36.4809 23.756 36.1244 23.756H35.2746V27.3555ZM40.3977 28.0812C40.1653 28.0812 39.9553 28.0382 39.7675 27.9523C39.5797 27.8647 39.4309 27.7382 39.3211 27.5727C39.2129 27.4072 39.1588 27.2043 39.1588 26.9641C39.1588 26.7572 39.1986 26.5869 39.2782 26.4532C39.3577 26.3196 39.4652 26.2138 39.6004 26.1358C39.7357 26.0578 39.8869 25.9989 40.0539 25.9591C40.221 25.9194 40.3913 25.8891 40.5648 25.8684C40.7844 25.843 40.9626 25.8223 41.0994 25.8064C41.2363 25.7889 41.3357 25.761 41.3978 25.7228C41.4599 25.6846 41.4909 25.6226 41.4909 25.5367V25.5199C41.4909 25.3115 41.432 25.15 41.3143 25.0354C41.1981 24.9208 41.0246 24.8635 40.7939 24.8635C40.5536 24.8635 40.3642 24.9168 40.2258 25.0235C40.089 25.1285 39.9943 25.2454 39.9418 25.3743L39.271 25.2216C39.3506 24.9988 39.4667 24.819 39.6195 24.6821C39.7739 24.5437 39.9513 24.4434 40.1518 24.3814C40.3523 24.3177 40.5632 24.2859 40.7844 24.2859C40.9308 24.2859 41.0859 24.3034 41.2498 24.3384C41.4153 24.3718 41.5697 24.4339 41.7129 24.5246C41.8577 24.6153 41.9762 24.745 42.0685 24.9137C42.1608 25.0807 42.207 25.298 42.207 25.5653V28H41.51V27.4987H41.4813C41.4352 27.591 41.366 27.6817 41.2737 27.7709C41.1814 27.86 41.0628 27.934 40.918 27.9928C40.7732 28.0517 40.5998 28.0812 40.3977 28.0812ZM40.5528 27.5083C40.7501 27.5083 40.9188 27.4693 41.0589 27.3913C41.2005 27.3133 41.3079 27.2115 41.3811 27.0858C41.4559 26.9585 41.4933 26.8224 41.4933 26.6776V26.205C41.4678 26.2305 41.4185 26.2543 41.3453 26.2766C41.2737 26.2973 41.1917 26.3156 41.0994 26.3315C41.0071 26.3458 40.9172 26.3594 40.8297 26.3721C40.7422 26.3832 40.669 26.3928 40.6101 26.4007C40.4717 26.4182 40.3452 26.4477 40.2306 26.4891C40.1176 26.5304 40.0269 26.5901 39.9585 26.6681C39.8916 26.7445 39.8582 26.8463 39.8582 26.9736C39.8582 27.1502 39.9235 27.2839 40.0539 27.3746C40.1844 27.4637 40.3507 27.5083 40.5528 27.5083ZM43.4775 29.3749C43.3708 29.3749 43.2738 29.3661 43.1862 29.3486C43.0987 29.3327 43.0335 29.3152 42.9905 29.2961L43.1624 28.7113C43.2929 28.7463 43.409 28.7614 43.5109 28.7567C43.6127 28.7519 43.7026 28.7137 43.7806 28.6421C43.8602 28.5705 43.9302 28.4535 43.9906 28.2912L44.079 28.0477L42.7375 24.3336H43.5013L44.4299 27.1789H44.468L45.3966 24.3336H46.1628L44.6518 28.4893C44.5818 28.6803 44.4927 28.8418 44.3845 28.9739C44.2763 29.1076 44.1474 29.2078 43.9978 29.2746C43.8482 29.3415 43.6748 29.3749 43.4775 29.3749ZM51.3359 24.3957C51.3105 24.1697 51.2055 23.9947 51.0209 23.8705C50.8363 23.7448 50.6039 23.682 50.3239 23.682C50.1234 23.682 49.9499 23.7138 49.8035 23.7775C49.6571 23.8395 49.5433 23.9254 49.4622 24.0352C49.3826 24.1435 49.3428 24.2668 49.3428 24.4052C49.3428 24.5214 49.3699 24.6216 49.424 24.706C49.4797 24.7903 49.5521 24.8611 49.6412 24.9184C49.7319 24.9741 49.829 25.0211 49.9324 25.0593C50.0358 25.0959 50.1353 25.1261 50.2308 25.15L50.7082 25.2741C50.8641 25.3123 51.024 25.364 51.1879 25.4292C51.3519 25.4945 51.5038 25.5804 51.6439 25.687C51.7839 25.7936 51.8969 25.9257 51.9828 26.0833C52.0703 26.2408 52.1141 26.4294 52.1141 26.649C52.1141 26.9259 52.0425 27.1717 51.8993 27.3865C51.7576 27.6014 51.5516 27.7709 51.281 27.895C51.0121 28.0191 50.6867 28.0812 50.3048 28.0812C49.9388 28.0812 49.6221 28.0231 49.3548 27.9069C49.0874 27.7907 48.8782 27.626 48.727 27.4128C48.5758 27.198 48.4923 26.9434 48.4764 26.649H49.2163C49.2306 26.8256 49.2879 26.9728 49.3882 27.0906C49.49 27.2067 49.6197 27.2935 49.7773 27.3507C49.9364 27.4064 50.1106 27.4343 50.3 27.4343C50.5085 27.4343 50.6938 27.4017 50.8562 27.3364C51.0201 27.2696 51.149 27.1773 51.2428 27.0595C51.3367 26.9402 51.3837 26.8009 51.3837 26.6418C51.3837 26.497 51.3423 26.3785 51.2596 26.2862C51.1784 26.1939 51.0678 26.1175 50.9278 26.057C50.7893 25.9965 50.6326 25.9432 50.4575 25.8971L49.8799 25.7395C49.4884 25.6329 49.1781 25.4762 48.949 25.2693C48.7214 25.0624 48.6076 24.7887 48.6076 24.4482C48.6076 24.1665 48.684 23.9207 48.8368 23.7106C48.9896 23.5006 49.1964 23.3375 49.4574 23.2213C49.7184 23.1035 50.0128 23.0447 50.3406 23.0447C50.6716 23.0447 50.9636 23.1027 51.2166 23.2189C51.4712 23.3351 51.6717 23.495 51.8181 23.6987C51.9645 23.9008 52.0409 24.1331 52.0473 24.3957H51.3359ZM54.4826 28.074C54.1277 28.074 53.8222 27.9936 53.566 27.8329C53.3114 27.6706 53.1156 27.447 52.9788 27.1622C52.8419 26.8773 52.7735 26.5511 52.7735 26.1835C52.7735 25.8112 52.8435 25.4825 52.9835 25.1977C53.1236 24.9113 53.3209 24.6877 53.5755 24.527C53.8301 24.3662 54.1301 24.2859 54.4754 24.2859C54.7539 24.2859 55.0021 24.3376 55.2201 24.441C55.4381 24.5429 55.614 24.6861 55.7477 24.8707C55.8829 25.0553 55.9633 25.2709 55.9887 25.5176H55.2941C55.2559 25.3457 55.1684 25.1977 55.0316 25.0736C54.8963 24.9495 54.7149 24.8874 54.4873 24.8874C54.2884 24.8874 54.1142 24.9399 53.9646 25.0449C53.8166 25.1484 53.7012 25.2964 53.6185 25.4889C53.5357 25.6799 53.4944 25.9058 53.4944 26.1668C53.4944 26.4341 53.5349 26.6649 53.6161 26.859C53.6972 27.0532 53.8118 27.2035 53.9598 27.3102C54.1094 27.4168 54.2852 27.4701 54.4873 27.4701C54.6226 27.4701 54.7451 27.4454 54.8549 27.3961C54.9663 27.3452 55.0594 27.2728 55.1342 27.1789C55.2106 27.085 55.2639 26.972 55.2941 26.8399H55.9887C55.9633 27.077 55.8861 27.2887 55.7572 27.4749C55.6283 27.6611 55.4556 27.8075 55.2392 27.9141C55.0244 28.0207 54.7722 28.074 54.4826 28.074ZM57.4657 25.8231V28H56.752V23.1115H57.4561V24.9304H57.5015C57.5874 24.733 57.7187 24.5763 57.8953 24.4601C58.072 24.344 58.3027 24.2859 58.5875 24.2859C58.839 24.2859 59.0586 24.3376 59.2463 24.441C59.4357 24.5445 59.5821 24.6988 59.6856 24.9041C59.7906 25.1078 59.8431 25.3624 59.8431 25.6679V28H59.1294V25.7539C59.1294 25.4849 59.0602 25.2765 58.9217 25.1285C58.7833 24.9789 58.5907 24.9041 58.3441 24.9041C58.1754 24.9041 58.0242 24.9399 57.8906 25.0115C57.7585 25.0831 57.6542 25.1882 57.5779 25.3266C57.5031 25.4635 57.4657 25.6289 57.4657 25.8231ZM62.3399 28.074C61.9961 28.074 61.6962 27.9952 61.44 27.8377C61.1838 27.6801 60.9849 27.4597 60.8432 27.1765C60.7016 26.8932 60.6308 26.5623 60.6308 26.1835C60.6308 25.8032 60.7016 25.4706 60.8432 25.1858C60.9849 24.9009 61.1838 24.6797 61.44 24.5222C61.6962 24.3646 61.9961 24.2859 62.3399 24.2859C62.6836 24.2859 62.9835 24.3646 63.2397 24.5222C63.4959 24.6797 63.6949 24.9009 63.8365 25.1858C63.9781 25.4706 64.0489 25.8032 64.0489 26.1835C64.0489 26.5623 63.9781 26.8932 63.8365 27.1765C63.6949 27.4597 63.4959 27.6801 63.2397 27.8377C62.9835 27.9952 62.6836 28.074 62.3399 28.074ZM62.3422 27.4749C62.565 27.4749 62.7496 27.416 62.896 27.2982C63.0424 27.1805 63.1506 27.0237 63.2206 26.828C63.2923 26.6323 63.3281 26.4166 63.3281 26.1811C63.3281 25.9472 63.2923 25.7324 63.2206 25.5367C63.1506 25.3393 63.0424 25.181 62.896 25.0616C62.7496 24.9423 62.565 24.8826 62.3422 24.8826C62.1179 24.8826 61.9317 24.9423 61.7837 25.0616C61.6373 25.181 61.5283 25.3393 61.4567 25.5367C61.3867 25.7324 61.3517 25.9472 61.3517 26.1811C61.3517 26.4166 61.3867 26.6323 61.4567 26.828C61.5283 27.0237 61.6373 27.1805 61.7837 27.2982C61.9317 27.416 62.1179 27.4749 62.3422 27.4749ZM66.3899 28.074C66.0462 28.074 65.7463 27.9952 65.4901 27.8377C65.2339 27.6801 65.0349 27.4597 64.8933 27.1765C64.7517 26.8932 64.6809 26.5623 64.6809 26.1835C64.6809 25.8032 64.7517 25.4706 64.8933 25.1858C65.0349 24.9009 65.2339 24.6797 65.4901 24.5222C65.7463 24.3646 66.0462 24.2859 66.3899 24.2859C66.7337 24.2859 67.0336 24.3646 67.2898 24.5222C67.546 24.6797 67.7449 24.9009 67.8866 25.1858C68.0282 25.4706 68.099 25.8032 68.099 26.1835C68.099 26.5623 68.0282 26.8932 67.8866 27.1765C67.7449 27.4597 67.546 27.6801 67.2898 27.8377C67.0336 27.9952 66.7337 28.074 66.3899 28.074ZM66.3923 27.4749C66.6151 27.4749 66.7997 27.416 66.9461 27.2982C67.0925 27.1805 67.2007 27.0237 67.2707 26.828C67.3423 26.6323 67.3781 26.4166 67.3781 26.1811C67.3781 25.9472 67.3423 25.7324 67.2707 25.5367C67.2007 25.3393 67.0925 25.181 66.9461 25.0616C66.7997 24.9423 66.6151 24.8826 66.3923 24.8826C66.168 24.8826 65.9818 24.9423 65.8338 25.0616C65.6874 25.181 65.5784 25.3393 65.5068 25.5367C65.4367 25.7324 65.4017 25.9472 65.4017 26.1811C65.4017 26.4166 65.4367 26.6323 65.5068 26.828C65.5784 27.0237 65.6874 27.1805 65.8338 27.2982C65.9818 27.416 66.168 27.4749 66.3923 27.4749ZM69.6094 23.1115V28H68.8957V23.1115H69.6094Z" fill="#E6E6E6"/>
</g>
<defs>
<clipPath id="clip0_1679_21263">
<rect width="80" height="40" fill="white" transform="translate(0.5)"/>
</clipPath>
<clipPath id="clip1_1679_21263">
<rect width="60" height="30" fill="white" transform="translate(-15 8)"/>
</clipPath>
</defs>
</svg>
