<svg width="83" height="40" viewBox="0 0 83 40" fill="none" xmlns="http://www.w3.org/2000/svg">
<g clip-path="url(#clip0_1679_21272)">
<g clip-path="url(#clip1_1679_21272)">
<path d="M24.5692 14.2248C22.1047 15.8786 20.8476 18.9331 19.5809 21.9427C18.6321 24.1991 17.5908 26.3177 16.0324 27.8914C15.1903 28.744 14.2344 29.1799 13.1812 29.1863C11.6821 29.1959 10.1807 29.1606 8.68156 29.1959C7.65923 29.2215 6.87173 28.5933 6.16013 27.7087C5.273 26.6061 4.62544 25.2568 4.00872 23.8754C3.72882 23.2472 3.44418 22.6286 3.10736 22.0517C2.9176 21.7279 2.98876 21.5453 3.28289 21.5453C4.73692 21.5388 6.19096 21.5453 7.645 21.5388C7.90592 21.5388 8.01266 21.76 8.13126 22.0228C8.96383 23.8561 9.79403 25.6959 10.9729 27.1863C11.3785 27.6991 11.4449 27.7247 11.8245 27.1574C12.8587 25.619 13.6604 23.8529 14.4811 22.1062C15.252 20.4683 15.9209 18.7408 16.8318 17.228C17.3109 16.4331 17.809 15.6671 18.4068 15.026C18.9666 14.4235 19.5596 14.0741 20.3162 14.0998C21.6279 14.1414 22.9444 14.2087 24.2561 14.0517C24.3629 14.0389 24.4743 14.0389 24.5669 14.2216L24.5692 14.2248Z" fill="#E6E6E6"/>
<path d="M31.6317 18.6758C31.2166 18.7944 30.9865 18.5893 30.9391 17.8425C30.8774 16.8874 30.441 16.2463 29.7365 15.9899C28.9205 15.6918 28.1354 15.7495 27.4333 16.4322C26.641 17.2047 26.6505 18.6822 27.4333 19.4643C27.8223 19.8521 28.2493 20.1374 28.6904 20.4002C29.1008 20.647 29.504 20.9066 29.9025 21.1854C31.015 21.9611 31.7503 23.0508 31.646 24.8873C31.5487 26.6341 30.9344 27.9002 29.7579 28.6085C28.5861 29.3136 27.3598 29.4194 26.1429 28.836C24.8692 28.2239 24.0864 26.6854 24.0342 24.8553C24.02 24.3809 24.1552 24.1438 24.5181 24.1694C24.6414 24.179 24.7648 24.1694 24.8881 24.1694C25.5475 24.1726 25.5452 24.1726 25.6021 25.0604C25.6495 25.7912 25.8915 26.3681 26.3517 26.7752C27.1154 27.4514 28.5102 27.4482 29.274 26.7591C30.2868 25.8457 30.2916 24.163 29.2835 23.2271C28.745 22.7271 28.1354 22.4098 27.5519 22.0316C27.3147 21.8777 27.0799 21.7207 26.845 21.5604C25.78 20.82 25.2392 19.6822 25.308 18.0188C25.3744 16.4066 25.9721 15.3008 27.0111 14.6342C28.3299 13.788 29.6843 13.7912 30.996 14.6598C31.8594 15.2303 32.3338 16.2527 32.4643 17.5316C32.5734 18.5957 32.5023 18.6758 31.6341 18.6758H31.6317Z" fill="#E6E6E6"/>
<path d="M51.2541 19.4421C51.9135 18.6216 52.6346 18.112 53.5502 18.1376C54.9971 18.1793 56.0147 19.1921 56.2899 21.1184C56.648 23.6344 56.1784 25.8716 54.8643 27.7594C53.7756 29.3235 51.6194 29.894 50.3219 27.9229C49.9898 27.4197 50.0017 27.971 49.9661 28.1793C49.7503 29.5254 49.5534 30.878 49.3447 32.2241C49.245 32.8716 48.4196 33.2754 48.0258 32.8716C47.8313 32.6697 47.9428 32.4068 47.976 32.1761C48.384 29.4133 48.7991 26.6504 49.2095 23.8876C49.4467 22.2915 49.6744 20.6921 49.9187 19.0992C50.0159 18.4678 50.8224 18.0671 51.1996 18.4582C51.4581 18.7242 51.1901 19.0799 51.2565 19.4389L51.2541 19.4421ZM50.5947 24.6825C50.5947 24.9742 50.5734 25.269 50.5994 25.5575C50.6801 26.487 51.1189 27.2049 51.7617 27.378C52.4591 27.5671 53.1185 27.4357 53.6593 26.7242C54.722 25.3267 55.0066 23.5896 54.843 21.6697C54.7457 20.5287 54.1598 19.8267 53.3201 19.7947C52.6062 19.7658 52.0226 20.1408 51.5672 20.862C50.8722 21.9581 50.5734 23.2498 50.5947 24.6793V24.6825Z" fill="#E6E6E6"/>
<path d="M65.5573 14.1287C66.0222 14.1287 66.4847 14.1287 66.9496 14.1287C68.9469 14.1447 70.0143 15.9139 69.7676 18.5998C69.5422 21.055 68.0882 22.2761 66.3899 22.4139C65.5881 22.478 64.7816 22.4492 63.9775 22.4267C63.617 22.4171 63.4581 22.5998 63.3822 23.0806C63.0999 24.9011 62.7773 26.7088 62.4998 28.5293C62.4215 29.0549 62.2389 29.2024 61.8688 29.2024C60.8821 29.2024 60.8939 29.2152 61.1003 27.9299C61.6292 24.6223 62.1369 21.3082 62.6563 18.0005C62.8224 16.9364 63.0098 15.8819 63.1639 14.8146C63.2351 14.3178 63.4082 14.103 63.7925 14.1223C64.3808 14.1511 64.969 14.1287 65.5573 14.1287ZM65.3889 20.6607C65.747 20.6447 66.2238 20.6992 66.7006 20.5646C67.8154 20.2537 68.2922 19.4876 68.2993 17.9524C68.3064 16.5486 67.9103 16.0261 66.8666 15.8723C66.2167 15.7793 65.5715 15.9684 64.9263 15.8114C64.7034 15.7569 64.5397 15.8883 64.4851 16.2216C64.2835 17.5101 64.0724 18.7921 63.8708 20.0806C63.8067 20.4876 63.9467 20.6639 64.2456 20.6607C64.5848 20.6543 64.9263 20.6607 65.3865 20.6607H65.3889Z" fill="#E6E6E6"/>
<path d="M74.5258 24.5485C74.4879 22.5421 74.9694 20.8081 76.0605 19.4299C77.2631 17.9107 79.3789 17.6703 80.674 18.8754C81.592 19.728 81.9075 21.0101 81.9193 22.4075C81.9336 23.9684 81.7059 25.4716 81.0132 26.7953C79.896 28.9299 77.8442 29.76 76.0795 28.6863C75.0832 28.0805 74.6444 26.9043 74.5305 25.4876C74.5045 25.1767 74.5258 24.8626 74.5258 24.5485ZM77.6806 27.4459C78.5226 27.4491 79.137 27.0677 79.6256 26.1414C80.342 24.7857 80.5483 23.2536 80.3894 21.6222C80.3016 20.7152 79.8984 20.1639 79.2674 19.8979C78.3518 19.5133 77.3603 19.9652 76.8006 21.0133C76.1672 22.1959 75.93 23.5517 75.9348 24.9716C75.9419 26.5741 76.5918 27.4427 77.6782 27.4491L77.6806 27.4459Z" fill="#E6E6E6"/>
<path d="M34.1437 24.5288C34.1437 24.6121 34.1437 24.6954 34.1437 24.7788C34.1555 26.1217 34.5161 26.9454 35.2134 27.2211C36.0792 27.5608 37.0849 27.0576 37.5759 26.0352C37.6186 25.9486 37.6542 25.8557 37.6898 25.7627C38.0859 24.7692 38.2899 24.6377 39.113 24.798C39.3692 24.8493 39.4071 25.0063 39.3549 25.314C38.8497 28.3172 36.2215 30.0576 34.1555 28.7531C33.2897 28.205 32.8557 27.205 32.7062 26.0063C32.3907 23.4454 32.7726 21.1185 34.2623 19.3333C35.3795 17.9935 36.7054 17.6762 38.1191 18.3108C39.1747 18.7852 39.6562 19.9102 39.8032 21.3397C39.8507 21.8108 39.7107 22.0576 39.3455 22.0448C39.1747 22.0384 39.0063 22.0448 38.8355 22.0448C38.5912 22.0448 38.4536 21.9166 38.3753 21.564C37.9507 19.6474 36.4113 19.1249 35.3225 20.532C34.4828 21.6185 34.0938 22.9615 34.1413 24.5352L34.1437 24.5288Z" fill="#E6E6E6"/>
<path d="M59.7132 15.6562C60.4295 15.6562 60.458 15.7043 60.3109 16.6562C60.2445 17.0857 60.1923 17.5184 60.1117 17.9415C60.031 18.3678 60.1543 18.5312 60.458 18.5088C60.4888 18.5088 60.5196 18.5088 60.5505 18.5088C61.3356 18.496 61.383 18.371 61.153 19.6434C61.0889 19.996 60.9276 20.0665 60.6762 20.0825C59.7962 20.137 59.7701 20.1434 59.578 21.3005C59.2886 23.0505 59.03 24.8133 58.7738 26.5729C58.6671 27.3133 58.8758 27.5857 59.4285 27.5184C59.642 27.4928 59.9029 27.2812 60.031 27.7011C60.1354 28.0376 59.8816 28.9062 59.6539 29.0056C59.1107 29.246 58.5556 29.2716 58.0195 28.9831C57.4692 28.6851 57.2178 28.1081 57.2605 27.2235C57.3127 26.137 57.5594 25.0921 57.7112 24.028C57.863 22.9415 58.0314 21.8582 58.2212 20.7812C58.3137 20.2556 58.214 20.0409 57.8037 20.0569C57.6021 20.0633 57.2581 20.1915 57.3222 19.6659C57.3767 19.2171 57.289 18.5953 57.8345 18.5152C58.6031 18.403 58.6007 18.3998 58.7572 17.355C58.7976 17.0889 58.8521 16.8261 58.8948 16.5633C59.0371 15.6755 59.0537 15.6562 59.7132 15.6562Z" fill="#E6E6E6"/>
<path d="M42.9153 19.7307C43.1905 19.3333 43.3707 19.048 43.57 18.7916C43.8523 18.423 44.182 18.157 44.5733 18.0544C45.451 17.8269 45.6123 18.064 45.3822 19.2211C45.3419 19.423 45.3134 19.6281 45.2755 19.8301C45.2351 20.0512 45.1474 20.189 44.9623 20.2211C43.3992 20.5128 42.8631 21.1281 42.4812 23.189C42.1539 24.9486 41.874 26.7243 41.5728 28.4935C41.4684 29.1057 40.5386 29.5095 40.1851 29.0897C40.0262 28.9038 40.0974 28.6666 40.133 28.4454C40.5481 25.8557 40.9655 23.266 41.3806 20.6762C41.485 20.0256 41.5728 19.3653 41.7032 18.7243C41.7886 18.2948 42.8228 18.0512 43.0292 18.391C43.1074 18.5192 43.0814 18.6698 43.0624 18.8108C43.0268 19.0737 42.9794 19.3333 42.9153 19.7275V19.7307Z" fill="#E6E6E6"/>
<path d="M71.8692 19.5831C72.2796 19.1697 72.5737 18.6312 73.0292 18.3331C73.3565 18.1184 73.6957 17.9998 74.0586 18.0575C74.3124 18.096 74.4595 18.2594 74.3931 18.6472C74.3504 18.8908 74.3053 19.1344 74.2768 19.3812C74.2104 19.9613 74.0064 20.1953 73.5368 20.2113C72.7991 20.237 72.2227 20.7498 71.8503 21.6408C71.4399 22.6216 71.2905 23.7145 71.1126 24.7947C70.9038 26.0575 70.7117 27.3235 70.5077 28.5895C70.465 28.8588 70.4128 29.1568 70.159 29.1729C69.827 29.1921 69.4759 29.3267 69.1652 29.0671C69.0489 28.9709 69.113 28.7562 69.1367 28.5959C69.6348 25.3684 70.1329 22.1408 70.6358 18.9133C70.7236 18.3588 71.5561 18.0287 71.8953 18.3972C71.9973 18.5094 71.9926 18.644 71.9736 18.7947C71.938 19.0575 71.9025 19.3235 71.8669 19.5863L71.8692 19.5831Z" fill="#E6E6E6"/>
<path d="M47.6195 18.0188C48.3691 18.0188 48.3714 18.0317 48.2078 19.0477C47.6954 22.2272 47.1854 25.4034 46.6897 28.5861C46.6185 29.0412 46.4643 29.2464 46.1275 29.2079C46.0658 29.2015 46.0042 29.2079 45.9425 29.2079C45.1479 29.2111 45.1597 29.2143 45.3234 28.1727C45.8073 25.115 46.2841 22.0541 46.7585 18.9932C46.9103 18.0188 46.9008 18.0156 47.6195 18.0156V18.0188Z" fill="#E6E6E6"/>
<path d="M48.1732 14.3945C48.8942 14.3945 48.9227 14.4426 48.7685 15.3753C48.7258 15.6381 48.6665 15.8977 48.6381 16.1638C48.5906 16.5932 48.408 16.7567 48.0996 16.7663C47.0133 16.8016 47.0678 16.699 47.305 15.5612C47.3216 15.4811 47.3264 15.3977 47.3382 15.3176C47.4299 14.7022 47.7082 14.3956 48.1732 14.3977V14.3945Z" fill="#E6E6E6"/>
<path d="M81.919 27.5703C82.2843 27.5927 82.4788 27.8716 82.4978 28.3139C82.5167 28.7722 82.308 29.0511 81.9712 29.0992C81.6438 29.1472 81.3236 28.7851 81.3426 28.3812C81.3663 27.9036 81.5798 27.6376 81.919 27.5703Z" fill="#E6E6E6"/>
</g>
</g>
<defs>
<clipPath id="clip0_1679_21272">
<rect width="81.6666" height="40" fill="white" transform="translate(0.666016)"/>
</clipPath>
<clipPath id="clip1_1679_21272">
<rect width="79.5" height="19.0352" fill="white" transform="translate(3 14)"/>
</clipPath>
</defs>
</svg>
