<svg width="82" height="80" viewBox="0 0 82 80" fill="none" xmlns="http://www.w3.org/2000/svg">
<g filter="url(#filter0_i_1679_7523)">
<path d="M53.0779 55.5511C50.1548 51.3995 47.3069 47.3558 44.3085 43.0925C45.0421 43.0501 45.4861 43.0039 45.9262 43.0039C49.7071 43.0001 53.488 43.0463 57.2688 42.9731C58.4275 42.95 59.1649 43.3467 59.8458 44.2671C64.2324 50.171 66.6477 56.8875 67.4415 64.1817C67.7688 67.1933 67.5242 70.2743 67.5054 73.3244C67.5054 73.8598 67.3173 74.3951 67.1631 75.2192C66.6777 74.6107 66.3768 74.2641 66.1097 73.8944C64.6462 71.8533 63.1489 69.8353 61.757 67.7441C61.1475 66.8313 60.6321 66.6118 59.6013 67.1163C56.1176 68.8224 52.4308 69.7197 48.5672 70.0432C29.4446 71.6492 12.8878 54.3303 14.9343 34.7854C15.0773 33.4106 15.4084 32.0549 15.54 30.6801C15.7695 28.2885 17.0449 26.7095 19.1102 25.8083C21.2809 24.8647 23.5156 24.0637 25.8105 23.1663C22.9174 22.9314 20.1674 23.3743 17.5452 24.495C12.1467 26.8057 9.20096 31.7353 9.27997 38.2207C9.33264 42.4031 10.45 46.3275 12.0902 50.1209C12.3122 50.637 12.5304 51.1569 12.805 51.8155C12.5567 51.7269 12.4025 51.7192 12.3498 51.6422C7.74505 44.9449 4.26138 37.7663 3.70835 29.4284C2.98604 18.4756 9.5546 10.9773 20.2915 10.4304C27.0745 10.0838 33.4437 11.8284 39.5495 14.6629C48.8343 18.9724 56.7008 25.2421 63.4499 33.0254C63.781 33.4067 64.1271 33.7687 64.7403 34.435C64.6462 33.6917 64.6425 33.3335 64.5484 33.0023C62.6486 26.0663 58.3222 21.518 51.6483 19.2728C51.1291 19.0995 50.6062 18.8414 50.1849 18.4948C45.249 14.4203 39.9671 10.9503 33.9553 8.76284C33.7898 8.70122 33.6468 8.57413 33.2481 8.31995C34.3692 7.84625 35.2796 7.40336 36.2276 7.07216C55.7866 0.220866 76.508 14.4049 77.8962 35.5249C78.2611 41.0475 77.3018 46.2582 75.1537 51.2994C74.8866 51.9272 74.8452 52.7937 75.0182 53.4599C76.2936 58.3356 76.8617 63.2073 75.4283 68.16C74.1492 72.585 71.4255 75.6313 67.2345 77.3104C67.1217 77.3567 66.9787 77.3143 66.689 77.3143C69.868 72.8315 70.7107 67.8442 69.6423 62.672C68.9124 59.1559 67.8929 55.5781 66.3053 52.3931C59.6954 39.1103 49.3346 30.0639 35.6595 24.9957C33.0148 24.0175 32.9321 24.0637 31.3144 26.3898C27.1874 32.3322 26.4237 38.7791 29.249 45.4071C32.1232 52.1467 37.3638 55.9478 44.5493 56.7951C47.6793 57.1648 50.8131 56.6988 53.0741 55.5588L53.0779 55.5511Z" fill="white"/>
</g>
<defs>
<filter id="filter0_i_1679_7523" x="0.8125" y="0" width="80.375" height="80" filterUnits="userSpaceOnUse" color-interpolation-filters="sRGB">
<feFlood flood-opacity="0" result="BackgroundImageFix"/>
<feBlend mode="normal" in="SourceGraphic" in2="BackgroundImageFix" result="shape"/>
<feColorMatrix in="SourceAlpha" type="matrix" values="0 0 0 0 0 0 0 0 0 0 0 0 0 0 0 0 0 0 127 0" result="hardAlpha"/>
<feMorphology radius="6" operator="erode" in="SourceAlpha" result="effect1_innerShadow_1679_7523"/>
<feOffset/>
<feGaussianBlur stdDeviation="7"/>
<feComposite in2="hardAlpha" operator="arithmetic" k2="-1" k3="1"/>
<feColorMatrix type="matrix" values="0 0 0 0 1 0 0 0 0 1 0 0 0 0 1 0 0 0 0.5 0"/>
<feBlend mode="normal" in2="shape" result="effect1_innerShadow_1679_7523"/>
</filter>
</defs>
</svg>
