<svg width="40" height="40" viewBox="0 0 40 40" fill="none" xmlns="http://www.w3.org/2000/svg">
<path d="M34.5549 22.078C34.4349 22.2083 34.3443 22.3634 34.2899 22.5327C34.2355 22.702 34.2183 22.8813 34.2397 23.058L35.0008 29.0506C35.0288 29.2658 34.9988 29.4846 34.9139 29.684C34.8291 29.8833 34.6927 30.0558 34.519 30.1833C34.3452 30.3107 34.1406 30.3884 33.9268 30.4081C33.7131 30.4278 33.4981 30.3888 33.3044 30.2952L28.5447 26.8653L28.4527 26.145L32.0781 22.2593C32.4564 21.8537 32.7198 21.3526 32.8406 20.8086C32.9614 20.2646 32.9351 19.6978 32.7646 19.1676C32.5941 18.6374 32.2856 18.1633 31.8715 17.7952C31.4573 17.427 30.9528 17.1783 30.4108 17.0752L25.2199 16.0952L23.7659 13.3757L25.2587 10.6563L26.354 8.62769C26.4572 8.43762 26.6091 8.2791 26.7937 8.16867C26.9783 8.05825 27.1888 8 27.4033 8C27.6178 8 27.8284 8.05825 28.013 8.16867C28.1976 8.2791 28.3494 8.43762 28.4527 8.62769L31.3219 13.9294C31.4059 14.0872 31.5242 14.2238 31.6677 14.329C31.8112 14.4342 31.9765 14.5053 32.151 14.537L38.0251 15.6591C38.236 15.6994 38.4326 15.7963 38.5938 15.9397C38.7549 16.083 38.875 16.2676 38.9414 16.474C39.0078 16.6804 39.0179 16.9011 38.971 17.1129C38.9241 17.3247 38.8218 17.5198 38.6747 17.6779L34.5549 22.078Z" fill="white"/>
<path d="M7.21898 19.1871C7.04707 19.7172 7.02042 20.2846 7.14159 20.8289C7.26276 21.3732 7.52743 21.8743 7.90742 22.2789L11.5278 26.1646L11.2952 28.0021L6.68105 30.305C6.48709 30.3981 6.27198 30.4368 6.05816 30.4169C5.84435 30.3971 5.63975 30.3194 5.46581 30.1922C5.29186 30.0649 5.1549 29.8927 5.0694 29.6936C4.98391 29.4945 4.95311 29.2758 4.97994 29.0605L5.74554 23.0678C5.76696 22.8907 5.74948 22.711 5.69418 22.5416C5.63888 22.3722 5.54728 22.2172 5.42581 22.0878L1.32546 17.6779C1.1783 17.5198 1.07585 17.3247 1.02892 17.1129C0.981996 16.9011 0.992338 16.6804 1.05874 16.474C1.12515 16.2676 1.2452 16.083 1.40639 15.9397C1.56758 15.7963 1.76389 15.6994 1.97485 15.6591L7.8492 14.537C8.02343 14.5047 8.18834 14.4333 8.33175 14.3281C8.47515 14.223 8.59341 14.0868 8.67798 13.9294L11.5425 8.62769C11.6464 8.43775 11.7987 8.27943 11.9836 8.16918C12.1686 8.05894 12.3795 8.00081 12.5942 8.00081C12.8089 8.00081 13.0196 8.05894 13.2046 8.16918C13.3895 8.27943 13.542 8.43775 13.6459 8.62769L14.7412 10.6563L16.1661 13.4982L14.7606 16.0952L9.56971 17.0752C9.02545 17.179 8.51927 17.4303 8.10526 17.8023C7.69126 18.1742 7.38492 18.6528 7.21898 19.1871Z" fill="white"/>
<path d="M26.7808 25.0915C26.6662 25.2159 26.5799 25.3642 26.528 25.5258C26.4761 25.6875 26.4598 25.8587 26.4802 26.0274L27.2072 31.7064C27.2279 31.868 27.2143 32.0322 27.1672 32.1881C27.1202 32.3439 27.0408 32.4879 26.9344 32.6103C26.8279 32.7327 26.6969 32.8308 26.55 32.898C26.4032 32.9652 26.244 33 26.0829 33C25.9149 33.0002 25.7492 32.9616 25.5982 32.8873L20.475 30.4373C20.3239 30.3632 20.1582 30.3246 19.9903 30.3246C19.8225 30.3258 19.6571 30.3643 19.5056 30.4373L14.3874 32.8873C14.2364 32.9616 14.0707 33.0002 13.9027 33C13.7415 33 13.5822 32.9652 13.4353 32.898C13.2885 32.8308 13.1576 32.7327 13.0512 32.6103C12.9448 32.4879 12.8654 32.3439 12.8184 32.1881C12.7713 32.0322 12.7577 31.868 12.7784 31.7064L13.5004 26.0274C13.5218 25.8586 13.506 25.6872 13.454 25.5253C13.4021 25.3635 13.3155 25.2153 13.2001 25.0915L9.32266 20.9314C9.18395 20.7811 9.08745 20.596 9.04341 20.3953C8.99936 20.1946 9.00923 19.9857 9.07204 19.7902C9.13486 19.5947 9.24847 19.4197 9.40076 19.2835C9.55305 19.1473 9.73861 19.0548 9.93821 19.0156L15.507 17.9572C15.6721 17.9256 15.8282 17.8574 15.964 17.7574C16.0998 17.6574 16.2119 17.5281 16.2923 17.379L19.0065 12.3565C19.104 12.1755 19.248 12.0244 19.4233 11.9192C19.5985 11.8139 19.7985 11.7583 20.0024 11.7583C20.2062 11.7583 20.4064 11.8139 20.5817 11.9192C20.757 12.0244 20.901 12.1755 20.9985 12.3565L23.7127 17.379C23.7931 17.5281 23.9052 17.6574 24.041 17.7574C24.1767 17.8574 24.3329 17.9256 24.4979 17.9572L30.062 19.0156C30.2626 19.0533 30.4493 19.145 30.6026 19.2811C30.7559 19.4171 30.8699 19.5924 30.9329 19.7885C30.996 19.9847 31.0056 20.1943 30.9606 20.3955C30.9157 20.5966 30.8179 20.7818 30.6776 20.9314L26.7808 25.0915Z" fill="white"/>
</svg>
