<svg width="40" height="40" viewBox="0 0 40 40" fill="none" xmlns="http://www.w3.org/2000/svg">
<path d="M36.0659 31.1046H32.6287V7.77717C32.6293 7.67535 32.6099 7.57435 32.5719 7.48009C32.5339 7.38584 32.478 7.30012 32.4072 7.2279C32.3365 7.15568 32.2525 7.09846 32.1598 7.05935C32.0671 7.02024 31.9676 7 31.8672 7H27.9536C27.8532 7 27.7539 7.02024 27.6612 7.05935C27.5685 7.09846 27.4843 7.15568 27.4135 7.2279C27.3428 7.30012 27.2869 7.38584 27.2489 7.48009C27.2109 7.57435 27.1917 7.67535 27.1923 7.77717V31.1046H22.8675V13.4064C22.8675 13.2011 22.7876 13.0042 22.645 12.8586C22.5023 12.713 22.3086 12.6306 22.1063 12.6294H18.1926C17.9903 12.6306 17.7966 12.713 17.654 12.8586C17.5114 13.0042 17.4314 13.2011 17.4314 13.4064V31.1046H13.3169V19.6423C13.3175 19.5405 13.2983 19.4395 13.2603 19.3452C13.2223 19.251 13.1662 19.1653 13.0954 19.093C13.0247 19.0208 12.9407 18.9635 12.848 18.9244C12.7554 18.8852 12.656 18.8651 12.5557 18.8651H8.64177C8.54141 18.8651 8.44209 18.8852 8.34942 18.9244C8.25676 18.9635 8.17275 19.0208 8.102 19.093C8.03124 19.1653 7.9751 19.251 7.93712 19.3452C7.89914 19.4395 7.87995 19.5405 7.88057 19.6423V31.1046H3.93406C3.68633 31.1046 3.44882 31.2044 3.27365 31.3821C3.09848 31.5599 3 31.801 3 32.0523C3 32.3036 3.09848 32.5447 3.27365 32.7225C3.44882 32.9002 3.68633 33 3.93406 33H36.0659C36.3137 33 36.5512 32.9002 36.7263 32.7225C36.9015 32.5447 37 32.3036 37 32.0523C37 31.801 36.9015 31.5599 36.7263 31.3821C36.5512 31.2044 36.3137 31.1046 36.0659 31.1046Z" fill="white"/>
</svg>
