<svg width="24" height="24" viewBox="0 0 24 24" fill="none" xmlns="http://www.w3.org/2000/svg">
<path d="M3.93679 2.66204C3.58531 2.31057 3.01547 2.31057 2.66399 2.66204C2.31252 3.01351 2.31252 3.58336 2.66399 3.93483L6.5276 7.79844H3.30039C2.80333 7.79844 2.40039 8.20138 2.40039 8.69844C2.40039 9.19549 2.80333 9.59844 3.30039 9.59844H8.70039C9.19745 9.59844 9.60039 9.19549 9.60039 8.69844V3.29844C9.60039 2.80138 9.19745 2.39844 8.70039 2.39844C8.20333 2.39844 7.80039 2.80138 7.80039 3.29844V6.52565L3.93679 2.66204Z" fill="white"/>
<path d="M16.2004 3.29844C16.2004 2.80138 15.7974 2.39844 15.3004 2.39844C14.8033 2.39844 14.4004 2.80138 14.4004 3.29844V8.69844C14.4004 9.19549 14.8033 9.59844 15.3004 9.59844H20.7004C21.1974 9.59844 21.6004 9.19549 21.6004 8.69844C21.6004 8.20138 21.1974 7.79844 20.7004 7.79844H17.4732L21.3368 3.93483C21.6883 3.58336 21.6883 3.01351 21.3368 2.66204C20.9853 2.31057 20.4155 2.31057 20.064 2.66204L16.2004 6.52565V3.29844Z" fill="white"/>
<path d="M3.93679 21.3348L7.80039 17.4712V20.6984C7.80039 21.1955 8.20333 21.5984 8.70039 21.5984C9.19745 21.5984 9.60039 21.1955 9.60039 20.6984V15.2984C9.60039 14.8014 9.19745 14.3984 8.70039 14.3984H3.30039C2.80333 14.3984 2.40039 14.8014 2.40039 15.2984C2.40039 15.7955 2.80333 16.1984 3.30039 16.1984H6.5276L2.66399 20.062C2.31252 20.4135 2.31252 20.9834 2.66399 21.3348C3.01547 21.6863 3.58531 21.6863 3.93679 21.3348Z" fill="white"/>
<path d="M16.2004 17.4712L20.064 21.3348C20.4155 21.6863 20.9853 21.6863 21.3368 21.3348C21.6883 20.9834 21.6883 20.4135 21.3368 20.062L17.4732 16.1984H20.7004C21.1974 16.1984 21.6004 15.7955 21.6004 15.2984C21.6004 14.8014 21.1974 14.3984 20.7004 14.3984H15.3004C14.8033 14.3984 14.4004 14.8014 14.4004 15.2984V20.6984C14.4004 21.1955 14.8033 21.5984 15.3004 21.5984C15.7974 21.5984 16.2004 21.1955 16.2004 20.6984V17.4712Z" fill="white"/>
</svg>
