<svg width="24" height="24" viewBox="0 0 24 24" fill="none" xmlns="http://www.w3.org/2000/svg">
<path d="M13.0308 3.91119C13.4887 3.91119 13.837 3.56282 13.837 3.10495C13.837 2.65704 13.4887 2.30866 13.0308 2.30866H5.7448L7.32742 3.91119H13.0308ZM15.8278 6.75792C16.2757 6.75792 16.634 6.39959 16.634 5.94172C16.634 5.49381 16.2757 5.15539 15.8278 5.15539H8.52185L10.1045 6.75792H15.8278ZM18.565 9.59469C19.0129 9.59469 19.3614 9.23636 19.3614 8.7785C19.3614 8.33059 19.0129 7.99217 18.565 7.99217H11.2989L12.8815 9.59469H18.565ZM21.3322 10.829H14.076C14.6732 11.4361 14.9419 11.8044 14.9817 12.4315H21.3322C21.78 12.4315 22.1384 12.0831 22.1384 11.6253C22.1384 11.1773 21.78 10.829 21.3322 10.829ZM12.125 20.6631L8.55171 12.3121L8.07394 13.1282L13.0308 13.4069C13.6977 13.4467 14.0162 12.73 13.5385 12.2423L3.6844 2.16931C3.24645 1.7214 2.5696 1.97024 2.5696 2.59732L2.40039 16.612C2.40039 17.2987 3.16682 17.5775 3.60478 17.0698L6.80983 13.5263L5.88415 13.2875L9.33804 21.8277C9.47739 22.1661 9.82577 22.3253 10.1343 22.186L11.8464 21.4793C12.1649 21.3598 12.2744 20.9916 12.125 20.6631Z" fill="white"/>
</svg>
