<svg width="24" height="24" viewBox="0 0 24 24" fill="none" xmlns="http://www.w3.org/2000/svg">
<g clip-path="url(#clip0_1679_14766)">
<path d="M4.44279 21.6443C5.11744 21.6443 5.65522 21.1066 5.65522 20.4319C5.65522 19.7572 5.10767 19.2195 4.44279 19.2195C3.76813 19.2195 3.23036 19.767 3.23036 20.4319C3.23036 21.1163 3.77791 21.6443 4.44279 21.6443ZM1.3726 14.2035C2.04726 14.2035 2.58503 13.6462 2.58503 12.9813C2.58503 12.2969 2.0277 11.7689 1.3726 11.7689C0.69794 11.7689 0.150391 12.3164 0.150391 12.9813C0.150391 13.656 0.707718 14.2035 1.3726 14.2035ZM4.44279 6.76271C5.11744 6.76271 5.65522 6.21516 5.65522 5.55028C5.65522 4.86584 5.10767 4.33785 4.44279 4.33785C3.76813 4.33785 3.23036 4.87562 3.23036 5.55028C3.23036 6.22494 3.77791 6.76271 4.44279 6.76271ZM11.9422 3.63386C12.6169 3.63386 13.1547 3.08631 13.1547 2.41165C13.1547 1.73699 12.6071 1.19922 11.9422 1.19922C11.2578 1.19922 10.7298 1.74677 10.7298 2.41165C10.7298 3.09609 11.2676 3.63386 11.9422 3.63386ZM19.432 6.74316C20.1066 6.74316 20.6444 6.19561 20.6444 5.53073C20.6444 4.84629 20.0968 4.31829 19.432 4.31829C18.7475 4.31829 18.2097 4.85607 18.2097 5.53073C18.2097 6.20539 18.7573 6.74316 19.432 6.74316ZM22.5119 14.2035C23.1866 14.2035 23.7341 13.6462 23.7341 12.9813C23.7341 12.2969 23.1768 11.7689 22.5119 11.7689C21.8275 11.7689 21.2897 12.3164 21.2897 12.9813C21.2897 13.656 21.847 14.2035 22.5119 14.2035ZM19.4222 21.6541C20.0968 21.6541 20.6346 21.1163 20.6346 20.4417C20.6346 19.767 20.087 19.2293 19.4222 19.2293C18.7377 19.2293 18.2 19.7768 18.2 20.4417C18.2 21.1261 18.7475 21.6541 19.4222 21.6541ZM11.9422 20.0994C15.8631 20.0994 19.0506 16.9218 19.0506 12.9813C19.0506 9.3049 16.2542 6.28361 12.6658 5.92184L12.656 13.128C12.656 13.5191 12.3138 13.8613 11.9422 13.8516C11.5121 13.8319 11.2089 13.5288 11.2089 13.1084V5.92184C7.6303 6.28361 4.82411 9.3049 4.82411 12.9813C4.82411 16.9315 8.02141 20.0994 11.9422 20.0994Z" fill="white"/>
</g>
<defs>
<clipPath id="clip0_1679_14766">
<rect width="23.5837" height="21.99" fill="white" transform="translate(0.150391 1.19922)"/>
</clipPath>
</defs>
</svg>
