<svg width="24" height="24" viewBox="0 0 24 24" fill="none" xmlns="http://www.w3.org/2000/svg">
<g clip-path="url(#clip0_1679_14775)">
<path d="M6.01117 22.5712C6.54293 22.5712 6.80315 22.2884 6.89366 21.8245L9.13382 10.4201L8.00243 11.3365H16.4427L15.3112 10.4201L17.5514 21.8245C17.6419 22.2884 17.9021 22.5712 18.4339 22.5712C19.1919 22.5712 19.4522 22.0508 19.3276 21.4398L17.2119 10.669C17.0762 9.9562 16.4765 9.43576 15.7864 9.43576H8.66995C7.9798 9.43576 7.38016 9.9562 7.24439 10.669L5.12869 21.4398C5.00423 22.0508 5.27577 22.5712 6.01117 22.5712ZM8.42104 10.3522H16.0353L13.2181 1.94594C13.0484 1.47075 12.7317 1.19922 12.2451 1.19922C11.736 1.19922 11.3853 1.47075 11.2269 1.94594L8.42104 10.3522Z" fill="white"/>
</g>
<defs>
<clipPath id="clip0_1679_14775">
<rect width="14.2578" height="21.372" fill="white" transform="translate(5.09961 1.19922)"/>
</clipPath>
</defs>
</svg>
