<svg width="24" height="24" viewBox="0 0 24 24" fill="none" xmlns="http://www.w3.org/2000/svg">
<g clip-path="url(#clip0_1679_14784)">
<path d="M2.67832 13.9603H8.7422C10.1619 13.9603 10.9891 13.1517 10.9891 11.7509V5.68701C10.9891 4.28621 10.1619 3.47769 8.7422 3.47769H2.67832C1.26812 3.47769 0.450195 4.27681 0.450195 5.68701V11.7509C0.450195 13.1611 1.26812 13.9603 2.67832 13.9603ZM14.9001 14.0825H21.0863C22.5529 14.0825 23.3896 13.2552 23.3896 11.8261V5.6212C23.3896 4.18279 22.5529 3.35547 21.0863 3.35547H14.9001C13.4429 3.35547 12.6062 4.18279 12.6062 5.6212V11.8261C12.6062 13.2552 13.4429 14.0825 14.9001 14.0825ZM14.919 12.597C14.3643 12.597 14.0916 12.3244 14.0916 11.7603V5.67761C14.0916 5.11353 14.3643 4.84089 14.919 4.84089H21.0674C21.641 4.84089 21.9042 5.11353 21.9042 5.67761V11.7603C21.9042 12.3244 21.641 12.597 21.0674 12.597H14.919ZM1.1647 17.4764C0.779244 17.4764 0.450195 17.8149 0.450195 18.2379C0.450195 18.6609 0.779244 18.99 1.1647 18.99H4.20135V17.4764H1.1647ZM5.83719 20.4942C7.07818 20.4942 8.09353 19.4789 8.09353 18.2379C8.09353 16.9875 7.07818 15.9722 5.83719 15.9722C4.59621 15.9722 3.58086 16.9875 3.58086 18.2379C3.58086 19.4789 4.59621 20.4942 5.83719 20.4942ZM5.83719 19.3378C5.21671 19.3378 4.73723 18.849 4.73723 18.2285C4.73723 17.608 5.21671 17.1285 5.83719 17.1285C6.44828 17.1285 6.93716 17.608 6.93716 18.2285C6.93716 18.849 6.44828 19.3378 5.83719 19.3378ZM7.33201 17.4764V18.99H22.6281C23.0512 18.99 23.3896 18.6609 23.3896 18.2379C23.3896 17.8149 23.0512 17.4764 22.6281 17.4764H7.33201Z" fill="white"/>
</g>
<defs>
<clipPath id="clip0_1679_14784">
<rect width="22.9394" height="17.496" fill="white" transform="translate(0.450195 3)"/>
</clipPath>
</defs>
</svg>
