<svg width="40" height="40" viewBox="0 0 40 40" fill="none" xmlns="http://www.w3.org/2000/svg">
<path d="M1.5 20.2088C1.5 27.2675 5.57303 33.4968 11.1389 36.5562C13.0741 37.6435 14.6775 35.0634 12.5396 33.8287C7.91365 31.2483 4.65154 26.1248 4.65154 20.2088C4.65154 11.5098 11.5812 4.54326 20.2802 4.54326C28.9793 4.54326 35.9642 11.5098 35.9642 20.2088C35.9642 21.3146 36.8119 21.8491 37.623 21.8491C38.3785 21.8491 39.0972 21.2962 39.0972 20.2088C39.0972 9.92483 30.5642 1.41016 20.2802 1.41016C10.0147 1.41016 1.5 9.92483 1.5 20.2088ZM8.94574 20.2088C8.94574 24.3187 11.1942 27.7651 13.885 29.4976C15.7464 30.7507 17.3498 28.2627 15.7833 27.1938C13.498 25.701 11.9867 23.1392 11.9867 20.2088C11.9867 15.5644 15.6727 11.8784 20.2802 11.8784C24.8877 11.8784 28.4447 15.546 28.6106 20.2088C28.6474 21.0566 29.2925 21.72 30.1402 21.72C30.9881 21.72 31.6516 21.0566 31.6516 20.2088C31.6516 13.9794 26.5095 8.83746 20.2802 8.83746C14.0877 8.83746 8.94574 13.9794 8.94574 20.2088ZM19.5799 33.5522C19.5615 34.2709 20.4092 34.5106 20.87 34.0498L23.6898 31.2299L26.8413 39.0074C26.9887 39.3576 27.3573 39.5235 27.689 39.3944L29.5137 38.6573C29.8453 38.5098 29.9745 38.1227 29.8085 37.7727L26.5095 30.1058L30.4721 29.9583C31.1724 29.9215 31.5041 29.2395 31.0065 28.7235L20.9437 18.3657C20.4645 17.8865 19.7642 18.163 19.7458 18.8449L19.5799 33.5522Z" fill="white"/>
</svg>
