<svg width="117" height="40" viewBox="0 0 117 40" fill="none" xmlns="http://www.w3.org/2000/svg">
<g clip-path="url(#clip0_1679_21267)">
<path d="M89.5898 19.8299H99.4478V30.6172C98.408 30.7628 97.3663 30.9529 96.3138 31.0463C93.6927 31.28 91.0736 31.3006 88.4949 30.732C85.8807 30.1557 83.6122 29.0887 82.0161 27.1268C80.6908 25.4972 80.1916 23.6509 80.1837 21.6813C80.1729 19.2108 80.9153 16.9792 82.9229 15.1535C84.6184 13.6112 86.76 12.7883 89.1152 12.3764C92.3733 11.806 95.6344 11.9097 98.8777 12.5134C99.0372 12.5433 99.1938 12.5853 99.3661 12.6247V16.1657C98.2485 15.9867 97.1635 15.7709 96.0637 15.645C93.7715 15.3838 91.4891 15.3179 89.2974 16.1502C86.3937 17.2532 84.9463 19.7195 85.3599 22.512C85.8118 25.57 88.4988 27.4025 91.879 27.6774C92.6244 27.7382 93.3825 27.6808 94.1348 27.6843C94.4518 27.6851 94.5562 27.5541 94.5533 27.2852C94.5424 26.0016 94.5414 24.7171 94.5542 23.4325C94.5572 23.1491 94.44 23.0626 94.1249 23.0677C93.2063 23.0806 92.2876 23.0635 91.369 23.0763C91.0579 23.0806 90.9092 22.9907 90.8038 22.7261C90.4208 21.7601 90.0023 20.8053 89.5908 19.8291L89.5898 19.8299Z" fill="#E6E6E6"/>
<path d="M58.4219 30.8065C58.6414 30.2722 58.8502 29.7524 59.0678 29.2351C61.3846 23.7443 63.7063 18.256 66.0094 12.7609C66.1472 12.4312 66.3225 12.3404 66.7094 12.3438C68.6934 12.3618 70.6774 12.3584 72.6614 12.3438C72.9913 12.3413 73.1547 12.4209 73.2709 12.6958C75.7728 18.6122 78.2846 24.5244 80.7934 30.4383C80.8436 30.5556 80.884 30.6763 80.947 30.845C79.9023 30.845 78.9059 30.845 77.9095 30.845C77.2695 30.845 76.6295 30.8245 75.9914 30.8527C75.6409 30.8682 75.509 30.7431 75.4056 30.4768C74.928 29.2497 74.4151 28.0328 73.9503 26.8031C73.8391 26.5094 73.6746 26.4452 73.3536 26.4469C70.8291 26.4572 68.3045 26.4623 65.7799 26.4469C65.4137 26.4443 65.266 26.5539 65.1577 26.8374C64.686 28.0654 64.1888 29.2865 63.7103 30.5128C63.6295 30.7183 63.5468 30.8545 63.2445 30.8519C61.7194 30.8382 60.1942 30.845 58.669 30.8425C58.606 30.8425 58.542 30.8245 58.4219 30.8065ZM69.6357 16.0475C69.5855 16.0441 69.5363 16.0407 69.486 16.0372C68.5438 18.369 67.6025 20.7009 66.6435 23.0729H72.4724C71.5153 20.7034 70.575 18.3759 69.6347 16.0484L69.6357 16.0475Z" fill="#E6E6E6"/>
<path d="M116 27.5314V30.8155H102.209V12.3828H115.79V15.6378H107.195V19.7841H115.168V23.0622H107.193V27.5306H116V27.5314Z" fill="#E6E6E6"/>
<path d="M20.8631 12.3507C20.3255 13.6977 19.8194 14.9736 19.3084 16.2479C17.415 20.9654 15.5137 25.6813 13.635 30.404C13.4982 30.7491 13.3239 30.8587 12.9123 30.8536C11.1735 30.8339 9.43463 30.8416 7.69481 30.8485C7.42797 30.8493 7.25567 30.8219 7.15031 30.5556C4.8079 24.5869 2.4517 18.6216 0.098462 12.6564C0.0669542 12.5768 0.0423387 12.4954 0 12.3738C0.184124 12.3652 0.337725 12.3515 0.49231 12.3515C1.90327 12.3498 3.31423 12.3644 4.72421 12.3438C5.12889 12.3378 5.31301 12.4303 5.44003 12.7883C7.00163 17.1958 8.58589 21.5966 10.1662 25.9999C10.2125 26.1275 10.2696 26.2525 10.372 26.5008C10.6506 25.7815 10.886 25.1803 11.1173 24.5775C12.6218 20.664 14.1323 16.7514 15.62 12.8328C15.7618 12.4603 15.939 12.3301 16.4028 12.3404C17.861 12.3721 19.3202 12.3524 20.8641 12.3524L20.8631 12.3507Z" fill="#E6E6E6"/>
<path d="M30.6965 26.8117C32.6017 27.484 34.5188 27.7563 36.4811 27.74C37.2442 27.7332 38.0211 27.639 38.7635 27.4814C39.6231 27.299 40.2729 26.8486 40.4108 26.0179C40.5506 25.1701 40.0612 24.599 39.2765 24.1836C38.9555 24.0141 38.6197 23.8565 38.2722 23.7366C36.9478 23.281 35.6068 22.8606 34.2884 22.3939C33.2043 22.0102 32.2148 21.4862 31.3749 20.76C29.0975 18.7904 29.1772 14.3623 33.4239 12.7823C34.7866 12.2737 36.2202 12.0082 37.6824 12.0373C39.497 12.0741 41.3077 12.2497 43.1194 12.3704C43.2474 12.379 43.3725 12.4278 43.5202 12.4629V16.0013C42.7482 15.8763 41.9901 15.729 41.224 15.6348C39.7255 15.4507 38.22 15.3736 36.7263 15.6716C35.6856 15.8789 35.084 16.3473 35.0131 16.9981C34.9225 17.8296 35.5487 18.268 36.2921 18.5481C37.6578 19.0627 39.051 19.5209 40.4432 19.9799C41.8227 20.4354 43.1037 21.0058 44.0932 21.9991C46.1009 24.0115 46.2889 28.3994 42.1545 30.2345C40.8144 30.8297 39.3848 31.1097 37.898 31.1696C35.659 31.2596 33.4475 31.0455 31.2538 30.6576C30.8402 30.5848 30.665 30.4572 30.6817 30.0504C30.7241 28.9963 30.6955 27.9395 30.6955 26.8126L30.6965 26.8117Z" fill="#E6E6E6"/>
<path d="M61.5982 15.6561H55.8097V30.8167H50.796V15.6698C50.5646 15.6604 50.3893 15.6467 50.215 15.6467C48.6564 15.645 47.0977 15.639 45.5391 15.651C45.2004 15.6535 45.0783 15.5671 45.0842 15.2631C45.1029 14.3099 45.0911 13.3568 45.0911 12.3789H61.5982V15.6561Z" fill="#E6E6E6"/>
<path d="M27.1589 30.8292H22.1855V12.3828H27.1589V30.8292Z" fill="#E6E6E6"/>
</g>
<defs>
<clipPath id="clip0_1679_21267">
<rect width="116.667" height="40" fill="white" transform="translate(0.166016)"/>
</clipPath>
</defs>
</svg>
