<svg width="24" height="24" viewBox="0 0 24 24" fill="none" xmlns="http://www.w3.org/2000/svg">
<path d="M15.6292 11.0992C16.1935 11.0992 16.6217 10.5798 16.3939 10.0636C15.6497 8.37666 13.9624 7.19922 12.0002 7.19922C11.8247 7.19922 11.6514 7.20864 11.4808 7.22699C10.9193 7.2874 10.6832 7.91807 10.9655 8.40713L12.26 10.6492C12.4208 10.9277 12.7179 11.0992 13.0394 11.0992L15.6292 11.0992Z" fill="white"/>
<path d="M9.40757 9.30864C9.12513 8.81944 8.46052 8.70855 8.12652 9.16412C7.54412 9.95852 7.2002 10.9387 7.2002 11.9992C7.2002 13.0598 7.54414 14.04 8.12658 14.8344C8.46057 15.2899 9.12518 15.1791 9.40762 14.6899L10.7012 12.4493C10.862 12.1708 10.862 11.8278 10.7012 11.5493L9.40757 9.30864Z" fill="white"/>
<path d="M10.9656 15.5913C10.6833 16.0804 10.9194 16.7111 11.4809 16.7715C11.6515 16.7898 11.8247 16.7992 12.0002 16.7992C13.9624 16.7992 15.6497 15.6218 16.3939 13.9349C16.6217 13.4186 16.1935 12.8992 15.6292 12.8992H13.0395C12.718 12.8992 12.4209 13.0707 12.2601 13.3492L10.9656 15.5913Z" fill="white"/>
<path fill-rule="evenodd" clip-rule="evenodd" d="M16.9556 5.21591L17.7295 3.87555C17.978 3.44509 17.8305 2.89466 17.4001 2.64613C16.9696 2.3976 16.4192 2.54509 16.1706 2.97555L15.3975 4.3146C14.62 3.97034 13.7804 3.74063 12.9002 3.64687V2.09922C12.9002 1.60216 12.4973 1.19922 12.0002 1.19922C11.5031 1.19922 11.1002 1.60216 11.1002 2.09922V3.64687C10.22 3.74063 9.38039 3.97034 8.60283 4.31461L7.82974 2.97558C7.58122 2.54511 7.03079 2.39763 6.60032 2.64616C6.16986 2.89468 6.02237 3.44511 6.2709 3.87558L7.04474 5.21592C6.3456 5.72754 5.72851 6.34463 5.21689 7.04377L3.8763 6.26978C3.44583 6.02125 2.8954 6.16874 2.64688 6.5992C2.39835 7.02967 2.54583 7.5801 2.9763 7.82863L4.31558 8.60186C3.97132 9.37942 3.7416 10.219 3.64784 11.0992H2.1002C1.60314 11.0992 1.2002 11.5022 1.2002 11.9992C1.2002 12.4963 1.60314 12.8992 2.1002 12.8992H3.64784C3.7416 13.7794 3.97131 14.619 4.31557 15.3966L2.9763 16.1698C2.54583 16.4183 2.39835 16.9687 2.64688 17.3992C2.8954 17.8297 3.44583 17.9772 3.8763 17.7286L5.21688 16.9546C5.72845 17.6537 6.34549 18.2708 7.04457 18.7824L6.27065 20.1229C6.02212 20.5533 6.16961 21.1038 6.60007 21.3523C7.03053 21.6008 7.58096 21.4533 7.82949 21.0229L8.60263 19.6837C9.38025 20.0281 10.2199 20.2578 11.1002 20.3516V21.8992C11.1002 22.3963 11.5031 22.7992 12.0002 22.7992C12.4973 22.7992 12.9002 22.3963 12.9002 21.8992V20.3516C13.7805 20.2578 14.6201 20.0281 15.3977 19.6838L16.1709 21.0229C16.4194 21.4534 16.9699 21.6008 17.4003 21.3523C17.8308 21.1038 17.9783 20.5534 17.7297 20.1229L16.9558 18.7824C17.6549 18.2708 18.2719 17.6538 18.7835 16.9547L20.1239 17.7286C20.5544 17.9772 21.1048 17.8297 21.3533 17.3992C21.6019 16.9687 21.4544 16.4183 21.0239 16.1698L19.6848 15.3966C20.0291 14.6191 20.2588 13.7795 20.3525 12.8992H21.9002C22.3973 12.8992 22.8002 12.4963 22.8002 11.9992C22.8002 11.5022 22.3973 11.0992 21.9002 11.0992H20.3525C20.2588 10.219 20.0291 9.37936 19.6848 8.60177L21.0239 7.82863C21.4544 7.5801 21.6019 7.02967 21.3533 6.5992C21.1048 6.16874 20.5544 6.02125 20.1239 6.26978L18.7834 7.04369C18.2718 6.34458 17.6548 5.72751 16.9556 5.21591ZM12.0002 5.39922C10.8136 5.39922 9.7002 5.71234 8.73803 6.26046C8.72571 6.26839 8.71314 6.27606 8.70032 6.28346C8.68793 6.29062 8.67544 6.29744 8.66286 6.30394C7.68821 6.8763 6.8735 7.6917 6.30198 8.6669C6.29629 8.67774 6.29036 8.68851 6.28418 8.6992C6.27776 8.71033 6.27113 8.72127 6.26431 8.73201C5.71441 9.69534 5.4002 10.8106 5.4002 11.9992C5.4002 13.1877 5.71434 14.3029 6.26414 15.2661C6.27102 15.277 6.2777 15.288 6.28418 15.2992C6.29041 15.31 6.2964 15.3209 6.30213 15.3318C6.87403 16.3075 7.68938 17.1233 8.66479 17.6956C8.67663 17.7018 8.6884 17.7082 8.70007 17.715C8.7122 17.722 8.7241 17.7292 8.73577 17.7367C9.69846 18.2856 10.8127 18.5992 12.0002 18.5992C13.1879 18.5992 14.3022 18.2855 15.265 17.7365C15.2766 17.7291 15.2883 17.7219 15.3003 17.715C15.3119 17.7083 15.3235 17.702 15.3352 17.6959C16.3098 17.1241 17.1246 16.3093 17.6965 15.3348C17.7027 15.3229 17.7092 15.311 17.716 15.2992C17.7231 15.287 17.7304 15.275 17.7379 15.2632C18.2867 14.3006 18.6002 13.1865 18.6002 11.9992C18.6002 10.8118 18.2866 9.69757 17.7377 8.7349C17.7303 8.72323 17.723 8.71133 17.716 8.6992C17.7093 8.68752 17.7028 8.67575 17.6967 8.6639C17.1251 7.68991 16.311 6.8755 15.3371 6.30372C15.3247 6.29728 15.3123 6.29052 15.3001 6.28344C15.2874 6.27611 15.2749 6.26851 15.2627 6.26067C14.3005 5.71242 13.1869 5.39922 12.0002 5.39922Z" fill="white"/>
</svg>
