<svg width="24" height="24" viewBox="0 0 24 24" fill="none" xmlns="http://www.w3.org/2000/svg">
<path d="M2.75851 13.216C3.3411 13.216 3.80315 12.7539 3.80315 12.1813C3.80315 11.5987 3.3411 11.1367 2.75851 11.1367C2.17592 11.1367 1.71387 11.5987 1.71387 12.1813C1.71387 12.7539 2.17592 13.216 2.75851 13.216ZM5.12905 6.17466C5.71163 6.17466 6.17369 5.70256 6.17369 5.13003C6.17369 4.54744 5.71163 4.08538 5.12905 4.08538C4.5565 4.08538 4.0844 4.54744 4.0844 5.13003C4.0844 5.70256 4.5565 6.17466 5.12905 6.17466ZM12.1905 3.80413C12.763 3.80413 13.225 3.34208 13.225 2.75949C13.225 2.18694 12.763 1.71484 12.1905 1.71484C11.6079 1.71484 11.1458 2.18694 11.1458 2.75949C11.1458 3.34208 11.6079 3.80413 12.1905 3.80413ZM19.2418 6.17466C19.8244 6.17466 20.2864 5.70256 20.2864 5.13003C20.2864 4.54744 19.8244 4.08538 19.2418 4.08538C18.6592 4.08538 18.1972 4.54744 18.1972 5.13003C18.1972 5.70256 18.6592 6.17466 19.2418 6.17466ZM21.6224 13.216C22.1949 13.216 22.657 12.7539 22.657 12.1813C22.657 11.5987 22.1949 11.1367 21.6224 11.1367C21.0398 11.1367 20.5777 11.5987 20.5777 12.1813C20.5777 12.7539 21.0398 13.216 21.6224 13.216ZM19.9048 20.6088C20.3467 20.6088 20.7284 20.2472 20.7284 19.8053C20.7284 19.3532 20.3467 18.9816 19.9048 18.9816H18.6793V12.322C18.6793 8.6557 15.8467 5.8231 12.1905 5.8231C8.52413 5.8231 5.71163 8.6557 5.71163 12.322V18.9816H4.4661C4.02413 18.9816 3.67258 19.3532 3.67258 19.8053C3.67258 20.2472 4.02413 20.6088 4.4661 20.6088H19.9048ZM13.0342 12.3522V18.9816H11.3567V12.3522C11.3567 11.8901 11.7284 11.5084 12.1905 11.5084C12.6525 11.5084 13.0342 11.8901 13.0342 12.3522Z" fill="white"/>
</svg>
