<svg width="24" height="24" viewBox="0 0 24 24" fill="none" xmlns="http://www.w3.org/2000/svg">
<path fill-rule="evenodd" clip-rule="evenodd" d="M7.53679 6.26219C7.88826 6.61366 7.88826 7.18351 7.53679 7.53498L3.07318 11.9986L7.53679 16.4622C7.88826 16.8137 7.88826 17.3835 7.53679 17.735C7.18532 18.0865 6.61547 18.0865 6.26399 17.735L1.16399 12.635C0.812523 12.2835 0.812523 11.7137 1.16399 11.3622L6.26399 6.26219C6.61547 5.91072 7.18532 5.91072 7.53679 6.26219ZM16.464 6.26219C16.8155 5.91072 17.3853 5.91072 17.7368 6.26219L22.8368 11.3622C23.1883 11.7137 23.1883 12.2835 22.8368 12.635L17.7368 17.735C17.3853 18.0865 16.8155 18.0865 16.464 17.735C16.1125 17.3835 16.1125 16.8137 16.464 16.4622L20.9276 11.9986L16.464 7.53498C16.1125 7.18351 16.1125 6.61366 16.464 6.26219Z" fill="white"/>
<path fill-rule="evenodd" clip-rule="evenodd" d="M13.6533 2.41167C14.1431 2.49612 14.4718 2.96167 14.3873 3.4515L11.3873 20.8515C11.3029 21.3413 10.8373 21.67 10.3475 21.5855C9.85765 21.501 9.52902 21.0355 9.61348 20.5457L12.6135 3.14567C12.6979 2.65584 13.1635 2.32722 13.6533 2.41167Z" fill="white"/>
</svg>
