<svg width="241" height="126" viewBox="0 0 241 126" fill="none" xmlns="http://www.w3.org/2000/svg">
<rect width="241" height="125.415" rx="57.1259" fill="#F3F3F7" fill-opacity="0.2"/>
<rect x="0.892593" y="0.892593" width="239.215" height="123.63" rx="56.2333" stroke="#F3F3F7" stroke-opacity="0.2" stroke-width="1.78519"/>
<rect x="8.92578" y="8.92578" width="223.148" height="107.563" rx="42.8444" fill="white"/>
<path d="M31.4417 50.207V35.6616H40.5113V37.5508H33.6363V41.5281H36.8892C37.9687 41.5281 38.8849 41.7032 39.6378 42.0536C40.3953 42.404 40.973 42.8988 41.3707 43.538C41.7732 44.1772 41.9744 44.93 41.9744 45.7965C41.9744 46.663 41.7732 47.4277 41.3707 48.0906C40.973 48.7534 40.3953 49.2719 39.6378 49.646C38.8849 50.02 37.9687 50.207 36.8892 50.207H31.4417ZM33.6363 48.3604H36.8892C37.5142 48.3604 38.0421 48.2373 38.473 47.9911C38.9086 47.7449 39.2377 47.4253 39.4602 47.0323C39.6875 46.6393 39.8011 46.2179 39.8011 45.7681C39.8011 45.1147 39.5502 44.5536 39.0483 44.0849C38.5464 43.6114 37.8267 43.3746 36.8892 43.3746H33.6363V48.3604ZM48.2411 50.4272C47.1663 50.4272 46.2406 50.1976 45.4641 49.7383C44.6923 49.2743 44.0957 48.6232 43.6743 47.7852C43.2577 46.9424 43.0493 45.9551 43.0493 44.8235C43.0493 43.7061 43.2577 42.7212 43.6743 41.869C44.0957 41.0167 44.6829 40.3514 45.4357 39.8732C46.1933 39.395 47.0787 39.1559 48.092 39.1559C48.7075 39.1559 49.3041 39.2577 49.8817 39.4613C50.4594 39.6649 50.9778 39.9845 51.4371 40.4201C51.8964 40.8557 52.2586 41.4215 52.5238 42.1175C52.7889 42.8088 52.9215 43.6493 52.9215 44.6388V45.3917H44.2496V43.8008H50.8405C50.8405 43.2421 50.7269 42.7473 50.4996 42.3164C50.2724 41.8808 49.9527 41.5375 49.5408 41.2866C49.1336 41.0356 48.6554 40.9102 48.1062 40.9102C47.5096 40.9102 46.9887 41.0569 46.5437 41.3505C46.1033 41.6393 45.7624 42.0181 45.5209 42.4869C45.2842 42.9509 45.1658 43.4551 45.1658 43.9996V45.2425C45.1658 45.9717 45.2937 46.592 45.5493 47.1033C45.8098 47.6147 46.172 48.0053 46.636 48.2752C47.1 48.5404 47.6421 48.6729 48.2624 48.6729C48.6649 48.6729 49.0318 48.6161 49.3633 48.5025C49.6947 48.3841 49.9812 48.2089 50.2226 47.9769C50.4641 47.7449 50.6488 47.4585 50.7766 47.1175L52.7866 47.4798C52.6256 48.0716 52.3367 48.5901 51.9201 49.0352C51.5081 49.4755 50.9897 49.8188 50.3647 50.065C49.7444 50.3065 49.0366 50.4272 48.2411 50.4272ZM59.016 50.4272C57.9601 50.4272 57.051 50.1881 56.2887 49.7099C55.5311 49.2269 54.9487 48.5617 54.5415 47.7141C54.1343 46.8666 53.9307 45.896 53.9307 44.8022C53.9307 43.6942 54.1391 42.7165 54.5557 41.869C54.9724 41.0167 55.5595 40.3514 56.3171 39.8732C57.0747 39.395 57.9672 39.1559 58.9947 39.1559C59.8232 39.1559 60.5619 39.3098 61.2106 39.6175C61.8592 39.9206 62.3824 40.3467 62.7802 40.896C63.1826 41.4452 63.4217 42.0868 63.4975 42.8207H61.4307C61.3171 42.3093 61.0567 41.869 60.6495 41.4996C60.247 41.1303 59.7072 40.9457 59.0302 40.9457C58.4383 40.9457 57.9198 41.1019 57.4748 41.4144C57.0344 41.7222 56.6911 42.1625 56.4449 42.7354C56.1987 43.3036 56.0756 43.976 56.0756 44.7525C56.0756 45.5479 56.1964 46.2345 56.4378 46.8121C56.6793 47.3898 57.0202 47.8372 57.4606 48.1545C57.9056 48.4717 58.4288 48.6303 59.0302 48.6303C59.4326 48.6303 59.7972 48.5569 60.1239 48.4102C60.4554 48.2586 60.7323 48.0432 60.9549 47.7638C61.1822 47.4845 61.3408 47.1483 61.4307 46.7553H63.4975C63.4217 47.4608 63.1921 48.0906 62.8086 48.6445C62.425 49.1985 61.9113 49.6341 61.2674 49.9513C60.6282 50.2686 59.8777 50.4272 59.016 50.4272ZM64.9116 50.207V39.2979H73.8107V50.207H71.7297V41.1303H66.9783V50.207H64.9116ZM74.9336 50.207L74.9265 48.3675H75.3171C75.6201 48.3675 75.8734 48.3036 76.077 48.1758C76.2854 48.0432 76.4558 47.8207 76.5884 47.5082C76.721 47.1957 76.8228 46.7648 76.8938 46.2156C76.9648 45.6616 77.0169 44.9656 77.05 44.1275L77.2418 39.2979H84.8554V50.207H82.7745V41.1303H79.2091L79.0387 44.8377C78.9961 45.7373 78.9037 46.5233 78.7617 47.1957C78.6244 47.868 78.4232 48.4291 78.158 48.8789C77.8929 49.324 77.5519 49.6578 77.1353 49.8803C76.7186 50.0981 76.212 50.207 75.6154 50.207H74.9336ZM90.0053 50.4485C89.314 50.4485 88.689 50.3207 88.1303 50.065C87.5716 49.8046 87.1289 49.4281 86.8022 48.9357C86.4802 48.4433 86.3192 47.8396 86.3192 47.1246C86.3192 46.5091 86.4376 46.0025 86.6743 45.6048C86.9111 45.207 87.2307 44.8922 87.6331 44.6602C88.0356 44.4281 88.4854 44.253 88.9826 44.1346C89.4797 44.0162 89.9864 43.9263 90.5025 43.8647C91.1559 43.7889 91.6862 43.7274 92.0934 43.68C92.5006 43.628 92.7965 43.5451 92.9812 43.4315C93.1658 43.3178 93.2581 43.1332 93.2581 42.8775V42.8278C93.2581 42.2075 93.083 41.7269 92.7326 41.386C92.3869 41.0451 91.8708 40.8746 91.1843 40.8746C90.4693 40.8746 89.9059 41.0333 89.4939 41.3505C89.0867 41.663 88.805 42.011 88.6488 42.3945L86.653 41.94C86.8898 41.2771 87.2354 40.7421 87.69 40.3349C88.1492 39.9229 88.6772 39.6246 89.2738 39.44C89.8704 39.2506 90.4977 39.1559 91.1559 39.1559C91.5915 39.1559 92.0531 39.208 92.5408 39.3121C93.0332 39.4116 93.4925 39.5962 93.9187 39.8661C94.3495 40.136 94.7023 40.5219 94.9769 41.0238C95.2515 41.521 95.3888 42.1673 95.3888 42.9627V50.207H93.315V48.7156H93.2297C93.0924 48.9902 92.8865 49.2601 92.6118 49.5252C92.3372 49.7904 91.9845 50.0105 91.5536 50.1857C91.1227 50.3609 90.6066 50.4485 90.0053 50.4485ZM90.467 48.744C91.0541 48.744 91.556 48.628 91.9726 48.396C92.394 48.1639 92.7136 47.8609 92.9314 47.4869C93.154 47.1081 93.2653 46.7032 93.2653 46.2724V44.8661C93.1895 44.9419 93.0427 45.0129 92.8249 45.0792C92.6118 45.1407 92.368 45.1952 92.0934 45.2425C91.8188 45.2852 91.5512 45.3254 91.2908 45.3633C91.0304 45.3964 90.8126 45.4248 90.6374 45.4485C90.2255 45.5006 89.8491 45.5882 89.5081 45.7113C89.172 45.8344 88.9021 46.012 88.6985 46.244C88.4996 46.4712 88.4002 46.7743 88.4002 47.1531C88.4002 47.6786 88.5943 48.0763 88.9826 48.3462C89.3708 48.6114 89.8656 48.744 90.467 48.744ZM96.0074 41.1303V39.2979H105.212V41.1303H101.654V50.207H99.5799V41.1303H96.0074ZM113.995 43.8363V45.6758H108.086V43.8363H113.995ZM108.682 39.2979V50.207H106.601V39.2979H108.682ZM115.479 39.2979V50.207H113.405V39.2979H115.479ZM119.061 43.0479H122.229C123.564 43.0479 124.591 43.3794 125.311 44.0423C126.031 44.7051 126.391 45.5598 126.391 46.6062C126.391 47.288 126.23 47.9012 125.908 48.4457C125.586 48.9902 125.115 49.421 124.494 49.7383C123.874 50.0508 123.119 50.207 122.229 50.207H117.463V39.2979H119.544V48.3746H122.229C122.839 48.3746 123.341 48.216 123.734 47.8988C124.127 47.5768 124.324 47.1673 124.324 46.6701C124.324 46.1445 124.127 45.716 123.734 45.3846C123.341 45.0484 122.839 44.8803 122.229 44.8803H119.061V43.0479ZM127.939 50.207V39.2979H130.062V50.207H127.939ZM134.136 47.2312L138.945 39.2979H141.232V50.207H139.151V42.2667L134.364 50.207H132.055V39.2979H134.136V47.2312ZM138.035 35.6048H139.783C139.783 36.4049 139.499 37.056 138.93 37.5579C138.367 38.055 137.605 38.3036 136.643 38.3036C135.687 38.3036 134.927 38.055 134.364 37.5579C133.8 37.056 133.518 36.4049 133.518 35.6048H135.259C135.259 35.9599 135.363 36.2747 135.571 36.5494C135.779 36.8192 136.137 36.9542 136.643 36.9542C137.141 36.9542 137.496 36.8192 137.709 36.5494C137.927 36.2795 138.035 35.9646 138.035 35.6048ZM146.6 53.3533V48.3675H147.488C147.716 48.1592 147.907 47.9106 148.064 47.6218C148.225 47.333 148.359 46.9897 148.468 46.592C148.582 46.1942 148.677 45.7302 148.752 45.1999C148.828 44.6649 148.895 44.0541 148.951 43.3675L149.292 39.2979H156.707V48.3675H158.383V53.3533H156.309V50.207H148.703V53.3533H146.6ZM149.761 48.3675H154.633V41.1161H151.196L150.968 43.3675C150.859 44.5134 150.722 45.5077 150.556 46.3505C150.391 47.1886 150.126 47.8609 149.761 48.3675ZM161.683 47.2312L166.491 39.2979H168.778V50.207H166.697V42.2667L161.91 50.207H159.602V39.2979H161.683V47.2312ZM170.13 47.3235H172.303C172.332 47.7686 172.533 48.1119 172.907 48.3533C173.286 48.5948 173.776 48.7156 174.377 48.7156C174.988 48.7156 175.509 48.5853 175.94 48.3249C176.37 48.0598 176.586 47.6502 176.586 47.0962C176.586 46.7648 176.503 46.476 176.337 46.2298C176.176 45.9788 175.947 45.7847 175.648 45.6474C175.355 45.5101 175.007 45.4414 174.604 45.4414H172.829V43.7724H174.604C175.206 43.7724 175.656 43.6351 175.954 43.3604C176.252 43.0858 176.401 42.7425 176.401 42.3306C176.401 41.8855 176.24 41.5281 175.918 41.2582C175.601 40.9835 175.158 40.8462 174.59 40.8462C174.013 40.8462 173.532 40.9764 173.148 41.2369C172.765 41.4925 172.564 41.824 172.545 42.2312H170.4C170.414 41.6204 170.599 41.0853 170.954 40.6261C171.314 40.1621 171.797 39.8022 172.403 39.5465C173.013 39.2861 173.707 39.1559 174.484 39.1559C175.293 39.1559 175.994 39.2861 176.586 39.5465C177.178 39.8069 177.635 40.1668 177.957 40.6261C178.283 41.0853 178.447 41.6133 178.447 42.2099C178.447 42.8112 178.267 43.3036 177.907 43.6871C177.552 44.0659 177.088 44.3382 176.515 44.5039V44.6175C176.936 44.646 177.31 44.7738 177.637 45.0011C177.964 45.2283 178.219 45.529 178.404 45.9031C178.589 46.2771 178.681 46.7009 178.681 47.1744C178.681 47.842 178.496 48.4196 178.127 48.9073C177.763 49.395 177.256 49.7714 176.607 50.0366C175.963 50.297 175.227 50.4272 174.398 50.4272C173.593 50.4272 172.871 50.3017 172.232 50.0508C171.598 49.7951 171.093 49.4353 170.719 48.9712C170.35 48.5072 170.154 47.958 170.13 47.3235ZM183.192 50.4485C182.5 50.4485 181.875 50.3207 181.317 50.065C180.758 49.8046 180.315 49.4281 179.989 48.9357C179.667 48.4433 179.506 47.8396 179.506 47.1246C179.506 46.5091 179.624 46.0025 179.861 45.6048C180.098 45.207 180.417 44.8922 180.82 44.6602C181.222 44.4281 181.672 44.253 182.169 44.1346C182.666 44.0162 183.173 43.9263 183.689 43.8647C184.342 43.7889 184.873 43.7274 185.28 43.68C185.687 43.628 185.983 43.5451 186.168 43.4315C186.352 43.3178 186.445 43.1332 186.445 42.8775V42.8278C186.445 42.2075 186.269 41.7269 185.919 41.386C185.573 41.0451 185.057 40.8746 184.371 40.8746C183.656 40.8746 183.092 41.0333 182.68 41.3505C182.273 41.663 181.991 42.011 181.835 42.3945L179.839 41.94C180.076 41.2771 180.422 40.7421 180.876 40.3349C181.336 39.9229 181.864 39.6246 182.46 39.44C183.057 39.2506 183.684 39.1559 184.342 39.1559C184.778 39.1559 185.24 39.208 185.727 39.3121C186.22 39.4116 186.679 39.5962 187.105 39.8661C187.536 40.136 187.889 40.5219 188.163 41.0238C188.438 41.521 188.575 42.1673 188.575 42.9627V50.207H186.501V48.7156H186.416C186.279 48.9902 186.073 49.2601 185.798 49.5252C185.524 49.7904 185.171 50.0105 184.74 50.1857C184.309 50.3609 183.793 50.4485 183.192 50.4485ZM183.653 48.744C184.241 48.744 184.742 48.628 185.159 48.396C185.58 48.1639 185.9 47.8609 186.118 47.4869C186.34 47.1081 186.452 46.7032 186.452 46.2724V44.8661C186.376 44.9419 186.229 45.0129 186.011 45.0792C185.798 45.1407 185.554 45.1952 185.28 45.2425C185.005 45.2852 184.738 45.3254 184.477 45.3633C184.217 45.3964 183.999 45.4248 183.824 45.4485C183.412 45.5006 183.036 45.5882 182.695 45.7113C182.358 45.8344 182.089 46.012 181.885 46.244C181.686 46.4712 181.587 46.7743 181.587 47.1531C181.587 47.6786 181.781 48.0763 182.169 48.3462C182.557 48.6114 183.052 48.744 183.653 48.744ZM192.628 47.2312L197.436 39.2979H199.723V50.207H197.642V42.2667L192.855 50.207H190.547V39.2979H192.628V47.2312ZM196.527 35.6048H198.274C198.274 36.4049 197.99 37.056 197.422 37.5579C196.858 38.055 196.096 38.3036 195.135 38.3036C194.178 38.3036 193.419 38.055 192.855 37.5579C192.292 37.056 192.01 36.4049 192.01 35.6048H193.75C193.75 35.9599 193.854 36.2747 194.062 36.5494C194.271 36.8192 194.628 36.9542 195.135 36.9542C195.632 36.9542 195.987 36.8192 196.2 36.5494C196.418 36.2795 196.527 35.9646 196.527 35.6048ZM209.115 43.8363V45.6758H203.206V43.8363H209.115ZM203.802 39.2979V50.207H201.721V39.2979H203.802ZM210.599 39.2979V50.207H208.525V39.2979H210.599ZM72.9124 92.3533V87.3675H73.8002C74.0275 87.1592 74.2193 86.9106 74.3755 86.6218C74.5365 86.333 74.6714 85.9897 74.7803 85.592C74.894 85.1942 74.9887 84.7302 75.0644 84.1999C75.1402 83.6649 75.2065 83.0541 75.2633 82.3675L75.6042 78.2979H83.019V87.3675H84.6951V92.3533H82.6213V89.207H75.0147V92.3533H72.9124ZM76.073 87.3675H80.9451V80.1161H77.5076L77.2803 82.3675C77.1714 83.5134 77.0341 84.5077 76.8684 85.3505C76.7027 86.1886 76.4375 86.8609 76.073 87.3675ZM90.509 89.4272C89.4863 89.4272 88.5938 89.1928 87.8315 88.7241C87.0692 88.2553 86.4773 87.5996 86.0559 86.7567C85.6345 85.9139 85.4238 84.9291 85.4238 83.8022C85.4238 82.6706 85.6345 81.681 86.0559 80.8335C86.4773 79.9859 87.0692 79.3278 87.8315 78.859C88.5938 78.3903 89.4863 78.1559 90.509 78.1559C91.5318 78.1559 92.4243 78.3903 93.1866 78.859C93.9489 79.3278 94.5408 79.9859 94.9622 80.8335C95.3836 81.681 95.5943 82.6706 95.5943 83.8022C95.5943 84.9291 95.3836 85.9139 94.9622 86.7567C94.5408 87.5996 93.9489 88.2553 93.1866 88.7241C92.4243 89.1928 91.5318 89.4272 90.509 89.4272ZM90.5161 87.6445C91.179 87.6445 91.7283 87.4693 92.1639 87.119C92.5995 86.7686 92.9214 86.3022 93.1298 85.7198C93.3428 85.1374 93.4494 84.4959 93.4494 83.7951C93.4494 83.0991 93.3428 82.4599 93.1298 81.8775C92.9214 81.2904 92.5995 80.8192 92.1639 80.4641C91.7283 80.109 91.179 79.9315 90.5161 79.9315C89.8485 79.9315 89.2945 80.109 88.8542 80.4641C88.4186 80.8192 88.0943 81.2904 87.8812 81.8775C87.6729 82.4599 87.5687 83.0991 87.5687 83.7951C87.5687 84.4959 87.6729 85.1374 87.8812 85.7198C88.0943 86.3022 88.4186 86.7686 88.8542 87.119C89.2945 87.4693 89.8485 87.6445 90.5161 87.6445ZM106.139 89.4272C105.116 89.4272 104.224 89.1928 103.461 88.7241C102.699 88.2553 102.107 87.5996 101.686 86.7567C101.264 85.9139 101.054 84.9291 101.054 83.8022C101.054 82.6706 101.264 81.681 101.686 80.8335C102.107 79.9859 102.699 79.3278 103.461 78.859C104.224 78.3903 105.116 78.1559 106.139 78.1559C107.162 78.1559 108.054 78.3903 108.817 78.859C109.579 79.3278 110.171 79.9859 110.592 80.8335C111.014 81.681 111.224 82.6706 111.224 83.8022C111.224 84.9291 111.014 85.9139 110.592 86.7567C110.171 87.5996 109.579 88.2553 108.817 88.7241C108.054 89.1928 107.162 89.4272 106.139 89.4272ZM106.146 87.6445C106.809 87.6445 107.358 87.4693 107.794 87.119C108.229 86.7686 108.551 86.3022 108.76 85.7198C108.973 85.1374 109.079 84.4959 109.079 83.7951C109.079 83.0991 108.973 82.4599 108.76 81.8775C108.551 81.2904 108.229 80.8192 107.794 80.4641C107.358 80.109 106.809 79.9315 106.146 79.9315C105.478 79.9315 104.925 80.109 104.484 80.4641C104.049 80.8192 103.724 81.2904 103.511 81.8775C103.303 82.4599 103.199 83.0991 103.199 83.7951C103.199 84.4959 103.303 85.1374 103.511 85.7198C103.724 86.3022 104.049 86.7686 104.484 87.119C104.925 87.4693 105.478 87.6445 106.146 87.6445ZM112.738 89.207V78.2979H121.637V89.207H119.556V80.1303H114.804V89.207H112.738ZM122.76 89.207L122.753 87.3675H123.143C123.446 87.3675 123.7 87.3036 123.903 87.1758C124.112 87.0432 124.282 86.8207 124.415 86.5082C124.547 86.1957 124.649 85.7648 124.72 85.2156C124.791 84.6616 124.843 83.9656 124.876 83.1275L125.068 78.2979H132.682V89.207H130.601V80.1303H127.035L126.865 83.8377C126.822 84.7373 126.73 85.5233 126.588 86.1957C126.451 86.868 126.249 87.4291 125.984 87.8789C125.719 88.324 125.378 88.6578 124.961 88.8803C124.545 89.0981 124.038 89.207 123.442 89.207H122.76ZM137.831 89.4485C137.14 89.4485 136.515 89.3207 135.956 89.065C135.398 88.8046 134.955 88.4281 134.628 87.9357C134.306 87.4433 134.145 86.8396 134.145 86.1246C134.145 85.5091 134.264 85.0025 134.501 84.6048C134.737 84.207 135.057 83.8922 135.459 83.6602C135.862 83.4281 136.312 83.253 136.809 83.1346C137.306 83.0162 137.813 82.9263 138.329 82.8647C138.982 82.7889 139.512 82.7274 139.92 82.68C140.327 82.628 140.623 82.5451 140.807 82.4315C140.992 82.3178 141.084 82.1332 141.084 81.8775V81.8278C141.084 81.2075 140.909 80.7269 140.559 80.386C140.213 80.0451 139.697 79.8746 139.01 79.8746C138.295 79.8746 137.732 80.0333 137.32 80.3505C136.913 80.663 136.631 81.011 136.475 81.3945L134.479 80.94C134.716 80.2771 135.062 79.7421 135.516 79.3349C135.975 78.9229 136.503 78.6246 137.1 78.44C137.697 78.2506 138.324 78.1559 138.982 78.1559C139.418 78.1559 139.879 78.208 140.367 78.3121C140.859 78.4116 141.319 78.5962 141.745 78.8661C142.176 79.136 142.528 79.5219 142.803 80.0238C143.078 80.521 143.215 81.1673 143.215 81.9627V89.207H141.141V87.7156H141.056C140.919 87.9902 140.713 88.2601 140.438 88.5252C140.163 88.7904 139.811 89.0105 139.38 89.1857C138.949 89.3609 138.433 89.4485 137.831 89.4485ZM138.293 87.744C138.88 87.744 139.382 87.628 139.799 87.396C140.22 87.1639 140.54 86.8609 140.758 86.4869C140.98 86.1081 141.091 85.7032 141.091 85.2724V83.8661C141.016 83.9419 140.869 84.0129 140.651 84.0792C140.438 84.1407 140.194 84.1952 139.92 84.2425C139.645 84.2852 139.377 84.3254 139.117 84.3633C138.857 84.3964 138.639 84.4248 138.464 84.4485C138.052 84.5006 137.675 84.5882 137.334 84.7113C136.998 84.8344 136.728 85.012 136.525 85.244C136.326 85.4712 136.226 85.7743 136.226 86.1531C136.226 86.6786 136.42 87.0763 136.809 87.3462C137.197 87.6114 137.692 87.744 138.293 87.744ZM143.834 80.1303V78.2979H153.038V80.1303H149.48V89.207H147.406V80.1303H143.834ZM156.025 82.0479H159.193C160.528 82.0479 161.556 82.3794 162.275 83.0423C162.995 83.7051 163.355 84.5598 163.355 85.6062C163.355 86.288 163.194 86.9012 162.872 87.4457C162.55 87.9902 162.079 88.421 161.459 88.7383C160.838 89.0508 160.083 89.207 159.193 89.207H154.427V78.2979H156.508V87.3746H159.193C159.804 87.3746 160.306 87.216 160.699 86.8988C161.092 86.5768 161.288 86.1673 161.288 85.6701C161.288 85.1445 161.092 84.716 160.699 84.3846C160.306 84.0484 159.804 83.8803 159.193 83.8803H156.025V82.0479ZM164.903 89.207V78.2979H167.027V89.207H164.903Z" fill="#344054"/>
</svg>
