<svg width="72" height="26" viewBox="0 0 72 26" fill="none" xmlns="http://www.w3.org/2000/svg">
<rect y="0.445312" width="72" height="25.1111" rx="12.5556" fill="#F3F3F7" fill-opacity="0.2"/>
<rect x="0.444444" y="0.889757" width="71.1111" height="24.2222" rx="12.1111" stroke="#F3F3F7" stroke-opacity="0.2" stroke-width="0.888889"/>
<g clip-path="url(#clip0_2245_944)">
<path d="M16.5996 10.6476C16.4518 10.2258 16.3714 9.77223 16.3714 9.29991C16.3714 7.47856 17.5666 5.93636 19.2155 5.41481C18.7281 5.06287 18.1295 4.85547 17.4825 4.85547C15.8461 4.85547 14.5195 6.18204 14.5195 7.81843C14.5195 9.14733 15.3944 10.2719 16.5996 10.6476Z" fill="#F3F3F7"/>
<path d="M20.4473 6.33594C20.0633 6.33594 19.6946 6.40939 19.3557 6.5437C18.2608 6.97777 17.4844 8.04676 17.4844 9.2989C17.4844 9.56773 17.5204 9.82932 17.5882 10.0786C17.9306 11.3362 19.0799 12.2619 20.4473 12.2619C22.0837 12.2619 23.4103 10.9353 23.4103 9.2989C23.4103 7.6625 22.0837 6.33594 20.4473 6.33594Z" fill="#F3F3F7"/>
<path fill-rule="evenodd" clip-rule="evenodd" d="M10.8164 15.041C10.8164 13.9159 11.7284 13.0039 12.8534 13.0039C13.5402 13.0039 14.1476 13.3438 14.5166 13.8645C16.5045 13.3645 18.1673 13.2189 19.4683 13.3029C20.8125 13.3897 21.8559 13.728 22.4322 14.264C22.6325 14.4503 22.7935 14.6788 22.8711 14.94C22.9981 14.8474 23.1213 14.753 23.2392 14.6593C24.042 14.0215 25.2873 14.0552 25.9752 14.9162C26.4974 15.5697 26.5257 16.5337 25.931 17.1886C24.1263 19.1759 21.8393 20.5402 18.9335 20.4017C18.2514 20.3691 17.4381 20.1619 16.8244 19.977C16.5112 19.8826 16.2379 19.7903 16.0427 19.7215C15.9519 19.6895 15.8776 19.6625 15.8238 19.6426H14.4476C14.0744 20.111 13.499 20.4114 12.8534 20.4114C11.7284 20.4114 10.8164 19.4993 10.8164 18.3743V15.041ZM14.8845 18.5314H15.9247C15.9932 18.5314 16.0611 18.5441 16.125 18.5688M16.125 18.5688L16.1286 18.5702L16.1424 18.5754C16.1548 18.5802 16.1736 18.5872 16.1983 18.5964C16.2478 18.6147 16.3206 18.6413 16.412 18.6736C16.5952 18.7381 16.8518 18.8248 17.1449 18.9131C17.7437 19.0935 18.4479 19.2661 18.9863 19.2918C21.4622 19.4098 23.4504 18.2673 25.1084 16.4417C25.3043 16.2258 25.3193 15.8753 25.1072 15.6098C24.8486 15.286 24.3148 15.2239 23.9305 15.5292C23.2642 16.0586 22.324 16.7025 21.3848 16.9632C21.0703 17.0505 20.7579 17.1192 20.4683 17.1731C20.0379 17.2626 19.5547 17.326 19.0216 17.3604L19.0076 17.3614L18.9959 17.3621L18.9946 17.3622L18.9924 17.3623L18.9913 17.3624C18.9913 17.3624 18.9906 17.3624 18.9599 16.8077L18.9913 17.3624C18.6857 17.3793 18.4233 17.1459 18.4053 16.8404C18.3872 16.5349 18.6198 16.2723 18.9252 16.2532C18.9344 16.2527 18.9436 16.2521 18.9528 16.2514L18.9719 16.2502C19.0023 16.2481 19.0479 16.2446 19.1066 16.2394C19.2242 16.2292 19.3939 16.2122 19.5983 16.1858C19.7919 16.1606 20.0146 16.1271 20.2522 16.0832C20.94 15.939 21.3826 15.7353 21.6214 15.541C21.7964 15.3987 21.8093 15.3072 21.8102 15.29C21.8109 15.278 21.8119 15.2046 21.6754 15.0775C21.3799 14.8026 20.6506 14.4927 19.3967 14.4117C18.2527 14.3378 16.7405 14.46 14.8868 14.9173C14.8892 14.9582 14.8905 14.9994 14.8905 15.041V18.3743C14.8905 18.4272 14.8885 18.4795 14.8845 18.5314" fill="#F3F3F7"/>
</g>
<path d="M37.5794 10.2121V16.0278H38.5339V19.1919H37.491V17H32.241V10.2121H33.2839V16.0278H36.5365V10.2121H37.5794ZM42.9134 17.1414C42.2593 17.1414 41.6951 16.9971 41.2208 16.7083C40.7494 16.4167 40.3856 16.0101 40.1293 15.4886C39.8759 14.9642 39.7492 14.3544 39.7492 13.6591C39.7492 12.9638 39.8759 12.351 40.1293 11.8207C40.3856 11.2875 40.7421 10.8721 41.1987 10.5745C41.6583 10.274 42.1945 10.1237 42.8073 10.1237C43.1608 10.1237 43.5099 10.1827 43.8546 10.3005C44.1993 10.4183 44.5131 10.6098 44.7959 10.875C45.0788 11.1372 45.3041 11.4848 45.4721 11.9179C45.64 12.351 45.724 12.8843 45.724 13.5177V13.9596H40.4916V13.0581H44.6634C44.6634 12.6751 44.5868 12.3333 44.4336 12.0328C44.2833 11.7323 44.0682 11.4952 43.7884 11.3213C43.5114 11.1475 43.1844 11.0606 42.8073 11.0606C42.3919 11.0606 42.0325 11.1637 41.729 11.3699C41.4285 11.5732 41.1972 11.8384 41.0352 12.1654C40.8732 12.4924 40.7921 12.843 40.7921 13.2172V13.8182C40.7921 14.3308 40.8805 14.7654 41.0573 15.1218C41.237 15.4754 41.486 15.7449 41.8041 15.9306C42.1223 16.1132 42.4921 16.2045 42.9134 16.2045C43.1873 16.2045 43.4348 16.1662 43.6558 16.0896C43.8797 16.0101 44.0727 15.8923 44.2347 15.7361C44.3967 15.577 44.5219 15.3796 44.6103 15.1439L45.6179 15.4268C45.5118 15.7685 45.3336 16.069 45.0832 16.3283C44.8328 16.5846 44.5234 16.7849 44.1551 16.9293C43.7869 17.0707 43.3729 17.1414 42.9134 17.1414ZM51.8534 13.1288V14.101H48.1059V13.1288H51.8534ZM48.3534 10.2121V17H47.3104V10.2121H48.3534ZM52.6488 10.2121V17H51.6059V10.2121H52.6488ZM55.455 12.6692H57.3995C58.1949 12.6692 58.8033 12.871 59.2246 13.2746C59.6459 13.6782 59.8565 14.1894 59.8565 14.8081C59.8565 15.2146 59.7623 15.5844 59.5737 15.9173C59.3852 16.2473 59.1082 16.5109 58.7429 16.7083C58.3776 16.9028 57.9298 17 57.3995 17H54.5535V10.2121H55.5964V16.0278H57.3995C57.8119 16.0278 58.1507 15.9188 58.4159 15.7008C58.681 15.4827 58.8136 15.2029 58.8136 14.8611C58.8136 14.5017 58.681 14.2085 58.4159 13.9817C58.1507 13.7548 57.8119 13.6414 57.3995 13.6414H55.455V12.6692ZM60.9348 17V10.2121H61.9777V17H60.9348Z" fill="#F3F3F7"/>
<defs>
<clipPath id="clip0_2245_944">
<rect width="18.6667" height="17.7778" fill="white" transform="translate(8.89062 4.11328)"/>
</clipPath>
</defs>
</svg>
