<svg width="80" height="26" viewBox="0 0 80 26" fill="none" xmlns="http://www.w3.org/2000/svg">
<rect y="0.445312" width="80" height="25.1111" rx="12.5556" fill="#F3F3F7" fill-opacity="0.2"/>
<rect x="0.444444" y="0.889757" width="79.1111" height="24.2222" rx="12.1111" stroke="#F3F3F7" stroke-opacity="0.2" stroke-width="0.888889"/>
<g clip-path="url(#clip0_2244_4743)">
<path d="M16.5996 10.6476C16.4518 10.2258 16.3714 9.77223 16.3714 9.29991C16.3714 7.47856 17.5666 5.93636 19.2155 5.41481C18.7281 5.06287 18.1295 4.85547 17.4825 4.85547C15.8461 4.85547 14.5195 6.18204 14.5195 7.81843C14.5195 9.14733 15.3944 10.2719 16.5996 10.6476Z" fill="#F3F3F7"/>
<path d="M20.4473 6.33594C20.0633 6.33594 19.6946 6.40939 19.3557 6.5437C18.2608 6.97777 17.4844 8.04676 17.4844 9.2989C17.4844 9.56773 17.5204 9.82932 17.5882 10.0786C17.9306 11.3362 19.0799 12.2619 20.4473 12.2619C22.0837 12.2619 23.4103 10.9353 23.4103 9.2989C23.4103 7.6625 22.0837 6.33594 20.4473 6.33594Z" fill="#F3F3F7"/>
<path fill-rule="evenodd" clip-rule="evenodd" d="M10.8164 15.041C10.8164 13.9159 11.7284 13.0039 12.8534 13.0039C13.5402 13.0039 14.1476 13.3438 14.5166 13.8645C16.5045 13.3645 18.1673 13.2189 19.4683 13.3029C20.8125 13.3897 21.8559 13.728 22.4322 14.264C22.6325 14.4503 22.7935 14.6788 22.8711 14.94C22.9981 14.8474 23.1213 14.753 23.2392 14.6593C24.042 14.0215 25.2873 14.0552 25.9752 14.9162C26.4974 15.5697 26.5257 16.5337 25.931 17.1886C24.1263 19.1759 21.8393 20.5402 18.9335 20.4017C18.2514 20.3691 17.4381 20.1619 16.8244 19.977C16.5112 19.8826 16.2379 19.7903 16.0427 19.7215C15.9519 19.6895 15.8776 19.6625 15.8238 19.6426H14.4476C14.0744 20.111 13.499 20.4114 12.8534 20.4114C11.7284 20.4114 10.8164 19.4993 10.8164 18.3743V15.041ZM14.8845 18.5314H15.9247C15.9932 18.5314 16.0611 18.5441 16.125 18.5688M16.125 18.5688L16.1286 18.5702L16.1424 18.5754C16.1548 18.5802 16.1736 18.5872 16.1983 18.5964C16.2478 18.6147 16.3206 18.6413 16.412 18.6736C16.5952 18.7381 16.8518 18.8248 17.1449 18.9131C17.7437 19.0935 18.4479 19.2661 18.9863 19.2918C21.4622 19.4098 23.4504 18.2673 25.1084 16.4417C25.3043 16.2258 25.3193 15.8753 25.1072 15.6098C24.8486 15.286 24.3148 15.2239 23.9305 15.5292C23.2642 16.0586 22.324 16.7025 21.3848 16.9632C21.0703 17.0505 20.7579 17.1192 20.4683 17.1731C20.0379 17.2626 19.5547 17.326 19.0216 17.3604L19.0076 17.3614L18.9959 17.3621L18.9946 17.3622L18.9924 17.3623L18.9913 17.3624C18.9913 17.3624 18.9906 17.3624 18.9599 16.8077L18.9913 17.3624C18.6857 17.3793 18.4233 17.1459 18.4053 16.8404C18.3872 16.5349 18.6198 16.2723 18.9252 16.2532C18.9344 16.2527 18.9436 16.2521 18.9528 16.2514L18.9719 16.2502C19.0023 16.2481 19.0479 16.2446 19.1066 16.2394C19.2242 16.2292 19.3939 16.2122 19.5983 16.1858C19.7919 16.1606 20.0146 16.1271 20.2522 16.0832C20.94 15.939 21.3826 15.7353 21.6214 15.541C21.7964 15.3987 21.8093 15.3072 21.8102 15.29C21.8109 15.278 21.8119 15.2046 21.6754 15.0775C21.3799 14.8026 20.6506 14.4927 19.3967 14.4117C18.2527 14.3378 16.7405 14.46 14.8868 14.9173C14.8892 14.9582 14.8905 14.9994 14.8905 15.041V18.3743C14.8905 18.4272 14.8885 18.4795 14.8845 18.5314" fill="#F3F3F7"/>
</g>
<path d="M32.0969 19.5455V10.2121H33.1045V11.2904H33.2282C33.3048 11.1726 33.4109 11.0223 33.5464 10.8396C33.6849 10.654 33.8823 10.4891 34.1386 10.3447C34.3978 10.1974 34.7484 10.1237 35.1903 10.1237C35.7619 10.1237 36.2657 10.2666 36.7017 10.5524C37.1377 10.8382 37.478 11.2433 37.7225 11.7677C37.9671 12.2921 38.0893 12.9108 38.0893 13.6237C38.0893 14.3426 37.9671 14.9657 37.7225 15.4931C37.478 16.0175 37.1392 16.424 36.7061 16.7128C36.273 16.9985 35.7737 17.1414 35.208 17.1414C34.772 17.1414 34.4229 17.0692 34.1607 16.9249C33.8985 16.7776 33.6967 16.6111 33.5552 16.4255C33.4138 16.237 33.3048 16.0808 33.2282 15.9571H33.1398V19.5455H32.0969ZM33.1222 13.6061C33.1222 14.1187 33.1973 14.5709 33.3475 14.9628C33.4978 15.3516 33.7173 15.6566 34.006 15.8775C34.2947 16.0955 34.6483 16.2045 35.0666 16.2045C35.5026 16.2045 35.8665 16.0896 36.1581 15.8598C36.4528 15.6271 36.6737 15.3148 36.821 14.923C36.9713 14.5282 37.0464 14.0892 37.0464 13.6061C37.0464 13.1288 36.9727 12.6987 36.8254 12.3157C36.6811 11.9297 36.4616 11.6248 36.167 11.4009C35.8753 11.174 35.5085 11.0606 35.0666 11.0606C34.6424 11.0606 34.2859 11.1681 33.9972 11.3832C33.7084 11.5953 33.4904 11.8929 33.3431 12.2759C33.1958 12.6559 33.1222 13.0993 33.1222 13.6061ZM39.6802 17V10.2121H40.6878V11.2374H40.7585C40.8823 10.9015 41.1062 10.629 41.4302 10.4198C41.7543 10.2106 42.1196 10.1061 42.5262 10.1061C42.6028 10.1061 42.6985 10.1075 42.8134 10.1105C42.9283 10.1134 43.0153 10.1178 43.0742 10.1237V11.1843C43.0388 11.1755 42.9578 11.1622 42.8311 11.1446C42.7074 11.1239 42.5763 11.1136 42.4378 11.1136C42.1078 11.1136 41.8132 11.1829 41.554 11.3213C41.2977 11.4569 41.0944 11.6454 40.9441 11.887C40.7968 12.1256 40.7232 12.3981 40.7232 12.7045V17H39.6802ZM44.3104 17V10.2121H45.3534V17H44.3104ZM44.8408 9.08081C44.6375 9.08081 44.4622 9.01157 44.3149 8.87311C44.1705 8.73464 44.0983 8.56818 44.0983 8.37374C44.0983 8.17929 44.1705 8.01284 44.3149 7.87437C44.4622 7.7359 44.6375 7.66667 44.8408 7.66667C45.044 7.66667 45.2179 7.7359 45.3622 7.87437C45.5095 8.01284 45.5832 8.17929 45.5832 8.37374C45.5832 8.56818 45.5095 8.73464 45.3622 8.87311C45.2179 9.01157 45.044 9.08081 44.8408 9.08081ZM50.0211 17.1414C49.3848 17.1414 48.8368 16.9912 48.3772 16.6907C47.9176 16.3902 47.5641 15.9762 47.3166 15.4489C47.0691 14.9215 46.9454 14.319 46.9454 13.6414C46.9454 12.952 47.0721 12.3436 47.3254 11.8163C47.5818 11.286 47.9382 10.8721 48.3949 10.5745C48.8545 10.274 49.3907 10.1237 50.0035 10.1237C50.4807 10.1237 50.9109 10.2121 51.2939 10.3889C51.6769 10.5657 51.9906 10.8131 52.2352 11.1313C52.4797 11.4495 52.6314 11.8207 52.6903 12.2449H51.6474C51.5679 11.9356 51.3911 11.6616 51.1171 11.423C50.8461 11.1814 50.4807 11.0606 50.0211 11.0606C49.6146 11.0606 49.2581 11.1667 48.9517 11.3788C48.6483 11.588 48.4111 11.884 48.2402 12.267C48.0723 12.6471 47.9883 13.0934 47.9883 13.6061C47.9883 14.1305 48.0708 14.5871 48.2358 14.976C48.4037 15.3649 48.6394 15.6669 48.9429 15.8819C49.2493 16.097 49.6087 16.2045 50.0211 16.2045C50.2922 16.2045 50.5382 16.1574 50.7592 16.0631C50.9801 15.9689 51.1672 15.8333 51.3204 15.6566C51.4736 15.4798 51.5826 15.2677 51.6474 15.0202H52.6903C52.6314 15.4209 52.4856 15.7818 52.2528 16.1029C52.023 16.4211 51.7181 16.6745 51.3381 16.863C50.961 17.0486 50.522 17.1414 50.0211 17.1414ZM54.215 17V10.2121H55.2579V17H54.215ZM54.7453 9.08081C54.542 9.08081 54.3667 9.01157 54.2194 8.87311C54.075 8.73464 54.0028 8.56818 54.0028 8.37374C54.0028 8.17929 54.075 8.01284 54.2194 7.87437C54.3667 7.7359 54.542 7.66667 54.7453 7.66667C54.9485 7.66667 55.1224 7.7359 55.2667 7.87437C55.414 8.01284 55.4877 8.17929 55.4877 8.37374C55.4877 8.56818 55.414 8.73464 55.2667 8.87311C55.1224 9.01157 54.9485 9.08081 54.7453 9.08081ZM58.211 12.9167V17H57.1681V10.2121H58.1757V11.2727H58.264C58.4231 10.928 58.6647 10.6511 58.9888 10.4419C59.3129 10.2298 59.7312 10.1237 60.2438 10.1237C60.7034 10.1237 61.1056 10.218 61.4503 10.4066C61.795 10.5922 62.0631 10.875 62.2546 11.2551C62.4461 11.6322 62.5418 12.1094 62.5418 12.6869V17H61.4989V12.7576C61.4989 12.2243 61.3604 11.8089 61.0835 11.5114C60.8066 11.2109 60.4265 11.0606 59.9433 11.0606C59.6104 11.0606 59.3129 11.1328 59.0507 11.2771C58.7914 11.4215 58.5866 11.6322 58.4364 11.9091C58.2861 12.186 58.211 12.5219 58.211 12.9167ZM67.1875 19.6869C66.6837 19.6869 66.2506 19.6221 65.8883 19.4924C65.5259 19.3657 65.2239 19.1978 64.9823 18.9886C64.7437 18.7824 64.5537 18.5614 64.4122 18.3258L65.2431 17.7424C65.3373 17.8662 65.4566 18.0076 65.601 18.1667C65.7454 18.3287 65.9428 18.4686 66.1932 18.5865C66.4465 18.7073 66.778 18.7677 67.1875 18.7677C67.7355 18.7677 68.1877 18.6351 68.5442 18.3699C68.9007 18.1048 69.0789 17.6894 69.0789 17.1237V15.7449H68.9905C68.9139 15.8687 68.8049 16.0219 68.6635 16.2045C68.525 16.3843 68.3247 16.5448 68.0625 16.6862C67.8032 16.8247 67.4526 16.8939 67.0107 16.8939C66.4628 16.8939 65.9707 16.7643 65.5347 16.5051C65.1016 16.2458 64.7584 15.8687 64.505 15.3737C64.2546 14.8788 64.1294 14.2778 64.1294 13.5707C64.1294 12.8754 64.2517 12.27 64.4962 11.7544C64.7407 11.2359 65.081 10.8352 65.517 10.5524C65.9531 10.2666 66.4569 10.1237 67.0284 10.1237C67.4703 10.1237 67.8209 10.1974 68.0802 10.3447C68.3424 10.4891 68.5427 10.654 68.6812 10.8396C68.8226 11.0223 68.9316 11.1726 69.0082 11.2904H69.1143V10.2121H70.1218V17.1944C70.1218 17.7778 69.9893 18.2521 69.7241 18.6174C69.4619 18.9857 69.1084 19.2553 68.6635 19.4261C68.2216 19.6 67.7296 19.6869 67.1875 19.6869ZM67.1521 15.9571C67.5705 15.9571 67.924 15.8613 68.2128 15.6698C68.5015 15.4783 68.721 15.2029 68.8712 14.8434C69.0215 14.484 69.0966 14.0539 69.0966 13.553C69.0966 13.064 69.0229 12.6324 68.8756 12.2582C68.7283 11.884 68.5103 11.5909 68.2216 11.3788C67.9329 11.1667 67.5764 11.0606 67.1521 11.0606C66.7102 11.0606 66.342 11.1726 66.0473 11.3965C65.7557 11.6204 65.5362 11.9209 65.3889 12.298C65.2445 12.6751 65.1723 13.0934 65.1723 13.553C65.1723 14.0244 65.246 14.4413 65.3933 14.8037C65.5436 15.1631 65.7645 15.4459 66.0562 15.6521C66.3508 15.8554 66.7161 15.9571 67.1521 15.9571Z" fill="#F3F3F7"/>
<defs>
<clipPath id="clip0_2244_4743">
<rect width="18.6667" height="17.7778" fill="white" transform="translate(8.89062 4.11328)"/>
</clipPath>
</defs>
</svg>
