<svg width="197" height="103" viewBox="0 0 197 103" fill="none" xmlns="http://www.w3.org/2000/svg">
<rect x="0.0273438" width="196.558" height="102.856" rx="46.5915" fill="#F3F3F7" fill-opacity="0.2"/>
<rect x="0.755336" y="0.727992" width="195.102" height="101.4" rx="45.8635" stroke="#F3F3F7" stroke-opacity="0.2" stroke-width="1.45598"/>
<rect x="7.30859" y="7.28125" width="181.998" height="88.2957" rx="34.9436" fill="white"/>
<path d="M46.7598 41.9297V27.1051H55.9528V29.0306H48.9965V33.5474H55.2941V35.4657H48.9965V41.9297H46.7598ZM57.6915 41.9297V30.8113H59.7834V32.5775H59.8992C60.1019 31.9791 60.459 31.5086 60.9705 31.166C61.4869 30.8185 62.0708 30.6448 62.7223 30.6448C62.8574 30.6448 63.0166 30.6496 63.2 30.6593C63.3882 30.6689 63.5354 30.681 63.6416 30.6954V32.7657C63.5547 32.7415 63.4003 32.715 63.1783 32.6861C62.9563 32.6523 62.7343 32.6354 62.5124 32.6354C62.0008 32.6354 61.5448 32.744 61.1443 32.9611C60.7486 33.1734 60.4349 33.4702 60.2033 33.8515C59.9716 34.2279 59.8558 34.6574 59.8558 35.1399V41.9297H57.6915ZM69.2095 42.1541C68.114 42.1541 67.1706 41.92 66.3792 41.4519C65.5926 40.979 64.9846 40.3155 64.5551 39.4613C64.1304 38.6024 63.9181 37.5962 63.9181 36.4429C63.9181 35.304 64.1304 34.3002 64.5551 33.4316C64.9846 32.563 65.583 31.885 66.3503 31.3976C67.1224 30.9102 68.0248 30.6665 69.0575 30.6665C69.6848 30.6665 70.2929 30.7702 70.8816 30.9778C71.4703 31.1853 71.9987 31.511 72.4668 31.955C72.9349 32.3989 73.3041 32.9756 73.5743 33.685C73.8446 34.3895 73.9797 35.2461 73.9797 36.2547V37.0219H65.1414V35.4005H71.8588C71.8588 34.8311 71.743 34.3268 71.5113 33.8877C71.2797 33.4437 70.954 33.0938 70.5341 32.8381C70.1191 32.5823 69.6317 32.4544 69.0719 32.4544C68.4639 32.4544 67.9331 32.604 67.4795 32.9032C67.0307 33.1976 66.6832 33.5836 66.4371 34.0614C66.1958 34.5343 66.0752 35.0482 66.0752 35.6032V36.8699C66.0752 37.6131 66.2055 38.2453 66.4661 38.7664C66.7315 39.2876 67.1006 39.6857 67.5736 39.9608C68.0465 40.231 68.599 40.3662 69.2312 40.3662C69.6414 40.3662 70.0154 40.3083 70.3532 40.1924C70.691 40.0718 70.9829 39.8932 71.229 39.6568C71.4752 39.4203 71.6634 39.1284 71.7936 38.7809L73.8422 39.1501C73.6781 39.7533 73.3837 40.2817 72.9591 40.7353C72.5392 41.1841 72.0108 41.534 71.3738 41.7849C70.7416 42.031 70.0202 42.1541 69.2095 42.1541ZM80.4741 42.1541C79.3787 42.1541 78.4353 41.92 77.6439 41.4519C76.8573 40.979 76.2492 40.3155 75.8197 39.4613C75.3951 38.6024 75.1827 37.5962 75.1827 36.4429C75.1827 35.304 75.3951 34.3002 75.8197 33.4316C76.2492 32.563 76.8476 31.885 77.6149 31.3976C78.387 30.9102 79.2894 30.6665 80.3221 30.6665C80.9495 30.6665 81.5575 30.7702 82.1462 30.9778C82.735 31.1853 83.2634 31.511 83.7315 31.955C84.1996 32.3989 84.5687 32.9756 84.839 33.685C85.1092 34.3895 85.2443 35.2461 85.2443 36.2547V37.0219H76.4061V35.4005H83.1234C83.1234 34.8311 83.0076 34.3268 82.776 33.8877C82.5444 33.4437 82.2186 33.0938 81.7988 32.8381C81.3838 32.5823 80.8964 32.4544 80.3366 32.4544C79.7286 32.4544 79.1977 32.604 78.7441 32.9032C78.2953 33.1976 77.9479 33.5836 77.7018 34.0614C77.4605 34.5343 77.3398 35.0482 77.3398 35.6032V36.8699C77.3398 37.6131 77.4701 38.2453 77.7307 38.7664C77.9961 39.2876 78.3653 39.6857 78.8382 39.9608C79.3111 40.231 79.8637 40.3662 80.4958 40.3662C80.906 40.3662 81.28 40.3083 81.6178 40.1924C81.9556 40.0718 82.2476 39.8932 82.4937 39.6568C82.7398 39.4203 82.928 39.1284 83.0583 38.7809L85.1068 39.1501C84.9427 39.7533 84.6484 40.2817 84.2237 40.7353C83.8039 41.1841 83.2755 41.534 82.6385 41.7849C82.0063 42.031 81.2848 42.1541 80.4741 42.1541ZM95.8047 42.1468C94.9071 42.1468 94.106 41.9176 93.4015 41.4592C92.7018 40.9959 92.1516 40.3372 91.7511 39.4831C91.3554 38.6241 91.1575 37.5938 91.1575 36.3922C91.1575 35.1906 91.3578 34.1627 91.7583 33.3086C92.1637 32.4544 92.7187 31.8005 93.4232 31.3469C94.1278 30.8933 94.9264 30.6665 95.8192 30.6665C96.5092 30.6665 97.0642 30.7823 97.484 31.0139C97.9087 31.2408 98.2369 31.5062 98.4685 31.8102C98.7049 32.1142 98.8883 32.382 99.0186 32.6137H99.1489V27.1051H101.313V41.9297H99.1996V40.1997H99.0186C98.8883 40.4361 98.7001 40.7064 98.454 41.0104C98.2127 41.3144 97.8797 41.5798 97.4551 41.8066C97.0304 42.0334 96.4803 42.1468 95.8047 42.1468ZM96.2824 40.301C96.905 40.301 97.431 40.1369 97.8604 39.8088C98.2948 39.4758 98.6229 39.015 98.8449 38.4262C99.0717 37.8375 99.1851 37.1522 99.1851 36.3705C99.1851 35.5984 99.0741 34.9228 98.8521 34.3437C98.6301 33.7646 98.3044 33.3134 97.8749 32.9901C97.4454 32.6667 96.9146 32.5051 96.2824 32.5051C95.631 32.5051 95.0881 32.674 94.6538 33.0118C94.2195 33.3496 93.8913 33.8104 93.6693 34.3944C93.4522 34.9783 93.3436 35.637 93.3436 36.3705C93.3436 37.1136 93.4546 37.782 93.6766 38.3756C93.8985 38.9691 94.2267 39.4396 94.661 39.7871C95.1001 40.1297 95.6406 40.301 96.2824 40.301ZM108.495 42.1541C107.4 42.1541 106.456 41.92 105.665 41.4519C104.878 40.979 104.27 40.3155 103.841 39.4613C103.416 38.6024 103.204 37.5962 103.204 36.4429C103.204 35.304 103.416 34.3002 103.841 33.4316C104.27 32.563 104.869 31.885 105.636 31.3976C106.408 30.9102 107.311 30.6665 108.343 30.6665C108.971 30.6665 109.579 30.7702 110.167 30.9778C110.756 31.1853 111.285 31.511 111.753 31.955C112.221 32.3989 112.59 32.9756 112.86 33.685C113.13 34.3895 113.266 35.2461 113.266 36.2547V37.0219H104.427V35.4005H111.145C111.145 34.8311 111.029 34.3268 110.797 33.8877C110.566 33.4437 110.24 33.0938 109.82 32.8381C109.405 32.5823 108.918 32.4544 108.358 32.4544C107.75 32.4544 107.219 32.604 106.765 32.9032C106.317 33.1976 105.969 33.5836 105.723 34.0614C105.482 34.5343 105.361 35.0482 105.361 35.6032V36.8699C105.361 37.6131 105.491 38.2453 105.752 38.7664C106.017 39.2876 106.387 39.6857 106.859 39.9608C107.332 40.231 107.885 40.3662 108.517 40.3662C108.927 40.3662 109.301 40.3083 109.639 40.1924C109.977 40.0718 110.269 39.8932 110.515 39.6568C110.761 39.4203 110.949 39.1284 111.079 38.7809L113.128 39.1501C112.964 39.7533 112.67 40.2817 112.245 40.7353C111.825 41.1841 111.297 41.534 110.66 41.7849C110.027 42.031 109.306 42.1541 108.495 42.1541ZM123.3 33.5257L121.338 33.8732C121.256 33.6222 121.126 33.3834 120.947 33.1566C120.773 32.9297 120.537 32.744 120.238 32.5992C119.939 32.4544 119.565 32.382 119.116 32.382C118.503 32.382 117.991 32.5196 117.581 32.7946C117.171 33.0649 116.966 33.4147 116.966 33.8442C116.966 34.2158 117.103 34.515 117.379 34.7418C117.654 34.9686 118.098 35.1544 118.71 35.2992L120.477 35.7045C121.5 35.941 122.262 36.3053 122.764 36.7976C123.266 37.2898 123.517 37.9292 123.517 38.7158C123.517 39.3817 123.324 39.9753 122.938 40.4965C122.556 41.0128 122.023 41.4182 121.338 41.7125C120.658 42.0069 119.869 42.1541 118.971 42.1541C117.726 42.1541 116.71 41.8887 115.924 41.3578C115.137 40.8222 114.654 40.0621 114.476 39.0777L116.568 38.7592C116.698 39.3045 116.966 39.7171 117.371 39.997C117.777 40.2721 118.305 40.4096 118.957 40.4096C119.666 40.4096 120.233 40.2624 120.658 39.968C121.082 39.6688 121.295 39.3045 121.295 38.875C121.295 38.5276 121.164 38.2356 120.904 37.9992C120.648 37.7627 120.255 37.5841 119.724 37.4635L117.842 37.0509C116.804 36.8144 116.037 36.438 115.54 35.9217C115.048 35.4053 114.802 34.7515 114.802 33.96C114.802 33.3037 114.985 32.7295 115.352 32.2373C115.718 31.745 116.225 31.3614 116.872 31.0863C117.518 30.8064 118.259 30.6665 119.094 30.6665C120.296 30.6665 121.241 30.9271 121.932 31.4483C122.622 31.9646 123.078 32.6571 123.3 33.5257ZM125.198 41.9297V30.8113H127.362V41.9297H125.198ZM126.291 29.0957C125.914 29.0957 125.591 28.9703 125.321 28.7193C125.055 28.4636 124.923 28.1595 124.923 27.8073C124.923 27.4502 125.055 27.1461 125.321 26.8952C125.591 26.6394 125.914 26.5116 126.291 26.5116C126.667 26.5116 126.988 26.6394 127.253 26.8952C127.524 27.1461 127.659 27.4502 127.659 27.8073C127.659 28.1595 127.524 28.4636 127.253 28.7193C126.988 28.9703 126.667 29.0957 126.291 29.0957ZM134.236 46.3307C133.353 46.3307 132.593 46.2149 131.956 45.9833C131.324 45.7516 130.808 45.4452 130.407 45.064C130.007 44.6828 129.707 44.2653 129.51 43.8117L131.37 43.0444C131.5 43.2568 131.674 43.4812 131.891 43.7176C132.113 43.9589 132.412 44.164 132.789 44.3329C133.17 44.5018 133.66 44.5862 134.258 44.5862C135.078 44.5862 135.756 44.386 136.292 43.9854C136.828 43.5897 137.096 42.9576 137.096 42.0889V39.9029H136.958C136.828 40.1394 136.64 40.4024 136.393 40.6919C136.152 40.9814 135.819 41.2324 135.395 41.4447C134.97 41.657 134.417 41.7632 133.737 41.7632C132.859 41.7632 132.067 41.5581 131.363 41.1479C130.663 40.7329 130.108 40.1225 129.698 39.3166C129.292 38.5059 129.09 37.5093 129.09 36.327C129.09 35.1447 129.29 34.1313 129.691 33.2869C130.096 32.4424 130.651 31.7957 131.355 31.3469C132.06 30.8933 132.859 30.6665 133.751 30.6665C134.441 30.6665 134.999 30.7823 135.424 31.0139C135.848 31.2408 136.179 31.5062 136.415 31.8102C136.656 32.1142 136.842 32.382 136.973 32.6137H137.132V30.8113H139.253V42.1758C139.253 43.1313 139.031 43.9155 138.587 44.5283C138.143 45.1412 137.542 45.5948 136.784 45.8892C136.032 46.1835 135.182 46.3307 134.236 46.3307ZM134.215 39.968C134.837 39.968 135.363 39.8233 135.793 39.5337C136.227 39.2394 136.555 38.8195 136.777 38.2742C137.004 37.7241 137.117 37.0654 137.117 36.2981C137.117 35.5501 137.006 34.8914 136.784 34.322C136.562 33.7525 136.237 33.3086 135.807 32.9901C135.378 32.6667 134.847 32.5051 134.215 32.5051C133.563 32.5051 133.02 32.674 132.586 33.0118C132.152 33.3448 131.824 33.7984 131.602 34.3726C131.384 34.9469 131.276 35.5887 131.276 36.2981C131.276 37.0268 131.387 37.6662 131.609 38.2163C131.831 38.7664 132.159 39.1959 132.593 39.5048C133.032 39.8136 133.573 39.968 134.215 39.968ZM143.621 35.3281V41.9297H141.457V30.8113H143.534V32.6209H143.672C143.927 32.0322 144.328 31.5592 144.873 31.2021C145.423 30.845 146.116 30.6665 146.951 30.6665C147.708 30.6665 148.372 30.8257 148.941 31.1442C149.511 31.4579 149.952 31.926 150.266 32.5485C150.58 33.171 150.736 33.9407 150.736 34.8576V41.9297H148.572V35.1182C148.572 34.3123 148.362 33.6826 147.942 33.2289C147.522 32.7705 146.946 32.5413 146.212 32.5413C145.71 32.5413 145.264 32.6499 144.873 32.867C144.487 33.0842 144.181 33.4027 143.954 33.8225C143.732 34.2375 143.621 34.7394 143.621 35.3281ZM27.5029 73.9297V59.1051H29.6672V64.6137H29.7975C29.923 64.382 30.1039 64.1142 30.3404 63.8102C30.5769 63.5062 30.905 63.2408 31.3248 63.0139C31.7447 62.7823 32.2996 62.6665 32.9897 62.6665C33.8873 62.6665 34.6884 62.8933 35.3929 63.3469C36.0975 63.8005 36.65 64.4544 37.0505 65.3086C37.4559 66.1627 37.6586 67.1906 37.6586 68.3922C37.6586 69.5938 37.4583 70.6241 37.0578 71.4831C36.6572 72.3372 36.1071 72.9959 35.4074 73.4592C34.7077 73.9176 33.909 74.1468 33.0114 74.1468C32.3358 74.1468 31.7833 74.0334 31.3538 73.8066C30.9291 73.5798 30.5962 73.3144 30.3549 73.0104C30.1136 72.7064 29.9278 72.4361 29.7975 72.1997H29.6165V73.9297H27.5029ZM29.6238 68.3705C29.6238 69.1522 29.7372 69.8375 29.964 70.4262C30.1908 71.015 30.5189 71.4758 30.9484 71.8088C31.3779 72.1369 31.9039 72.301 32.5264 72.301C33.1731 72.301 33.7136 72.1297 34.1479 71.7871C34.5822 71.4396 34.9103 70.9691 35.1323 70.3756C35.3591 69.782 35.4725 69.1136 35.4725 68.3705C35.4725 67.637 35.3615 66.9783 35.1396 66.3944C34.9224 65.8104 34.5943 65.3496 34.1551 65.0118C33.7208 64.674 33.1779 64.5051 32.5264 64.5051C31.8991 64.5051 31.3683 64.6667 30.934 64.9901C30.5045 65.3134 30.1787 65.7646 29.9568 66.3437C29.7348 66.9228 29.6238 67.5984 29.6238 68.3705ZM44.182 74.1541C43.0865 74.1541 42.1431 73.92 41.3517 73.4519C40.5651 72.979 39.9571 72.3155 39.5276 71.4613C39.1029 70.6024 38.8906 69.5962 38.8906 68.4429C38.8906 67.304 39.1029 66.3002 39.5276 65.4316C39.9571 64.563 40.5555 63.885 41.3227 63.3976C42.0949 62.9102 42.9973 62.6665 44.03 62.6665C44.6573 62.6665 45.2653 62.7702 45.8541 62.9778C46.4428 63.1853 46.9712 63.511 47.4393 63.955C47.9074 64.3989 48.2766 64.9756 48.5468 65.685C48.8171 66.3895 48.9522 67.2461 48.9522 68.2547V69.0219H40.1139V67.4005H46.8313C46.8313 66.8311 46.7155 66.3268 46.4838 65.8877C46.2522 65.4437 45.9265 65.0938 45.5066 64.8381C45.0916 64.5823 44.6042 64.4544 44.0444 64.4544C43.4364 64.4544 42.9056 64.604 42.452 64.9032C42.0032 65.1976 41.6557 65.5836 41.4096 66.0614C41.1683 66.5343 41.0477 67.0482 41.0477 67.6032V68.8699C41.0477 69.6131 41.178 70.2453 41.4386 70.7664C41.704 71.2876 42.0731 71.6857 42.5461 71.9608C43.019 72.231 43.5715 72.3662 44.2037 72.3662C44.6139 72.3662 44.9879 72.3083 45.3257 72.1924C45.6635 72.0718 45.9554 71.8932 46.2015 71.6568C46.4476 71.4203 46.6358 71.1284 46.7661 70.7809L48.8146 71.1501C48.6506 71.7533 48.3562 72.2817 47.9315 72.7353C47.5117 73.1841 46.9833 73.534 46.3463 73.7849C45.7141 74.031 44.9927 74.1541 44.182 74.1541ZM55.9461 62.8113V64.5485H49.663V62.8113H55.9461ZM51.3858 73.9297V61.5228C51.3858 60.8279 51.5378 60.2512 51.8418 59.7928C52.1458 59.3295 52.5488 58.9845 53.0507 58.7577C53.5525 58.526 54.0978 58.4102 54.6866 58.4102C55.1209 58.4102 55.4925 58.4464 55.8013 58.5188C56.1102 58.5864 56.3394 58.6491 56.489 58.707L55.9823 60.4587C55.8809 60.4298 55.7506 60.396 55.5914 60.3574C55.4321 60.314 55.2391 60.2922 55.0123 60.2922C54.4863 60.2922 54.1099 60.4225 53.8831 60.6831C53.6611 60.9437 53.5501 61.3201 53.5501 61.8123V73.9297H51.3858ZM61.7257 74.1541C60.6834 74.1541 59.7737 73.9152 58.9968 73.4375C58.2198 72.9597 57.6166 72.2914 57.1871 71.4324C56.7577 70.5734 56.5429 69.5697 56.5429 68.4211C56.5429 67.2678 56.7577 66.2592 57.1871 65.3954C57.6166 64.5316 58.2198 63.8609 58.9968 63.3831C59.7737 62.9054 60.6834 62.6665 61.7257 62.6665C62.7681 62.6665 63.6777 62.9054 64.4547 63.3831C65.2316 63.8609 65.8348 64.5316 66.2643 65.3954C66.6938 66.2592 66.9085 67.2678 66.9085 68.4211C66.9085 69.5697 66.6938 70.5734 66.2643 71.4324C65.8348 72.2914 65.2316 72.9597 64.4547 73.4375C63.6777 73.9152 62.7681 74.1541 61.7257 74.1541ZM61.733 72.3372C62.4086 72.3372 62.9683 72.1587 63.4123 71.8016C63.8563 71.4444 64.1844 70.9691 64.3967 70.3756C64.6139 69.782 64.7225 69.1281 64.7225 68.4139C64.7225 67.7045 64.6139 67.0531 64.3967 66.4595C64.1844 65.8611 63.8563 65.381 63.4123 65.019C62.9683 64.6571 62.4086 64.4761 61.733 64.4761C61.0525 64.4761 60.4879 64.6571 60.0391 65.019C59.5952 65.381 59.2646 65.8611 59.0475 66.4595C58.8351 67.0531 58.729 67.7045 58.729 68.4139C58.729 69.1281 58.8351 69.782 59.0475 70.3756C59.2646 70.9691 59.5952 71.4444 60.0391 71.8016C60.4879 72.1587 61.0525 72.3372 61.733 72.3372ZM68.6255 73.9297V62.8113H70.7175V64.5775H70.8333C71.036 63.9791 71.3931 63.5086 71.9046 63.166C72.4209 62.8185 73.0048 62.6448 73.6563 62.6448C73.7914 62.6448 73.9507 62.6496 74.1341 62.6593C74.3223 62.6689 74.4694 62.681 74.5756 62.6954V64.7657C74.4888 64.7415 74.3343 64.715 74.1123 64.6861C73.8904 64.6523 73.6684 64.6354 73.4464 64.6354C72.9349 64.6354 72.4788 64.744 72.0783 64.9611C71.6826 65.1734 71.3689 65.4702 71.1373 65.8515C70.9057 66.2279 70.7898 66.6574 70.7898 67.1399V73.9297H68.6255ZM80.1435 74.1541C79.0481 74.1541 78.1047 73.92 77.3132 73.4519C76.5267 72.979 75.9186 72.3155 75.4891 71.4613C75.0645 70.6024 74.8521 69.5962 74.8521 68.4429C74.8521 67.304 75.0645 66.3002 75.4891 65.4316C75.9186 64.563 76.517 63.885 77.2843 63.3976C78.0564 62.9102 78.9588 62.6665 79.9915 62.6665C80.6189 62.6665 81.2269 62.7702 81.8156 62.9778C82.4044 63.1853 82.9328 63.511 83.4009 63.955C83.869 64.3989 84.2381 64.9756 84.5084 65.685C84.7786 66.3895 84.9137 67.2461 84.9137 68.2547V69.0219H76.0755V67.4005H82.7928C82.7928 66.8311 82.677 66.3268 82.4454 65.8877C82.2137 65.4437 81.888 65.0938 81.4682 64.8381C81.0532 64.5823 80.5658 64.4544 80.006 64.4544C79.398 64.4544 78.8671 64.604 78.4135 64.9032C77.9647 65.1976 77.6173 65.5836 77.3712 66.0614C77.1299 66.5343 77.0092 67.0482 77.0092 67.6032V68.8699C77.0092 69.6131 77.1395 70.2453 77.4001 70.7664C77.6655 71.2876 78.0347 71.6857 78.5076 71.9608C78.9805 72.231 79.5331 72.3662 80.1652 72.3662C80.5754 72.3662 80.9494 72.3083 81.2872 72.1924C81.625 72.0718 81.917 71.8932 82.1631 71.6568C82.4092 71.4203 82.5974 71.1284 82.7277 70.7809L84.7762 71.1501C84.6121 71.7533 84.3178 72.2817 83.8931 72.7353C83.4733 73.1841 82.9448 73.534 82.3079 73.7849C81.6757 74.031 80.9542 74.1541 80.1435 74.1541ZM91.3119 78.0991V62.8113H93.4256V64.6137H93.6065C93.732 64.382 93.913 64.1142 94.1494 63.8102C94.3859 63.5062 94.714 63.2408 95.1339 63.0139C95.5537 62.7823 96.1087 62.6665 96.7987 62.6665C97.6963 62.6665 98.4974 62.8933 99.2019 63.3469C99.9065 63.8005 100.459 64.4544 100.86 65.3086C101.265 66.1627 101.468 67.1906 101.468 68.3922C101.468 69.5938 101.267 70.6241 100.867 71.4831C100.466 72.3372 99.9161 72.9959 99.2164 73.4592C98.5167 73.9176 97.718 74.1468 96.8205 74.1468C96.1449 74.1468 95.5923 74.0334 95.1628 73.8066C94.7382 73.5798 94.4052 73.3144 94.1639 73.0104C93.9226 72.7064 93.7368 72.4361 93.6065 72.1997H93.4762V78.0991H91.3119ZM93.4328 68.3705C93.4328 69.1522 93.5462 69.8375 93.773 70.4262C93.9998 71.015 94.328 71.4758 94.7575 71.8088C95.187 72.1369 95.713 72.301 96.3355 72.301C96.9821 72.301 97.5226 72.1297 97.9569 71.7871C98.3912 71.4396 98.7194 70.9691 98.9414 70.3756C99.1682 69.782 99.2816 69.1136 99.2816 68.3705C99.2816 67.637 99.1706 66.9783 98.9486 66.3944C98.7314 65.8104 98.4033 65.3496 97.9641 65.0118C97.5298 64.674 96.9869 64.5051 96.3355 64.5051C95.7081 64.5051 95.1773 64.6667 94.743 64.9901C94.3135 65.3134 93.9878 65.7646 93.7658 66.3437C93.5438 66.9228 93.4328 67.5984 93.4328 68.3705ZM106.429 74.1758C105.725 74.1758 105.088 74.0455 104.518 73.7849C103.949 73.5195 103.498 73.1359 103.165 72.634C102.837 72.1321 102.672 71.5168 102.672 70.7882C102.672 70.1608 102.793 69.6445 103.034 69.2391C103.276 68.8337 103.601 68.5128 104.012 68.2764C104.422 68.0399 104.88 67.8614 105.387 67.7407C105.894 67.6201 106.41 67.5284 106.936 67.4657C107.602 67.3884 108.142 67.3257 108.557 67.2775C108.972 67.2244 109.274 67.1399 109.462 67.0241C109.65 66.9083 109.745 66.7201 109.745 66.4595V66.4088C109.745 65.7767 109.566 65.2869 109.209 64.9394C108.857 64.5919 108.331 64.4182 107.631 64.4182C106.902 64.4182 106.328 64.5799 105.908 64.9032C105.493 65.2217 105.206 65.5764 105.047 65.9673L103.013 65.504C103.254 64.8284 103.606 64.2831 104.07 63.8681C104.538 63.4483 105.076 63.1442 105.684 62.956C106.292 62.763 106.931 62.6665 107.602 62.6665C108.046 62.6665 108.516 62.7196 109.013 62.8257C109.515 62.9271 109.983 63.1153 110.418 63.3903C110.857 63.6654 111.216 64.0587 111.496 64.5702C111.776 65.0769 111.916 65.7356 111.916 66.5464V73.9297H109.802V72.4096H109.716C109.576 72.6895 109.366 72.9645 109.086 73.2348C108.806 73.505 108.446 73.7294 108.007 73.908C107.568 74.0865 107.042 74.1758 106.429 74.1758ZM106.9 72.4385C107.498 72.4385 108.01 72.3203 108.434 72.0839C108.864 71.8474 109.19 71.5386 109.412 71.1573C109.638 70.7713 109.752 70.3587 109.752 69.9195V68.4863C109.675 68.5635 109.525 68.6359 109.303 68.7034C109.086 68.7662 108.837 68.8217 108.557 68.8699C108.278 68.9134 108.005 68.9544 107.739 68.993C107.474 69.0268 107.252 69.0557 107.074 69.0799C106.654 69.1329 106.27 69.2222 105.923 69.3477C105.58 69.4731 105.305 69.6541 105.097 69.8906C104.895 70.1222 104.793 70.4311 104.793 70.8171C104.793 71.3528 104.991 71.7581 105.387 72.0332C105.783 72.3034 106.287 72.4385 106.9 72.4385ZM115.07 78.0991C114.747 78.0991 114.452 78.0726 114.187 78.0195C113.921 77.9712 113.724 77.9181 113.593 77.8602L114.114 76.0868C114.51 76.1929 114.862 76.2388 115.171 76.2243C115.48 76.2098 115.753 76.094 115.989 75.8769C116.231 75.6597 116.443 75.305 116.626 74.8128L116.894 74.0745L112.826 62.8113H115.142L117.958 71.4396H118.074L120.89 62.8113H123.213L118.631 75.4136C118.419 75.9927 118.149 76.4825 117.821 76.883C117.492 77.2884 117.102 77.5924 116.648 77.7951C116.194 77.9978 115.668 78.0991 115.07 78.0991ZM124.548 73.9297V62.8113H126.626V64.6209H126.763C126.995 64.008 127.374 63.5303 127.9 63.1877C128.426 62.8402 129.056 62.6665 129.789 62.6665C130.532 62.6665 131.155 62.8402 131.657 63.1877C132.163 63.5351 132.537 64.0129 132.779 64.6209H132.895C133.16 64.0273 133.582 63.5544 134.161 63.2021C134.74 62.845 135.43 62.6665 136.232 62.6665C137.24 62.6665 138.063 62.9826 138.7 63.6147C139.342 64.2469 139.663 65.2 139.663 66.474V73.9297H137.498V66.6767C137.498 65.9238 137.293 65.3785 136.883 65.0407C136.473 64.7029 135.983 64.534 135.414 64.534C134.709 64.534 134.161 64.7512 133.77 65.1855C133.38 65.615 133.184 66.1675 133.184 66.8431V73.9297H131.027V66.5391C131.027 65.9359 130.839 65.4509 130.462 65.0842C130.086 64.7174 129.596 64.534 128.993 64.534C128.583 64.534 128.204 64.6426 127.857 64.8598C127.514 65.0721 127.236 65.3689 127.024 65.7501C126.817 66.1313 126.713 66.5729 126.713 67.0748V73.9297H124.548ZM146.657 74.1541C145.561 74.1541 144.618 73.92 143.826 73.4519C143.04 72.979 142.432 72.3155 142.002 71.4613C141.577 70.6024 141.365 69.5962 141.365 68.4429C141.365 67.304 141.577 66.3002 142.002 65.4316C142.432 64.563 143.03 63.885 143.797 63.3976C144.569 62.9102 145.472 62.6665 146.504 62.6665C147.132 62.6665 147.74 62.7702 148.329 62.9778C148.917 63.1853 149.446 63.511 149.914 63.955C150.382 64.3989 150.751 64.9756 151.021 65.685C151.292 66.3895 151.427 67.2461 151.427 68.2547V69.0219H142.588V67.4005H149.306C149.306 66.8311 149.19 66.3268 148.958 65.8877C148.727 65.4437 148.401 65.0938 147.981 64.8381C147.566 64.5823 147.079 64.4544 146.519 64.4544C145.911 64.4544 145.38 64.604 144.926 64.9032C144.478 65.1976 144.13 65.5836 143.884 66.0614C143.643 66.5343 143.522 67.0482 143.522 67.6032V68.8699C143.522 69.6131 143.653 70.2453 143.913 70.7664C144.179 71.2876 144.548 71.6857 145.021 71.9608C145.494 72.231 146.046 72.3662 146.678 72.3662C147.088 72.3662 147.462 72.3083 147.8 72.1924C148.138 72.0718 148.43 71.8932 148.676 71.6568C148.922 71.4203 149.11 71.1284 149.241 70.7809L151.289 71.1501C151.125 71.7533 150.831 72.2817 150.406 72.7353C149.986 73.1841 149.458 73.534 148.821 73.7849C148.189 74.031 147.467 74.1541 146.657 74.1541ZM155.294 67.3281V73.9297H153.129V62.8113H155.207V64.6209H155.344C155.6 64.0322 156.001 63.5592 156.546 63.2021C157.096 62.845 157.788 62.6665 158.623 62.6665C159.381 62.6665 160.044 62.8257 160.614 63.1442C161.183 63.4579 161.625 63.926 161.939 64.5485C162.252 65.171 162.409 65.9407 162.409 66.8576V73.9297H160.245V67.1182C160.245 66.3123 160.035 65.6826 159.615 65.2289C159.195 64.7705 158.618 64.5413 157.885 64.5413C157.383 64.5413 156.937 64.6499 156.546 64.867C156.16 65.0842 155.853 65.4027 155.627 65.8225C155.405 66.2375 155.294 66.7394 155.294 67.3281ZM169.803 62.8113V64.5485H163.73V62.8113H169.803ZM165.358 60.1475H167.523V70.6651C167.523 71.0849 167.585 71.401 167.711 71.6133C167.836 71.8209 167.998 71.9632 168.196 72.0404C168.399 72.1128 168.618 72.149 168.855 72.149C169.028 72.149 169.18 72.1369 169.311 72.1128C169.441 72.0887 169.542 72.0694 169.615 72.0549L170.006 73.8428C169.88 73.8911 169.702 73.9393 169.47 73.9876C169.238 74.0407 168.949 74.0696 168.601 74.0745C168.032 74.0841 167.501 73.9828 167.009 73.7704C166.517 73.5581 166.118 73.23 165.814 72.786C165.51 72.342 165.358 71.7847 165.358 71.1139V60.1475Z" fill="#344054"/>
</svg>
