<svg width="80" height="26" viewBox="0 0 80 26" fill="none" xmlns="http://www.w3.org/2000/svg">
<rect x="0.5" y="0.445312" width="79" height="25.1111" rx="12.5556" fill="#F3F3F7" fill-opacity="0.2"/>
<rect x="0.944444" y="0.889757" width="78.1111" height="24.2222" rx="12.1111" stroke="#F3F3F7" stroke-opacity="0.2" stroke-width="0.888889"/>
<g clip-path="url(#clip0_2245_1636)">
<path d="M17.0996 10.6457C16.9518 10.2238 16.8714 9.77028 16.8714 9.29796C16.8714 7.47661 18.0666 5.93441 19.7155 5.41286C19.2281 5.06092 18.6295 4.85352 17.9825 4.85352C16.3461 4.85352 15.0195 6.18008 15.0195 7.81647C15.0195 9.14538 15.8944 10.2699 17.0996 10.6457Z" fill="#F3F3F7"/>
<path d="M20.9473 6.33398C20.5633 6.33398 20.1946 6.40743 19.8557 6.54174C18.7608 6.97582 17.9844 8.04481 17.9844 9.29694C17.9844 9.56578 18.0204 9.82737 18.0882 10.0766C18.4306 11.3342 19.5799 12.2599 20.9473 12.2599C22.5837 12.2599 23.9103 10.9333 23.9103 9.29694C23.9103 7.66054 22.5837 6.33398 20.9473 6.33398Z" fill="#F3F3F7"/>
<path fill-rule="evenodd" clip-rule="evenodd" d="M11.3164 15.039C11.3164 13.9139 12.2284 13.002 13.3534 13.002C14.0402 13.002 14.6476 13.3418 15.0166 13.8626C17.0045 13.3626 18.6673 13.217 19.9683 13.301C21.3125 13.3877 22.3559 13.726 22.9322 14.262C23.1325 14.4483 23.2935 14.6769 23.3711 14.938C23.4981 14.8454 23.6213 14.7511 23.7392 14.6573C24.542 14.0195 25.7873 14.0532 26.4752 14.9142C26.9974 15.5677 27.0257 16.5317 26.431 17.1866C24.6263 19.1739 22.3393 20.5383 19.4335 20.3997C18.7514 20.3672 17.9381 20.16 17.3244 19.975C17.0112 19.8807 16.7379 19.7883 16.5427 19.7195C16.4519 19.6875 16.3776 19.6605 16.3238 19.6406H14.9476C14.5744 20.109 13.999 20.4094 13.3534 20.4094C12.2284 20.4094 11.3164 19.4973 11.3164 18.3723V15.039ZM15.3845 18.5295H16.4247C16.4932 18.5295 16.5611 18.5421 16.625 18.5668M16.625 18.5668L16.6286 18.5682L16.6424 18.5735C16.6548 18.5782 16.6736 18.5852 16.6983 18.5945C16.7478 18.6128 16.8206 18.6394 16.912 18.6716C17.0952 18.7362 17.3518 18.8228 17.6449 18.9112C18.2437 19.0915 18.9479 19.2642 19.4863 19.2898C21.9622 19.4079 23.9504 18.2653 25.6084 16.4397C25.8043 16.2239 25.8193 15.8733 25.6072 15.6078C25.3486 15.2841 24.8148 15.2219 24.4305 15.5273C23.7642 16.0567 22.824 16.7005 21.8848 16.9612C21.5703 17.0485 21.2579 17.1172 20.9683 17.1712C20.5379 17.2607 20.0547 17.3241 19.5216 17.3585L19.5076 17.3594L19.4959 17.3602L19.4946 17.3602L19.4924 17.3603L19.4913 17.3604C19.4913 17.3604 19.4906 17.3604 19.4599 16.8058L19.4913 17.3604C19.1857 17.3773 18.9233 17.144 18.9053 16.8385C18.8872 16.533 19.1198 16.2704 19.4252 16.2513C19.4344 16.2507 19.4436 16.2501 19.4528 16.2495L19.4719 16.2482C19.5023 16.2461 19.5479 16.2426 19.6066 16.2375C19.7242 16.2273 19.8939 16.2103 20.0983 16.1838C20.2919 16.1586 20.5146 16.1251 20.7522 16.0812C21.44 15.937 21.8826 15.7333 22.1214 15.5391C22.2964 15.3968 22.3093 15.3052 22.3102 15.2881C22.3109 15.2761 22.3119 15.2026 22.1754 15.0755C21.8799 14.8007 21.1506 14.4907 19.8967 14.4098C18.7527 14.3359 17.2405 14.458 15.3868 14.9154C15.3892 14.9562 15.3905 14.9975 15.3905 15.039V18.3723C15.3905 18.4252 15.3885 18.4776 15.3845 18.5295" fill="#F3F3F7"/>
</g>
<path d="M32.7714 19.5455V10.2121H33.779V11.2904H33.9027C33.9793 11.1726 34.0854 11.0223 34.2209 10.8396C34.3593 10.654 34.5567 10.4891 34.8131 10.3447C35.0723 10.1974 35.4229 10.1237 35.8648 10.1237C36.4364 10.1237 36.9402 10.2666 37.3762 10.5524C37.8122 10.8382 38.1525 11.2433 38.397 11.7677C38.6415 12.2921 38.7638 12.9108 38.7638 13.6237C38.7638 14.3426 38.6415 14.9657 38.397 15.4931C38.1525 16.0175 37.8137 16.424 37.3806 16.7128C36.9475 16.9985 36.4482 17.1414 35.8825 17.1414C35.4465 17.1414 35.0974 17.0692 34.8351 16.9249C34.5729 16.7776 34.3711 16.6111 34.2297 16.4255C34.0883 16.237 33.9793 16.0808 33.9027 15.9571H33.8143V19.5455H32.7714ZM33.7966 13.6061C33.7966 14.1187 33.8718 14.5709 34.022 14.9628C34.1723 15.3516 34.3918 15.6566 34.6805 15.8775C34.9692 16.0955 35.3227 16.2045 35.7411 16.2045C36.1771 16.2045 36.541 16.0896 36.8326 15.8598C37.1272 15.6271 37.3482 15.3148 37.4955 14.923C37.6458 14.5282 37.7209 14.0892 37.7209 13.6061C37.7209 13.1288 37.6472 12.6987 37.4999 12.3157C37.3556 11.9297 37.1361 11.6248 36.8415 11.4009C36.5498 11.174 36.183 11.0606 35.7411 11.0606C35.3168 11.0606 34.9604 11.1681 34.6716 11.3832C34.3829 11.5953 34.1649 11.8929 34.0176 12.2759C33.8703 12.6559 33.7966 13.0993 33.7966 13.6061ZM40.3547 17V10.2121H41.3623V11.2374H41.433C41.5567 10.9015 41.7806 10.629 42.1047 10.4198C42.4288 10.2106 42.7941 10.1061 43.2007 10.1061C43.2773 10.1061 43.373 10.1075 43.4879 10.1105C43.6028 10.1134 43.6897 10.1178 43.7487 10.1237V11.1843C43.7133 11.1755 43.6323 11.1622 43.5056 11.1446C43.3819 11.1239 43.2508 11.1136 43.1123 11.1136C42.7823 11.1136 42.4877 11.1829 42.2285 11.3213C41.9721 11.4569 41.7689 11.6454 41.6186 11.887C41.4713 12.1256 41.3976 12.3981 41.3976 12.7045V17H40.3547ZM47.6243 17.1414C46.9702 17.1414 46.4061 16.9971 45.9317 16.7083C45.4604 16.4167 45.0965 16.0101 44.8402 15.4886C44.5868 14.9642 44.4601 14.3544 44.4601 13.6591C44.4601 12.9638 44.5868 12.351 44.8402 11.8207C45.0965 11.2875 45.453 10.8721 45.9096 10.5745C46.3692 10.274 46.9054 10.1237 47.5182 10.1237C47.8718 10.1237 48.2209 10.1827 48.5656 10.3005C48.9103 10.4183 49.224 10.6098 49.5069 10.875C49.7897 11.1372 50.0151 11.4848 50.183 11.9179C50.3509 12.351 50.4349 12.8843 50.4349 13.5177V13.9596H45.2026V13.0581H49.3743C49.3743 12.6751 49.2977 12.3333 49.1445 12.0328C48.9942 11.7323 48.7792 11.4952 48.4993 11.3213C48.2224 11.1475 47.8953 11.0606 47.5182 11.0606C47.1028 11.0606 46.7434 11.1637 46.4399 11.3699C46.1394 11.5732 45.9082 11.8384 45.7461 12.1654C45.5841 12.4924 45.5031 12.843 45.5031 13.2172V13.8182C45.5031 14.3308 45.5915 14.7654 45.7682 15.1218C45.9479 15.4754 46.1969 15.7449 46.5151 15.9306C46.8333 16.1132 47.203 16.2045 47.6243 16.2045C47.8983 16.2045 48.1458 16.1662 48.3667 16.0896C48.5906 16.0101 48.7836 15.8923 48.9456 15.7361C49.1077 15.577 49.2329 15.3796 49.3213 15.1439L50.3288 15.4268C50.2228 15.7685 50.0445 16.069 49.7941 16.3283C49.5437 16.5846 49.2343 16.7849 48.8661 16.9293C48.4978 17.0707 48.0839 17.1414 47.6243 17.1414ZM54.9734 10.2121V11.096H51.4557V10.2121H54.9734ZM52.481 8.58586H53.5239V15.0556C53.5239 15.3502 53.5666 15.5711 53.6521 15.7184C53.7405 15.8628 53.8524 15.96 53.9879 16.0101C54.1264 16.0572 54.2722 16.0808 54.4254 16.0808C54.5403 16.0808 54.6346 16.0749 54.7083 16.0631C54.7819 16.0484 54.8408 16.0366 54.885 16.0278L55.0971 16.9646C55.0264 16.9912 54.9277 17.0177 54.8011 17.0442C54.6744 17.0737 54.5138 17.0884 54.3194 17.0884C54.0248 17.0884 53.736 17.025 53.4532 16.8984C53.1733 16.7717 52.9406 16.5787 52.755 16.3194C52.5723 16.0602 52.481 15.7332 52.481 15.3384V8.58586ZM52.5605 20.0051L53.0555 17.7159H54.1249L53.3737 20.0051H52.5605ZM60.82 14.2247V10.2121H61.8629V17H60.82V15.851H60.7493C60.5902 16.1957 60.3427 16.4888 60.0069 16.7304C59.671 16.9691 59.2468 17.0884 58.7341 17.0884C58.3099 17.0884 57.9328 16.9956 57.6028 16.81C57.2729 16.6214 57.0136 16.3386 56.825 15.9615C56.6365 15.5814 56.5422 15.1027 56.5422 14.5253V10.2121H57.5851V14.4545C57.5851 14.9495 57.7236 15.3443 58.0006 15.6389C58.2804 15.9335 58.6369 16.0808 59.07 16.0808C59.3293 16.0808 59.5929 16.0145 59.861 15.8819C60.1321 15.7494 60.3589 15.5461 60.5416 15.2721C60.7272 14.9981 60.82 14.649 60.82 14.2247ZM63.7731 17V10.2121H64.7807V11.2374H64.8514C64.9751 10.9015 65.199 10.629 65.5231 10.4198C65.8472 10.2106 66.2125 10.1061 66.6191 10.1061C66.6957 10.1061 66.7914 10.1075 66.9063 10.1105C67.0212 10.1134 67.1081 10.1178 67.1671 10.1237V11.1843C67.1317 11.1755 67.0507 11.1622 66.924 11.1446C66.8003 11.1239 66.6692 11.1136 66.5307 11.1136C66.2007 11.1136 65.9061 11.1829 65.6469 11.3213C65.3905 11.4569 65.1873 11.6454 65.037 11.887C64.8897 12.1256 64.816 12.3981 64.816 12.7045V17H63.7731ZM68.4033 17V10.2121H69.4463V17H68.4033ZM68.9336 9.08081C68.7303 9.08081 68.5551 9.01157 68.4077 8.87311C68.2634 8.73464 68.1912 8.56818 68.1912 8.37374C68.1912 8.17929 68.2634 8.01284 68.4077 7.87437C68.5551 7.7359 68.7303 7.66667 68.9336 7.66667C69.1369 7.66667 69.3107 7.7359 69.4551 7.87437C69.6024 8.01284 69.6761 8.17929 69.6761 8.37374C69.6761 8.56818 69.6024 8.73464 69.4551 8.87311C69.3107 9.01157 69.1369 9.08081 68.9336 9.08081Z" fill="#F3F3F7"/>
<defs>
<clipPath id="clip0_2245_1636">
<rect width="18.6667" height="17.7778" fill="white" transform="translate(9.39062 4.11133)"/>
</clipPath>
</defs>
</svg>
