<svg width="241" height="126" viewBox="0 0 241 126" fill="none" xmlns="http://www.w3.org/2000/svg">
<rect width="241" height="125.415" rx="57.1259" fill="#F3F3F7" fill-opacity="0.2"/>
<rect x="0.892593" y="0.892593" width="239.215" height="123.63" rx="56.2333" stroke="#F3F3F7" stroke-opacity="0.2" stroke-width="1.78519"/>
<rect x="8.92578" y="8.92578" width="223.148" height="107.563" rx="42.8444" fill="white"/>
<path d="M50.3219 52.207H44.4376V34.0306H50.5083C52.2893 34.0306 53.8187 34.3945 55.0968 35.1223C56.3748 35.8441 57.354 36.8825 58.0345 38.2374C58.7208 39.5865 59.064 41.2047 59.064 43.0922C59.064 44.9856 58.7179 46.6127 58.0256 47.9736C57.3392 49.3344 56.3452 50.3817 55.0435 51.1154C53.7418 51.8431 52.168 52.207 50.3219 52.207ZM47.1801 49.8107H50.171C51.5556 49.8107 52.7064 49.5504 53.6235 49.0297C54.5406 48.5031 55.2269 47.7428 55.6825 46.7488C56.1381 45.7488 56.3659 44.53 56.3659 43.0922C56.3659 41.6662 56.1381 40.4563 55.6825 39.4622C55.2329 38.4682 54.5613 37.7138 53.6679 37.199C52.7744 36.6843 51.665 36.4269 50.3397 36.4269H47.1801V49.8107ZM67.2798 52.4822C65.9367 52.4822 64.7799 52.1952 63.8096 51.6213C62.8451 51.0414 62.0996 50.2279 61.573 49.1806C61.0524 48.1274 60.792 46.8937 60.792 45.4796C60.792 44.0833 61.0524 42.8526 61.573 41.7875C62.0996 40.7225 62.8333 39.8912 63.7741 39.2936C64.7208 38.696 65.8272 38.3972 67.0934 38.3972C67.8626 38.3972 68.6081 38.5244 69.33 38.7788C70.0518 39.0333 70.6997 39.4326 71.2736 39.977C71.8476 40.5213 72.3002 41.2284 72.6315 42.0982C72.9629 42.962 73.1286 44.0123 73.1286 45.2489V46.1896H62.2919V44.2016H70.5281C70.5281 43.5034 70.3861 42.8851 70.1021 42.3467C69.8181 41.8023 69.4187 41.3734 68.904 41.0598C68.3951 40.7462 67.7975 40.5894 67.1112 40.5894C66.3656 40.5894 65.7148 40.7728 65.1586 41.1396C64.6084 41.5006 64.1823 41.9739 63.8806 42.5597C63.5847 43.1395 63.4368 43.7697 63.4368 44.4501V46.0033C63.4368 46.9144 63.5966 47.6895 63.9161 48.3286C64.2415 48.9676 64.6941 49.4557 65.274 49.793C65.8538 50.1243 66.5313 50.29 67.3064 50.29C67.8093 50.29 68.2679 50.219 68.6821 50.077C69.0963 49.9291 69.4542 49.7101 69.756 49.4202C70.0577 49.1303 70.2885 48.7723 70.4482 48.3463L72.9599 48.799C72.7588 49.5386 72.3978 50.1864 71.8771 50.7426C71.3624 51.2929 70.7145 51.7219 69.9335 52.0295C69.1584 52.3313 68.2738 52.4822 67.2798 52.4822ZM85.4314 41.9029L83.0262 42.3289C82.9256 42.0212 82.7659 41.7284 82.5469 41.4503C82.3339 41.1722 82.044 40.9444 81.6772 40.7669C81.3103 40.5894 80.8518 40.5006 80.3015 40.5006C79.5501 40.5006 78.9229 40.6693 78.42 41.0065C77.917 41.3379 77.6656 41.7668 77.6656 42.2934C77.6656 42.749 77.8342 43.1159 78.1715 43.3939C78.5087 43.672 79.0531 43.8998 79.8045 44.0773L81.9701 44.5743C83.2244 44.8643 84.1593 45.311 84.7746 45.9145C85.39 46.518 85.6976 47.302 85.6976 48.2664C85.6976 49.083 85.461 49.8107 84.9876 50.4497C84.5202 51.0828 83.8664 51.5798 83.0262 51.9408C82.1919 52.3017 81.2245 52.4822 80.124 52.4822C78.5975 52.4822 77.352 52.1567 76.3875 51.5059C75.4231 50.8491 74.8314 49.9172 74.6125 48.7102L77.1774 48.3197C77.3372 48.9883 77.6656 49.4942 78.1626 49.8373C78.6596 50.1746 79.3075 50.3432 80.1063 50.3432C80.976 50.3432 81.6713 50.1628 82.1919 49.8018C82.7126 49.435 82.973 48.9883 82.973 48.4617C82.973 48.0357 82.8132 47.6777 82.4937 47.3878C82.1801 47.0979 81.6979 46.8789 81.047 46.731L78.7395 46.2251C77.4674 45.9352 76.5266 45.4737 75.9172 44.8406C75.3136 44.2075 75.0119 43.4058 75.0119 42.4354C75.0119 41.6307 75.2367 40.9266 75.6864 40.3231C76.1361 39.7196 76.7573 39.2492 77.5502 38.912C78.3431 38.5688 79.2513 38.3972 80.2749 38.3972C81.7482 38.3972 82.9079 38.7167 83.754 39.3557C84.6001 39.9888 85.1592 40.8379 85.4314 41.9029ZM87.7585 52.207V38.5747H90.4122V52.207H87.7585ZM89.0986 36.4713C88.6371 36.4713 88.2407 36.3174 87.9094 36.0098C87.5839 35.6962 87.4212 35.3234 87.4212 34.8915C87.4212 34.4537 87.5839 34.0809 87.9094 33.7732C88.2407 33.4596 88.6371 33.3028 89.0986 33.3028C89.5601 33.3028 89.9536 33.4596 90.279 33.7732C90.6104 34.0809 90.7761 34.4537 90.7761 34.8915C90.7761 35.3234 90.6104 35.6962 90.279 36.0098C89.9536 36.3174 89.5601 36.4713 89.0986 36.4713ZM98.841 57.6032C97.7582 57.6032 96.8263 57.4612 96.0453 57.1771C95.2702 56.8931 94.6371 56.5174 94.146 56.05C93.6549 55.5826 93.288 55.0708 93.0455 54.5146L95.3264 53.5738C95.4861 53.8342 95.6991 54.1093 95.9654 54.3992C96.2376 54.695 96.6044 54.9465 97.0659 55.1536C97.5334 55.3607 98.1339 55.4642 98.8676 55.4642C99.8735 55.4642 100.705 55.2187 101.362 54.7276C102.018 54.2424 102.347 53.4673 102.347 52.4023V49.722H102.178C102.018 50.0119 101.788 50.3344 101.486 50.6894C101.19 51.0444 100.782 51.3521 100.261 51.6124C99.7403 51.8727 99.0628 52.0029 98.2286 52.0029C97.1517 52.0029 96.1814 51.7514 95.3175 51.2485C94.4596 50.7397 93.7791 49.9912 93.2762 49.0031C92.7792 48.0091 92.5307 46.7872 92.5307 45.3376C92.5307 43.888 92.7762 42.6455 93.2673 41.61C93.7643 40.5746 94.4448 39.7817 95.3086 39.2315C96.1725 38.6753 97.1517 38.3972 98.2463 38.3972C99.0924 38.3972 99.7758 38.5392 100.297 38.8232C100.817 39.1013 101.222 39.4267 101.512 39.7995C101.808 40.1722 102.036 40.5006 102.196 40.7846H102.391V38.5747H104.991V52.5088C104.991 53.6803 104.719 54.6418 104.175 55.3932C103.631 56.1447 102.894 56.7008 101.965 57.0618C101.042 57.4227 100.001 57.6032 98.841 57.6032ZM98.8143 49.8018C99.5776 49.8018 100.223 49.6243 100.749 49.2693C101.282 48.9084 101.684 48.3936 101.956 47.725C102.234 47.0505 102.373 46.2429 102.373 45.3021C102.373 44.385 102.237 43.5774 101.965 42.8792C101.693 42.181 101.293 41.6367 100.767 41.2461C100.24 40.8497 99.5894 40.6515 98.8143 40.6515C98.0156 40.6515 97.3499 40.8586 96.8174 41.2728C96.2849 41.681 95.8826 42.2372 95.6104 42.9413C95.3441 43.6454 95.211 44.4323 95.211 45.3021C95.211 46.1956 95.3471 46.9795 95.6193 47.654C95.8914 48.3286 96.2938 48.8552 96.8263 49.2338C97.3647 49.6125 98.0274 49.8018 98.8143 49.8018ZM110.347 44.1128V52.207H107.694V38.5747H110.241V40.7935H110.409C110.723 40.0717 111.214 39.4918 111.883 39.054C112.557 38.6161 113.406 38.3972 114.43 38.3972C115.359 38.3972 116.172 38.5925 116.871 38.983C117.569 39.3676 118.11 39.9415 118.495 40.7048C118.879 41.468 119.072 42.4118 119.072 43.536V52.207H116.418V43.8555C116.418 42.8674 116.161 42.0952 115.646 41.539C115.131 40.9769 114.424 40.6959 113.525 40.6959C112.909 40.6959 112.362 40.829 111.883 41.0953C111.409 41.3615 111.034 41.752 110.756 42.2668C110.483 42.7756 110.347 43.391 110.347 44.1128ZM133.247 57.6032C132.164 57.6032 131.232 57.4612 130.451 57.1771C129.676 56.8931 129.043 56.5174 128.552 56.05C128.061 55.5826 127.694 55.0708 127.451 54.5146L129.732 53.5738C129.892 53.8342 130.105 54.1093 130.371 54.3992C130.643 54.695 131.01 54.9465 131.472 55.1536C131.939 55.3607 132.54 55.4642 133.273 55.4642C134.279 55.4642 135.11 55.2187 135.767 54.7276C136.424 54.2424 136.752 53.4673 136.752 52.4023V49.722H136.584C136.424 50.0119 136.193 50.3344 135.891 50.6894C135.596 51.0444 135.187 51.3521 134.667 51.6124C134.146 51.8727 133.469 52.0029 132.634 52.0029C131.557 52.0029 130.587 51.7514 129.723 51.2485C128.865 50.7397 128.185 49.9912 127.682 49.0031C127.185 48.0091 126.936 46.7872 126.936 45.3376C126.936 43.888 127.182 42.6455 127.673 41.61C128.17 40.5746 128.85 39.7817 129.714 39.2315C130.578 38.6753 131.557 38.3972 132.652 38.3972C133.498 38.3972 134.182 38.5392 134.702 38.8232C135.223 39.1013 135.628 39.4267 135.918 39.7995C136.214 40.1722 136.442 40.5006 136.601 40.7846H136.797V38.5747H139.397V52.5088C139.397 53.6803 139.125 54.6418 138.581 55.3932C138.036 56.1447 137.3 56.7008 136.371 57.0618C135.448 57.4227 134.406 57.6032 133.247 57.6032ZM133.22 49.8018C133.983 49.8018 134.628 49.6243 135.155 49.2693C135.687 48.9084 136.09 48.3936 136.362 47.725C136.64 47.0505 136.779 46.2429 136.779 45.3021C136.779 44.385 136.643 43.5774 136.371 42.8792C136.099 42.181 135.699 41.6367 135.173 41.2461C134.646 40.8497 133.995 40.6515 133.22 40.6515C132.421 40.6515 131.756 40.8586 131.223 41.2728C130.691 41.681 130.288 42.2372 130.016 42.9413C129.75 43.6454 129.617 44.4323 129.617 45.3021C129.617 46.1956 129.753 46.9795 130.025 47.654C130.297 48.3286 130.699 48.8552 131.232 49.2338C131.77 49.6125 132.433 49.8018 133.22 49.8018ZM142.099 52.207V38.5747H144.664V40.7403H144.806C145.055 40.0066 145.493 39.4297 146.12 39.0096C146.753 38.5836 147.469 38.3706 148.268 38.3706C148.433 38.3706 148.628 38.3765 148.853 38.3883C149.084 38.4002 149.264 38.415 149.395 38.4327V40.971C149.288 40.9414 149.099 40.9089 148.827 40.8734C148.554 40.832 148.282 40.8113 148.01 40.8113C147.383 40.8113 146.824 40.9444 146.333 41.2106C145.848 41.471 145.463 41.8349 145.179 42.3023C144.895 42.7638 144.753 43.2904 144.753 43.8821V52.207H142.099ZM154.679 52.5088C153.816 52.5088 153.035 52.349 152.336 52.0295C151.638 51.7041 151.085 51.2337 150.677 50.6184C150.274 50.003 150.073 49.2486 150.073 48.3552C150.073 47.586 150.221 46.9529 150.517 46.4559C150.813 45.9589 151.212 45.5654 151.715 45.2755C152.218 44.9856 152.78 44.7666 153.401 44.6187C154.023 44.4708 154.656 44.3584 155.301 44.2815C156.117 44.1868 156.78 44.1099 157.289 44.0507C157.798 43.9856 158.167 43.8821 158.398 43.7401C158.629 43.5981 158.744 43.3673 158.744 43.0478V42.9857C158.744 42.2106 158.525 41.61 158.088 41.184C157.656 40.758 157.011 40.545 156.153 40.545C155.259 40.545 154.555 40.7432 154.04 41.1396C153.532 41.5302 153.18 41.965 152.984 42.4443L150.49 41.8763C150.786 41.0479 151.218 40.3793 151.786 39.8705C152.36 39.3557 153.02 38.983 153.765 38.7522C154.511 38.5155 155.295 38.3972 156.117 38.3972C156.662 38.3972 157.238 38.4623 157.848 38.5925C158.463 38.7167 159.037 38.9475 159.57 39.2847C160.108 39.622 160.549 40.1042 160.892 40.7314C161.235 41.3526 161.407 42.1603 161.407 43.1543V52.207H158.815V50.3432H158.709C158.537 50.6864 158.28 51.0237 157.937 51.355C157.593 51.6864 157.153 51.9615 156.614 52.1804C156.076 52.3993 155.431 52.5088 154.679 52.5088ZM155.256 50.3787C155.99 50.3787 156.617 50.2338 157.138 49.9439C157.664 49.6539 158.064 49.2753 158.336 48.8078C158.614 48.3345 158.753 47.8286 158.753 47.2902V45.5329C158.658 45.6275 158.475 45.7163 158.203 45.7991C157.937 45.876 157.632 45.9441 157.289 46.0033C156.946 46.0565 156.611 46.1068 156.286 46.1541C155.96 46.1956 155.688 46.2311 155.469 46.2606C154.955 46.3257 154.484 46.4352 154.058 46.589C153.638 46.7429 153.301 46.9647 153.046 47.2547C152.798 47.5387 152.674 47.9173 152.674 48.3907C152.674 49.0475 152.916 49.5445 153.401 49.8817C153.887 50.2131 154.505 50.3787 155.256 50.3787ZM170.448 38.5747V40.7048H163.002V38.5747H170.448ZM164.999 35.3086H167.652V48.2043C167.652 48.7191 167.729 49.1066 167.883 49.367C168.037 49.6214 168.235 49.7959 168.478 49.8906C168.726 49.9794 168.995 50.0237 169.285 50.0237C169.498 50.0237 169.685 50.0089 169.844 49.9794C170.004 49.9498 170.129 49.9261 170.217 49.9084L170.697 52.1005C170.543 52.1597 170.324 52.2189 170.04 52.278C169.756 52.3431 169.401 52.3786 168.975 52.3845C168.277 52.3964 167.626 52.2721 167.022 52.0118C166.419 51.7514 165.931 51.3491 165.558 50.8047C165.185 50.2604 164.999 49.577 164.999 48.7546V35.3086ZM181.162 46.5535V38.5747H183.825V52.207H181.215V49.8462H181.073C180.76 50.574 180.257 51.1805 179.565 51.6656C178.878 52.1449 178.023 52.3845 177 52.3845C176.124 52.3845 175.349 52.1922 174.674 51.8076C174.006 51.4171 173.479 50.8402 173.095 50.077C172.716 49.3137 172.527 48.37 172.527 47.2458V38.5747H175.18V46.9263C175.18 47.8552 175.438 48.5948 175.952 49.1451C176.467 49.6953 177.136 49.9705 177.958 49.9705C178.455 49.9705 178.949 49.8462 179.44 49.5977C179.937 49.3492 180.349 48.9735 180.674 48.4706C181.005 47.9676 181.168 47.3286 181.162 46.5535ZM186.533 52.207V38.5747H189.187V52.207H186.533ZM187.874 36.4713C187.412 36.4713 187.016 36.3174 186.684 36.0098C186.359 35.6962 186.196 35.3234 186.196 34.8915C186.196 34.4537 186.359 34.0809 186.684 33.7732C187.016 33.4596 187.412 33.3028 187.874 33.3028C188.335 33.3028 188.729 33.4596 189.054 33.7732C189.385 34.0809 189.551 34.4537 189.551 34.8915C189.551 35.3234 189.385 35.6962 189.054 36.0098C188.729 36.3174 188.335 36.4713 187.874 36.4713ZM198.264 38.5747V40.7048H190.818V38.5747H198.264ZM192.814 35.3086H195.468V48.2043C195.468 48.7191 195.545 49.1066 195.699 49.367C195.853 49.6214 196.051 49.7959 196.294 49.8906C196.542 49.9794 196.811 50.0237 197.101 50.0237C197.314 50.0237 197.501 50.0089 197.66 49.9794C197.82 49.9498 197.944 49.9261 198.033 49.9084L198.512 52.1005C198.359 52.1597 198.14 52.2189 197.856 52.278C197.572 52.3431 197.217 52.3786 196.791 52.3845C196.092 52.3964 195.442 52.2721 194.838 52.0118C194.235 51.7514 193.746 51.3491 193.374 50.8047C193.001 50.2604 192.814 49.577 192.814 48.7546V35.3086ZM37.0504 91.207V77.5747H39.704V91.207H37.0504ZM40.2099 75.9417L38.3905 73.5631L36.5622 75.9417H34.1659V75.8085L37.2811 72.0455H39.491L42.6151 75.8085V75.9417H40.2099ZM45.0709 83.1128V91.207H42.4172V77.5747H44.9644V79.7935H45.133C45.4466 79.0717 45.9377 78.4918 46.6063 78.054C47.2808 77.6161 48.1299 77.3972 49.1535 77.3972C50.0824 77.3972 50.896 77.5925 51.5942 77.983C52.2924 78.3676 52.8337 78.9415 53.2183 79.7048C53.6029 80.468 53.7952 81.4118 53.7952 82.536V91.207H51.1415V82.8555C51.1415 81.8674 50.8842 81.0952 50.3694 80.539C49.8546 79.9769 49.1476 79.6959 48.2482 79.6959C47.6329 79.6959 47.0856 79.829 46.6063 80.0953C46.133 80.3615 45.7572 80.752 45.4792 81.2668C45.207 81.7756 45.0709 82.391 45.0709 83.1128ZM60.4645 91.5088C59.6007 91.5088 58.8196 91.349 58.1215 91.0295C57.4233 90.7041 56.8701 90.2337 56.4618 89.6184C56.0595 89.003 55.8583 88.2486 55.8583 87.3552C55.8583 86.586 56.0062 85.9529 56.302 85.4559C56.5979 84.9589 56.9973 84.5654 57.5002 84.2755C58.0031 83.9856 58.5652 83.7666 59.1865 83.6187C59.8078 83.4708 60.4409 83.3584 61.0858 83.2815C61.9023 83.1868 62.565 83.1099 63.0738 83.0507C63.5827 82.9856 63.9525 82.8821 64.1832 82.7401C64.414 82.5981 64.5294 82.3673 64.5294 82.0478V81.9857C64.5294 81.2106 64.3104 80.61 63.8726 80.184C63.4407 79.758 62.7957 79.545 61.9378 79.545C61.0444 79.545 60.3403 79.7432 59.8255 80.1396C59.3167 80.5302 58.9646 80.965 58.7694 81.4443L56.2754 80.8763C56.5713 80.0479 57.0032 79.3793 57.5712 78.8705C58.1451 78.3557 58.8049 77.983 59.5504 77.7522C60.2959 77.5155 61.0799 77.3972 61.9023 77.3972C62.4467 77.3972 63.0235 77.4623 63.633 77.5925C64.2483 77.7167 64.8222 77.9475 65.3548 78.2847C65.8932 78.622 66.334 79.1042 66.6772 79.7314C67.0203 80.3526 67.1919 81.1603 67.1919 82.1543V91.207H64.6004V89.3432H64.4939C64.3223 89.6864 64.0649 90.0237 63.7217 90.355C63.3785 90.6864 62.9377 90.9615 62.3993 91.1804C61.8609 91.3993 61.216 91.5088 60.4645 91.5088ZM61.0414 89.3787C61.7751 89.3787 62.4023 89.2338 62.923 88.9439C63.4496 88.6539 63.8489 88.2753 64.1211 87.8078C64.3992 87.3345 64.5382 86.8286 64.5382 86.2902V84.5329C64.4436 84.6275 64.2602 84.7163 63.988 84.7991C63.7217 84.876 63.417 84.9441 63.0738 85.0033C62.7307 85.0565 62.3964 85.1068 62.0709 85.1541C61.7455 85.1956 61.4733 85.2311 61.2544 85.2606C60.7397 85.3257 60.2693 85.4352 59.8433 85.589C59.4232 85.7429 59.0859 85.9647 58.8315 86.2547C58.583 86.5387 58.4587 86.9173 58.4587 87.3907C58.4587 88.0475 58.7013 88.5445 59.1865 88.8817C59.6717 89.2131 60.29 89.3787 61.0414 89.3787ZM69.8696 91.207V77.5747H72.5233V91.207H69.8696ZM71.2098 75.4713C70.7482 75.4713 70.3518 75.3174 70.0205 75.0098C69.695 74.6962 69.5323 74.3234 69.5323 73.8915C69.5323 73.4537 69.695 73.0809 70.0205 72.7732C70.3518 72.4596 70.7482 72.3028 71.2098 72.3028C71.6713 72.3028 72.0647 72.4596 72.3902 72.7732C72.7215 73.0809 72.8872 73.4537 72.8872 73.8915C72.8872 74.3234 72.7215 74.6962 72.3902 75.0098C72.0647 75.3174 71.6713 75.4713 71.2098 75.4713ZM77.8901 83.1128V91.207H75.2364V77.5747H77.7836V79.7935H77.9523C78.2659 79.0717 78.7569 78.4918 79.4255 78.054C80.1001 77.6161 80.9491 77.3972 81.9727 77.3972C82.9017 77.3972 83.7152 77.5925 84.4134 77.983C85.1116 78.3676 85.653 78.9415 86.0376 79.7048C86.4222 80.468 86.6145 81.4118 86.6145 82.536V91.207H83.9608V82.8555C83.9608 81.8674 83.7034 81.0952 83.1886 80.539C82.6739 79.9769 81.9668 79.6959 81.0675 79.6959C80.4521 79.6959 79.9048 79.829 79.4255 80.0953C78.9522 80.3615 78.5765 80.752 78.2984 81.2668C78.0262 81.7756 77.8901 82.391 77.8901 83.1128ZM95.6801 77.5747V79.7048H88.2338V77.5747H95.6801ZM90.2307 74.3086H92.8844V87.2043C92.8844 87.7191 92.9613 88.1066 93.1151 88.367C93.269 88.6214 93.4672 88.7959 93.7098 88.8906C93.9583 88.9794 94.2275 89.0237 94.5174 89.0237C94.7304 89.0237 94.9168 89.0089 95.0766 88.9794C95.2363 88.9498 95.3606 88.9261 95.4493 88.9084L95.9286 91.1005C95.7747 91.1597 95.5558 91.2189 95.2718 91.278C94.9878 91.3431 94.6328 91.3786 94.2068 91.3845C93.5086 91.3964 92.8577 91.2721 92.2542 91.0118C91.6507 90.7514 91.1626 90.3491 90.7898 89.8047C90.4171 89.2604 90.2307 88.577 90.2307 87.7546V74.3086ZM103.488 91.4822C102.144 91.4822 100.988 91.1952 100.017 90.6213C99.053 90.0414 98.3074 89.2279 97.7808 88.1806C97.2602 87.1274 96.9998 85.8937 96.9998 84.4796C96.9998 83.0833 97.2602 81.8526 97.7808 80.7875C98.3074 79.7225 99.0411 78.8912 99.9819 78.2936C100.929 77.696 102.035 77.3972 103.301 77.3972C104.07 77.3972 104.816 77.5244 105.538 77.7788C106.26 78.0333 106.908 78.4326 107.481 78.977C108.055 79.5213 108.508 80.2284 108.839 81.0982C109.171 81.962 109.336 83.0123 109.336 84.2489V85.1896H98.4997V83.2016H106.736C106.736 82.5034 106.594 81.8851 106.31 81.3467C106.026 80.8023 105.627 80.3734 105.112 80.0598C104.603 79.7462 104.005 79.5894 103.319 79.5894C102.573 79.5894 101.923 79.7728 101.366 80.1396C100.816 80.5006 100.39 80.9739 100.088 81.5597C99.7926 82.1395 99.6446 82.7697 99.6446 83.4501V85.0033C99.6446 85.9144 99.8044 86.6895 100.124 87.3286C100.449 87.9676 100.902 88.4557 101.482 88.793C102.062 89.1243 102.739 89.29 103.514 89.29C104.017 89.29 104.476 89.219 104.89 89.077C105.304 88.9291 105.662 88.7101 105.964 88.4202C106.266 88.1303 106.496 87.7723 106.656 87.3463L109.168 87.799C108.967 88.5386 108.606 89.1864 108.085 89.7426C107.57 90.2929 106.922 90.7219 106.141 91.0295C105.366 91.3313 104.482 91.4822 103.488 91.4822ZM122.284 91.4733C121.184 91.4733 120.202 91.1922 119.338 90.6301C118.48 90.0621 117.805 89.2545 117.314 88.2072C116.829 87.154 116.587 85.8908 116.587 84.4175C116.587 82.9442 116.832 81.6839 117.323 80.6367C117.82 79.5894 118.501 78.7877 119.364 78.2315C120.228 77.6753 121.208 77.3972 122.302 77.3972C123.148 77.3972 123.829 77.5392 124.343 77.8232C124.864 78.1013 125.267 78.4267 125.551 78.7995C125.84 79.1722 126.065 79.5006 126.225 79.7846H126.385V73.0306H129.038V91.207H126.447V89.0859H126.225C126.065 89.3758 125.835 89.7071 125.533 90.0799C125.237 90.4526 124.829 90.7781 124.308 91.0562C123.787 91.3342 123.113 91.4733 122.284 91.4733ZM122.87 89.2101C123.633 89.2101 124.278 89.0089 124.805 88.6066C125.338 88.1983 125.74 87.6333 126.012 86.9114C126.29 86.1896 126.429 85.3494 126.429 84.3909C126.429 83.4442 126.293 82.6158 126.021 81.9058C125.749 81.1958 125.349 80.6426 124.823 80.2461C124.296 79.8497 123.645 79.6515 122.87 79.6515C122.071 79.6515 121.406 79.8586 120.873 80.2728C120.341 80.6869 119.938 81.252 119.666 81.9679C119.4 82.6839 119.267 83.4915 119.267 84.3909C119.267 85.3021 119.403 86.1215 119.675 86.8493C119.947 87.5771 120.35 88.154 120.882 88.58C121.421 89.0001 122.083 89.2101 122.87 89.2101ZM137.844 91.4822C136.501 91.4822 135.345 91.1952 134.374 90.6213C133.41 90.0414 132.664 89.2279 132.138 88.1806C131.617 87.1274 131.357 85.8937 131.357 84.4796C131.357 83.0833 131.617 81.8526 132.138 80.7875C132.664 79.7225 133.398 78.8912 134.339 78.2936C135.285 77.696 136.392 77.3972 137.658 77.3972C138.427 77.3972 139.173 77.5244 139.895 77.7788C140.616 78.0333 141.264 78.4326 141.838 78.977C142.412 79.5213 142.865 80.2284 143.196 81.0982C143.528 81.962 143.693 83.0123 143.693 84.2489V85.1896H132.857V83.2016H141.093C141.093 82.5034 140.951 81.8851 140.667 81.3467C140.383 80.8023 139.983 80.3734 139.469 80.0598C138.96 79.7462 138.362 79.5894 137.676 79.5894C136.93 79.5894 136.279 79.7728 135.723 80.1396C135.173 80.5006 134.747 80.9739 134.445 81.5597C134.149 82.1395 134.001 82.7697 134.001 83.4501V85.0033C134.001 85.9144 134.161 86.6895 134.481 87.3286C134.806 87.9676 135.259 88.4557 135.839 88.793C136.419 89.1243 137.096 89.29 137.871 89.29C138.374 89.29 138.833 89.219 139.247 89.077C139.661 88.9291 140.019 88.7101 140.321 88.4202C140.622 88.1303 140.853 87.7723 141.013 87.3463L143.525 87.799C143.323 88.5386 142.963 89.1864 142.442 89.7426C141.927 90.2929 141.279 90.7219 140.498 91.0295C139.723 91.3313 138.838 91.4822 137.844 91.4822ZM151.538 96.3192V77.5747H154.13V79.7846H154.351C154.505 79.5006 154.727 79.1722 155.017 78.7995C155.307 78.4267 155.709 78.1013 156.224 77.8232C156.739 77.5392 157.419 77.3972 158.265 77.3972C159.366 77.3972 160.348 77.6753 161.212 78.2315C162.076 78.7877 162.753 79.5894 163.244 80.6367C163.741 81.6839 163.99 82.9442 163.99 84.4175C163.99 85.8908 163.744 87.154 163.253 88.2072C162.762 89.2545 162.088 90.0621 161.23 90.6301C160.372 91.1922 159.393 91.4733 158.292 91.4733C157.464 91.4733 156.786 91.3342 156.26 91.0562C155.739 90.7781 155.331 90.4526 155.035 90.0799C154.739 89.7071 154.511 89.3758 154.351 89.0859H154.192V96.3192H151.538ZM154.138 84.3909C154.138 85.3494 154.278 86.1896 154.556 86.9114C154.834 87.6333 155.236 88.1983 155.763 88.6066C156.289 89.0089 156.934 89.2101 157.697 89.2101C158.49 89.2101 159.153 89.0001 159.685 88.58C160.218 88.154 160.62 87.5771 160.893 86.8493C161.171 86.1215 161.31 85.3021 161.31 84.3909C161.31 83.4915 161.174 82.6839 160.901 81.9679C160.635 81.252 160.233 80.6869 159.694 80.2728C159.162 79.8586 158.496 79.6515 157.697 79.6515C156.928 79.6515 156.277 79.8497 155.745 80.2461C155.218 80.6426 154.819 81.1958 154.547 81.9058C154.275 82.6158 154.138 83.4442 154.138 84.3909ZM168.76 73.0306V91.207H166.106V73.0306H168.76ZM175.44 91.5088C174.576 91.5088 173.795 91.349 173.097 91.0295C172.399 90.7041 171.846 90.2337 171.438 89.6184C171.035 89.003 170.834 88.2486 170.834 87.3552C170.834 86.586 170.982 85.9529 171.278 85.4559C171.574 84.9589 171.973 84.5654 172.476 84.2755C172.979 83.9856 173.541 83.7666 174.162 83.6187C174.784 83.4708 175.417 83.3584 176.062 83.2815C176.878 83.1868 177.541 83.1099 178.05 83.0507C178.559 82.9856 178.928 82.8821 179.159 82.7401C179.39 82.5981 179.505 82.3673 179.505 82.0478V81.9857C179.505 81.2106 179.286 80.61 178.848 80.184C178.417 79.758 177.772 79.545 176.914 79.545C176.02 79.545 175.316 79.7432 174.801 80.1396C174.292 80.5302 173.94 80.965 173.745 81.4443L171.251 80.8763C171.547 80.0479 171.979 79.3793 172.547 78.8705C173.121 78.3557 173.781 77.983 174.526 77.7522C175.272 77.5155 176.056 77.3972 176.878 77.3972C177.422 77.3972 177.999 77.4623 178.609 77.5925C179.224 77.7167 179.798 77.9475 180.331 78.2847C180.869 78.622 181.31 79.1042 181.653 79.7314C181.996 80.3526 182.168 81.1603 182.168 82.1543V91.207H179.576V89.3432H179.47C179.298 89.6864 179.041 90.0237 178.698 90.355C178.354 90.6864 177.914 90.9615 177.375 91.1804C176.837 91.3993 176.192 91.5088 175.44 91.5088ZM176.017 89.3787C176.751 89.3787 177.378 89.2338 177.899 88.9439C178.425 88.6539 178.825 88.2753 179.097 87.8078C179.375 87.3345 179.514 86.8286 179.514 86.2902V84.5329C179.419 84.6275 179.236 84.7163 178.964 84.7991C178.698 84.876 178.393 84.9441 178.05 85.0033C177.706 85.0565 177.372 85.1068 177.047 85.1541C176.721 85.1956 176.449 85.2311 176.23 85.2606C175.715 85.3257 175.245 85.4352 174.819 85.589C174.399 85.7429 174.062 85.9647 173.807 86.2547C173.559 86.5387 173.435 86.9173 173.435 87.3907C173.435 88.0475 173.677 88.5445 174.162 88.8817C174.647 89.2131 175.266 89.3787 176.017 89.3787ZM191.209 77.5747V79.7048H183.763V77.5747H191.209ZM185.76 74.3086H188.413V87.2043C188.413 87.7191 188.49 88.1066 188.644 88.367C188.798 88.6214 188.996 88.7959 189.239 88.8906C189.487 88.9794 189.756 89.0237 190.046 89.0237C190.259 89.0237 190.446 89.0089 190.605 88.9794C190.765 88.9498 190.889 88.9261 190.978 88.9084L191.457 91.1005C191.304 91.1597 191.085 91.2189 190.801 91.278C190.517 91.3431 190.162 91.3786 189.736 91.3845C189.037 91.3964 188.387 91.2721 187.783 91.0118C187.18 90.7514 186.691 90.3491 186.319 89.8047C185.946 89.2604 185.76 88.577 185.76 87.7546V74.3086ZM197.255 91.5088C196.391 91.5088 195.61 91.349 194.912 91.0295C194.214 90.7041 193.66 90.2337 193.252 89.6184C192.85 89.003 192.649 88.2486 192.649 87.3552C192.649 86.586 192.796 85.9529 193.092 85.4559C193.388 84.9589 193.788 84.5654 194.29 84.2755C194.793 83.9856 195.355 83.7666 195.977 83.6187C196.598 83.4708 197.231 83.3584 197.876 83.2815C198.693 83.1868 199.355 83.1099 199.864 83.0507C200.373 82.9856 200.743 82.8821 200.973 82.7401C201.204 82.5981 201.32 82.3673 201.32 82.0478V81.9857C201.32 81.2106 201.101 80.61 200.663 80.184C200.231 79.758 199.586 79.545 198.728 79.545C197.835 79.545 197.131 79.7432 196.616 80.1396C196.107 80.5302 195.755 80.965 195.56 81.4443L193.066 80.8763C193.362 80.0479 193.793 79.3793 194.361 78.8705C194.935 78.3557 195.595 77.983 196.341 77.7522C197.086 77.5155 197.87 77.3972 198.693 77.3972C199.237 77.3972 199.814 77.4623 200.423 77.5925C201.039 77.7167 201.612 77.9475 202.145 78.2847C202.683 78.622 203.124 79.1042 203.467 79.7314C203.811 80.3526 203.982 81.1603 203.982 82.1543V91.207H201.391V89.3432H201.284C201.113 89.6864 200.855 90.0237 200.512 90.355C200.169 90.6864 199.728 90.9615 199.19 91.1804C198.651 91.3993 198.006 91.5088 197.255 91.5088ZM197.832 89.3787C198.565 89.3787 199.193 89.2338 199.713 88.9439C200.24 88.6539 200.639 88.2753 200.911 87.8078C201.189 87.3345 201.328 86.8286 201.328 86.2902V84.5329C201.234 84.6275 201.05 84.7163 200.778 84.7991C200.512 84.876 200.207 84.9441 199.864 85.0033C199.521 85.0565 199.187 85.1068 198.861 85.1541C198.536 85.1956 198.264 85.2311 198.045 85.2606C197.53 85.3257 197.06 85.4352 196.634 85.589C196.213 85.7429 195.876 85.9647 195.622 86.2547C195.373 86.5387 195.249 86.9173 195.249 87.3907C195.249 88.0475 195.492 88.5445 195.977 88.8817C196.462 89.2131 197.08 89.3787 197.832 89.3787ZM200.574 72.9596H202.757C202.757 73.9595 202.402 74.7731 201.692 75.4003C200.988 76.0215 200.036 76.3322 198.835 76.3322C197.639 76.3322 196.69 76.0215 195.986 75.4003C195.282 74.7731 194.929 73.9595 194.929 72.9596H197.104C197.104 73.4034 197.234 73.7968 197.494 74.14C197.755 74.4773 198.201 74.6459 198.835 74.6459C199.456 74.6459 199.9 74.4773 200.166 74.14C200.438 73.8027 200.574 73.4093 200.574 72.9596Z" fill="#344054"/>
</svg>
