<svg width="263" height="122" viewBox="0 0 263 122" fill="none" xmlns="http://www.w3.org/2000/svg">
<g clip-path="url(#clip0_1679_23504)">
<path d="M209.833 8.28906H52.7175C23.8958 8.28906 0.53125 31.6655 0.53125 60.5018C0.53125 89.3381 23.8958 112.714 52.7175 112.714H209.833C238.655 112.714 262.019 89.3381 262.019 60.5018C262.019 31.6655 238.655 8.28906 209.833 8.28906Z" fill="url(#paint0_linear_1679_23504)"/>
<path fill-rule="evenodd" clip-rule="evenodd" d="M55.7255 101.965C77.9932 101.965 96.0448 83.2797 96.0448 60.2304C96.0448 37.1812 77.9932 18.4961 55.7255 18.4961C33.4578 18.4961 15.4062 37.1812 15.4062 60.2304C15.4062 83.2797 33.4578 101.965 55.7255 101.965Z" fill="white"/>
<path d="M62.06 59.9399L49.7209 52.8721C49.6176 52.8128 49.491 52.8135 49.3883 52.8738C49.2857 52.9342 49.2226 53.045 49.2227 53.1649V67.3006C49.2226 67.4205 49.2857 67.5313 49.3883 67.5916C49.491 67.6519 49.6176 67.6526 49.7209 67.5934L62.06 60.5256C62.1645 60.4658 62.2291 60.3539 62.2291 60.2327C62.2291 60.1115 62.1645 59.9997 62.06 59.9399Z" fill="#6A65FF"/>
<path d="M110.02 68.1172L105.837 53.2985H108.724L111.394 64.1882H111.532L114.383 53.2985H117.009L119.867 64.1954H119.998L122.668 53.2985H125.555L121.372 68.1172H118.724L115.758 57.7195H115.642L112.668 68.1172H110.02ZM129.364 68.3415C128.66 68.3415 128.026 68.2161 127.461 67.9652C126.902 67.7096 126.458 67.3333 126.13 66.8365C125.807 66.3396 125.645 65.727 125.645 64.9986C125.645 64.3715 125.761 63.853 125.992 63.4429C126.224 63.0329 126.54 62.7049 126.94 62.4589C127.341 62.2129 127.792 62.0272 128.293 61.9017C128.8 61.7715 129.323 61.6774 129.864 61.6195C130.515 61.552 131.043 61.4917 131.448 61.4386C131.853 61.3808 132.148 61.2939 132.331 61.1782C132.519 61.0576 132.613 60.8719 132.613 60.621V60.5776C132.613 60.0325 132.451 59.6104 132.128 59.3114C131.805 59.0123 131.34 58.8627 130.732 58.8627C130.09 58.8627 129.581 59.0026 129.205 59.2824C128.834 59.5622 128.583 59.8926 128.453 60.2737L126.007 59.9264C126.2 59.2511 126.518 58.6867 126.962 58.2332C127.406 57.775 127.948 57.4325 128.59 57.2058C129.232 56.9742 129.941 56.8585 130.717 56.8585C131.253 56.8585 131.786 56.9212 132.316 57.0466C132.847 57.172 133.332 57.3794 133.771 57.6689C134.21 57.9535 134.562 58.3418 134.827 58.8338C135.097 59.3258 135.232 59.9409 135.232 60.6789V68.1172H132.714V66.5905H132.628C132.468 66.8992 132.244 67.1886 131.955 67.4587C131.67 67.724 131.311 67.9387 130.877 68.1027C130.447 68.2619 129.943 68.3415 129.364 68.3415ZM130.044 66.4168C130.57 66.4168 131.026 66.3131 131.412 66.1057C131.798 65.8934 132.095 65.6136 132.302 65.2663C132.514 64.919 132.62 64.5403 132.62 64.1303V62.8207C132.538 62.8882 132.398 62.9509 132.201 63.0088C132.008 63.0667 131.791 63.1173 131.549 63.1607C131.308 63.2042 131.069 63.2427 130.833 63.2765C130.597 63.3103 130.392 63.3392 130.218 63.3633C129.827 63.4164 129.478 63.5032 129.169 63.6238C128.86 63.7444 128.617 63.9133 128.438 64.1303C128.26 64.3426 128.17 64.6175 128.17 64.9552C128.17 65.4376 128.346 65.8018 128.699 66.0478C129.051 66.2938 129.499 66.4168 130.044 66.4168ZM143.416 57.0032V59.0292H137.027V57.0032H143.416ZM138.604 54.3404H141.224V64.7743C141.224 65.1264 141.277 65.3966 141.383 65.5847C141.494 65.768 141.638 65.8934 141.817 65.961C141.995 66.0285 142.193 66.0623 142.41 66.0623C142.574 66.0623 142.724 66.0502 142.859 66.0261C142.999 66.002 143.105 65.9802 143.177 65.961L143.619 68.0087C143.479 68.0569 143.278 68.11 143.018 68.1678C142.762 68.2257 142.449 68.2595 142.077 68.2691C141.421 68.2884 140.83 68.1895 140.305 67.9725C139.779 67.7506 139.362 67.4081 139.053 66.945C138.749 66.4819 138.599 65.9031 138.604 65.2084V54.3404ZM150.335 68.3343C149.226 68.3343 148.273 68.0907 147.477 67.6035C146.686 67.1163 146.076 66.4433 145.646 65.5847C145.222 64.7212 145.01 63.7275 145.01 62.6036C145.01 61.4748 145.227 60.4787 145.661 59.6153C146.095 58.747 146.708 58.0716 147.499 57.5893C148.295 57.1021 149.235 56.8585 150.321 56.8585C151.223 56.8585 152.021 57.0249 152.716 57.3577C153.415 57.6857 153.972 58.1512 154.387 58.7542C154.802 59.3524 155.038 60.0518 155.096 60.8526H152.593C152.491 60.3171 152.25 59.8709 151.869 59.514C151.493 59.1522 150.989 58.9713 150.357 58.9713C149.821 58.9713 149.351 59.116 148.946 59.4054C148.541 59.69 148.225 60.1 147.998 60.6355C147.776 61.1709 147.665 61.8125 147.665 62.5602C147.665 63.3175 147.776 63.9687 147.998 64.5138C148.22 65.0541 148.531 65.4713 148.931 65.7656C149.337 66.055 149.812 66.1997 150.357 66.1997C150.743 66.1997 151.088 66.1274 151.391 65.9827C151.7 65.8331 151.958 65.6185 152.166 65.3387C152.373 65.0589 152.515 64.7188 152.593 64.3185H155.096C155.033 65.1047 154.802 65.8018 154.402 66.4096C154.001 67.0125 153.456 67.4853 152.766 67.8278C152.076 68.1654 151.266 68.3343 150.335 68.3343ZM159.866 61.6051V68.1172H157.247V53.2985H159.808V58.8917H159.939C160.199 58.2646 160.602 57.7702 161.147 57.4084C161.697 57.0418 162.396 56.8585 163.245 56.8585C164.017 56.8585 164.69 57.0201 165.264 57.3433C165.838 57.6664 166.282 58.1392 166.595 58.7614C166.914 59.3837 167.073 60.1435 167.073 61.0407V68.1172H164.454V61.4459C164.454 60.6982 164.261 60.1169 163.875 59.7021C163.494 59.2824 162.958 59.0726 162.269 59.0726C161.805 59.0726 161.391 59.1739 161.024 59.3765C160.662 59.5743 160.378 59.8613 160.17 60.2375C159.968 60.6138 159.866 61.0696 159.866 61.6051ZM184.724 57.0032L180.767 68.1172H177.872L173.914 57.0032H176.707L179.262 65.2591H179.377L181.939 57.0032H184.724ZM186.537 68.1172V57.0032H189.156V68.1172H186.537ZM187.854 55.4258C187.439 55.4258 187.082 55.2883 186.783 55.0134C186.484 54.7336 186.334 54.3983 186.334 54.0076C186.334 53.612 186.484 53.2768 186.783 53.0018C187.082 52.7221 187.439 52.5822 187.854 52.5822C188.274 52.5822 188.631 52.7221 188.925 53.0018C189.224 53.2768 189.373 53.612 189.373 54.0076C189.373 54.3983 189.224 54.7336 188.925 55.0134C188.631 55.2883 188.274 55.4258 187.854 55.4258ZM195.974 68.3126C195.101 68.3126 194.32 68.0882 193.63 67.6396C192.94 67.191 192.395 66.5398 191.995 65.686C191.594 64.8322 191.394 63.7951 191.394 62.5747C191.394 61.3398 191.597 60.2978 192.002 59.4488C192.412 58.595 192.964 57.951 193.659 57.5169C194.353 57.0779 195.128 56.8585 195.981 56.8585C196.633 56.8585 197.168 56.9694 197.588 57.1913C198.007 57.4084 198.34 57.6713 198.586 57.98C198.832 58.2839 199.023 58.5709 199.158 58.841H199.266V53.2985H201.893V68.1172H199.317V66.3662H199.158C199.023 66.6363 198.827 66.9233 198.572 67.2272C198.316 67.5263 197.978 67.7819 197.559 67.9942C197.139 68.2064 196.611 68.3126 195.974 68.3126ZM196.705 66.1636C197.26 66.1636 197.732 66.014 198.123 65.7149C198.514 65.411 198.811 64.989 199.013 64.4487C199.216 63.9084 199.317 63.2789 199.317 62.5602C199.317 61.8414 199.216 61.2168 199.013 60.6861C198.815 60.1555 198.521 59.7431 198.13 59.4488C197.744 59.1546 197.269 59.0075 196.705 59.0075C196.121 59.0075 195.634 59.1594 195.243 59.4633C194.853 59.7672 194.558 60.1869 194.361 60.7223C194.163 61.2578 194.064 61.8704 194.064 62.5602C194.064 63.2548 194.163 63.8747 194.361 64.4198C194.563 64.96 194.86 65.3869 195.251 65.7005C195.646 66.0092 196.131 66.1636 196.705 66.1636ZM209.604 68.3343C208.49 68.3343 207.528 68.1027 206.717 67.6396C205.912 67.1717 205.292 66.5109 204.858 65.6571C204.424 64.7984 204.207 63.7878 204.207 62.6253C204.207 61.4821 204.424 60.4787 204.858 59.6153C205.297 58.747 205.909 58.0716 206.696 57.5893C207.482 57.1021 208.406 56.8585 209.467 56.8585C210.152 56.8585 210.798 56.9694 211.406 57.1913C212.019 57.4084 212.559 57.746 213.027 58.2043C213.5 58.6626 213.871 59.2462 214.141 59.9553C214.411 60.6596 214.546 61.4989 214.546 62.4734V63.2765H205.437V61.511H212.036C212.031 61.0093 211.922 60.5631 211.71 60.1724C211.498 59.7769 211.201 59.4657 210.82 59.239C210.444 59.0123 210.005 58.8989 209.503 58.8989C208.968 58.8989 208.497 59.0292 208.092 59.2897C207.687 59.5453 207.371 59.883 207.144 60.3026C206.922 60.7175 206.809 61.1733 206.804 61.6702V63.2114C206.804 63.8578 206.922 64.4125 207.159 64.8756C207.395 65.3339 207.726 65.686 208.15 65.932C208.575 66.1732 209.071 66.2938 209.641 66.2938C210.022 66.2938 210.367 66.2407 210.675 66.1346C210.984 66.0237 211.252 65.8621 211.478 65.6498C211.705 65.4376 211.876 65.1747 211.992 64.8611L214.438 65.1361C214.283 65.7825 213.989 66.3469 213.555 66.8292C213.126 67.3068 212.576 67.6782 211.905 67.9435C211.235 68.204 210.468 68.3343 209.604 68.3343ZM221.61 68.3343C220.525 68.3343 219.584 68.0955 218.788 67.6179C217.992 67.1404 217.375 66.4723 216.936 65.6136C216.502 64.755 216.285 63.7517 216.285 62.6036C216.285 61.4555 216.502 60.4498 216.936 59.5863C217.375 58.7229 217.992 58.0523 218.788 57.5748C219.584 57.0972 220.525 56.8585 221.61 56.8585C222.696 56.8585 223.636 57.0972 224.432 57.5748C225.228 58.0523 225.843 58.7229 226.277 59.5863C226.716 60.4498 226.936 61.4555 226.936 62.6036C226.936 63.7517 226.716 64.755 226.277 65.6136C225.843 66.4723 225.228 67.1404 224.432 67.6179C223.636 68.0955 222.696 68.3343 221.61 68.3343ZM221.625 66.2359C222.213 66.2359 222.705 66.0743 223.101 65.7511C223.496 65.4231 223.791 64.9841 223.983 64.4342C224.181 63.8843 224.28 63.2717 224.28 62.5964C224.28 61.9162 224.181 61.3012 223.983 60.7513C223.791 60.1965 223.496 59.7551 223.101 59.4271C222.705 59.0991 222.213 58.9351 221.625 58.9351C221.022 58.9351 220.52 59.0991 220.12 59.4271C219.724 59.7551 219.427 60.1965 219.23 60.7513C219.037 61.3012 218.94 61.9162 218.94 62.5964C218.94 63.2717 219.037 63.8843 219.23 64.4342C219.427 64.9841 219.724 65.4231 220.12 65.7511C220.52 66.0743 221.022 66.2359 221.625 66.2359Z" fill="white"/>
</g>
<defs>
<linearGradient id="paint0_linear_1679_23504" x1="0.53125" y1="100.532" x2="264.794" y2="90.426" gradientUnits="userSpaceOnUse">
<stop stop-color="#836FFF"/>
<stop offset="1" stop-color="#4A5DE5"/>
</linearGradient>
<clipPath id="clip0_1679_23504">
<rect width="261.488" height="120.556" fill="white" transform="translate(0.53125 0.648438)"/>
</clipPath>
</defs>
</svg>
